<?xml version="1.0" encoding="UTF-8" standalone="no"?>
<!DOCTYPE svg PUBLIC "-//W3C//DTD SVG 1.1//EN" "http://www.w3.org/Graphics/SVG/1.1/DTD/svg11.dtd">
<svg width="100%" height="100%" viewBox="0 0 1080 1080" version="1.1" xmlns="http://www.w3.org/2000/svg" xmlns:xlink="http://www.w3.org/1999/xlink" xml:space="preserve" xmlns:serif="http://www.serif.com/" style="fill-rule:evenodd;clip-rule:evenodd;">
    <rect id="Artboard1" x="0" y="0" width="1080" height="1080" style="fill:none;"/>
    <g id="Artboard11" serif:id="Artboard1">
        <g>
            <g>
                <path d="M862.145,499.133c-4.403,-6.587 -8.263,-11.592 -11.582,-15.015c-3.341,-3.448 -5.751,-6.067 -7.223,-7.858c-0.312,-0.368 -0.387,-0.894 -0.194,-1.344l2.731,-6.441" style="fill:none;fill-rule:nonzero;stroke:#9e876d;stroke-width:2.47px;"/>
                <g>
                    <path d="M845.881,468.475c13.901,-31.133 20.093,-67.78 18.43,-101.739c-2.841,-58.177 -20.857,-114.961 -49.241,-164.827c-0.129,-0.208 -0.086,-0.486 0.096,-0.653c14.504,-13.408 25.382,-29.414 32.634,-48.019c9.591,-24.599 14.03,-50.1 13.317,-76.507c-0.242,-8.75 -0.316,-16.583 -4.418,-22.962c-7.272,-11.298 -22.011,-14.148 -31.056,-3.465c-6.717,7.943 -12.471,14.224 -17.263,18.844c-21.723,20.949 -46.785,35.111 -75.184,42.484c-5.327,1.389 -10.964,2.67 -16.912,3.842c-2.493,0.493 -4.262,0.455 -5.305,-0.114c-19.83,-10.829 -40.432,-19.462 -61.807,-25.899c-41.847,-12.591 -85.879,-18.593 -129.379,-15.981c-52.227,3.139 -103.52,17.776 -150.975,41.717c-1.426,0.712 -3.012,0.863 -4.76,0.453c-11.983,-2.813 -25.386,-5.813 -37.028,-10.358c-24.523,-9.574 -45.449,-24.029 -62.778,-43.363c-1.399,-1.565 -4.904,-5.683 -10.513,-12.353c-3.488,-4.143 -7.948,-6.109 -13.378,-5.901c-14.167,0.541 -19.4,11.174 -20.335,24.281c-1.854,25.978 0.951,50.831 8.413,74.56c7.175,22.824 18.902,42.269 35.778,58.504c0.564,0.539 0.686,1.421 0.291,2.096c-15.565,26.653 -27.426,56.481 -35.741,85.833c-17.083,60.287 -18.575,127.188 7.551,185.089c0.344,0.769 0.194,1.684 -0.377,2.298c-22.767,24.43 -40.038,52.708 -51.814,84.829c-8.054,21.953 -13.521,43.459 -16.402,64.517c-5.293,38.659 -1.724,76.515 10.707,113.567c3.579,10.68 6.953,19.827 10.125,27.444c9.834,23.627 22.237,45.04 37.211,64.24c11.922,15.275 26.943,31.29 45.064,48.046c21.682,20.048 47.251,38.855 73.559,55.277c0.37,0.231 0.595,0.646 0.595,1.095c-0,0.302 -0.104,0.595 -0.292,0.825c-12.561,15.35 -18.008,32.896 -16.34,52.641c0.785,9.307 3.407,17.839 7.865,25.597c7.43,12.931 17.654,21.544 32.792,20.703c7.68,-0.426 14.803,-2.892 21.367,-7.395c0.683,-0.464 1.596,-0.386 2.209,0.189c4.54,4.294 8.694,7.897 14.63,8.349c10.279,0.769 19.573,-2.255 27.886,-9.077c0.617,-0.512 1.492,-0.537 2.136,-0.063c14.071,10.257 30.533,11.424 45.417,2.775c15.394,-8.952 24.572,-24.381 28.469,-41.931c0.114,-0.535 0.576,-0.919 1.106,-0.917l56.658,-0c0.406,0.001 0.765,0.285 0.874,0.69c1.053,4.009 1.821,6.841 2.306,8.499c4.039,13.719 11.298,24.139 21.78,31.259c15.588,10.585 33.386,11.225 49.483,1.169c0.579,-0.364 1.314,-0.324 1.846,0.1c5.989,4.763 12.772,7.286 20.348,7.571c8.497,0.326 14.47,-2.272 20.528,-8.387c0.547,-0.55 1.392,-0.64 2.028,-0.214c12.358,8.249 29.344,10.76 42.212,2.912c13.282,-8.097 21.608,-28.497 22.484,-44.013c0.559,-9.994 -0.409,-18.511 -2.902,-25.549c-3.165,-8.93 -7.623,-17.366 -13.379,-25.309c-0.011,-0.015 -0.02,-0.031 -0.031,-0.047c-0.376,-0.585 -0.224,-1.384 0.336,-1.768c0.016,-0.011 0.031,-0.021 0.048,-0.03c33.79,-21.21 64.824,-46.122 93.104,-74.737c18.695,-18.932 36.068,-41.58 48.439,-65.081c10.238,-19.459 18.664,-39.915 25.276,-61.367c10.53,-34.156 13.484,-69.11 8.863,-104.865c-4.695,-36.241 -15.828,-70.476 -33.398,-102.708c-5.091,-9.349 -10.753,-18.028 -16.985,-26.038" style="fill:none;fill-rule:nonzero;stroke:#bda472;stroke-width:2.47px;"/>
                    <path d="M738.881,148.755c-11.881,1.756 -20.173,2.708 -24.876,2.85c-6.07,0.183 -11.779,-0.988 -17.13,-3.515c-7.769,-3.68 -18.477,-10.119 -27.437,-14.075c-27.914,-12.319 -57.022,-20.585 -87.324,-24.794c-9.494,-1.313 -17.126,-2.109 -22.898,-2.386c-13.633,-0.653 -30.398,-1.053 -46.097,0.565c-5.267,0.544 -9.071,0.963 -11.411,1.256c-17.296,2.176 -34.571,5.762 -51.826,10.758c-5.099,1.473 -8.83,2.943 -11.194,4.407" style="fill:none;fill-rule:nonzero;stroke:#643c05;stroke-width:2.47px;"/>
                    <path d="M519.952,305.131l4.346,20.552c0.299,1.406 1.491,2.431 2.879,2.473c7.098,0.2 15.453,0.171 25.069,-0.088c1.571,-0.043 2.816,-0.28 3.739,-0.715c0.378,-0.181 0.645,-0.55 0.704,-0.98c0.778,-5.532 2.597,-14.401 5.464,-26.602c13.378,-56.872 57.714,-100.435 113.887,-109.524c16.77,-2.712 33.414,-2.504 49.934,0.628" style="fill:none;fill-rule:nonzero;stroke:#bd8e26;stroke-width:2.47px;"/>
                    <path d="M438.685,123.821c36.899,-12.369 74.14,-17.889 111.728,-16.559c40.216,1.424 79.247,10.307 117.093,26.653c10.149,4.381 19.339,9.855 29.72,15.078c4.07,2.042 8.354,3.13 12.855,3.263c9.276,0.277 18.874,-0.89 28.797,-3.501" style="fill:none;fill-rule:nonzero;stroke:#9d7121;stroke-width:2.47px;"/>
                    <path d="M710.432,223c-32.107,-1.991 -59.495,7.683 -82.165,29.025c-7.259,6.84 -14.333,16.05 -21.222,27.634" style="fill:none;fill-rule:nonzero;stroke:#bd8e26;stroke-width:2.47px;"/>
                    <path d="M607.047,279.659c-7.406,10.913 -12.48,22.806 -15.225,35.679c-2.305,10.855 -2.986,22.146 -2.038,33.872c0.882,11.006 3.576,21.941 8.084,32.805c3.174,7.65 6.646,14.608 10.417,20.876c4.024,6.687 8.706,12.731 14.047,18.129c20.428,20.632 44.975,31.939 73.642,33.923c19.295,1.339 37.336,-2.126 54.122,-10.396c15.953,-7.851 29.431,-18.4 40.44,-31.649c11.467,-13.801 19.31,-29.93 23.527,-48.385c2.25,-9.817 3.342,-18.162 3.278,-25.032c-0.244,-27.27 -8.818,-51.445 -25.726,-72.527c-19.363,-24.155 -47.14,-40.776 -77.613,-44.631c-1.827,-0.226 -3.447,-0.247 -4.856,-0.063c-0.178,0.025 -0.278,0.108 -0.304,0.251c-0.001,0.01 -0.001,0.018 -0.001,0.026c0,0.069 0.054,0.125 0.121,0.125l0.016,0c0.533,-0.033 1.019,0.08 1.455,0.338" style="fill:none;fill-rule:nonzero;stroke:#643c05;stroke-width:2.47px;"/>
                    <path d="M607.047,279.659c-6.903,12.044 -11.679,24.828 -14.325,38.353c-1.053,5.364 -1.648,10.688 -1.786,15.969c-0.303,11.086 -0.096,21.418 3.024,32.917c2.532,9.324 5.71,17.875 9.531,25.65c21.196,43.173 67.086,66.197 112.758,60.975c23.155,-2.653 44.234,-12.68 63.239,-30.079c18.659,-17.086 30.047,-38.894 34.806,-64.493c5.269,-28.36 -0.583,-58.202 -15.904,-81.364c-19.668,-29.778 -52.24,-52.189 -87.957,-54.587" style="fill:none;fill-rule:nonzero;stroke:#9d7121;stroke-width:2.47px;"/>
                    <path d="M823.233,425.866c-5.081,6.269 -8.453,10.266 -10.112,11.989c-3.415,3.566 -8.566,8.371 -15.454,14.413c-6.257,5.483 -11.797,9.788 -16.621,12.918c-10.578,6.864 -21.426,12.203 -32.547,16.02c-10.959,3.75 -22.399,6.03 -34.32,6.841c-11.673,0.796 -23.346,0.341 -35.026,-1.367c-14.292,-2.101 -28.201,-6.705 -41.726,-13.81c-8.441,-4.428 -13.847,-7.495 -16.219,-9.204c-5.576,-4.016 -11.303,-7.758 -17.18,-11.223" style="fill:none;fill-rule:nonzero;stroke:#643c05;stroke-width:2.47px;"/>
                    <path d="M290.164,830.929c0.486,3.031 1.157,5.319 2.015,6.868c2.849,5.114 6.301,10.135 10.356,15.065c8.944,10.863 18.554,20.304 28.833,28.322c12.104,9.453 25.179,16.885 37.986,23.528c2.647,1.371 5.88,1.878 9.701,1.518c11.081,-1.063 24.37,-1.649 39.868,-1.757c17.495,-0.113 32.658,2.887 47.749,9.604c16.959,7.557 29.512,20.326 39.285,36.847c0.612,1.029 1.698,1.663 2.866,1.67c23.066,0.151 43.461,0.122 61.186,-0.088c2.185,-0.026 4.481,-0.012 5.804,-1.796c3.4,-4.533 6.615,-10.583 9.846,-14.575c13.049,-16.221 31.638,-26.138 51.595,-29.867c7.932,-1.473 14.904,-2.202 20.918,-2.184c7.948,0.033 21.905,0.715 41.872,2.046c3.684,0.243 7.568,-0.611 11.655,-2.562c9.193,-4.401 18.3,-9.784 27.315,-16.144c19.716,-13.923 35.984,-29.327 48.586,-49.79" style="fill:none;fill-rule:nonzero;stroke:#bd8e26;stroke-width:2.47px;"/>
                    <path d="M604.027,452.443c5.659,4.235 11.401,8.266 17.228,12.09c31.824,20.899 66.379,28.591 103.666,23.075c24.977,-3.698 47.371,-13.616 67.184,-29.753c7.293,-5.943 14.127,-12.056 20.505,-18.343c4.33,-4.268 7.871,-8.817 10.622,-13.646" style="fill:none;fill-rule:nonzero;stroke:#9d7121;stroke-width:2.47px;"/>
                    <path d="M663.044,935.896c-13.849,-0.293 -26.127,2.457 -36.834,8.249c-13.525,7.306 -21.243,19.488 -23.152,36.546c-1.231,10.997 3.38,18.655 13.828,22.973c1.246,0.511 3.792,0.557 7.637,0.139c0.418,-0.039 0.793,-0.282 1.006,-0.653c2.926,-4.934 2.697,-11.826 7.625,-15.856c5.731,-4.708 13.974,-7.381 19.837,-1.52c0.857,0.855 1.995,3.286 3.412,7.295c1.76,4.958 4.916,12.604 11.509,10.52c1.221,-0.385 2.156,-1.189 2.804,-2.411c3.109,-5.95 4.965,-10.733 10.064,-13.056c4.832,-2.198 12.02,0.339 15.698,3.867c3.626,3.474 6.207,5.813 7.745,7.018c3.91,3.063 7.466,6.327 11.036,2.109c4.954,-5.859 7.425,-13.412 7.417,-22.661" style="fill:none;fill-rule:nonzero;stroke:#bd8e26;stroke-width:2.47px;"/>
                    <path d="M722.67,978.452c-2.21,-9.08 -6.236,-17.24 -12.081,-24.48c-0.257,-0.317 -0.543,-0.603 -0.849,-0.855c-6.305,-5.121 -13.023,-9.083 -20.152,-11.888c-8.507,-3.347 -17.357,-5.126 -26.551,-5.336" style="fill:none;fill-rule:nonzero;stroke:#643c05;stroke-width:2.47px;"/>
                    <path d="M722.67,978.452c-2.867,-8.101 -6.596,-15.526 -11.193,-22.271c-0.404,-0.592 -0.869,-1.127 -1.384,-1.594c-5.552,-5.031 -11.409,-8.831 -17.568,-11.399c-8.918,-3.717 -18.748,-6.147 -29.488,-7.295" style="fill:none;fill-rule:nonzero;stroke:#9d7121;stroke-width:2.47px;"/>
                    <path d="M684.062,287.756c-17.179,1.507 -33.325,12.993 -39.322,29.992c-2.898,8.211 -4.002,16.518 -3.315,24.921c0.689,8.403 3.13,16.4 7.32,23.99c8.682,15.706 26.468,24.218 43.645,22.724c17.166,-1.507 33.314,-12.994 39.323,-29.993c2.898,-8.21 4.002,-16.517 3.315,-24.919c-0.697,-8.403 -3.136,-16.401 -7.322,-23.992c-8.68,-15.717 -26.464,-24.229 -43.644,-22.723" style="fill:none;fill-rule:nonzero;stroke:#9d7121;stroke-width:2.47px;"/>
                    <path d="M684.142,288.923c-16.839,1.482 -32.682,12.743 -38.558,29.403c-2.841,8.051 -3.926,16.199 -3.253,24.443c0.679,8.236 3.071,16.074 7.174,23.515c8.511,15.415 25.957,23.764 42.794,22.283c16.84,-1.469 32.67,-12.729 38.558,-29.402c2.841,-8.051 3.926,-16.194 3.254,-24.431c-0.681,-8.243 -3.072,-16.086 -7.176,-23.526c-8.509,-15.405 -25.954,-23.754 -42.793,-22.285" style="fill:none;fill-rule:nonzero;stroke:#643c05;stroke-width:2.47px;"/>
                    <path d="M648.011,669.496c12.1,2.034 23.641,0.469 34.624,-4.695" style="fill:none;fill-rule:nonzero;stroke:#9d7121;stroke-width:2.47px;"/>
                    <path d="M673.202,642.053c-11.031,1.741 -21.844,1.203 -32.439,-1.607" style="fill:none;fill-rule:nonzero;stroke:#9d7121;stroke-width:2.47px;"/>
                    <path d="M640.753,640.446c10.693,4.1 21.505,4.636 32.44,1.607" style="fill:none;fill-rule:nonzero;stroke:#643c05;stroke-width:2.47px;"/>
                    <path d="M682.632,664.801c-11.201,3.9 -22.743,5.466 -34.623,4.695" style="fill:none;fill-rule:nonzero;stroke:#643c05;stroke-width:2.47px;"/>
                    <path d="M420.805,739.838c1.251,4.256 3.666,7.571 6.799,12.216c10.755,15.919 27.716,26.05 45.781,29.867c22.096,4.657 46.29,-4.796 65.34,-16.246c0.898,-0.543 2.014,-0.543 2.912,-0c13.112,7.916 27.187,13.22 42.226,15.905c22.531,4.031 45.707,-5.335 62.703,-20.375c5.568,-4.938 9.681,-10.524 12.335,-16.76c1.335,-3.138 0.522,-8.398 -4.432,-6.478c-0.624,0.243 -5.365,2.348 -14.228,6.316c-14.398,6.439 -29.136,11.964 -44.494,11.775c-17.53,-0.225 -33.775,-7.621 -47.663,-19.019c-4.868,-3.98 -7.904,-6.341 -13.245,-2.286c-10.772,8.185 -22.472,14.291 -35.098,18.318c-9.007,2.87 -19.298,3.59 -30.872,2.159c-8.68,-1.067 -20.019,-5.926 -27.984,-10.007c-6.094,-3.124 -15.212,-8.273 -19.011,-7.319c-0.01,0.003 -0.02,0.006 -0.03,0.009c-0.791,0.223 -1.265,1.073 -1.049,1.885c0.002,0.012 0.006,0.026 0.01,0.04" style="fill:none;fill-rule:nonzero;stroke:#9d7121;stroke-width:2.47px;"/>
                    <path d="M540.203,734.063c-0.853,-0.239 -1.77,-0.109 -2.538,0.364c-2.25,1.381 -5.39,3.398 -9.421,6.05c-6.831,4.487 -13.899,8.17 -21.209,11.049c-7.721,3.03 -15.414,4.808 -23.079,5.336c-11.225,0.77 -22.843,-1.428 -34.854,-6.592c-5.981,-2.56 -9.543,-4.184 -10.684,-4.87c-3.605,-2.172 -11.036,-5.362 -14.458,-6.466c-0.13,-0.041 -0.263,-0.061 -0.398,-0.061c-0.747,-0 -1.361,0.635 -1.361,1.406c0,0.084 0.007,0.168 0.022,0.25c0.364,2.146 1.663,3.929 2.805,5.724c5.01,7.81 8.928,13.052 11.751,15.73c8.466,8.01 18.481,13.836 30.048,17.477c7.04,2.209 13.888,3.126 20.54,2.748c7.94,-0.46 14.772,-1.602 20.493,-3.427c9.964,-3.162 20.117,-7.742 30.461,-13.734c1.2,-0.691 2.67,-0.667 3.849,0.062c8.485,5.273 17.614,8.751 28.577,12.405c3.327,1.113 6.989,2.02 10.987,2.724c6.548,1.163 10.283,1.737 11.205,1.72c15.177,-0.285 29.255,-4.637 42.237,-13.057c7.171,-4.645 13.492,-10.672 18.964,-18.078c1.602,-2.172 5.487,-8.449 3.642,-11.388c-0.447,-0.712 -1.335,-0.99 -2.089,-0.651c-13.998,6.352 -29.646,12.981 -45.648,16.86c-3.496,0.844 -6.919,1.297 -10.269,1.356c-6.233,0.1 -9.693,0.096 -10.381,-0.013c-16.3,-2.604 -31.383,-9.7 -45.247,-21.292c-0.616,-0.52 -1.929,-1.063 -3.945,-1.632" style="fill:none;fill-rule:nonzero;stroke:#643c05;stroke-width:2.47px;"/>
                    <path d="M845.881,468.475c-0.033,-0.142 -0.057,-0.254 -0.073,-0.338c-0.029,-0.109 -0.124,-0.186 -0.234,-0.186c-0.09,0 -0.174,0.053 -0.215,0.135l-3.047,5.437c-0.612,1.103 -0.464,2.499 0.364,3.44l19.473,22.17c6.232,8.01 11.894,16.689 16.985,26.038c17.57,32.232 28.703,66.467 33.398,102.708c4.621,35.755 1.667,70.709 -8.863,104.865c-6.612,21.452 -15.038,41.908 -25.276,61.367c-12.371,23.501 -29.744,46.149 -48.439,65.081c-28.28,28.615 -59.314,53.527 -93.104,74.737c-0.017,0.009 -0.032,0.019 -0.048,0.03c-0.56,0.384 -0.712,1.183 -0.336,1.768c0.011,0.016 0.02,0.032 0.031,0.047c5.756,7.943 10.214,16.379 13.379,25.309c2.493,7.038 3.461,15.555 2.902,25.549c-0.876,15.516 -9.202,35.916 -22.484,44.013c-12.868,7.848 -29.854,5.337 -42.212,-2.912c-0.636,-0.426 -1.481,-0.336 -2.028,0.214c-6.058,6.115 -12.031,8.713 -20.528,8.387c-7.576,-0.285 -14.359,-2.808 -20.348,-7.571c-0.532,-0.424 -1.267,-0.464 -1.846,-0.1c-16.097,10.056 -33.895,9.416 -49.483,-1.169c-10.482,-7.12 -17.741,-17.54 -21.78,-31.259c-0.485,-1.658 -1.253,-4.49 -2.306,-8.499c-0.109,-0.405 -0.468,-0.689 -0.874,-0.69l-56.658,-0c-0.53,-0.002 -0.992,0.382 -1.106,0.917c-3.897,17.55 -13.075,32.979 -28.469,41.931c-14.884,8.649 -31.346,7.482 -45.417,-2.775c-0.644,-0.474 -1.519,-0.449 -2.136,0.063c-8.313,6.822 -17.607,9.846 -27.886,9.077c-5.936,-0.452 -10.09,-4.055 -14.63,-8.349c-0.613,-0.575 -1.526,-0.653 -2.209,-0.189c-6.564,4.503 -13.687,6.969 -21.367,7.395c-15.138,0.841 -25.362,-7.772 -32.792,-20.703c-4.458,-7.758 -7.08,-16.29 -7.865,-25.597c-1.668,-19.745 3.779,-37.291 16.34,-52.641c0.188,-0.23 0.292,-0.523 0.292,-0.825c-0,-0.449 -0.225,-0.864 -0.595,-1.095c-26.308,-16.422 -51.877,-35.229 -73.559,-55.277c-18.121,-16.756 -33.142,-32.771 -45.064,-48.046c-14.974,-19.2 -27.377,-40.613 -37.211,-64.24c-3.172,-7.617 -6.546,-16.764 -10.125,-27.444c-12.431,-37.052 -16,-74.908 -10.707,-113.567c2.881,-21.058 8.348,-42.564 16.402,-64.517c11.776,-32.121 29.047,-60.399 51.814,-84.829c0.571,-0.614 0.721,-1.529 0.377,-2.298c-26.126,-57.901 -24.634,-124.802 -7.551,-185.089c8.315,-29.352 20.176,-59.18 35.741,-85.833c0.395,-0.675 0.273,-1.557 -0.291,-2.096c-16.876,-16.235 -28.603,-35.68 -35.778,-58.504c-7.462,-23.729 -10.267,-48.582 -8.413,-74.56c0.935,-13.107 6.168,-23.74 20.335,-24.281c5.43,-0.208 9.89,1.758 13.378,5.901c5.609,6.67 9.114,10.788 10.513,12.353c17.329,19.334 38.255,33.789 62.778,43.363c11.642,4.545 25.045,7.545 37.028,10.358c1.748,0.41 3.334,0.259 4.76,-0.453c47.455,-23.941 98.748,-38.578 150.975,-41.717c43.5,-2.612 87.532,3.39 129.379,15.981c21.375,6.437 41.977,15.07 61.807,25.899c1.043,0.569 2.812,0.607 5.305,0.114c5.948,-1.172 11.585,-2.453 16.912,-3.842c28.399,-7.373 53.461,-21.535 75.184,-42.484c4.792,-4.62 10.546,-10.901 17.263,-18.844c9.045,-10.683 23.784,-7.833 31.056,3.465c4.102,6.379 4.176,14.212 4.418,22.962c0.713,26.407 -3.726,51.908 -13.317,76.507c-7.252,18.605 -18.13,34.611 -32.634,48.019c-0.182,0.167 -0.225,0.445 -0.096,0.653c28.384,49.866 46.4,106.65 49.241,164.827c1.663,33.959 -4.529,70.606 -18.43,101.739Zm-107.004,-319.72c-11.881,1.756 -20.173,2.708 -24.876,2.85c-6.07,0.183 -11.779,-0.988 -17.13,-3.515c-7.769,-3.68 -18.477,-10.119 -27.437,-14.075c-27.914,-12.319 -57.022,-20.585 -87.324,-24.794c-9.494,-1.313 -17.126,-2.109 -22.898,-2.386c-13.633,-0.653 -30.398,-1.053 -46.096,0.565c-5.268,0.544 -9.072,0.963 -11.412,1.256c-17.296,2.176 -34.571,5.762 -51.826,10.758c-5.099,1.473 -8.83,2.943 -11.194,4.407l-23.588,9.154c-0.931,-0.252 -2.036,-0.106 -3.315,0.439c-9.238,3.941 -18.623,9.351 -24.451,12.679c-8.351,4.759 -15.587,6.465 -23.891,5.763c-22.691,-1.896 -43.851,-9.355 -65.314,-19.473c-14.116,-6.653 -26.956,-14.993 -38.523,-25.02c-0.445,-0.378 -0.724,-0.418 -0.838,-0.126l-0.8,-0.515c-0.098,-0.062 -0.212,-0.097 -0.328,-0.097c-0.339,0 -0.619,0.289 -0.619,0.641l0,0.322c-0.51,0.185 -0.673,0.792 -0.486,1.822c2.963,16.462 8.066,30.895 15.309,43.299c6.467,11.057 14.047,20.175 22.738,27.357c1.328,1.095 2.425,2.13 3.291,3.1c0.223,0.247 0.503,0.433 0.813,0.539l0.546,0.177c0.242,0.082 0.467,0.206 0.667,0.363c6.938,5.667 14.388,10.181 22.352,13.546c0.41,0.167 0.841,0.26 1.275,0.277c2.347,0.083 3.973,-0.017 4.879,-0.302c20.339,-6.352 40.921,-9.035 61.746,-8.047c11.097,0.52 21.63,2.494 31.601,5.926c9.195,3.172 15.69,5.662 19.485,7.47c6.436,3.071 13.577,7.407 21.428,13.006c5.609,3.993 11.197,8.951 16.766,14.876c6.556,6.964 11.439,12.651 14.654,17.062c6.499,8.906 11.181,16.493 14.045,22.76c4.119,9.016 8.062,20.452 11.825,34.312l4.345,20.552c0.3,1.406 1.492,2.431 2.88,2.473c7.097,0.2 15.453,0.171 25.068,-0.088c1.571,-0.043 2.816,-0.28 3.739,-0.715c0.379,-0.181 0.645,-0.55 0.705,-0.98c0.777,-5.532 2.597,-14.401 5.463,-26.602c13.378,-56.872 57.715,-100.435 113.888,-109.524c16.77,-2.712 33.414,-2.504 49.934,0.628c3.14,1.196 7.651,2.343 13.535,3.439c1.028,0.185 6.07,1.57 15.127,4.155c2.056,0.587 3.884,0.449 5.488,-0.414c5.196,-2.774 13.256,-7.256 18.901,-11.913c9.235,-7.625 16.314,-14.664 21.235,-21.117c11.93,-15.685 19.658,-33.512 23.186,-53.481c0.163,-0.93 -0.132,-1.462 -0.886,-1.595l0.486,-3.026c0.007,-0.037 0.01,-0.073 0.01,-0.109c-0,-0.337 -0.268,-0.615 -0.595,-0.615c-0.14,-0 -0.278,0.051 -0.385,0.147c-9.972,8.879 -20.887,16.5 -32.743,22.861c-16.301,8.754 -33.119,15.27 -50.455,19.548Zm-416.642,90.039c-11.299,6.846 -20.816,14.558 -28.554,23.138c-4.25,4.721 -8.884,10.93 -13.901,18.631c-3.861,4.946 -6.495,10.481 -7.903,16.609c-4.565,12.914 -7.203,25.64 -7.916,38.177c-0.565,10.002 0.356,20.559 2.768,31.674c0.017,3.667 1.105,8.053 3.266,13.158c6.96,16.471 16.292,30.462 27.995,41.97c16.425,16.169 37.756,28.184 60.496,31.486c5.495,0.803 9.879,1.285 13.147,1.443c22.306,1.063 42.394,-3.422 60.264,-13.457c31.371,-17.615 52.774,-48.925 59.075,-85.27c1.166,-6.688 1.421,-14.183 0.765,-22.484c-1.028,-13.057 -3.702,-25.477 -8.025,-37.263c-8.83,-24.086 -23.935,-43.177 -45.318,-57.272c-10.249,-6.746 -21.392,-11.521 -33.435,-14.325c-6.629,-1.539 -11.368,-2.405 -14.217,-2.598c-3.796,-0.26 -8.895,-0.377 -15.297,-0.351c-6.013,0.016 -11.096,0.443 -15.248,1.279c-13.071,2.645 -24.903,6.909 -35.498,12.793c-1.683,0.93 -2.504,1.816 -2.464,2.662Zm388.197,-15.794c-32.107,-1.991 -59.495,7.683 -82.165,29.025c-7.259,6.84 -14.333,16.05 -21.222,27.634c-7.406,10.913 -12.48,22.806 -15.224,35.679c-2.306,10.855 -2.986,22.146 -2.038,33.872c0.882,11.006 3.576,21.941 8.084,32.805c3.173,7.65 6.646,14.608 10.417,20.876c4.023,6.687 8.705,12.731 14.047,18.129c20.428,20.632 44.975,31.939 73.642,33.923c19.294,1.339 37.336,-2.126 54.121,-10.396c15.953,-7.851 29.432,-18.4 40.441,-31.649c11.467,-13.801 19.31,-29.93 23.527,-48.385c2.25,-9.817 3.341,-18.162 3.278,-25.032c-0.244,-27.27 -8.818,-51.445 -25.726,-72.527c-19.363,-24.155 -47.14,-40.776 -77.613,-44.631c-1.828,-0.226 -3.447,-0.247 -4.857,-0.063c-0.177,0.025 -0.278,0.108 -0.303,0.251c-0.001,0.01 -0.001,0.018 -0.001,0.026c-0,0.069 0.054,0.125 0.12,0.125l0.016,0c0.534,-0.033 1.02,0.08 1.456,0.338Zm-183.366,142.756c-2.195,1.172 -3.764,3.033 -4.711,5.587c-1.611,4.37 -4.326,12.224 -8.147,23.564c-1.213,3.625 -5.01,12.019 -11.387,25.185c-0.167,0.354 -0.259,0.744 -0.268,1.142c-0.04,2.537 0.496,4.892 1.603,7.069c6.087,11.968 13.647,23.508 22.678,34.623c3.122,3.83 7.03,6.768 10.769,10.584c1,1.003 2.592,1.059 3.654,0.125c4.209,-3.707 9.121,-8.667 14.738,-14.876c3.966,-4.394 7.609,-9.107 10.927,-14.137c3.788,-5.742 6.932,-10.83 9.432,-15.265c2.42,-4.294 2.798,-8.232 1.13,-11.815c-4.872,-10.47 -9.04,-20.71 -12.505,-30.719c-2.808,-8.111 -4.462,-12.676 -4.965,-13.697c-1.239,-2.503 -2.481,-4.373 -3.726,-5.612c-1.318,-1.305 -3.038,-2.088 -4.857,-2.211c-3.335,-0.216 -10.133,-0.351 -20.396,-0.4c-1.554,-0.009 -2.877,0.277 -3.969,0.853Zm296.161,60.11c-5.082,6.269 -8.454,10.266 -10.112,11.989c-3.416,3.566 -8.567,8.371 -15.455,14.413c-6.257,5.483 -11.797,9.788 -16.62,12.918c-10.578,6.864 -21.427,12.203 -32.548,16.02c-10.958,3.75 -22.399,6.03 -34.32,6.841c-11.672,0.796 -23.346,0.341 -35.026,-1.367c-14.292,-2.101 -28.201,-6.705 -41.726,-13.81c-8.441,-4.428 -13.847,-7.495 -16.219,-9.204c-5.576,-4.016 -11.303,-7.758 -17.179,-11.223c-0.995,0.236 -1.95,0.039 -2.865,-0.589c-0.009,-0.007 -0.019,-0.014 -0.029,-0.019c-0.804,-0.528 -1.889,-0.274 -2.403,0.562c-0.006,0.011 -0.013,0.024 -0.021,0.035c-12.321,21.053 -28.467,40.311 -47.879,54.084c-4.554,3.239 -10.149,7.218 -15.006,4.231c-9.065,-5.374 -17.114,-11.881 -24.148,-19.524c-3.553,-3.866 -5.786,-6.367 -6.701,-7.505c-8.361,-10.395 -16.272,-21.231 -23.735,-32.504c-1.408,0.15 -2.424,0.451 -3.046,0.903c-5.416,3.951 -10.883,7.818 -16.402,11.601c-19.457,13.332 -40.686,21.505 -63.689,24.518l0.499,-0.364c0.089,-0.068 0.142,-0.176 0.142,-0.292c0,-0.198 -0.159,-0.364 -0.352,-0.364c-0.016,0 -0.031,0.002 -0.045,0.003l-6.385,0.992c-0.049,0.008 -0.094,0.013 -0.134,0.013c-7.285,-0 -13.075,0.029 -17.374,0.087c-5.899,0.092 -11.605,-0.25 -17.117,-1.028c-22.208,-3.132 -42.431,-11.2 -60.665,-24.206c-9.728,-6.946 -19.064,-15.108 -28.008,-24.48c-1.456,-1.524 -3.298,-3.713 -5.523,-6.566c-1.764,-2.253 -3.599,-4.453 -5.5,-6.604l-1.129,-0.892c-0.085,-0.067 -0.188,-0.103 -0.294,-0.103c-0.245,0 -0.453,0.192 -0.483,0.443c-0.032,0.35 0.008,0.706 0.122,1.066c-0.284,0.301 -0.369,0.607 -0.256,0.917c3.861,10.805 8.576,21.539 14.144,32.203c5.197,9.93 11.983,19.697 19.425,28.121c9.194,10.403 18.441,19.605 27.74,27.606c0.853,0.737 1.037,2.034 0.425,3.001c-1.287,2.072 -4.407,2.022 -7.709,2.511c-1.554,0.235 -3.302,0.293 -5.245,0.176c-16.122,-1.012 -30.654,-6.617 -43.596,-16.811c-0.461,-0.368 -0.889,-0.418 -1.286,-0.15c-0.77,0.108 -1.323,0.339 -1.664,0.69c-18.185,19.527 -31.88,42.183 -41.082,67.97c-0.236,-0.795 -0.539,-0.687 -0.91,0.326c-5.246,14.245 -9.094,27.796 -11.547,40.65c-1.279,6.756 -2.193,11.878 -2.742,15.367c-0.867,5.499 -1.534,13.09 -2.004,22.774c-0.292,5.951 0.34,10.81 0.413,16.735c0.04,2.887 0.404,7.056 1.091,12.505c1.782,14.135 3.947,26.284 6.495,36.444c8.584,34.136 25.374,65.898 46.608,94.195c0.104,0.132 0.237,0.236 0.388,0.302c0.38,0.168 0.631,0.12 0.753,-0.138c0.283,-0.101 0.567,-0.126 0.85,-0.076c0.332,0.201 0.715,-0.03 1.154,-0.691c2.754,-4.217 5.341,-9.577 7.101,-14.951c7.972,-24.196 12.561,-38.48 13.768,-42.848c13.718,-49.632 23.952,-100.686 30.703,-153.163c0.039,-0.301 -0.183,-0.393 -0.669,-0.276c1.445,-13.081 6.762,-30.884 19.874,-36.043c0.135,-0.054 0.277,-0.081 0.42,-0.081c0.497,0 0.943,0.324 1.11,0.808c0.898,2.574 1.069,6.102 1.372,8.362c1.375,10.236 1.979,20.425 1.808,30.569c-0.461,4.913 -0.68,9.801 -0.655,14.663c0.002,0.064 0.014,0.132 0.034,0.202c0.062,0.203 0.186,0.347 0.275,0.318c0.029,-0.01 0.052,-0.037 0.066,-0.08c0.074,-0.259 0.135,-0.673 0.183,-1.243c0.299,9.743 0.032,20.334 -0.801,31.775c-2.662,36.567 -8.575,72.054 -17.737,106.461l-0.037,-0.691c-0.012,-0.133 -0.122,-0.237 -0.253,-0.237c-0.113,-0 -0.212,0.077 -0.244,0.187c-6.35,24.029 -13.318,44.368 -22.181,68.76c-0.922,2.529 -1.347,5.153 -1.274,7.872c0.486,3.03 1.157,5.319 2.015,6.868c2.849,5.114 6.301,10.135 10.356,15.065c8.944,10.863 18.554,20.304 28.833,28.322c12.104,9.453 25.179,16.885 37.986,23.528c2.647,1.371 5.88,1.878 9.701,1.518c11.081,-1.063 24.37,-1.649 39.868,-1.757c17.495,-0.113 32.658,2.887 47.749,9.604c16.959,7.557 29.512,20.325 39.285,36.846c0.612,1.03 1.698,1.663 2.866,1.67c23.066,0.152 43.461,0.123 61.186,-0.087c2.185,-0.027 4.481,-0.013 5.804,-1.797c3.4,-4.532 6.615,-10.582 9.846,-14.574c13.049,-16.221 31.638,-26.138 51.595,-29.867c7.932,-1.473 14.904,-2.203 20.918,-2.184c7.948,0.033 21.905,0.715 41.872,2.046c3.684,0.243 7.568,-0.611 11.655,-2.562c9.193,-4.401 18.3,-9.784 27.315,-16.144c19.716,-13.923 35.984,-29.327 48.586,-49.79c3.521,-2.98 4.297,-7.308 2.331,-12.982c-5.415,-15.585 -9.401,-26.964 -11.959,-34.135c-1.027,-2.863 -3.73,-11.964 -8.109,-27.306c-2.955,-10.345 -5.318,-19.547 -7.09,-27.606c-6.402,-29.019 -10.635,-57.609 -12.698,-85.773c-0.599,-8.193 -0.992,-15.098 -1.178,-20.714c-0.72,-22.112 0.436,-43.304 3.473,-63.575c0.078,-0.531 0.523,-0.927 1.042,-0.927c0.151,0 0.301,0.034 0.439,0.099c5.349,2.544 9.283,6.645 11.799,12.303c2.323,5.231 3.792,9.682 4.406,13.357c2.364,14.22 4.782,29.716 7.249,46.489c2.022,13.768 5.892,33.818 11.606,60.148c3.408,15.676 7.43,31.596 12.067,47.757c4.144,14.445 8.879,30.146 14.206,47.104c2.038,6.487 4.532,12.466 7.476,17.939c0.163,0.31 0.453,0.527 0.789,0.591c0.292,0.068 0.382,0.025 0.268,-0.125c0.591,0.158 1.154,0.212 1.687,0.163c0.915,-0.159 1.705,-0.679 2.368,-1.558c7.552,-9.966 14.479,-20.652 20.785,-32.05c6.733,-12.17 12.921,-26.39 18.562,-42.661c5.949,-17.136 9.227,-35.39 11.556,-53.267c1.386,-10.647 1.827,-21.325 1.325,-32.039c-0.348,-7.456 -0.672,-12.458 -0.971,-15.002c-1.392,-11.768 -4.096,-25.18 -8.111,-40.236c-6.96,-26.055 -17.943,-49.444 -32.949,-70.167c-5.178,-7.156 -9.108,-12.174 -11.787,-15.053c-1.788,-1.924 -3.168,-3.315 -4.14,-4.168c-0.918,-0.792 -2.249,-0.834 -3.204,-0.1c-12.748,9.751 -26.86,15.17 -42.334,16.257c-3.375,0.239 -7.649,-0.213 -10.793,-1.33c-1.248,-0.437 -2.003,-1.768 -1.76,-3.101c0.096,-0.553 0.624,-1.252 1.577,-2.096c15.338,-13.611 28.167,-27.553 38.485,-41.833c8.952,-12.394 16.042,-27.636 21.271,-45.721l-0.195,-1.683c-0.011,-0.136 -0.122,-0.244 -0.254,-0.244c-0.069,-0 -0.135,0.029 -0.183,0.08l-1.421,1.394Zm-160.19,510.033c-13.848,-0.293 -26.127,2.456 -36.834,8.249c-13.525,7.306 -21.242,19.488 -23.152,36.546c-1.23,10.996 3.38,18.655 13.828,22.973c1.247,0.511 3.792,0.557 7.637,0.139c0.419,-0.039 0.793,-0.282 1.007,-0.653c2.925,-4.934 2.696,-11.827 7.624,-15.856c5.731,-4.708 13.974,-7.382 19.838,-1.52c0.857,0.855 1.994,3.286 3.411,7.294c1.761,4.959 4.917,12.605 11.51,10.521c1.221,-0.385 2.156,-1.19 2.803,-2.411c3.109,-5.951 4.966,-10.733 10.065,-13.056c4.831,-2.198 12.019,0.339 15.697,3.867c3.626,3.473 6.208,5.813 7.745,7.018c3.91,3.063 7.466,6.327 11.037,2.109c4.953,-5.859 7.424,-13.412 7.417,-22.661c-2.21,-9.081 -6.236,-17.241 -12.081,-24.481c-0.257,-0.316 -0.543,-0.603 -0.849,-0.854c-6.305,-5.121 -13.023,-9.084 -20.152,-11.889c-8.507,-3.347 -17.357,-5.125 -26.551,-5.335Zm-184.885,37.588c-1.578,-10.254 -6.507,-18.191 -14.786,-23.817c-7.14,-4.744 -14.407,-8.155 -21.804,-10.231c-6.734,-1.883 -14.16,-2.9 -22.278,-3.05c-14.447,-0.251 -29.926,4.82 -41.313,12.78c-4.032,2.824 -8.438,6.828 -10.976,11.287c-2.853,4.995 -6.641,12.478 -7.684,17.638c-1.125,5.566 -0.311,11.329 2.441,17.287c1.953,4.232 6.093,11.713 11.387,5.863c0.76,-0.837 3.176,-3.222 7.247,-7.156c4.31,-4.155 7.927,-4.544 13.719,-5.561c1.886,-0.335 3.565,-0.179 5.038,0.464c0.343,0.157 0.636,0.399 0.85,0.704c3.731,5.29 6.742,8.98 9.032,11.072c2.858,2.612 6.055,2.972 9.591,1.08c4.808,-2.573 6.228,-7.206 7.745,-12.856c0.097,-0.367 0.244,-0.717 0.439,-1.042c5.086,-8.6 14.239,-6.34 20.005,-0.252c3.631,3.856 4.626,9.366 8.062,13.484c2.162,2.6 5.33,4.671 8.17,3.353c5.95,-2.746 10.4,-6.839 13.355,-12.28c1.368,-2.518 2.104,-5.572 2.209,-9.162c0.09,-3.157 -0.061,-6.357 -0.449,-9.605Z" style="fill-rule:nonzero;"/>
                    <path d="M822.558,109.949c-4.042,24.557 -14.337,47.481 -31.855,64.63c-9.098,8.905 -19.243,16.296 -30.437,22.17c-1.804,0.955 -3.447,1.217 -4.928,0.792c-10.464,-2.98 -20.255,-5.201 -29.367,-6.666c-16.519,-3.132 -33.163,-3.34 -49.933,-0.628c-56.173,9.089 -100.51,52.652 -113.888,109.524c-2.866,12.201 -4.686,21.07 -5.463,26.602c-0.06,0.43 -0.326,0.799 -0.705,0.98c-0.923,0.435 -2.168,0.672 -3.739,0.715c-9.615,0.259 -17.971,0.288 -25.069,0.088c-1.388,-0.042 -2.58,-1.067 -2.879,-2.473l-4.345,-20.552c-3.513,-18.615 -9.62,-34.503 -18.32,-47.669c-13.84,-20.928 -32.682,-41.027 -54.474,-52.576c-22.92,-12.153 -49.107,-17.841 -75.111,-16.109c-15.636,1.042 -28.882,4.093 -45.089,8.374c-1.894,0.495 -3.614,0.347 -5.16,-0.439c-20.528,-10.47 -38.411,-24.957 -49.847,-45.146c-7.131,-12.58 -12.108,-27.237 -14.933,-43.978l-0,-0.322c-0,-0.352 0.279,-0.641 0.618,-0.641c0.117,0 0.231,0.035 0.329,0.097l0.8,0.515c0.688,0.829 1.441,1.586 2.259,2.273c10.569,8.872 22.334,16.475 35.292,22.81c15.442,7.558 31.217,13.334 47.322,17.326c10.137,2.512 22.848,4.168 33.156,1.945c2.306,-0.493 6.284,-2.297 11.933,-5.41c8.637,-4.745 17.426,-9.148 26.369,-13.206l23.589,-9.154c36.898,-12.369 74.14,-17.889 111.727,-16.559c40.216,1.424 79.247,10.307 117.093,26.653c10.149,4.381 19.339,9.855 29.72,15.078c4.07,2.042 8.355,3.13 12.855,3.263c9.276,0.277 18.875,-0.89 28.797,-3.501c17.337,-4.278 34.155,-10.794 50.456,-19.548c11.856,-6.361 22.771,-13.982 32.742,-22.861c0.108,-0.096 0.245,-0.147 0.386,-0.147c0.327,-0 0.594,0.278 0.594,0.615c0,0.036 -0.002,0.072 -0.009,0.109l-0.486,3.026Z" style="fill:#ffdf00;fill-rule:nonzero;"/>
                    <path d="M738.881,148.755c-9.923,2.611 -19.521,3.778 -28.798,3.501c-4.5,-0.133 -8.785,-1.221 -12.854,-3.263c-10.381,-5.223 -19.572,-10.697 -29.721,-15.078c-37.845,-16.346 -76.876,-25.229 -117.093,-26.653c-37.587,-1.33 -74.829,4.19 -111.727,16.559c2.364,-1.464 6.095,-2.934 11.194,-4.407c17.255,-4.996 34.53,-8.582 51.826,-10.758c2.34,-0.293 6.144,-0.712 11.411,-1.256c15.699,-1.618 32.464,-1.218 46.097,-0.565c5.772,0.277 13.404,1.073 22.898,2.386c30.302,4.209 59.41,12.475 87.324,24.794c8.96,3.956 19.668,10.395 27.437,14.075c5.351,2.527 11.06,3.698 17.13,3.515c4.703,-0.142 12.995,-1.094 24.876,-2.85Z" style="fill:#441f00;fill-rule:nonzero;"/>
                    <path d="M607.047,279.659c-6.903,12.044 -11.679,24.828 -14.325,38.353c-1.053,5.364 -1.648,10.688 -1.786,15.969c-0.303,11.086 -0.096,21.418 3.024,32.917c2.532,9.324 5.71,17.875 9.531,25.65c21.196,43.173 67.086,66.197 112.758,60.975c23.155,-2.653 44.234,-12.68 63.239,-30.079c18.659,-17.086 30.047,-38.894 34.806,-64.493c5.269,-28.36 -0.583,-58.202 -15.904,-81.364c-19.668,-29.778 -52.24,-52.189 -87.957,-54.587c-0.436,-0.258 -0.922,-0.371 -1.455,-0.338l-0.016,0c-0.067,0 -0.121,-0.056 -0.121,-0.125c0,-0.008 0,-0.016 0.001,-0.026c0.026,-0.143 0.126,-0.226 0.304,-0.251c1.409,-0.184 3.029,-0.163 4.856,0.063c30.473,3.855 58.25,20.476 77.613,44.631c16.908,21.082 25.482,45.257 25.726,72.527c0.064,6.87 -1.028,15.215 -3.278,25.032c-4.217,18.455 -12.06,34.584 -23.527,48.385c-11.009,13.249 -24.487,23.798 -40.44,31.649c-16.786,8.27 -34.827,11.735 -54.122,10.396c-28.667,-1.984 -53.214,-13.291 -73.642,-33.923c-5.341,-5.398 -10.023,-11.442 -14.047,-18.129c-3.771,-6.268 -7.243,-13.226 -10.417,-20.876c-4.508,-10.864 -7.202,-21.799 -8.084,-32.805c-0.948,-11.726 -0.267,-23.017 2.038,-33.872c2.745,-12.873 7.819,-24.766 15.225,-35.679Z" style="fill:#441f00;fill-rule:nonzero;"/>
                    <path d="M710.432,223c35.717,2.398 68.289,24.809 87.957,54.587c15.321,23.162 21.173,53.004 15.903,81.364c-4.758,25.599 -16.146,47.407 -34.806,64.493c-19.004,17.399 -40.084,27.426 -63.239,30.079c-45.671,5.222 -91.561,-17.802 -112.758,-60.975c-3.821,-7.775 -6.998,-16.326 -9.53,-25.65c-3.121,-11.499 -3.327,-21.831 -3.024,-32.917c0.138,-5.281 0.732,-10.605 1.785,-15.969c2.647,-13.525 7.422,-26.309 14.325,-38.353c6.889,-11.584 13.963,-20.794 21.222,-27.634c22.67,-21.342 50.058,-31.016 82.165,-29.025Zm-26.368,64.756c-17.179,1.507 -33.326,12.993 -39.323,29.992c-2.897,8.211 -4.002,16.518 -3.315,24.921c0.689,8.403 3.13,16.4 7.32,23.99c8.682,15.706 26.468,24.218 43.646,22.724c17.166,-1.507 33.313,-12.994 39.322,-29.993c2.898,-8.21 4.002,-16.517 3.315,-24.919c-0.697,-8.403 -3.136,-16.401 -7.321,-23.992c-8.681,-15.717 -26.465,-24.229 -43.644,-22.723Z" style="fill:#fff;fill-rule:nonzero;"/>
                    <path d="M735.026,334.471c0.688,8.402 -0.417,16.709 -3.315,24.919c-6.009,16.999 -22.156,28.486 -39.322,29.993c-17.178,1.494 -34.964,-7.018 -43.645,-22.724c-4.191,-7.59 -6.632,-15.587 -7.32,-23.99c-0.688,-8.403 0.417,-16.71 3.315,-24.921c5.997,-16.999 22.143,-28.485 39.322,-29.992c17.179,-1.506 34.964,7.006 43.644,22.723c4.185,7.591 6.625,15.589 7.321,23.992Zm-50.892,-45.548c-16.839,1.482 -32.682,12.743 -38.558,29.403c-2.841,8.051 -3.926,16.199 -3.253,24.443c0.679,8.236 3.071,16.074 7.174,23.515c8.511,15.415 25.957,23.764 42.794,22.283c16.84,-1.469 32.67,-12.729 38.558,-29.402c2.841,-8.051 3.926,-16.194 3.254,-24.431c-0.68,-8.243 -3.072,-16.086 -7.175,-23.526c-8.51,-15.405 -25.955,-23.754 -42.794,-22.285Z" style="fill:#441f00;fill-rule:nonzero;"/>
                    <path d="M684.142,288.923c16.839,-1.469 34.284,6.88 42.793,22.285c4.104,7.44 6.495,15.283 7.176,23.526c0.672,8.237 -0.413,16.38 -3.254,24.431c-5.888,16.673 -21.718,27.933 -38.558,29.402c-16.837,1.481 -34.283,-6.868 -42.794,-22.283c-4.103,-7.441 -6.495,-15.279 -7.174,-23.515c-0.673,-8.244 0.412,-16.392 3.253,-24.443c5.876,-16.66 21.719,-27.921 38.558,-29.403Z" style="fill-rule:nonzero;"/>
                    <path d="M825.286,426.319c-2.339,5.699 -4.65,11.373 -6.932,17.024c-3.764,9.327 -7.904,17.927 -12.869,25.22c-10.384,15.274 -23.689,29.968 -39.917,44.079c-1.538,1.339 -2.372,2.674 -2.501,4.004c-0.137,1.331 0.843,2.688 2.367,3.277c2.882,1.113 6.095,1.57 9.639,1.369c16.803,-0.98 31.719,-6.695 44.75,-17.149c0.371,-0.3 0.907,-0.268 1.25,0.075c33.058,34.035 50.564,80.324 56.78,127.138c2.024,15.2 1.996,31.143 -0.085,47.832c-1.642,13.216 -3.435,24.029 -5.378,32.44c-7.616,33.119 -21.177,63.438 -40.681,90.955c-1.959,2.756 -4.06,5.375 -6.302,7.861c-0.534,0.049 -1.097,-0.005 -1.687,-0.163c-2.954,-5.408 -5.95,-12.923 -8.984,-22.549c-5.213,-16.547 -9.381,-30.343 -12.504,-41.392c-9.656,-34.088 -17.559,-69.951 -23.71,-107.589c-1.222,-7.482 -3.541,-22.48 -6.957,-44.995c-1.845,-12.216 -6.192,-25.071 -17.954,-30.52c-0.052,-0.023 -0.105,-0.044 -0.158,-0.062c-0.812,-0.268 -1.692,0.198 -1.949,1.031c-0.018,0.057 -0.032,0.114 -0.043,0.173c-1.408,7.248 -2.319,14.496 -2.732,21.745c-2.105,37.629 -0.162,74.798 5.827,111.508c5.115,31.351 12.465,61.649 22.047,90.893c3.134,9.557 7.438,21.852 12.918,36.884c1.416,3.867 0.777,7.943 -1.919,12.229c-12.602,20.463 -28.87,35.867 -48.585,49.79c-9.015,6.36 -18.122,11.743 -27.315,16.144c-4.087,1.951 -7.972,2.805 -11.655,2.562c-19.967,-1.331 -33.924,-2.013 -41.872,-2.046c-6.014,-0.019 -12.986,0.711 -20.918,2.184c-19.958,3.729 -38.546,13.646 -51.596,29.867c-3.23,3.992 -6.446,10.042 -9.846,14.574c-1.323,1.784 -3.618,1.77 -5.803,1.797c-17.725,0.21 -38.12,0.239 -61.186,0.087c-1.168,-0.007 -2.255,-0.64 -2.866,-1.67c-9.773,-16.521 -22.326,-29.289 -39.286,-36.846c-15.09,-6.717 -30.254,-9.717 -47.748,-9.604c-15.498,0.108 -28.788,0.694 -39.868,1.757c-3.821,0.36 -7.054,-0.147 -9.701,-1.518c-12.808,-6.643 -25.882,-14.075 -37.986,-23.528c-10.279,-8.018 -19.889,-17.459 -28.833,-28.322c-4.056,-4.93 -7.507,-9.951 -10.356,-15.065c-0.858,-1.549 -1.53,-3.838 -2.016,-6.868c1.433,-5.775 2.68,-10.081 3.74,-12.918c7.744,-20.664 14.495,-41.656 20.25,-62.973c9.162,-34.407 15.074,-69.894 17.736,-106.461c0.833,-11.441 1.101,-22.032 0.802,-31.775l0.096,-13.86c0.171,-10.144 -0.433,-20.333 -1.807,-30.569c-0.304,-2.26 -0.475,-5.788 -1.373,-8.362c-0.166,-0.484 -0.613,-0.808 -1.109,-0.808c-0.144,0 -0.285,0.027 -0.42,0.081c-13.112,5.159 -18.43,22.962 -19.875,36.043c-5.219,37.605 -11.998,74.895 -20.334,111.872c-2.453,10.884 -5.961,23.765 -9.032,35.579c-3.68,14.173 -8.681,28.096 -12.906,42.17c-2.372,7.883 -5.632,15.319 -9.784,22.308c-0.284,-0.05 -0.567,-0.025 -0.851,0.076c-16.437,-21.527 -29.12,-43.686 -38.047,-66.474c-10.351,-26.433 -15.964,-55.09 -16.838,-85.973c-0.195,-6.688 0.149,-13.99 1.031,-21.908c2.526,-22.716 7.629,-44.316 15.309,-64.805c9.203,-25.787 22.897,-48.443 41.083,-67.97c0.34,-0.351 0.894,-0.582 1.663,-0.69c12.52,10.127 26.673,15.974 42.454,17.539c4.043,0.4 13.841,0.853 16.281,-3.39c0.6,-1.043 0.379,-2.396 -0.522,-3.177c-14.689,-12.792 -30.801,-28.799 -41.531,-45.924c-8.694,-13.859 -14.593,-28.045 -20.324,-42.622c-0.114,-0.36 -0.153,-0.716 -0.122,-1.066c0.031,-0.251 0.239,-0.443 0.484,-0.443c0.106,0 0.209,0.036 0.294,0.103l1.128,0.892c2.307,3.96 4.747,7.361 7.32,10.206c22.885,25.271 50.408,44.04 84.461,51.097c14.139,2.92 30.367,3.423 48.682,1.506c23.002,-3.013 44.232,-11.186 63.689,-24.518c5.519,-3.783 10.986,-7.65 16.402,-11.601c0.622,-0.452 1.638,-0.753 3.046,-0.903c3.74,6.528 7.782,12.783 12.129,18.769c5.706,7.858 11.868,15.291 18.489,22.296c7.682,8.118 15.669,14.275 23.966,18.468c4.856,2.987 10.452,-0.992 15.005,-4.231c19.412,-13.773 35.559,-33.031 47.88,-54.084c0.008,-0.011 0.014,-0.024 0.021,-0.035c0.514,-0.836 1.599,-1.09 2.402,-0.562c0.011,0.005 0.02,0.012 0.03,0.019c0.915,0.628 1.87,0.825 2.864,0.589c5.66,4.235 11.401,8.266 17.229,12.09c31.823,20.899 66.379,28.591 103.665,23.075c24.978,-3.698 47.371,-13.616 67.185,-29.753c7.292,-5.943 14.126,-12.056 20.505,-18.343c4.329,-4.268 7.871,-8.817 10.621,-13.646l1.422,-1.394c0.047,-0.051 0.114,-0.08 0.182,-0.08c0.133,-0 0.244,0.108 0.255,0.244l0.194,1.683Zm-391.451,215.984c-14.933,1.901 -29.315,-0.021 -43.147,-5.763c-5.666,-2.702 -11.266,-5.942 -16.802,-9.716c-1.295,-0.879 -2.485,-1.327 -3.569,-1.343c-0.016,-0.002 -0.033,-0.002 -0.049,-0.002c-1.346,0 -2.453,1.203 -2.453,2.662l-0,0.05c0.159,9.191 11.145,21.356 17.75,26.59c18.923,16.472 40.297,19.721 64.125,9.744c10.521,-4.412 20.093,-9.982 28.711,-16.71c0.502,-0.392 1.2,-0.392 1.7,-0c7.155,5.556 14.865,10.349 23.128,14.374c18.583,9.048 38.011,11.346 58.285,6.893c14.585,-2.962 27.401,-9.63 38.448,-20c0.524,-0.481 1.308,-0.523 1.882,-0.1c8.11,6.042 16.83,11.061 26.162,15.052c7.284,3.122 13.953,4.944 20.008,5.462c12.1,2.034 23.641,0.469 34.623,-4.695c15.386,-6.428 25.575,-17.882 30.571,-34.362c0.274,-0.903 0.153,-2.477 -0.364,-4.719c-0.113,-0.512 -0.505,-0.908 -0.996,-1.006c-1.636,-0.335 -3.178,-0.063 -4.627,0.817c-4.912,3.005 -9.635,5.738 -14.167,8.198c-6.669,3.614 -13.285,6.39 -19.849,8.324c-11.031,1.741 -21.844,1.203 -32.44,-1.607c-8.554,-3.584 -16.76,-8.366 -24.619,-14.351c-3.991,-3.046 -8.204,-6.44 -12.639,-10.182c-2.974,-2.51 -5.207,-3.715 -8.244,-0.701c-7.987,7.933 -16.776,14.755 -26.368,20.462c-10.48,6.228 -21.832,9.123 -34.054,8.688c-8.222,-1.247 -16.057,-3.833 -23.503,-7.758c-9.842,-6.537 -18.627,-14.233 -26.356,-23.089c-1.204,-1.372 -3.126,-1.813 -4.772,-1.09c-2.314,1.011 -4.33,2.263 -6.046,3.752c-5.777,5.031 -11.372,9.809 -16.778,14.337c-5.082,4.26 -10.387,7.253 -15.916,8.977c-3.715,1.155 -6.26,2.092 -7.635,2.812Zm-13.027,97.535c1.25,4.256 3.666,7.571 6.798,12.216c10.756,15.919 27.717,26.05 45.782,29.867c22.095,4.657 46.29,-4.796 65.339,-16.246c0.898,-0.543 2.015,-0.543 2.913,-0c13.112,7.916 27.186,13.22 42.225,15.905c22.531,4.031 45.708,-5.335 62.704,-20.375c5.568,-4.938 9.68,-10.524 12.334,-16.76c1.336,-3.138 0.522,-8.398 -4.431,-6.478c-0.624,0.243 -5.365,2.348 -14.228,6.316c-14.398,6.439 -29.137,11.964 -44.495,11.775c-17.53,-0.225 -33.774,-7.621 -47.662,-19.019c-4.869,-3.98 -7.904,-6.341 -13.246,-2.286c-10.771,8.185 -22.471,14.291 -35.097,18.318c-9.007,2.87 -19.298,3.59 -30.872,2.159c-8.681,-1.067 -20.019,-5.926 -27.984,-10.007c-6.094,-3.124 -15.213,-8.273 -19.011,-7.319c-0.011,0.003 -0.02,0.006 -0.031,0.009c-0.79,0.223 -1.264,1.073 -1.049,1.885c0.003,0.012 0.007,0.026 0.011,0.04Z" style="fill:#ffdf00;fill-rule:nonzero;"/>
                    <path d="M823.233,425.866c-2.75,4.829 -6.292,9.378 -10.621,13.646c-6.379,6.287 -13.213,12.4 -20.505,18.343c-19.814,16.137 -42.207,26.055 -67.185,29.753c-37.286,5.516 -71.842,-2.176 -103.665,-23.075c-5.828,-3.824 -11.569,-7.855 -17.229,-12.09c5.877,3.465 11.604,7.207 17.18,11.223c2.372,1.709 7.778,4.776 16.219,9.204c13.525,7.105 27.434,11.709 41.726,13.81c11.68,1.708 23.353,2.163 35.026,1.367c11.921,-0.811 23.361,-3.091 34.32,-6.841c11.121,-3.817 21.969,-9.156 32.547,-16.02c4.824,-3.13 10.364,-7.435 16.621,-12.918c6.888,-6.042 12.039,-10.847 15.454,-14.413c1.659,-1.723 5.031,-5.72 10.112,-11.989Z" style="fill:#441f00;fill-rule:nonzero;"/>
                    <path d="M511.33,636.604c7.082,5.148 14.917,7.733 23.504,7.758c12.221,0.435 23.573,-2.46 34.053,-8.688c9.592,-5.707 18.381,-12.529 26.368,-20.462c3.037,-3.014 5.27,-1.809 8.244,0.701c4.435,3.742 8.648,7.136 12.639,10.182c7.859,5.985 16.065,10.767 24.619,14.351c10.693,4.1 21.505,4.636 32.44,1.607c6.564,-1.934 13.18,-4.71 19.849,-8.324c4.532,-2.46 9.255,-5.193 14.167,-8.198c1.449,-0.88 2.991,-1.152 4.627,-0.817c0.491,0.098 0.883,0.494 0.996,1.006c0.517,2.242 0.638,3.816 0.364,4.719c-4.996,16.48 -15.185,27.934 -30.571,34.362c-11.2,3.9 -22.743,5.466 -34.623,4.695c-6.055,-0.518 -12.724,-2.34 -20.008,-5.462c-9.332,-3.991 -18.052,-9.01 -26.162,-15.052c-0.574,-0.423 -1.358,-0.381 -1.882,0.1c-11.047,10.37 -23.863,17.038 -38.448,20c-10.814,1.229 -19.571,1.636 -26.271,1.217c-8.571,-0.543 -17.514,-2.754 -26.83,-6.629c-10.287,-4.276 -19.389,-9.645 -27.304,-16.107c-0.961,-0.783 -2.316,-0.815 -3.301,-0.075c-8.58,6.402 -17.658,11.713 -27.232,15.932c-5.956,2.619 -11.504,4.297 -16.644,5.034c-6.686,0.971 -12.468,1.113 -17.349,0.426c-10.699,-1.497 -21.038,-6.198 -31.018,-14.099c-6.605,-5.234 -17.591,-17.399 -17.75,-26.59l-0,-0.05c-0,-1.459 1.107,-2.662 2.453,-2.662c0.016,0 0.033,0 0.049,0.002c1.085,0.016 2.274,0.464 3.569,1.343c5.536,3.774 11.136,7.014 16.802,9.716c13.743,6.998 28.125,8.918 43.147,5.763c1.375,-0.72 3.92,-1.657 7.636,-2.812c5.528,-1.724 10.833,-4.717 15.915,-8.977c5.407,-4.528 11.001,-9.306 16.778,-14.337c1.717,-1.489 3.732,-2.741 6.046,-3.752c1.646,-0.723 3.568,-0.282 4.772,1.09c7.729,8.856 16.514,16.552 26.356,23.089Z" style="fill:#978800;fill-rule:nonzero;"/>
                    <path d="M640.753,640.446c10.596,2.81 21.409,3.348 32.44,1.607c-10.935,3.029 -21.747,2.493 -32.44,-1.607Z" style="fill:#441f00;fill-rule:nonzero;"/>
                    <path d="M682.632,664.801c-10.982,5.164 -22.523,6.729 -34.623,4.695c11.88,0.771 23.422,-0.795 34.623,-4.695Z" style="fill:#441f00;fill-rule:nonzero;"/>
                    <path d="M420.805,739.838c-0.004,-0.014 -0.008,-0.028 -0.01,-0.04c-0.216,-0.812 0.258,-1.662 1.049,-1.885c0.01,-0.003 0.02,-0.006 0.03,-0.009c3.799,-0.954 12.917,4.195 19.011,7.319c7.965,4.081 19.304,8.94 27.984,10.007c11.574,1.431 21.865,0.711 30.872,-2.159c12.626,-4.027 24.326,-10.133 35.098,-18.318c5.341,-4.055 8.377,-1.694 13.245,2.286c13.888,11.398 30.133,18.794 47.663,19.019c15.358,0.189 30.096,-5.336 44.494,-11.775c8.863,-3.968 13.604,-6.073 14.228,-6.316c4.954,-1.92 5.767,3.34 4.432,6.478c-2.654,6.236 -6.767,11.822 -12.335,16.76c-16.996,15.04 -40.172,24.406 -62.703,20.375c-15.039,-2.685 -29.114,-7.989 -42.226,-15.905c-0.898,-0.543 -2.014,-0.543 -2.912,-0c-19.05,11.45 -43.244,20.903 -65.34,16.246c-18.065,-3.817 -35.026,-13.948 -45.781,-29.867c-3.133,-4.645 -5.548,-7.96 -6.799,-12.216Zm119.4,-5.775c-0.853,-0.239 -1.769,-0.109 -2.537,0.364c-2.25,1.381 -5.391,3.398 -9.421,6.05c-6.831,4.487 -13.9,8.17 -21.209,11.049c-7.722,3.03 -15.414,4.808 -23.08,5.336c-11.224,0.77 -22.842,-1.428 -34.854,-6.592c-5.981,-2.56 -9.542,-4.184 -10.684,-4.87c-3.605,-2.172 -11.035,-5.362 -14.457,-6.466c-0.13,-0.041 -0.264,-0.061 -0.399,-0.061c-0.747,-0 -1.36,0.635 -1.36,1.406c-0,0.084 0.007,0.168 0.021,0.25c0.364,2.146 1.664,3.929 2.805,5.724c5.011,7.81 8.928,13.052 11.752,15.73c8.466,8.01 18.481,13.836 30.047,17.477c7.041,2.209 13.888,3.126 20.541,2.748c7.94,-0.46 14.771,-1.602 20.493,-3.427c9.964,-3.162 20.117,-7.742 30.46,-13.734c1.2,-0.691 2.67,-0.667 3.849,0.062c8.486,5.273 17.615,8.751 28.577,12.405c3.327,1.113 6.989,2.02 10.988,2.724c6.548,1.163 10.283,1.737 11.205,1.72c15.176,-0.285 29.255,-4.637 42.237,-13.057c7.17,-4.645 13.492,-10.672 18.963,-18.078c1.603,-2.172 5.487,-8.449 3.642,-11.388c-0.446,-0.712 -1.335,-0.99 -2.088,-0.651c-13.998,6.352 -29.646,12.981 -45.648,16.86c-3.497,0.844 -6.919,1.297 -10.27,1.356c-6.232,0.1 -9.692,0.096 -10.381,-0.013c-16.299,-2.604 -31.382,-9.7 -45.246,-21.292c-0.616,-0.52 -1.93,-1.063 -3.946,-1.632Z" style="fill:#441f00;fill-rule:nonzero;"/>
                    <path d="M539.103,734.372c2.016,0.57 3.331,1.113 3.946,1.633c13.864,11.593 28.947,18.688 45.246,21.292c0.689,0.11 4.15,0.114 10.381,0.012c3.351,-0.058 6.773,-0.509 10.27,-1.356c16.002,-3.877 31.65,-10.507 45.648,-16.86c0.753,-0.339 1.641,-0.061 2.088,0.653c1.845,2.938 -2.041,9.215 -3.642,11.388c-5.471,7.406 -11.792,13.432 -18.963,18.078c-12.982,8.418 -27.061,12.771 -42.236,13.056c-0.923,0.017 -4.658,-0.557 -11.205,-1.72c-3.999,-0.703 -7.662,-1.612 -10.987,-2.724c-10.962,-3.655 -20.093,-7.132 -28.579,-12.405c-1.177,-0.729 -2.649,-0.753 -3.849,-0.062c-10.343,5.992 -20.496,10.571 -30.46,13.734c-5.722,1.825 -12.552,2.967 -20.492,3.427c-6.654,0.378 -13.5,-0.539 -20.542,-2.748c-11.565,-3.642 -21.581,-9.467 -30.047,-17.477c-2.824,-2.677 -6.741,-7.921 -11.752,-15.73c-1.14,-1.795 -2.439,-3.578 -2.803,-5.724c-0.015,-0.082 -0.023,-0.166 -0.023,-0.251c0,-0.771 0.615,-1.406 1.36,-1.406c0.135,0 0.269,0.021 0.399,0.062c3.422,1.104 10.852,4.294 14.459,6.466c1.141,0.686 4.701,2.31 10.683,4.871c12.011,5.163 23.629,7.361 34.855,6.591c7.664,-0.528 15.356,-2.305 23.078,-5.337c7.308,-2.878 14.378,-6.56 21.209,-11.046c4.032,-2.654 7.172,-4.672 9.421,-6.053c0.768,-0.472 1.685,-0.603 2.537,-0.364Z" style="fill:#978800;fill-rule:nonzero;"/>
                    <path d="M722.67,978.452c-2.867,-8.101 -6.596,-15.526 -11.193,-22.271c-0.404,-0.592 -0.869,-1.127 -1.384,-1.594c-5.552,-5.031 -11.409,-8.831 -17.568,-11.399c-8.918,-3.717 -18.748,-6.147 -29.488,-7.295c9.194,0.21 18.044,1.989 26.551,5.336c7.129,2.805 13.847,6.767 20.152,11.888c0.306,0.252 0.592,0.538 0.849,0.855c5.845,7.24 9.871,15.4 12.081,24.48Z" style="fill:#441f00;fill-rule:nonzero;"/>
                    <path d="M663.044,935.896c10.739,1.148 20.569,3.578 29.488,7.294c6.159,2.569 12.015,6.369 17.567,11.4c0.516,0.467 0.98,1.002 1.384,1.594c4.597,6.745 8.327,14.17 11.193,22.271c0.008,9.249 -2.463,16.802 -7.417,22.661c-3.57,4.218 -7.126,0.954 -11.036,-2.109c-1.538,-1.205 -4.119,-3.544 -7.745,-7.018c-3.678,-3.528 -10.866,-6.065 -15.698,-3.867c-5.099,2.323 -6.955,7.106 -10.064,13.056c-0.648,1.222 -1.583,2.026 -2.804,2.411c-6.593,2.084 -9.749,-5.562 -11.509,-10.52c-1.417,-4.009 -2.555,-6.44 -3.412,-7.295c-5.863,-5.861 -14.106,-3.188 -19.837,1.52c-4.928,4.03 -4.699,10.922 -7.625,15.856c-0.213,0.371 -0.588,0.614 -1.006,0.653c-3.845,0.418 -6.391,0.372 -7.637,-0.139c-10.448,-4.318 -15.059,-11.976 -13.828,-22.973c1.909,-17.058 9.627,-29.24 23.152,-36.546c10.707,-5.792 22.985,-8.542 36.834,-8.249Z" style="fill:#ffdf00;fill-rule:nonzero;stroke:#000;stroke-width:1.06px;stroke-linejoin:round;stroke-miterlimit:2;"/>
                </g>
                <path d="M845.881,468.475c-0.033,-0.142 -0.057,-0.254 -0.073,-0.338c-0.029,-0.109 -0.124,-0.186 -0.234,-0.186c-0.09,0 -0.174,0.053 -0.215,0.135l-3.047,5.437c-0.612,1.103 -0.464,2.499 0.364,3.44l19.473,22.17" style="fill:none;fill-rule:nonzero;stroke:#643c05;stroke-width:2.47px;"/>
                <path d="M438.685,123.821l-23.588,9.154" style="fill:none;fill-rule:nonzero;stroke:#bd8e26;stroke-width:2.47px;"/>
                <path d="M415.097,132.975c-0.931,-0.252 -2.036,-0.106 -3.315,0.439c-9.238,3.941 -18.623,9.351 -24.45,12.679c-8.352,4.759 -15.587,6.465 -23.892,5.763c-22.691,-1.896 -43.85,-9.355 -65.314,-19.473c-14.116,-6.653 -26.956,-14.993 -38.522,-25.02c-0.445,-0.378 -0.725,-0.418 -0.839,-0.126" style="fill:none;fill-rule:nonzero;stroke:#643c05;stroke-width:2.47px;"/>
                <path d="M258.761,107.237l-0.8,-0.515c-0.098,-0.062 -0.212,-0.097 -0.328,-0.097c-0.339,0 -0.619,0.289 -0.619,0.641l0,0.322" style="fill:none;fill-rule:nonzero;stroke:#bd8e26;stroke-width:2.47px;"/>
                <path d="M257.013,107.588c-0.51,0.185 -0.673,0.792 -0.486,1.822c2.963,16.462 8.066,30.895 15.309,43.299c6.467,11.057 14.047,20.175 22.738,27.357c1.328,1.095 2.425,2.13 3.291,3.1c0.223,0.247 0.503,0.433 0.813,0.539l0.546,0.177c0.242,0.082 0.468,0.206 0.668,0.363c6.937,5.667 14.387,10.181 22.351,13.546c0.41,0.167 0.841,0.26 1.275,0.277c2.347,0.083 3.973,-0.017 4.879,-0.302c20.34,-6.352 40.921,-9.035 61.746,-8.047c11.097,0.52 21.63,2.494 31.601,5.926c9.195,3.172 15.69,5.662 19.485,7.47c6.436,3.071 13.577,7.407 21.428,13.006c5.609,3.993 11.197,8.951 16.766,14.876c6.556,6.964 11.439,12.651 14.654,17.062c6.499,8.906 11.181,16.493 14.045,22.76c4.119,9.016 8.062,20.452 11.825,34.312" style="fill:none;fill-rule:nonzero;stroke:#643c05;stroke-width:2.47px;"/>
                <path d="M725.967,190.875c3.141,1.196 7.652,2.343 13.536,3.439c1.028,0.185 6.07,1.57 15.126,4.155c2.057,0.587 3.885,0.449 5.489,-0.414c5.196,-2.774 13.256,-7.256 18.901,-11.913c9.235,-7.625 16.314,-14.664 21.234,-21.117c11.931,-15.685 19.659,-33.512 23.187,-53.481c0.163,-0.93 -0.132,-1.462 -0.886,-1.595" style="fill:none;fill-rule:nonzero;stroke:#643c05;stroke-width:2.47px;"/>
                <path d="M822.558,109.949l0.486,-3.026c0.007,-0.037 0.009,-0.073 0.009,-0.109c0,-0.337 -0.267,-0.615 -0.594,-0.615c-0.141,-0 -0.278,0.051 -0.386,0.147c-9.971,8.879 -20.886,16.5 -32.742,22.861c-16.301,8.754 -33.119,15.27 -50.456,19.548" style="fill:none;fill-rule:nonzero;stroke:#bd8e26;stroke-width:2.47px;"/>
                <path d="M822.558,109.949c-4.042,24.557 -14.337,47.481 -31.855,64.63c-9.098,8.905 -19.243,16.296 -30.437,22.17c-1.804,0.955 -3.447,1.217 -4.928,0.792c-10.464,-2.98 -20.255,-5.201 -29.367,-6.666" style="fill:none;fill-rule:nonzero;stroke:#9d7121;stroke-width:2.47px;"/>
                <path d="M519.952,305.131c-3.512,-18.615 -9.619,-34.503 -18.319,-47.669c-13.841,-20.928 -32.682,-41.027 -54.474,-52.576c-22.921,-12.153 -49.107,-17.841 -75.111,-16.109c-15.636,1.042 -28.882,4.093 -45.089,8.374c-1.894,0.495 -3.614,0.347 -5.16,-0.439c-20.529,-10.47 -38.411,-24.957 -49.848,-45.146c-7.13,-12.58 -12.108,-27.237 -14.933,-43.978" style="fill:none;fill-rule:nonzero;stroke:#9d7121;stroke-width:2.47px;"/>
                <path d="M258.761,107.237c0.689,0.829 1.441,1.586 2.26,2.273c10.569,8.872 22.334,16.475 35.292,22.81c15.441,7.558 31.217,13.334 47.322,17.326c10.137,2.512 22.848,4.168 33.156,1.945c2.305,-0.493 6.284,-2.297 11.933,-5.41c8.636,-4.745 17.425,-9.148 26.369,-13.206" style="fill:none;fill-rule:nonzero;stroke:#9d7121;stroke-width:2.47px;"/>
                <path d="M322.228,238.794c-11.299,6.846 -20.816,14.558 -28.553,23.138c-4.25,4.721 -8.885,10.93 -13.902,18.631" style="fill:none;fill-rule:nonzero;stroke:#bd8e26;stroke-width:2.47px;"/>
                <path d="M279.78,280.563c-3.861,4.946 -6.495,10.481 -7.903,16.609" style="fill:none;fill-rule:nonzero;stroke:#643c05;stroke-width:2.47px;"/>
                <path d="M271.873,297.172c-4.565,12.914 -7.203,25.64 -7.916,38.177c-0.565,10.002 0.356,20.559 2.768,31.674" style="fill:none;fill-rule:nonzero;stroke:#bd8e26;stroke-width:2.47px;"/>
                <path d="M266.734,367.023c0.018,3.667 1.105,8.053 3.266,13.158c6.96,16.471 16.292,30.462 27.995,41.97c16.426,16.169 37.757,28.184 60.496,31.486c5.495,0.803 9.879,1.285 13.148,1.443c22.306,1.063 42.393,-3.422 60.264,-13.457c31.37,-17.615 52.773,-48.925 59.075,-85.27c1.165,-6.688 1.421,-14.183 0.764,-22.484c-1.028,-13.057 -3.702,-25.477 -8.025,-37.263c-8.83,-24.086 -23.935,-43.177 -45.318,-57.272c-10.248,-6.746 -21.392,-11.521 -33.435,-14.325c-6.629,-1.539 -11.368,-2.405 -14.217,-2.598c-3.795,-0.26 -8.894,-0.377 -15.297,-0.351c-6.013,0.016 -11.096,0.443 -15.248,1.279c-13.071,2.645 -24.903,6.909 -35.497,12.793c-1.684,0.93 -2.505,1.816 -2.465,2.662" style="fill:none;fill-rule:nonzero;stroke:#643c05;stroke-width:2.47px;"/>
                <path d="M266.734,367.023c7.54,31.575 30.69,58.668 58.055,74.172c20.456,11.587 44.969,15.079 68.399,12.103c38.752,-4.922 72.379,-31.072 88.198,-67.82c5.455,-12.671 8.584,-24.572 9.385,-35.704c1.189,-16.714 -1.077,-33.461 -6.798,-50.242c-13.317,-39.044 -45.26,-67.479 -84.533,-74.974c-26.935,-5.148 -52.669,-0.402 -77.2,14.236" style="fill:none;fill-rule:nonzero;stroke:#9d7121;stroke-width:2.47px;"/>
                <path d="M271.873,297.172l7.903,-16.609" style="fill:none;fill-rule:nonzero;stroke:#9d7121;stroke-width:2.47px;"/>
                <path d="M527.064,365.756c-2.194,1.172 -3.764,3.033 -4.711,5.587c-1.61,4.37 -4.325,12.224 -8.146,23.564c-1.213,3.625 -5.01,12.019 -11.388,25.185c-0.166,0.354 -0.258,0.744 -0.267,1.142c-0.04,2.537 0.495,4.892 1.602,7.069c6.087,11.968 13.647,23.508 22.679,34.623c3.121,3.83 7.03,6.768 10.769,10.584c1,1.003 2.591,1.059 3.654,0.125c4.209,-3.707 9.121,-8.667 14.738,-14.876c3.965,-4.394 7.609,-9.107 10.926,-14.137c3.788,-5.742 6.933,-10.83 9.433,-15.265c2.42,-4.294 2.797,-8.232 1.13,-11.815c-4.873,-10.47 -9.041,-20.71 -12.505,-30.719c-2.808,-8.111 -4.462,-12.676 -4.966,-13.697c-1.238,-2.503 -2.48,-4.373 -3.725,-5.612c-1.318,-1.305 -3.039,-2.088 -4.857,-2.211c-3.335,-0.216 -10.133,-0.351 -20.396,-0.4c-1.554,-0.009 -2.877,0.277 -3.97,0.853" style="fill:none;fill-rule:nonzero;stroke:#643c05;stroke-width:2.47px;"/>
                <path d="M604.027,452.443c-0.995,0.236 -1.95,0.039 -2.865,-0.589c-0.009,-0.007 -0.018,-0.014 -0.029,-0.019c-0.804,-0.528 -1.888,-0.274 -2.402,0.562c-0.007,0.011 -0.014,0.024 -0.022,0.035c-12.321,21.053 -28.467,40.311 -47.879,54.084c-4.553,3.239 -10.149,7.218 -15.006,4.231" style="fill:none;fill-rule:nonzero;stroke:#bd8e26;stroke-width:2.47px;"/>
                <path d="M535.819,510.747c-9.065,-5.374 -17.114,-11.881 -24.148,-19.524c-3.553,-3.866 -5.786,-6.367 -6.701,-7.505c-8.361,-10.395 -16.272,-21.231 -23.735,-32.504" style="fill:none;fill-rule:nonzero;stroke:#643c05;stroke-width:2.47px;"/>
                <path d="M481.239,451.214c-1.408,0.15 -2.424,0.451 -3.046,0.903c-5.416,3.951 -10.883,7.818 -16.402,11.601c-19.457,13.332 -40.686,21.505 -63.689,24.518" style="fill:none;fill-rule:nonzero;stroke:#bd8e26;stroke-width:2.47px;"/>
                <path d="M398.105,488.236l0.499,-0.364c0.089,-0.068 0.142,-0.176 0.142,-0.292c-0,-0.198 -0.159,-0.364 -0.353,-0.364c-0.016,0 -0.03,0.002 -0.045,0.003l-6.385,0.992c-0.049,0.008 -0.094,0.013 -0.134,0.013c-7.284,-0 -13.074,0.029 -17.373,0.087c-5.899,0.092 -11.605,-0.25 -17.117,-1.028c-22.208,-3.132 -42.431,-11.2 -60.666,-24.206c-9.728,-6.946 -19.064,-15.108 -28.008,-24.48c-1.455,-1.524 -3.297,-3.713 -5.522,-6.566c-1.765,-2.253 -3.599,-4.453 -5.501,-6.604" style="fill:none;fill-rule:nonzero;stroke:#643c05;stroke-width:2.47px;"/>
                <path d="M257.636,425.427l-1.129,-0.892c-0.085,-0.067 -0.188,-0.103 -0.294,-0.103c-0.245,0 -0.453,0.192 -0.483,0.443c-0.032,0.35 0.008,0.706 0.122,1.066" style="fill:none;fill-rule:nonzero;stroke:#bd8e26;stroke-width:2.47px;"/>
                <path d="M255.848,425.941c-0.284,0.301 -0.369,0.607 -0.256,0.917c3.861,10.805 8.576,21.539 14.144,32.203c5.197,9.93 11.983,19.697 19.425,28.121c9.194,10.403 18.441,19.605 27.74,27.606c0.853,0.737 1.037,2.034 0.425,3.001c-1.287,2.072 -4.407,2.022 -7.709,2.511c-1.554,0.235 -3.302,0.293 -5.245,0.176c-16.122,-1.012 -30.654,-6.617 -43.596,-16.811c-0.461,-0.368 -0.889,-0.418 -1.286,-0.15" style="fill:none;fill-rule:nonzero;stroke:#643c05;stroke-width:2.47px;"/>
                <path d="M259.49,503.515c-0.77,0.108 -1.323,0.339 -1.664,0.69c-18.185,19.527 -31.88,42.183 -41.082,67.97" style="fill:none;fill-rule:nonzero;stroke:#bd8e26;stroke-width:2.47px;"/>
                <path d="M216.75,572.175c-0.235,-0.795 -0.539,-0.687 -0.909,0.326c-5.247,14.245 -9.094,27.796 -11.547,40.65c-1.279,6.756 -2.193,11.878 -2.743,15.367c-0.866,5.499 -1.533,13.09 -2.004,22.774c-0.291,5.951 0.341,10.81 0.414,16.735c0.039,2.887 0.404,7.056 1.091,12.505c1.781,14.135 3.947,26.284 6.495,36.444c8.584,34.136 25.373,65.898 46.608,94.195c0.103,0.132 0.237,0.236 0.388,0.302c0.38,0.168 0.63,0.12 0.752,-0.138" style="fill:none;fill-rule:nonzero;stroke:#643c05;stroke-width:2.47px;"/>
                <path d="M255.291,811.325c0.284,-0.101 0.567,-0.126 0.851,-0.076" style="fill:none;fill-rule:nonzero;stroke:#bd8e26;stroke-width:2.47px;"/>
                <path d="M256.139,811.256c0.332,0.201 0.715,-0.029 1.154,-0.691c2.754,-4.216 5.341,-9.577 7.101,-14.951c7.972,-24.195 12.561,-38.48 13.768,-42.848c13.718,-49.632 23.952,-100.686 30.703,-153.162c0.039,-0.302 -0.183,-0.394 -0.669,-0.277" style="fill:none;fill-rule:nonzero;stroke:#643c05;stroke-width:2.47px;"/>
                <path d="M308.202,599.33c1.445,-13.081 6.763,-30.884 19.875,-36.043c0.135,-0.054 0.277,-0.081 0.42,-0.081c0.496,0 0.943,0.324 1.109,0.808c0.898,2.574 1.069,6.102 1.373,8.362c1.374,10.236 1.978,20.425 1.807,30.569" style="fill:none;fill-rule:nonzero;stroke:#bd8e26;stroke-width:2.47px;"/>
                <path d="M332.784,602.945c-0.461,4.913 -0.68,9.801 -0.655,14.663c0.002,0.064 0.014,0.132 0.034,0.202c0.062,0.203 0.186,0.347 0.275,0.318c0.029,-0.01 0.052,-0.037 0.066,-0.08c0.074,-0.259 0.135,-0.673 0.183,-1.243" style="fill:none;fill-rule:nonzero;stroke:#643c05;stroke-width:2.47px;"/>
                <path d="M332.691,616.805c0.299,9.743 0.032,20.334 -0.801,31.775c-2.662,36.567 -8.575,72.054 -17.737,106.461" style="fill:none;fill-rule:nonzero;stroke:#bd8e26;stroke-width:2.47px;"/>
                <path d="M314.149,755.041l-0.037,-0.691c-0.012,-0.133 -0.122,-0.237 -0.253,-0.237c-0.113,-0 -0.212,0.077 -0.244,0.187c-6.35,24.029 -13.318,44.368 -22.181,68.76c-0.922,2.529 -1.347,5.153 -1.274,7.872" style="fill:none;fill-rule:nonzero;stroke:#643c05;stroke-width:2.47px;"/>
                <path d="M787.593,837.64c3.522,-2.98 4.298,-7.308 2.331,-12.982c-5.414,-15.585 -9.401,-26.964 -11.958,-34.136c-1.028,-2.862 -3.731,-11.964 -8.11,-27.305c-2.955,-10.345 -5.317,-19.547 -7.089,-27.607c-6.403,-29.018 -10.636,-57.608 -12.699,-85.772c-0.599,-8.193 -0.992,-15.099 -1.177,-20.714c-0.721,-22.112 0.435,-43.304 3.472,-63.575c0.078,-0.531 0.523,-0.927 1.043,-0.927c0.151,0 0.3,0.034 0.438,0.099c5.349,2.544 9.283,6.645 11.799,12.303c2.323,5.231 3.792,9.682 4.407,13.357c2.364,14.22 4.781,29.716 7.248,46.488c2.023,13.769 5.893,33.819 11.606,60.149c3.408,15.676 7.43,31.595 12.067,47.757c4.144,14.445 8.879,30.146 14.206,47.103c2.038,6.487 4.532,12.467 7.476,17.94c0.163,0.31 0.453,0.526 0.79,0.59c0.291,0.068 0.381,0.025 0.267,-0.125" style="fill:none;fill-rule:nonzero;stroke:#643c05;stroke-width:2.47px;"/>
                <path d="M823.71,810.283c0.591,0.159 1.154,0.213 1.688,0.164" style="fill:none;fill-rule:nonzero;stroke:#bd8e26;stroke-width:2.47px;"/>
                <path d="M825.406,810.436c0.915,-0.16 1.704,-0.679 2.368,-1.559c7.552,-9.966 14.478,-20.651 20.784,-32.05c6.733,-12.169 12.921,-26.389 18.562,-42.66c5.949,-17.137 9.227,-35.39 11.557,-53.267c1.385,-10.647 1.826,-21.326 1.324,-32.039c-0.348,-7.457 -0.671,-12.459 -0.971,-15.002c-1.392,-11.768 -4.096,-25.18 -8.11,-40.237c-6.96,-26.054 -17.944,-49.443 -32.95,-70.167c-5.178,-7.155 -9.108,-12.173 -11.787,-15.052c-1.788,-1.925 -3.168,-3.315 -4.14,-4.168c-0.918,-0.792 -2.249,-0.834 -3.204,-0.1c-12.748,9.75 -26.859,15.17 -42.334,16.257c-3.375,0.239 -7.649,-0.213 -10.793,-1.33c-1.247,-0.438 -2.002,-1.769 -1.76,-3.101c0.097,-0.553 0.624,-1.252 1.577,-2.097c15.339,-13.61 28.167,-27.552 38.486,-41.832c8.952,-12.395 16.041,-27.636 21.27,-45.721" style="fill:none;fill-rule:nonzero;stroke:#643c05;stroke-width:2.47px;"/>
                <path d="M825.286,426.319l-0.194,-1.683c-0.011,-0.136 -0.122,-0.244 -0.255,-0.244c-0.068,-0 -0.135,0.029 -0.182,0.08l-1.422,1.394" style="fill:none;fill-rule:nonzero;stroke:#bd8e26;stroke-width:2.47px;"/>
                <path d="M825.286,426.319c-2.339,5.699 -4.65,11.373 -6.932,17.024c-3.764,9.327 -7.904,17.927 -12.869,25.22c-10.384,15.274 -23.689,29.968 -39.917,44.079c-1.538,1.339 -2.372,2.674 -2.501,4.004c-0.137,1.331 0.843,2.688 2.367,3.277c2.882,1.113 6.095,1.57 9.639,1.369c16.803,-0.98 31.719,-6.695 44.75,-17.149c0.371,-0.3 0.907,-0.268 1.25,0.075c33.058,34.035 50.564,80.324 56.78,127.138c2.024,15.2 1.996,31.143 -0.085,47.832c-1.642,13.216 -3.435,24.029 -5.378,32.44c-7.616,33.119 -21.177,63.438 -40.681,90.955c-1.959,2.756 -4.06,5.375 -6.302,7.861" style="fill:none;fill-rule:nonzero;stroke:#9d7121;stroke-width:2.47px;"/>
                <path d="M823.71,810.283c-2.953,-5.407 -5.949,-12.922 -8.983,-22.548c-5.213,-16.547 -9.381,-30.344 -12.504,-41.392c-9.657,-34.088 -17.56,-69.952 -23.71,-107.59c-1.223,-7.481 -3.542,-22.48 -6.957,-44.994c-1.845,-12.216 -6.192,-25.072 -17.954,-30.521c-0.052,-0.022 -0.105,-0.043 -0.158,-0.061c-0.812,-0.268 -1.693,0.198 -1.95,1.031c-0.017,0.057 -0.031,0.114 -0.042,0.172c-1.408,7.249 -2.319,14.497 -2.732,21.745c-2.105,37.63 -0.162,74.798 5.827,111.508c5.115,31.351 12.464,61.649 22.047,90.894c3.133,9.556 7.438,21.852 12.918,36.884c1.416,3.866 0.776,7.943 -1.919,12.229" style="fill:none;fill-rule:nonzero;stroke:#9d7121;stroke-width:2.47px;"/>
                <path d="M290.164,830.929c1.433,-5.775 2.679,-10.081 3.74,-12.918c7.744,-20.664 14.494,-41.656 20.249,-62.973" style="fill:none;fill-rule:nonzero;stroke:#9d7121;stroke-width:2.47px;"/>
                <path d="M332.691,616.805l0.097,-13.86" style="fill:none;fill-rule:nonzero;stroke:#9d7121;stroke-width:2.47px;"/>
                <path d="M308.202,599.33c-5.219,37.605 -11.998,74.895 -20.334,111.872c-2.453,10.884 -5.961,23.765 -9.032,35.579c-3.68,14.173 -8.681,28.096 -12.906,42.17c-2.372,7.883 -5.632,15.319 -9.784,22.308" style="fill:none;fill-rule:nonzero;stroke:#9d7121;stroke-width:2.47px;"/>
                <path d="M255.291,811.325c-16.437,-21.527 -29.12,-43.686 -38.047,-66.474c-10.351,-26.433 -15.964,-55.09 -16.838,-85.973c-0.195,-6.688 0.149,-13.989 1.031,-21.907c2.526,-22.716 7.629,-44.317 15.309,-64.806" style="fill:none;fill-rule:nonzero;stroke:#9d7121;stroke-width:2.47px;"/>
                <path d="M259.49,503.515c12.52,10.127 26.672,15.974 42.453,17.539c4.044,0.4 13.842,0.853 16.281,-3.39c0.6,-1.043 0.379,-2.396 -0.522,-3.177c-14.689,-12.792 -30.8,-28.799 -41.531,-45.924c-8.694,-13.859 -14.593,-28.045 -20.323,-42.622" style="fill:none;fill-rule:nonzero;stroke:#9d7121;stroke-width:2.47px;"/>
                <path d="M257.636,425.427c2.307,3.96 4.746,7.361 7.32,10.206c22.885,25.271 50.408,44.04 84.46,51.097c14.14,2.92 30.368,3.423 48.682,1.506" style="fill:none;fill-rule:nonzero;stroke:#9d7121;stroke-width:2.47px;"/>
                <path d="M481.239,451.214c3.74,6.528 7.782,12.783 12.129,18.769c5.706,7.858 11.868,15.291 18.489,22.296c7.682,8.118 15.67,14.275 23.966,18.468" style="fill:none;fill-rule:nonzero;stroke:#9d7121;stroke-width:2.47px;"/>
                <path d="M478.153,973.479c-1.577,-10.254 -6.507,-18.191 -14.786,-23.817" style="fill:none;fill-rule:nonzero;stroke:#643c05;stroke-width:2.47px;"/>
                <path d="M463.373,949.665c-7.14,-4.745 -14.408,-8.156 -21.805,-10.232c-6.733,-1.882 -14.159,-2.899 -22.278,-3.049c-14.447,-0.252 -29.925,4.82 -41.313,12.779c-4.031,2.825 -8.438,6.829 -10.975,11.287c-2.853,4.995 -6.641,12.478 -7.685,17.638c-1.124,5.566 -0.311,11.329 2.441,17.287c1.954,4.232 6.094,11.714 11.388,5.863c0.76,-0.836 3.176,-3.222 7.247,-7.155c4.31,-4.156 7.927,-4.545 13.718,-5.562c1.886,-0.335 3.566,-0.179 5.039,0.464c0.343,0.157 0.635,0.399 0.85,0.705c3.731,5.289 6.741,8.979 9.031,11.072c2.858,2.612 6.055,2.971 9.592,1.079c4.807,-2.573 6.227,-7.205 7.745,-12.856c0.097,-0.367 0.244,-0.717 0.438,-1.042c5.086,-8.6 14.239,-6.339 20.006,-0.251c3.63,3.855 4.626,9.365 8.062,13.484c2.161,2.599 5.329,4.671 8.17,3.352c5.949,-2.745 10.4,-6.838 13.354,-12.279c1.368,-2.519 2.105,-5.573 2.209,-9.163c0.091,-3.157 -0.06,-6.356 -0.449,-9.605" style="fill:none;fill-rule:nonzero;stroke:#bd8e26;stroke-width:2.47px;"/>
                <path d="M463.373,949.665c7.275,6.327 12.204,14.267 14.785,23.816" style="fill:none;fill-rule:nonzero;stroke:#9d7121;stroke-width:2.47px;"/>
                <path d="M395.416,388.756c9.066,-0.813 17.174,-3.494 24.329,-8.047c6.644,-4.243 11.703,-10.208 15.176,-17.891c2.574,-5.716 3.962,-11.14 4.164,-16.27" style="fill:none;fill-rule:nonzero;stroke:#bd8e26;stroke-width:2.47px;"/>
                <path d="M439.083,346.548c1.756,-10.512 0.803,-20.289 -2.855,-29.328c-3.916,-9.682 -10.048,-17.082 -18.392,-22.195c-18.696,-11.45 -46.023,-8.964 -59.863,9.089c-8.078,10.547 -12.104,22.134 -12.079,34.764c0.023,12.469 3.609,23.249 10.756,32.339c9.129,11.638 23.466,19.183 38.763,17.539" style="fill:none;fill-rule:nonzero;stroke:#9d7121;stroke-width:2.47px;"/>
                <path d="M439.083,346.548c1.035,-11.843 -0.859,-22.774 -5.684,-32.792c-2.985,-6.218 -7.023,-11.19 -12.114,-14.914c-13.25,-9.701 -27.675,-12.17 -43.281,-7.409c-7.98,2.436 -14.021,6.317 -18.125,11.639c-7.397,9.601 -11.647,19.878 -12.746,30.834c-2.673,26.465 12.673,48.032 37.937,53.933c0.402,0.1 0.815,0.129 1.226,0.089c3.148,-0.327 6.188,-0.052 9.117,0.828" style="fill:none;fill-rule:nonzero;stroke:#643c05;stroke-width:2.47px;"/>
                <path d="M540.15,473.662c14.041,-12.363 25.895,-27.256 35.559,-44.682c2.877,-5.209 2.416,-8.437 -0.145,-13.986c-4.526,-9.825 -7.799,-17.677 -9.822,-23.551c-4.046,-11.743 -6.256,-18.012 -6.629,-18.808c-1.181,-2.544 -2.861,-4.532 -5.038,-5.962c-1.101,-0.719 -3.581,-1.089 -7.442,-1.104c-9.745,-0.035 -15.071,-0.006 -15.977,0.087c-4.819,0.514 -6.07,2.636 -8.036,7.168c-0.479,1.096 -3.176,8.868 -8.098,23.314c-1.028,3.028 -4.392,10.407 -10.088,22.134c-1.494,3.074 -1.616,5.447 -0.135,8.384c6.695,13.259 14.71,25.566 24.051,36.923c1.925,2.344 5.49,5.709 10.695,10.094c0.325,0.275 0.795,0.269 1.105,-0.011" style="fill:none;fill-rule:nonzero;stroke:#9d7121;stroke-width:2.47px;"/>
                <path d="M433.825,642.303c-14.933,1.901 -29.315,-0.021 -43.148,-5.763" style="fill:none;fill-rule:nonzero;stroke:#9d7121;stroke-width:2.47px;"/>
                <path d="M390.688,636.54c-5.666,-2.702 -11.266,-5.942 -16.802,-9.716c-1.295,-0.879 -2.485,-1.327 -3.569,-1.343c-0.016,-0.002 -0.033,-0.002 -0.049,-0.002c-1.346,0 -2.453,1.203 -2.453,2.662l-0,0.05c0.159,9.191 11.145,21.356 17.75,26.59" style="fill:none;fill-rule:nonzero;stroke:#bd8e26;stroke-width:2.47px;"/>
                <path d="M385.562,654.781c18.924,16.472 40.297,19.721 64.125,9.744c10.521,-4.412 20.093,-9.982 28.711,-16.71c0.502,-0.392 1.2,-0.392 1.701,-0c7.154,5.556 14.864,10.349 23.127,14.374c18.583,9.048 38.011,11.346 58.286,6.893" style="fill:none;fill-rule:nonzero;stroke:#9d7121;stroke-width:2.47px;"/>
                <path d="M561.513,669.082c14.584,-2.962 27.401,-9.63 38.448,-20c0.523,-0.481 1.307,-0.523 1.882,-0.1c8.11,6.042 16.83,11.061 26.162,15.052c7.284,3.122 13.952,4.944 20.008,5.462" style="fill:none;fill-rule:nonzero;stroke:#bd8e26;stroke-width:2.47px;"/>
                <path d="M682.632,664.801c15.386,-6.428 25.575,-17.882 30.57,-34.362c0.275,-0.903 0.154,-2.477 -0.364,-4.719c-0.112,-0.512 -0.504,-0.908 -0.996,-1.006c-1.635,-0.335 -3.177,-0.063 -4.626,0.817c-4.912,3.005 -9.635,5.738 -14.167,8.198c-6.669,3.614 -13.286,6.39 -19.85,8.324" style="fill:none;fill-rule:nonzero;stroke:#bd8e26;stroke-width:2.47px;"/>
                <path d="M640.753,640.446c-8.554,-3.584 -16.76,-8.366 -24.619,-14.351c-3.991,-3.046 -8.204,-6.44 -12.639,-10.182c-2.974,-2.51 -5.207,-3.715 -8.244,-0.701c-7.987,7.933 -16.776,14.755 -26.368,20.462c-10.48,6.228 -21.832,9.123 -34.053,8.688" style="fill:none;fill-rule:nonzero;stroke:#bd8e26;stroke-width:2.47px;"/>
                <path d="M534.839,644.362c-8.222,-1.247 -16.058,-3.833 -23.504,-7.758" style="fill:none;fill-rule:nonzero;stroke:#9d7121;stroke-width:2.47px;"/>
                <path d="M511.33,636.604c-9.842,-6.537 -18.627,-14.233 -26.356,-23.089c-1.204,-1.372 -3.126,-1.813 -4.772,-1.09c-2.314,1.011 -4.329,2.263 -6.046,3.752c-5.777,5.031 -11.371,9.809 -16.778,14.337c-5.082,4.26 -10.387,7.253 -15.915,8.977c-3.716,1.155 -6.261,2.092 -7.636,2.812" style="fill:none;fill-rule:nonzero;stroke:#bd8e26;stroke-width:2.47px;"/>
                <path d="M511.33,636.604c7.082,5.148 14.917,7.733 23.504,7.758" style="fill:none;fill-rule:nonzero;stroke:#643c05;stroke-width:2.47px;"/>
                <path d="M561.513,669.082c-10.814,1.229 -19.571,1.636 -26.272,1.217c-8.57,-0.543 -17.514,-2.754 -26.83,-6.629c-10.287,-4.276 -19.388,-9.645 -27.303,-16.107c-0.962,-0.783 -2.316,-0.815 -3.302,-0.075c-8.579,6.402 -17.657,11.713 -27.231,15.932c-5.956,2.619 -11.504,4.297 -16.645,5.034c-6.685,0.971 -12.468,1.113 -17.348,0.426c-10.699,-1.497 -21.039,-6.198 -31.018,-14.099" style="fill:none;fill-rule:nonzero;stroke:#643c05;stroke-width:2.47px;"/>
                <path d="M390.688,636.54c13.743,6.998 28.125,8.918 43.147,5.763" style="fill:none;fill-rule:nonzero;stroke:#643c05;stroke-width:2.47px;"/>
                <path d="M415.097,132.975c-8.944,4.058 -17.733,8.461 -26.369,13.206c-5.649,3.113 -9.628,4.917 -11.933,5.41c-10.308,2.223 -23.019,0.567 -33.156,-1.945c-16.105,-3.992 -31.881,-9.768 -47.322,-17.326c-12.958,-6.335 -24.723,-13.938 -35.292,-22.81c-0.819,-0.687 -1.571,-1.444 -2.26,-2.273c0.114,-0.292 0.394,-0.252 0.839,0.126c11.566,10.027 24.406,18.367 38.522,25.02c21.464,10.118 42.623,17.577 65.314,19.473c8.305,0.702 15.54,-1.004 23.892,-5.763c5.827,-3.328 15.212,-8.738 24.45,-12.679c1.279,-0.545 2.384,-0.691 3.315,-0.439Z" style="fill:#441f00;fill-rule:nonzero;"/>
                <path d="M257.013,107.588c2.825,16.741 7.802,31.398 14.933,43.978c11.436,20.189 29.319,34.676 49.848,45.146c1.545,0.786 3.266,0.934 5.16,0.439c16.207,-4.281 29.452,-7.332 45.088,-8.374c26.004,-1.732 52.191,3.956 75.112,16.109c21.792,11.549 40.633,31.648 54.473,52.576c8.701,13.166 14.808,29.054 18.32,47.669c-3.763,-13.86 -7.706,-25.296 -11.825,-34.312c-2.864,-6.267 -7.546,-13.854 -14.045,-22.76c-3.215,-4.411 -8.098,-10.098 -14.654,-17.062c-5.569,-5.925 -11.157,-10.883 -16.766,-14.876c-7.851,-5.599 -14.992,-9.935 -21.428,-13.006c-3.795,-1.808 -10.29,-4.298 -19.485,-7.47c-9.971,-3.432 -20.504,-5.406 -31.601,-5.926c-20.825,-0.988 -41.406,1.695 -61.746,8.047c-0.906,0.285 -2.532,0.385 -4.879,0.302c-0.434,-0.017 -0.865,-0.11 -1.275,-0.277c-7.964,-3.365 -15.414,-7.879 -22.351,-13.546c-0.2,-0.157 -0.426,-0.281 -0.668,-0.363l-0.546,-0.177c-0.31,-0.106 -0.59,-0.292 -0.813,-0.539c-0.866,-0.97 -1.963,-2.005 -3.291,-3.1c-8.691,-7.182 -16.271,-16.3 -22.738,-27.357c-7.243,-12.404 -12.346,-26.837 -15.309,-43.299c-0.187,-1.03 -0.024,-1.637 0.486,-1.822Z" style="fill:#441f00;fill-rule:nonzero;"/>
                <path d="M725.967,190.875c9.112,1.465 18.903,3.686 29.367,6.666c1.481,0.425 3.124,0.163 4.928,-0.792c11.194,-5.874 21.339,-13.265 30.437,-22.17c17.518,-17.149 27.813,-40.073 31.855,-64.63c0.754,0.133 1.049,0.665 0.886,1.595c-3.528,19.969 -11.256,37.796 -23.187,53.481c-4.92,6.453 -11.999,13.492 -21.234,21.117c-5.645,4.657 -13.705,9.139 -18.901,11.913c-1.604,0.863 -3.432,1.001 -5.489,0.414c-9.056,-2.585 -14.098,-3.97 -15.126,-4.155c-5.884,-1.096 -10.395,-2.243 -13.536,-3.439Z" style="fill:#441f00;fill-rule:nonzero;"/>
                <path d="M266.734,367.023c7.54,31.575 30.69,58.668 58.055,74.172c20.456,11.587 44.969,15.079 68.399,12.103c38.752,-4.922 72.379,-31.072 88.198,-67.82c5.455,-12.671 8.584,-24.572 9.385,-35.704c1.189,-16.714 -1.077,-33.461 -6.798,-50.242c-13.317,-39.044 -45.26,-67.479 -84.533,-74.974c-26.935,-5.148 -52.669,-0.402 -77.2,14.236c-0.04,-0.846 0.781,-1.732 2.465,-2.662c10.594,-5.884 22.426,-10.148 35.497,-12.793c4.152,-0.836 9.235,-1.263 15.248,-1.279c6.403,-0.026 11.502,0.091 15.297,0.351c2.849,0.193 7.588,1.059 14.217,2.598c12.043,2.804 23.187,7.579 33.435,14.325c21.383,14.095 36.488,33.186 45.318,57.272c4.323,11.786 6.997,24.206 8.025,37.263c0.657,8.301 0.401,15.796 -0.764,22.484c-6.302,36.345 -27.705,67.655 -59.075,85.27c-17.871,10.035 -37.958,14.52 -60.264,13.457c-3.269,-0.158 -7.653,-0.64 -13.148,-1.443c-22.739,-3.302 -44.07,-15.317 -60.496,-31.486c-11.703,-11.508 -21.035,-25.499 -27.995,-41.97c-2.161,-5.105 -3.248,-9.491 -3.266,-13.158Z" style="fill:#441f00;fill-rule:nonzero;"/>
                <path d="M266.734,367.023c-2.411,-11.115 -3.333,-21.672 -2.768,-31.674c0.713,-12.537 3.351,-25.263 7.916,-38.177l7.903,-16.609c5.017,-7.701 9.651,-13.91 13.902,-18.631c7.737,-8.58 17.254,-16.292 28.553,-23.138c24.531,-14.638 50.265,-19.384 77.2,-14.236c39.273,7.495 71.216,35.93 84.533,74.974c5.721,16.781 7.987,33.528 6.798,50.242c-0.801,11.132 -3.93,23.033 -9.385,35.704c-15.819,36.748 -49.446,62.898 -88.198,67.82c-23.43,2.976 -47.943,-0.516 -68.399,-12.103c-27.365,-15.504 -50.515,-42.597 -58.055,-74.172Zm128.687,21.733c9.066,-0.813 17.174,-3.494 24.329,-8.047c6.644,-4.243 11.704,-10.208 15.176,-17.891c2.574,-5.716 3.962,-11.14 4.164,-16.27c1.757,-10.512 0.804,-20.289 -2.854,-29.328c-3.916,-9.682 -10.048,-17.082 -18.392,-22.195c-18.696,-11.45 -46.023,-8.964 -59.863,9.089c-8.078,10.547 -12.104,22.134 -12.079,34.764c0.023,12.469 3.609,23.249 10.756,32.339c9.129,11.638 23.466,19.183 38.763,17.539Z" style="fill:#fff;fill-rule:nonzero;"/>
                <path d="M279.78,280.563l-7.903,16.609c1.408,-6.128 4.042,-11.663 7.903,-16.609Z" style="fill:#441f00;fill-rule:nonzero;"/>
                <path d="M439.083,346.548c1.035,-11.843 -0.859,-22.774 -5.684,-32.792c-2.985,-6.218 -7.023,-11.19 -12.114,-14.914c-13.25,-9.701 -27.675,-12.17 -43.281,-7.409c-7.98,2.436 -14.021,6.317 -18.125,11.639c-7.397,9.601 -11.647,19.878 -12.746,30.834c-2.673,26.465 12.673,48.032 37.937,53.933c0.402,0.1 0.815,0.129 1.226,0.089c3.148,-0.327 6.188,-0.052 9.117,0.828c-15.297,1.644 -29.634,-5.901 -38.763,-17.539c-7.147,-9.09 -10.733,-19.87 -10.756,-32.339c-0.025,-12.63 4.001,-24.217 12.079,-34.764c13.84,-18.053 41.167,-20.539 59.863,-9.089c8.344,5.113 14.476,12.513 18.392,22.195c3.658,9.039 4.611,18.816 2.855,29.328Z" style="fill:#441f00;fill-rule:nonzero;"/>
                <path d="M439.083,346.548c-0.203,5.13 -1.591,10.554 -4.165,16.27c-3.472,7.683 -8.531,13.648 -15.176,17.891c-7.155,4.553 -15.263,7.234 -24.329,8.047c-2.929,-0.88 -5.969,-1.155 -9.117,-0.828c-0.411,0.04 -0.824,0.011 -1.226,-0.089c-25.264,-5.901 -40.61,-27.468 -37.937,-53.933c1.099,-10.956 5.349,-21.233 12.746,-30.834c4.104,-5.322 10.145,-9.203 18.125,-11.639c15.606,-4.761 30.031,-2.292 43.281,7.409c5.091,3.724 9.129,8.696 12.114,14.914c4.825,10.018 6.719,20.949 5.684,32.792Z" style="fill-rule:nonzero;"/>
                <path d="M527.064,365.756c1.093,-0.576 2.416,-0.862 3.97,-0.853c10.263,0.049 17.061,0.184 20.396,0.4c1.818,0.123 3.539,0.906 4.857,2.211c1.245,1.239 2.487,3.109 3.725,5.612c0.504,1.021 2.158,5.586 4.966,13.697c3.464,10.009 7.632,20.249 12.505,30.719c1.667,3.583 1.29,7.521 -1.13,11.815c-2.5,4.435 -5.645,9.523 -9.433,15.265c-3.317,5.03 -6.961,9.743 -10.926,14.137c-5.617,6.209 -10.529,11.169 -14.738,14.876c-1.063,0.934 -2.654,0.878 -3.654,-0.125c-3.739,-3.816 -7.648,-6.754 -10.769,-10.584c-9.032,-11.115 -16.592,-22.655 -22.679,-34.623c-1.107,-2.177 -1.642,-4.532 -1.602,-7.069c0.009,-0.398 0.101,-0.788 0.267,-1.142c6.378,-13.166 10.175,-21.56 11.388,-25.185c3.821,-11.34 6.536,-19.194 8.146,-23.564c0.947,-2.554 2.517,-4.415 4.711,-5.587Zm13.087,107.906c14.042,-12.363 25.895,-27.256 35.56,-44.682c2.876,-5.209 2.415,-8.437 -0.146,-13.986c-4.526,-9.825 -7.798,-17.677 -9.822,-23.551c-4.046,-11.743 -6.255,-18.012 -6.629,-18.808c-1.181,-2.544 -2.86,-4.532 -5.038,-5.962c-1.1,-0.719 -3.581,-1.089 -7.442,-1.104c-9.745,-0.035 -15.071,-0.006 -15.976,0.087c-4.82,0.514 -6.07,2.636 -8.037,7.168c-0.478,1.096 -3.176,8.868 -8.098,23.314c-1.027,3.028 -4.391,10.407 -10.088,22.134c-1.494,3.074 -1.616,5.447 -0.135,8.384c6.695,13.259 14.711,25.566 24.052,36.923c1.924,2.344 5.49,5.709 10.695,10.094c0.324,0.275 0.794,0.269 1.104,-0.011Z" style="fill:#441f00;fill-rule:nonzero;"/>
                <path d="M539.05,473.673c-5.205,-4.385 -8.77,-7.75 -10.694,-10.094c-9.341,-11.357 -17.357,-23.664 -24.052,-36.923c-1.481,-2.937 -1.359,-5.31 0.135,-8.384c5.697,-11.727 9.061,-19.106 10.088,-22.134c4.922,-14.446 7.62,-22.218 8.098,-23.314c1.967,-4.532 3.217,-6.654 8.037,-7.168c0.905,-0.093 6.231,-0.122 15.976,-0.087c3.861,0.015 6.342,0.385 7.442,1.104c2.177,1.43 3.857,3.418 5.038,5.962c0.374,0.796 2.583,7.065 6.629,18.808c2.024,5.874 5.296,13.726 9.822,23.551c2.561,5.549 3.022,8.777 0.146,13.986c-9.665,17.426 -21.518,32.319 -35.56,44.682c-0.31,0.28 -0.78,0.286 -1.105,0.011Z" style="fill:#ffd14d;fill-rule:nonzero;"/>
                <path d="M398.105,488.236c-18.315,1.917 -34.543,1.414 -48.682,-1.506c-34.053,-7.057 -61.576,-25.826 -84.461,-51.097c-2.573,-2.845 -5.013,-6.246 -7.32,-10.206c1.902,2.151 3.736,4.351 5.501,6.604c2.225,2.853 4.067,5.042 5.522,6.566c8.944,9.372 18.28,17.534 28.008,24.48c18.235,13.006 38.458,21.074 60.666,24.206c5.512,0.778 11.218,1.12 17.117,1.028c4.299,-0.058 10.089,-0.087 17.373,-0.087c0.04,-0 0.085,-0.005 0.134,-0.013l6.385,-0.992c0.015,-0.001 0.029,-0.003 0.045,-0.003c0.194,0 0.353,0.166 0.353,0.364c-0,0.116 -0.053,0.224 -0.142,0.292l-0.499,0.364Z" style="fill:#441f00;fill-rule:nonzero;"/>
                <path d="M255.848,425.941c5.73,14.577 11.629,28.763 20.323,42.622c10.731,17.125 26.842,33.132 41.531,45.924c0.901,0.781 1.122,2.134 0.522,3.177c-2.439,4.243 -12.237,3.79 -16.281,3.39c-15.781,-1.565 -29.933,-7.412 -42.453,-17.539c0.397,-0.268 0.825,-0.218 1.286,0.15c12.942,10.194 27.474,15.799 43.596,16.811c1.943,0.117 3.691,0.059 5.245,-0.176c3.302,-0.489 6.422,-0.439 7.709,-2.511c0.612,-0.967 0.428,-2.264 -0.425,-3.001c-9.299,-8.001 -18.546,-17.203 -27.74,-27.606c-7.442,-8.424 -14.228,-18.191 -19.425,-28.121c-5.568,-10.664 -10.283,-21.398 -14.144,-32.203c-0.113,-0.31 -0.028,-0.616 0.256,-0.917Z" style="fill:#441f00;fill-rule:nonzero;"/>
                <path d="M825.286,426.319c-5.228,18.085 -12.318,33.327 -21.27,45.721c-10.319,14.28 -23.147,28.222 -38.485,41.833c-0.954,0.844 -1.481,1.543 -1.578,2.096c-0.242,1.333 0.513,2.664 1.76,3.101c3.145,1.117 7.419,1.569 10.793,1.33c15.475,-1.087 29.587,-6.506 42.334,-16.257c0.955,-0.734 2.286,-0.692 3.204,0.1c0.972,0.853 2.352,2.244 4.14,4.168c2.68,2.879 6.609,7.897 11.788,15.053c15.006,20.723 25.989,44.112 32.949,70.167c4.014,15.056 6.719,28.468 8.111,40.236c0.299,2.544 0.622,7.546 0.971,15.002c0.501,10.714 0.06,21.392 -1.325,32.039c-2.33,17.877 -5.608,36.131 -11.557,53.267c-5.641,16.271 -11.828,30.491 -18.562,42.661c-6.305,11.398 -13.232,22.084 -20.784,32.05c-0.664,0.879 -1.453,1.399 -2.368,1.558c2.242,-2.486 4.343,-5.105 6.302,-7.861c19.504,-27.517 33.065,-57.836 40.681,-90.955c1.943,-8.411 3.736,-19.224 5.378,-32.44c2.081,-16.689 2.109,-32.632 0.085,-47.832c-6.216,-46.814 -23.722,-93.103 -56.78,-127.138c-0.343,-0.343 -0.879,-0.375 -1.25,-0.075c-13.031,10.454 -27.947,16.169 -44.75,17.149c-3.544,0.201 -6.757,-0.256 -9.639,-1.369c-1.524,-0.589 -2.504,-1.946 -2.367,-3.277c0.129,-1.33 0.963,-2.665 2.501,-4.004c16.228,-14.111 29.533,-28.805 39.917,-44.079c4.965,-7.293 9.105,-15.893 12.869,-25.22c2.282,-5.651 4.593,-11.325 6.932,-17.024Z" style="fill:#441f00;fill-rule:nonzero;"/>
                <path d="M535.819,510.747c-8.296,-4.193 -16.284,-10.35 -23.966,-18.468c-6.621,-7.005 -12.783,-14.438 -18.489,-22.296c-4.347,-5.986 -8.389,-12.241 -12.129,-18.769c7.463,11.273 15.374,22.109 23.735,32.504c0.915,1.138 3.148,3.639 6.701,7.505c7.034,7.643 15.083,14.15 24.148,19.524Z" style="fill:#441f00;fill-rule:nonzero;"/>
                <path d="M845.881,468.475l-2.731,6.441c-0.193,0.45 -0.118,0.976 0.194,1.344c1.472,1.791 3.882,4.41 7.223,7.858c3.319,3.423 7.178,8.428 11.582,15.015l-19.473,-22.17c-0.828,-0.941 -0.976,-2.337 -0.364,-3.44l3.047,-5.437c0.041,-0.082 0.125,-0.135 0.215,-0.135c0.11,0 0.205,0.077 0.234,0.186c0.016,0.084 0.04,0.196 0.073,0.338Z" style="fill:#441f00;fill-rule:nonzero;"/>
                <path d="M823.71,810.283c0.114,0.15 0.024,0.193 -0.267,0.125c-0.337,-0.064 -0.627,-0.28 -0.79,-0.59c-2.944,-5.473 -5.438,-11.453 -7.476,-17.94c-5.327,-16.957 -10.062,-32.658 -14.206,-47.103c-4.637,-16.162 -8.659,-32.081 -12.067,-47.757c-5.713,-26.33 -9.583,-46.38 -11.606,-60.149c-2.467,-16.772 -4.884,-32.268 -7.248,-46.488c-0.615,-3.675 -2.084,-8.126 -4.407,-13.357c-2.516,-5.658 -6.45,-9.759 -11.799,-12.303c-0.138,-0.065 -0.287,-0.099 -0.438,-0.099c-0.52,0 -0.965,0.396 -1.043,0.927c-3.037,20.271 -4.193,41.463 -3.472,63.575c0.185,5.615 0.578,12.521 1.177,20.714c2.063,28.164 6.296,56.754 12.699,85.772c1.772,8.06 4.134,17.262 7.089,27.607c4.379,15.341 7.082,24.443 8.11,27.305c2.557,7.172 6.544,18.551 11.958,34.136c1.967,5.674 1.191,10.002 -2.331,12.982c2.695,-4.286 3.335,-8.363 1.919,-12.229c-5.48,-15.032 -9.785,-27.328 -12.918,-36.884c-9.583,-29.245 -16.932,-59.543 -22.047,-90.894c-5.989,-36.71 -7.932,-73.878 -5.827,-111.508c0.413,-7.248 1.324,-14.496 2.732,-21.745c0.011,-0.058 0.025,-0.115 0.042,-0.172c0.257,-0.833 1.138,-1.299 1.95,-1.031c0.053,0.018 0.106,0.039 0.158,0.061c11.762,5.449 16.109,18.305 17.954,30.521c3.415,22.514 5.734,37.513 6.957,44.994c6.15,37.638 14.053,73.502 23.71,107.59c3.123,11.048 7.291,24.845 12.504,41.392c3.034,9.626 6.03,17.141 8.983,22.548Z" style="fill:#441f00;fill-rule:nonzero;"/>
                <path d="M216.75,572.175c-7.68,20.489 -12.783,42.089 -15.309,64.805c-0.882,7.918 -1.226,15.22 -1.031,21.908c0.874,30.883 6.487,59.54 16.838,85.973c8.927,22.788 21.61,44.947 38.047,66.474c-0.122,0.258 -0.372,0.306 -0.752,0.138c-0.151,-0.066 -0.285,-0.17 -0.388,-0.302c-21.235,-28.297 -38.024,-60.059 -46.608,-94.195c-2.548,-10.16 -4.714,-22.309 -6.495,-36.444c-0.687,-5.449 -1.052,-9.618 -1.091,-12.505c-0.073,-5.925 -0.705,-10.784 -0.414,-16.735c0.471,-9.684 1.138,-17.275 2.004,-22.774c0.55,-3.489 1.464,-8.611 2.743,-15.367c2.453,-12.854 6.3,-26.405 11.547,-40.65c0.37,-1.013 0.674,-1.121 0.909,-0.326Z" style="fill:#441f00;fill-rule:nonzero;"/>
                <path d="M256.139,811.256c4.152,-6.989 7.413,-14.425 9.785,-22.308c4.225,-14.074 9.226,-27.997 12.905,-42.17c3.071,-11.814 6.58,-24.695 9.033,-35.579c8.336,-36.977 15.114,-74.267 20.334,-111.872c0.486,-0.117 0.708,-0.025 0.669,0.277c-6.751,52.476 -16.985,103.53 -30.703,153.162c-1.207,4.368 -5.796,18.653 -13.768,42.848c-1.76,5.374 -4.347,10.735 -7.101,14.951c-0.439,0.662 -0.822,0.892 -1.154,0.691Z" style="fill:#441f00;fill-rule:nonzero;"/>
                <path d="M332.784,602.945l-0.097,13.86c-0.048,0.57 -0.109,0.984 -0.183,1.243c-0.014,0.043 -0.037,0.07 -0.066,0.08c-0.089,0.029 -0.213,-0.115 -0.275,-0.318c-0.02,-0.07 -0.032,-0.138 -0.034,-0.202c-0.025,-4.862 0.194,-9.75 0.655,-14.663Z" style="fill:#441f00;fill-rule:nonzero;"/>
                <path d="M390.688,636.54c13.832,5.742 28.214,7.664 43.147,5.763c-15.022,3.155 -29.404,1.235 -43.147,-5.763Z" style="fill:#441f00;fill-rule:nonzero;"/>
                <path d="M511.33,636.604c7.446,3.925 15.281,6.511 23.504,7.758c-8.587,-0.025 -16.422,-2.61 -23.504,-7.758Z" style="fill:#441f00;fill-rule:nonzero;"/>
                <path d="M561.513,669.082c-20.275,4.453 -39.703,2.155 -58.286,-6.893c-8.263,-4.025 -15.972,-8.818 -23.127,-14.374c-0.501,-0.392 -1.198,-0.392 -1.7,-0c-8.619,6.728 -18.19,12.298 -28.711,16.71c-23.828,9.977 -45.202,6.728 -64.125,-9.744c9.979,7.901 20.319,12.602 31.018,14.099c4.88,0.687 10.663,0.545 17.348,-0.426c5.141,-0.737 10.689,-2.415 16.645,-5.034c9.574,-4.219 18.652,-9.53 27.231,-15.932c0.986,-0.74 2.34,-0.708 3.302,0.075c7.915,6.462 17.016,11.831 27.303,16.107c9.316,3.875 18.26,6.086 26.83,6.629c6.701,0.419 15.458,0.012 26.272,-1.217Z" style="fill:#441f00;fill-rule:nonzero;"/>
                <path d="M542.507,832.485c1.617,0.57 2.674,1.115 3.167,1.633c11.125,11.593 23.227,18.69 36.307,21.292c0.552,0.11 3.329,0.114 8.33,0.013c2.688,-0.059 5.436,-0.51 8.241,-1.357c12.84,-3.879 25.397,-10.507 36.63,-16.859c0.604,-0.338 1.317,-0.062 1.675,0.653c1.481,2.937 -1.637,9.214 -2.923,11.387c-4.389,7.406 -9.463,13.432 -15.216,18.077c-10.417,8.421 -21.714,12.772 -33.891,13.056c-0.741,0.018 -3.739,-0.556 -8.992,-1.719c-3.209,-0.703 -6.148,-1.612 -8.818,-2.724c-8.795,-3.655 -16.121,-7.131 -22.931,-12.403c-0.946,-0.73 -2.124,-0.755 -3.087,-0.064c-8.3,5.992 -16.45,10.571 -24.444,13.734c-4.59,1.825 -10.072,2.967 -16.444,3.427c-5.338,0.378 -10.833,-0.539 -16.483,-2.748c-9.28,-3.641 -17.318,-9.467 -24.111,-17.475c-2.266,-2.679 -5.409,-7.923 -9.43,-15.732c-0.915,-1.795 -1.959,-3.578 -2.25,-5.724c-0.012,-0.082 -0.017,-0.167 -0.017,-0.251c-0,-0.771 0.492,-1.406 1.091,-1.406c0.109,0 0.216,0.021 0.319,0.063c2.747,1.104 8.71,4.293 11.602,6.465c0.917,0.686 3.774,2.309 8.573,4.871c9.638,5.164 18.961,7.361 27.97,6.591c6.149,-0.528 12.322,-2.306 18.518,-5.337c5.864,-2.878 11.538,-6.56 17.019,-11.046c3.234,-2.654 5.754,-4.67 7.56,-6.051c0.615,-0.474 1.352,-0.605 2.035,-0.366Z" style="fill:#978800;fill-rule:nonzero;"/>
                <path d="M314.149,755.041c-5.755,21.317 -12.505,42.309 -20.249,62.973c-1.061,2.837 -2.307,7.143 -3.74,12.918c-0.073,-2.719 0.352,-5.343 1.274,-7.872c8.863,-24.392 15.831,-44.731 22.181,-68.76c0.032,-0.11 0.131,-0.187 0.244,-0.187c0.131,-0 0.241,0.104 0.253,0.237l0.037,0.691Z" style="fill:#441f00;fill-rule:nonzero;"/>
                <path d="M463.373,949.665c7.275,6.327 12.204,14.267 14.785,23.816c0.389,3.249 0.54,6.448 0.449,9.605c-0.104,3.59 -0.841,6.644 -2.209,9.163c-2.954,5.441 -7.405,9.534 -13.354,12.279c-2.841,1.319 -6.009,-0.753 -8.17,-3.352c-3.436,-4.119 -4.432,-9.629 -8.062,-13.484c-5.767,-6.088 -14.92,-8.349 -20.006,0.251c-0.194,0.325 -0.341,0.675 -0.438,1.042c-1.518,5.651 -2.938,10.283 -7.745,12.856c-3.537,1.892 -6.734,1.533 -9.592,-1.079c-2.29,-2.093 -5.3,-5.783 -9.031,-11.072c-0.215,-0.306 -0.507,-0.548 -0.85,-0.705c-1.473,-0.643 -3.153,-0.799 -5.039,-0.464c-5.791,1.017 -9.408,1.406 -13.718,5.562c-4.071,3.933 -6.487,6.319 -7.247,7.155c-5.294,5.851 -9.434,-1.631 -11.388,-5.863c-2.752,-5.958 -3.565,-11.721 -2.441,-17.287c1.044,-5.16 4.832,-12.643 7.685,-17.638c2.537,-4.458 6.944,-8.462 10.975,-11.287c11.388,-7.959 26.866,-13.031 41.313,-12.779c8.119,0.15 15.545,1.167 22.278,3.049c7.397,2.076 14.665,5.487 21.805,10.232Z" style="fill:#ffdf00;fill-rule:nonzero;"/>
                <path d="M478.153,973.479c-2.581,-9.55 -7.511,-17.49 -14.786,-23.817c8.279,5.626 13.209,13.563 14.786,23.817Z" style="fill:#441f00;fill-rule:nonzero;"/>
            </g>
        </g>
    </g>
</svg>
