<?xml version="1.0" encoding="UTF-8" standalone="no"?>
<!DOCTYPE svg PUBLIC "-//W3C//DTD SVG 1.1//EN" "http://www.w3.org/Graphics/SVG/1.1/DTD/svg11.dtd">
<svg width="100%" height="100%" viewBox="0 0 3840 1700" version="1.1" xmlns="http://www.w3.org/2000/svg" xmlns:xlink="http://www.w3.org/1999/xlink" xml:space="preserve" xmlns:serif="http://www.serif.com/" style="fill-rule:evenodd;clip-rule:evenodd;">
    <g>
        <path d="M819.589,814.876c-3.325,-4.741 -6.239,-8.343 -8.745,-10.807c-2.523,-2.482 -4.342,-4.367 -5.454,-5.656c-0.235,-0.265 -0.292,-0.643 -0.146,-0.967l2.062,-4.636" style="fill:none;fill-rule:nonzero;stroke:#9e876d;stroke-width:1.82px;"/>
        <path d="M807.306,792.81c10.496,-22.408 15.171,-48.785 13.915,-73.227c-2.145,-41.873 -15.748,-82.743 -37.179,-118.634c-0.097,-0.15 -0.065,-0.35 0.073,-0.47c10.951,-9.651 19.164,-21.171 24.64,-34.562c7.241,-17.705 10.593,-36.06 10.055,-55.066c-0.183,-6.298 -0.239,-11.936 -3.336,-16.527c-5.491,-8.132 -16.619,-10.183 -23.449,-2.494c-5.071,5.717 -9.416,10.238 -13.034,13.563c-16.402,15.078 -35.325,25.271 -56.767,30.578c-4.022,1 -8.278,1.922 -12.769,2.765c-1.883,0.355 -3.218,0.328 -4.006,-0.082c-14.972,-7.794 -30.528,-14.008 -46.667,-18.641c-31.596,-9.062 -64.842,-13.382 -97.686,-11.502c-39.434,2.259 -78.162,12.794 -113.993,30.026c-1.076,0.512 -2.274,0.621 -3.594,0.326c-9.047,-2.025 -19.167,-4.184 -27.957,-7.455c-18.516,-6.891 -34.316,-17.295 -47.4,-31.211c-1.057,-1.126 -3.703,-4.09 -7.938,-8.891c-2.634,-2.982 -6.001,-4.397 -10.101,-4.247c-10.697,0.389 -14.648,8.042 -15.354,17.476c-1.4,18.698 0.718,36.586 6.352,53.665c5.418,16.427 14.272,30.423 27.014,42.108c0.426,0.388 0.518,1.023 0.22,1.509c-11.752,19.183 -20.708,40.652 -26.986,61.778c-12.898,43.392 -14.025,91.544 5.701,133.218c0.26,0.554 0.147,1.212 -0.284,1.654c-17.19,17.584 -30.231,37.937 -39.122,61.056c-6.081,15.801 -10.209,31.28 -12.384,46.436c-3.997,27.825 -1.302,55.072 8.084,81.74c2.702,7.687 5.25,14.271 7.645,19.753c7.425,17.006 16.79,32.418 28.096,46.237c9.001,10.994 20.343,22.521 34.025,34.581c16.371,14.43 35.676,27.966 55.54,39.786c0.279,0.166 0.449,0.465 0.449,0.788c0,0.217 -0.078,0.428 -0.22,0.594c-9.484,11.048 -13.597,23.677 -12.338,37.888c0.593,6.699 2.573,12.84 5.939,18.424c5.61,9.307 13.329,15.506 24.759,14.901c5.799,-0.307 11.177,-2.082 16.133,-5.323c0.516,-0.334 1.205,-0.278 1.668,0.136c3.428,3.091 6.564,5.684 11.046,6.009c7.761,0.554 14.779,-1.623 21.055,-6.533c0.466,-0.368 1.127,-0.386 1.613,-0.045c10.624,7.382 23.054,8.222 34.292,1.997c11.623,-6.443 18.553,-17.548 21.495,-30.18c0.086,-0.385 0.435,-0.661 0.835,-0.66l42.779,-0c0.307,0.001 0.578,0.205 0.66,0.497c0.795,2.885 1.375,4.924 1.741,6.117c3.05,9.874 8.531,17.374 16.445,22.499c11.77,7.618 25.208,8.079 37.362,0.841c0.437,-0.262 0.992,-0.233 1.394,0.072c4.522,3.428 9.643,5.244 15.363,5.449c6.416,0.235 10.926,-1.635 15.5,-6.036c0.413,-0.396 1.051,-0.461 1.531,-0.154c9.331,5.937 22.156,7.744 31.872,2.096c10.028,-5.828 16.315,-20.511 16.976,-31.679c0.422,-7.193 -0.309,-13.323 -2.191,-18.389c-2.39,-6.427 -5.756,-12.499 -10.102,-18.216c-0.008,-0.011 -0.015,-0.022 -0.023,-0.034c-0.284,-0.421 -0.169,-0.996 0.254,-1.272c0.012,-0.008 0.023,-0.015 0.036,-0.022c25.513,-15.266 48.945,-33.196 70.297,-53.792c14.116,-13.626 27.233,-29.927 36.574,-46.842c7.73,-14.006 14.092,-28.729 19.084,-44.169c7.951,-24.584 10.181,-49.742 6.692,-75.477c-3.545,-26.084 -11.951,-50.725 -25.217,-73.924c-3.844,-6.729 -8.119,-12.976 -12.824,-18.741" style="fill:none;fill-rule:nonzero;stroke:#bda472;stroke-width:1.82px;"/>
        <path d="M807.306,792.81c-0.025,-0.102 -0.043,-0.183 -0.055,-0.243c-0.022,-0.079 -0.094,-0.134 -0.177,-0.134c-0.068,0 -0.131,0.038 -0.162,0.097l-2.301,3.913c-0.462,0.794 -0.35,1.799 0.275,2.476l14.703,15.957" style="fill:none;fill-rule:nonzero;stroke:#643c05;stroke-width:1.82px;"/>
        <path d="M726.513,562.691c-8.97,1.264 -15.231,1.949 -18.782,2.051c-4.583,0.132 -8.894,-0.711 -12.934,-2.53c-5.866,-2.648 -13.951,-7.283 -20.716,-10.13c-21.076,-8.867 -43.054,-14.816 -65.933,-17.846c-7.169,-0.945 -12.931,-1.518 -17.289,-1.717c-10.294,-0.47 -22.952,-0.758 -34.805,0.407c-3.977,0.391 -6.849,0.693 -8.616,0.904c-13.059,1.566 -26.103,4.147 -39.131,7.743c-3.85,1.06 -6.667,2.118 -8.452,3.172" style="fill:none;fill-rule:nonzero;stroke:#643c05;stroke-width:1.82px;"/>
        <path d="M499.855,544.745l-17.81,6.588" style="fill:none;fill-rule:nonzero;stroke:#bd8e26;stroke-width:1.82px;"/>
        <path d="M482.045,551.333c-0.703,-0.181 -1.537,-0.076 -2.503,0.316c-6.975,2.837 -14.061,6.731 -18.461,9.126c-6.306,3.425 -11.769,4.653 -18.039,4.148c-17.133,-1.365 -33.109,-6.733 -49.315,-14.016c-10.658,-4.788 -20.353,-10.791 -29.086,-18.008c-0.336,-0.272 -0.547,-0.301 -0.633,-0.091" style="fill:none;fill-rule:nonzero;stroke:#643c05;stroke-width:1.82px;"/>
        <path d="M364.008,532.808l-0.604,-0.37c-0.074,-0.045 -0.16,-0.07 -0.248,-0.07c-0.256,0 -0.467,0.208 -0.467,0.461l-0,0.232" style="fill:none;fill-rule:nonzero;stroke:#bd8e26;stroke-width:1.82px;"/>
        <path d="M362.689,533.061c-0.385,0.133 -0.508,0.57 -0.367,1.311c2.237,11.849 6.09,22.237 11.559,31.165c4.883,7.958 10.606,14.521 17.168,19.69c1.003,0.788 1.831,1.533 2.485,2.231c0.168,0.178 0.38,0.312 0.614,0.388l0.412,0.128c0.183,0.059 0.353,0.148 0.504,0.261c5.238,4.079 10.863,7.328 16.876,9.75c0.31,0.12 0.635,0.187 0.963,0.199c1.772,0.06 3,-0.012 3.684,-0.217c15.357,-4.572 30.897,-6.503 46.621,-5.792c8.378,0.374 16.331,1.795 23.86,4.265c6.942,2.283 11.846,4.075 14.712,5.377c4.859,2.21 10.251,5.331 16.179,9.361c4.235,2.874 8.454,6.442 12.659,10.707c4.95,5.012 8.637,9.105 11.064,12.28c4.907,6.41 8.442,11.871 10.605,16.382c3.11,6.489 6.087,14.72 8.928,24.696" style="fill:none;fill-rule:nonzero;stroke:#643c05;stroke-width:1.82px;"/>
        <path d="M561.215,675.243l3.281,14.792c0.226,1.012 1.126,1.75 2.174,1.78c5.359,0.144 11.668,0.123 18.928,-0.063c1.186,-0.031 2.126,-0.202 2.823,-0.515c0.286,-0.13 0.487,-0.396 0.532,-0.705c0.587,-3.982 1.961,-10.365 4.125,-19.147c10.101,-40.934 43.577,-72.288 85.99,-78.83c12.662,-1.952 25.229,-1.802 37.702,0.452" style="fill:none;fill-rule:nonzero;stroke:#bd8e26;stroke-width:1.82px;"/>
        <path d="M716.77,593.007c2.371,0.861 5.777,1.686 10.22,2.475c0.776,0.133 4.583,1.13 11.421,2.991c1.553,0.422 2.933,0.323 4.144,-0.298c3.923,-1.997 10.009,-5.223 14.271,-8.575c6.973,-5.488 12.318,-10.554 16.033,-15.199c9.008,-11.289 14.843,-24.12 17.507,-38.493c0.123,-0.669 -0.1,-1.052 -0.669,-1.148" style="fill:none;fill-rule:nonzero;stroke:#643c05;stroke-width:1.82px;"/>
        <path d="M789.697,534.76l0.367,-2.178c0.005,-0.026 0.007,-0.052 0.007,-0.078c0,-0.243 -0.202,-0.443 -0.449,-0.443c-0.106,0 -0.21,0.037 -0.291,0.106c-7.529,6.391 -15.77,11.876 -24.722,16.454c-12.308,6.301 -25.006,10.991 -38.096,14.07" style="fill:none;fill-rule:nonzero;stroke:#bd8e26;stroke-width:1.82px;"/>
        <path d="M789.697,534.76c-3.052,17.675 -10.825,34.175 -24.052,46.518c-6.869,6.409 -14.529,11.729 -22.981,15.957c-1.362,0.687 -2.603,0.876 -3.721,0.57c-7.901,-2.145 -15.293,-3.744 -22.173,-4.798" style="fill:none;fill-rule:nonzero;stroke:#9d7121;stroke-width:1.82px;"/>
        <path d="M561.215,675.243c-2.652,-13.398 -7.263,-24.834 -13.832,-34.31c-10.45,-15.063 -24.676,-29.529 -41.13,-37.842c-17.306,-8.747 -37.078,-12.841 -56.712,-11.594c-11.806,0.75 -21.807,2.946 -34.044,6.027c-1.43,0.356 -2.729,0.25 -3.896,-0.316c-15.5,-7.536 -29.002,-17.963 -37.637,-32.494c-5.384,-9.054 -9.142,-19.604 -11.275,-31.653" style="fill:none;fill-rule:nonzero;stroke:#9d7121;stroke-width:1.82px;"/>
        <path d="M364.008,532.808c0.52,0.597 1.088,1.142 1.706,1.636c7.98,6.386 16.863,11.858 26.647,16.418c11.659,5.44 23.57,9.597 35.73,12.47c7.654,1.808 17.251,3 25.034,1.4c1.741,-0.355 4.745,-1.653 9.01,-3.894c6.521,-3.415 13.157,-6.584 19.91,-9.505" style="fill:none;fill-rule:nonzero;stroke:#9d7121;stroke-width:1.82px;"/>
        <path d="M499.855,544.745c27.86,-8.903 55.979,-12.876 84.359,-11.919c30.365,1.025 59.835,7.419 88.41,19.184c7.663,3.153 14.602,7.093 22.44,10.852c3.073,1.47 6.308,2.253 9.706,2.349c7.004,0.199 14.251,-0.641 21.743,-2.52" style="fill:none;fill-rule:nonzero;stroke:#9d7121;stroke-width:1.82px;"/>
        <path d="M411.931,627.497c-8.531,4.927 -15.717,10.478 -21.559,16.653c-3.209,3.398 -6.708,7.867 -10.496,13.41" style="fill:none;fill-rule:nonzero;stroke:#bd8e26;stroke-width:1.82px;"/>
        <path d="M379.876,657.56c-2.915,3.56 -4.904,7.544 -5.967,11.954" style="fill:none;fill-rule:nonzero;stroke:#643c05;stroke-width:1.82px;"/>
        <path d="M373.909,669.514c-3.447,9.295 -5.439,18.455 -5.977,27.478c-0.427,7.199 0.269,14.798 2.09,22.798" style="fill:none;fill-rule:nonzero;stroke:#bd8e26;stroke-width:1.82px;"/>
        <path d="M370.022,719.79c0.013,2.639 0.834,5.796 2.466,9.47c5.255,11.855 12.301,21.925 21.137,30.208c12.402,11.638 28.508,20.286 45.677,22.662c4.149,0.578 7.459,0.925 9.927,1.039c16.842,0.765 32.009,-2.463 45.502,-9.686c23.686,-12.678 39.846,-35.214 44.604,-61.373c0.88,-4.814 1.073,-10.208 0.577,-16.183c-0.776,-9.398 -2.795,-18.337 -6.059,-26.82c-6.667,-17.336 -18.072,-31.077 -34.217,-41.222c-7.738,-4.855 -16.152,-8.292 -25.245,-10.31c-5.005,-1.108 -8.583,-1.731 -10.734,-1.87c-2.866,-0.187 -6.716,-0.271 -11.55,-0.253c-4.54,0.012 -8.378,0.319 -11.513,0.921c-9.869,1.904 -18.803,4.973 -26.802,9.208c-1.271,0.669 -1.891,1.307 -1.861,1.916" style="fill:none;fill-rule:nonzero;stroke:#643c05;stroke-width:1.82px;"/>
        <path d="M370.022,719.79c5.693,22.726 23.172,42.226 43.834,53.385c15.445,8.34 33.953,10.853 51.644,8.711c29.259,-3.542 54.649,-22.364 66.593,-48.813c4.119,-9.12 6.481,-17.686 7.086,-25.698c0.898,-12.03 -0.813,-24.084 -5.133,-36.162c-10.055,-28.102 -34.173,-48.568 -63.826,-53.963c-20.337,-3.705 -39.767,-0.289 -58.289,10.247" style="fill:none;fill-rule:nonzero;stroke:#9d7121;stroke-width:1.82px;"/>
        <path d="M373.909,669.514l5.967,-11.954" style="fill:none;fill-rule:nonzero;stroke:#9d7121;stroke-width:1.82px;"/>
        <path d="M705.036,616.129c-24.242,-1.433 -44.921,5.53 -62.038,20.891c-5.481,4.923 -10.822,11.552 -16.023,19.889" style="fill:none;fill-rule:nonzero;stroke:#bd8e26;stroke-width:1.82px;"/>
        <path d="M626.975,656.909c-5.592,7.855 -9.423,16.415 -11.495,25.68c-1.741,7.813 -2.255,15.94 -1.539,24.38c0.666,7.921 2.7,15.792 6.104,23.611c2.396,5.506 5.018,10.514 7.865,15.026c3.038,4.813 6.573,9.163 10.606,13.048c15.424,14.85 33.958,22.988 55.603,24.416c14.568,0.964 28.19,-1.53 40.864,-7.482c12.045,-5.651 22.222,-13.244 30.534,-22.78c8.658,-9.933 14.58,-21.542 17.764,-34.825c1.699,-7.066 2.523,-13.072 2.475,-18.017c-0.184,-19.627 -6.658,-37.027 -19.424,-52.201c-14.62,-17.386 -35.593,-29.349 -58.601,-32.123c-1.38,-0.163 -2.603,-0.178 -3.667,-0.046c-0.134,0.018 -0.21,0.078 -0.229,0.181c-0.001,0.007 -0.001,0.013 -0.001,0.019c-0,0.049 0.041,0.09 0.091,0.09l0.012,-0c0.403,-0.024 0.77,0.057 1.099,0.243" style="fill:none;fill-rule:nonzero;stroke:#643c05;stroke-width:1.82px;"/>
        <path d="M626.975,656.909c-5.212,8.669 -8.818,17.87 -10.816,27.605c-0.795,3.861 -1.244,7.693 -1.348,11.494c-0.229,7.979 -0.073,15.415 2.283,23.692c1.912,6.711 4.311,12.865 7.196,18.461c16.004,31.074 50.653,47.646 85.137,43.887c17.483,-1.909 33.399,-9.126 47.748,-21.649c14.089,-12.298 22.687,-27.994 26.28,-46.419c3.979,-20.412 -0.44,-41.891 -12.008,-58.562c-14.85,-21.433 -39.443,-37.563 -66.411,-39.289" style="fill:none;fill-rule:nonzero;stroke:#9d7121;stroke-width:1.82px;"/>
        <path d="M566.587,718.878c-1.657,0.843 -2.842,2.183 -3.557,4.021c-1.216,3.145 -3.266,8.798 -6.151,16.96c-0.916,2.609 -3.783,8.651 -8.598,18.127c-0.126,0.255 -0.195,0.536 -0.202,0.822c-0.03,1.826 0.374,3.521 1.21,5.088c4.596,8.614 10.304,16.92 17.123,24.92c2.357,2.757 5.308,4.871 8.131,7.618c0.755,0.722 1.957,0.762 2.759,0.09c3.178,-2.668 6.887,-6.238 11.128,-10.707c2.994,-3.163 5.745,-6.555 8.25,-10.175c2.86,-4.133 5.234,-7.795 7.122,-10.987c1.827,-3.091 2.112,-5.925 0.853,-8.504c-3.679,-7.536 -6.826,-14.906 -9.442,-22.11c-2.12,-5.838 -3.369,-9.124 -3.749,-9.859c-0.935,-1.801 -1.873,-3.147 -2.813,-4.039c-0.995,-0.939 -2.294,-1.503 -3.667,-1.591c-2.518,-0.156 -7.651,-0.253 -15.4,-0.288c-1.173,-0.007 -2.172,0.199 -2.997,0.614" style="fill:none;fill-rule:nonzero;stroke:#643c05;stroke-width:1.82px;"/>
        <path d="M790.201,762.142c-3.837,4.512 -6.383,7.389 -7.635,8.629c-2.579,2.567 -6.468,6.025 -11.669,10.374c-4.724,3.946 -8.907,7.045 -12.549,9.298c-7.987,4.94 -16.178,8.783 -24.575,11.53c-8.274,2.699 -16.912,4.34 -25.913,4.924c-8.813,0.573 -17.627,0.245 -26.446,-0.984c-10.791,-1.512 -21.293,-4.826 -31.505,-9.94c-6.373,-3.187 -10.455,-5.394 -12.246,-6.624c-4.21,-2.891 -8.534,-5.584 -12.971,-8.078" style="fill:none;fill-rule:nonzero;stroke:#643c05;stroke-width:1.82px;"/>
        <path d="M624.692,781.271c-0.751,0.17 -1.472,0.028 -2.163,-0.424c-0.007,-0.005 -0.014,-0.01 -0.022,-0.014c-0.607,-0.38 -1.426,-0.197 -1.814,0.405c-0.005,0.008 -0.01,0.017 -0.016,0.025c-9.303,15.153 -21.494,29.014 -36.151,38.927c-3.438,2.331 -7.663,5.195 -11.33,3.045" style="fill:none;fill-rule:nonzero;stroke:#bd8e26;stroke-width:1.82px;"/>
        <path d="M573.196,823.235c-6.844,-3.868 -12.922,-8.551 -18.233,-14.052c-2.682,-2.783 -4.368,-4.583 -5.059,-5.402c-6.313,-7.482 -12.286,-15.281 -17.921,-23.395" style="fill:none;fill-rule:nonzero;stroke:#643c05;stroke-width:1.82px;"/>
        <path d="M531.983,780.386c-1.063,0.108 -1.83,0.325 -2.3,0.65c-4.089,2.844 -8.217,5.627 -12.384,8.35c-14.691,9.596 -30.72,15.478 -48.088,17.647" style="fill:none;fill-rule:nonzero;stroke:#bd8e26;stroke-width:1.82px;"/>
        <path d="M469.211,807.033l0.377,-0.262c0.067,-0.049 0.107,-0.127 0.107,-0.21c-0,-0.143 -0.12,-0.262 -0.266,-0.262c-0.012,0 -0.023,0.001 -0.034,0.002l-4.821,0.714c-0.037,0.006 -0.071,0.009 -0.101,0.009c-5.5,-0 -9.872,0.021 -13.118,0.063c-4.454,0.066 -8.762,-0.18 -12.924,-0.74c-16.768,-2.254 -32.037,-8.061 -45.805,-17.422c-7.345,-5 -14.394,-10.874 -21.147,-17.62c-1.099,-1.097 -2.49,-2.672 -4.17,-4.726c-1.332,-1.621 -2.717,-3.205 -4.153,-4.753" style="fill:none;fill-rule:nonzero;stroke:#643c05;stroke-width:1.82px;"/>
        <path d="M363.156,761.826l-0.852,-0.642c-0.064,-0.048 -0.142,-0.074 -0.222,-0.074c-0.185,0 -0.342,0.138 -0.365,0.319c-0.024,0.252 0.006,0.508 0.092,0.767" style="fill:none;fill-rule:nonzero;stroke:#bd8e26;stroke-width:1.82px;"/>
        <path d="M361.809,762.196c-0.214,0.217 -0.278,0.437 -0.193,0.66c2.915,7.777 6.475,15.503 10.679,23.178c3.924,7.147 9.048,14.177 14.667,20.24c6.942,7.488 13.924,14.111 20.945,19.87c0.644,0.53 0.783,1.464 0.321,2.16c-0.972,1.491 -3.328,1.455 -5.821,1.807c-1.173,0.169 -2.493,0.211 -3.96,0.127c-12.173,-0.729 -23.145,-4.763 -32.917,-12.1c-0.348,-0.265 -0.671,-0.301 -0.971,-0.108" style="fill:none;fill-rule:nonzero;stroke:#643c05;stroke-width:1.82px;"/>
        <path d="M364.559,818.03c-0.581,0.078 -0.999,0.244 -1.256,0.497c-13.731,14.054 -24.071,30.361 -31.019,48.921" style="fill:none;fill-rule:nonzero;stroke:#bd8e26;stroke-width:1.82px;"/>
        <path d="M332.284,867.448c-0.178,-0.572 -0.407,-0.494 -0.687,0.235c-3.961,10.253 -6.866,20.006 -8.718,29.258c-0.966,4.862 -1.656,8.549 -2.071,11.06c-0.654,3.958 -1.158,9.422 -1.513,16.392c-0.22,4.283 0.257,7.78 0.312,12.045c0.03,2.078 0.305,5.078 0.824,9c1.345,10.174 2.98,18.918 4.904,26.231c6.481,24.569 19.158,47.43 35.191,67.797c0.078,0.095 0.179,0.17 0.293,0.217c0.287,0.121 0.476,0.087 0.568,-0.099" style="fill:none;fill-rule:nonzero;stroke:#643c05;stroke-width:1.82px;"/>
        <path d="M361.387,1039.58c0.214,-0.073 0.428,-0.091 0.642,-0.055" style="fill:none;fill-rule:nonzero;stroke:#bd8e26;stroke-width:1.82px;"/>
        <path d="M362.029,1039.53c0.251,0.145 0.54,-0.021 0.871,-0.497c2.08,-3.035 4.033,-6.893 5.362,-10.761c6.019,-17.415 9.484,-27.696 10.395,-30.84c10.358,-35.723 18.085,-72.469 23.182,-110.239c0.03,-0.217 -0.138,-0.283 -0.505,-0.199" style="fill:none;fill-rule:nonzero;stroke:#643c05;stroke-width:1.82px;"/>
        <path d="M401.334,886.993c1.091,-9.415 5.106,-22.229 15.006,-25.942c0.102,-0.039 0.209,-0.058 0.317,-0.058c0.375,-0 0.712,0.233 0.838,0.581c0.678,1.853 0.807,4.392 1.036,6.019c1.038,7.367 1.494,14.701 1.365,22.002" style="fill:none;fill-rule:nonzero;stroke:#bd8e26;stroke-width:1.82px;"/>
        <path d="M419.896,889.595c-0.348,3.536 -0.513,7.054 -0.494,10.554c0.001,0.046 0.01,0.095 0.025,0.145c0.047,0.146 0.141,0.25 0.208,0.229c0.022,-0.007 0.039,-0.027 0.05,-0.058c0.056,-0.186 0.102,-0.484 0.138,-0.894" style="fill:none;fill-rule:nonzero;stroke:#643c05;stroke-width:1.82px;"/>
        <path d="M419.823,899.571c0.226,7.012 0.024,14.635 -0.605,22.87c-2.01,26.319 -6.474,51.861 -13.392,76.625" style="fill:none;fill-rule:nonzero;stroke:#bd8e26;stroke-width:1.82px;"/>
        <path d="M405.826,999.066l-0.028,-0.497c-0.009,-0.096 -0.092,-0.171 -0.191,-0.171c-0.085,0 -0.16,0.056 -0.184,0.135c-4.795,17.295 -10.056,31.934 -16.748,49.49c-0.696,1.82 -1.017,3.709 -0.962,5.666" style="fill:none;fill-rule:nonzero;stroke:#643c05;stroke-width:1.82px;"/>
        <path d="M387.713,1053.69c0.367,2.181 0.874,3.828 1.522,4.943c2.151,3.681 4.757,7.295 7.819,10.843c6.753,7.819 14.009,14.614 21.77,20.385c9.139,6.804 19.011,12.153 28.681,16.934c1.999,0.987 4.44,1.352 7.325,1.093c8.366,-0.765 18.4,-1.187 30.102,-1.265c13.209,-0.081 24.658,2.078 36.052,6.913c12.805,5.439 22.283,14.629 29.662,26.52c0.462,0.741 1.282,1.197 2.164,1.202c17.416,0.109 32.815,0.088 46.198,-0.063c1.65,-0.019 3.383,-0.009 4.382,-1.293c2.567,-3.262 4.995,-7.617 7.434,-10.49c9.853,-11.675 23.888,-18.813 38.957,-21.497c5.989,-1.06 11.253,-1.585 15.794,-1.572c6.001,0.024 16.539,0.515 31.615,1.473c2.781,0.175 5.714,-0.44 8.8,-1.844c6.941,-3.168 13.817,-7.042 20.624,-11.62c14.886,-10.021 27.169,-21.108 36.684,-35.836" style="fill:none;fill-rule:nonzero;stroke:#bd8e26;stroke-width:1.82px;"/>
        <path d="M763.298,1058.52c2.659,-2.145 3.245,-5.26 1.76,-9.344c-4.088,-11.217 -7.098,-19.407 -9.029,-24.569c-0.776,-2.06 -2.817,-8.611 -6.123,-19.653c-2.231,-7.446 -4.015,-14.069 -5.353,-19.87c-4.834,-20.886 -8.03,-41.464 -9.588,-61.735c-0.452,-5.897 -0.749,-10.867 -0.889,-14.909c-0.544,-15.915 0.329,-31.168 2.622,-45.758c0.059,-0.382 0.395,-0.667 0.787,-0.667c0.114,0 0.227,0.024 0.331,0.071c4.039,1.831 7.009,4.783 8.909,8.855c1.754,3.765 2.863,6.969 3.327,9.614c1.785,10.235 3.61,21.388 5.473,33.46c1.527,9.91 4.449,24.341 8.763,43.292c2.573,11.283 5.61,22.741 9.111,34.373c3.129,10.397 6.704,21.698 10.726,33.903c1.539,4.669 3.422,8.973 5.645,12.912c0.123,0.223 0.342,0.379 0.596,0.425c0.22,0.049 0.288,0.018 0.202,-0.09" style="fill:none;fill-rule:nonzero;stroke:#643c05;stroke-width:1.82px;"/>
        <path d="M790.568,1038.83c0.446,0.114 0.871,0.153 1.274,0.118" style="fill:none;fill-rule:nonzero;stroke:#bd8e26;stroke-width:1.82px;"/>
        <path d="M791.842,1038.94c0.691,-0.115 1.287,-0.489 1.788,-1.122c5.702,-7.173 10.932,-14.864 15.693,-23.068c5.084,-8.759 9.756,-18.994 14.015,-30.705c4.492,-12.334 6.967,-25.472 8.726,-38.339c1.046,-7.663 1.379,-15.349 1,-23.06c-0.263,-5.367 -0.507,-8.967 -0.733,-10.798c-1.051,-8.47 -3.093,-18.123 -6.124,-28.96c-5.255,-18.753 -13.548,-35.587 -24.878,-50.503c-3.91,-5.15 -6.877,-8.762 -8.9,-10.834c-1.35,-1.385 -2.392,-2.386 -3.126,-3c-0.693,-0.57 -1.698,-0.6 -2.419,-0.072c-9.625,7.018 -20.28,10.919 -31.964,11.701c-2.548,0.172 -5.775,-0.153 -8.149,-0.957c-0.942,-0.315 -1.512,-1.273 -1.329,-2.232c0.073,-0.398 0.471,-0.901 1.191,-1.509c11.581,-9.796 21.267,-19.831 29.058,-30.109c6.759,-8.921 12.112,-19.891 16.06,-32.908" style="fill:none;fill-rule:nonzero;stroke:#643c05;stroke-width:1.82px;"/>
        <path d="M791.751,762.468l-0.147,-1.211c-0.008,-0.098 -0.092,-0.176 -0.192,-0.176c-0.052,0 -0.102,0.021 -0.138,0.058l-1.073,1.003" style="fill:none;fill-rule:nonzero;stroke:#bd8e26;stroke-width:1.82px;"/>
        <path d="M791.751,762.468c-1.766,4.102 -3.511,8.186 -5.234,12.253c-2.842,6.713 -5.968,12.903 -9.717,18.152c-7.84,10.994 -17.886,21.57 -30.139,31.726c-1.161,0.964 -1.791,1.925 -1.888,2.882c-0.104,0.958 0.636,1.935 1.787,2.359c2.176,0.801 4.602,1.13 7.278,0.985c12.687,-0.705 23.949,-4.819 33.788,-12.343c0.28,-0.216 0.685,-0.193 0.944,0.054c24.96,24.497 38.178,57.813 42.871,91.508c1.528,10.94 1.507,22.415 -0.064,34.427c-1.24,9.512 -2.594,17.295 -4.061,23.349c-5.75,23.837 -15.989,45.659 -30.716,65.465c-1.479,1.983 -3.065,3.868 -4.758,5.658" style="fill:none;fill-rule:nonzero;stroke:#9d7121;stroke-width:1.82px;"/>
        <path d="M790.568,1038.83c-2.23,-3.892 -4.492,-9.301 -6.783,-16.229c-3.936,-11.91 -7.083,-21.84 -9.441,-29.792c-7.291,-24.535 -13.258,-50.348 -17.902,-77.438c-0.923,-5.385 -2.674,-16.18 -5.253,-32.385c-1.393,-8.792 -4.675,-18.045 -13.556,-21.967c-0.039,-0.016 -0.079,-0.031 -0.119,-0.044c-0.613,-0.193 -1.278,0.142 -1.472,0.742c-0.013,0.041 -0.024,0.082 -0.032,0.124c-1.063,5.217 -1.751,10.434 -2.063,15.651c-1.589,27.084 -0.122,53.836 4.4,80.258c3.862,22.565 9.411,44.372 16.646,65.421c2.366,6.878 5.616,15.728 9.754,26.547c1.069,2.783 0.586,5.717 -1.449,8.802" style="fill:none;fill-rule:nonzero;stroke:#9d7121;stroke-width:1.82px;"/>
        <path d="M387.713,1053.69c1.082,-4.157 2.023,-7.256 2.824,-9.298c5.847,-14.873 10.944,-29.982 15.289,-45.325" style="fill:none;fill-rule:nonzero;stroke:#9d7121;stroke-width:1.82px;"/>
        <path d="M419.823,899.571l0.073,-9.976" style="fill:none;fill-rule:nonzero;stroke:#9d7121;stroke-width:1.82px;"/>
        <path d="M401.334,886.993c-3.941,27.066 -9.059,53.906 -15.353,80.52c-1.852,7.834 -4.501,17.105 -6.82,25.608c-2.778,10.201 -6.554,20.222 -9.744,30.352c-1.791,5.674 -4.253,11.026 -7.388,16.056" style="fill:none;fill-rule:nonzero;stroke:#9d7121;stroke-width:1.82px;"/>
        <path d="M361.387,1039.58c-12.411,-15.494 -21.987,-31.443 -28.727,-47.845c-7.816,-19.025 -12.054,-39.651 -12.714,-61.879c-0.147,-4.814 0.113,-10.069 0.779,-15.768c1.907,-16.35 5.76,-31.897 11.559,-46.644" style="fill:none;fill-rule:nonzero;stroke:#9d7121;stroke-width:1.82px;"/>
        <path d="M364.559,818.03c9.453,7.289 20.139,11.497 32.054,12.624c3.053,0.288 10.451,0.614 12.293,-2.44c0.453,-0.751 0.286,-1.725 -0.394,-2.287c-11.091,-9.207 -23.256,-20.728 -31.358,-33.054c-6.564,-9.975 -11.018,-20.185 -15.345,-30.677" style="fill:none;fill-rule:nonzero;stroke:#9d7121;stroke-width:1.82px;"/>
        <path d="M363.156,761.826c1.742,2.85 3.584,5.298 5.527,7.346c17.279,18.189 38.06,31.698 63.771,36.777c10.676,2.102 22.929,2.464 36.757,1.084" style="fill:none;fill-rule:nonzero;stroke:#9d7121;stroke-width:1.82px;"/>
        <path d="M531.983,780.386c2.824,4.699 5.876,9.201 9.158,13.509c4.308,5.656 8.961,11.006 13.96,16.048c5.8,5.843 11.831,10.274 18.095,13.292" style="fill:none;fill-rule:nonzero;stroke:#9d7121;stroke-width:1.82px;"/>
        <path d="M624.692,781.271c4.273,3.048 8.608,5.949 13.008,8.702c24.028,15.042 50.119,20.578 78.272,16.608c18.859,-2.662 35.767,-9.8 50.727,-21.415c5.506,-4.277 10.666,-8.677 15.482,-13.202c3.269,-3.072 5.943,-6.346 8.02,-9.822" style="fill:none;fill-rule:nonzero;stroke:#9d7121;stroke-width:1.82px;"/>
        <path d="M669.251,1129.24c-10.456,-0.211 -19.727,1.768 -27.811,5.937c-10.212,5.259 -16.039,14.027 -17.481,26.304c-0.929,7.915 2.552,13.427 10.441,16.535c0.941,0.368 2.863,0.401 5.766,0.1c0.316,-0.028 0.599,-0.203 0.76,-0.47c2.209,-3.551 2.036,-8.512 5.757,-11.412c4.327,-3.389 10.551,-5.313 14.978,-1.094c0.647,0.615 1.506,2.365 2.576,5.25c1.329,3.569 3.712,9.072 8.69,7.572c0.922,-0.277 1.628,-0.856 2.117,-1.735c2.347,-4.283 3.749,-7.725 7.599,-9.397c3.648,-1.582 9.075,0.244 11.852,2.783c2.738,2.5 4.687,4.184 5.848,5.051c2.952,2.205 5.637,4.554 8.333,1.518c3.74,-4.217 5.606,-9.653 5.6,-16.31" style="fill:none;fill-rule:nonzero;stroke:#bd8e26;stroke-width:1.82px;"/>
        <path d="M714.276,1159.87c-1.668,-6.536 -4.708,-12.409 -9.121,-17.62c-0.194,-0.228 -0.41,-0.434 -0.641,-0.615c-4.761,-3.686 -9.833,-6.538 -15.216,-8.557c-6.423,-2.409 -13.105,-3.689 -20.047,-3.84" style="fill:none;fill-rule:nonzero;stroke:#643c05;stroke-width:1.82px;"/>
        <path d="M714.276,1159.87c-2.164,-5.831 -4.98,-11.175 -8.451,-16.03c-0.305,-0.426 -0.656,-0.811 -1.045,-1.147c-4.192,-3.621 -8.614,-6.356 -13.264,-8.205c-6.734,-2.675 -14.156,-4.424 -22.265,-5.25" style="fill:none;fill-rule:nonzero;stroke:#9d7121;stroke-width:1.82px;"/>
        <path d="M529.655,1156.29c-1.191,-7.38 -4.913,-13.093 -11.164,-17.142" style="fill:none;fill-rule:nonzero;stroke:#643c05;stroke-width:1.82px;"/>
        <path d="M518.491,1139.15c-5.391,-3.415 -10.878,-5.87 -16.463,-7.364c-5.084,-1.355 -10.691,-2.087 -16.821,-2.195c-10.908,-0.181 -22.595,3.469 -31.193,9.198c-3.044,2.033 -6.371,4.915 -8.287,8.124c-2.154,3.595 -5.014,8.981 -5.802,12.695c-0.849,4.006 -0.235,8.154 1.843,12.442c1.475,3.046 4.601,8.431 8.598,4.22c0.574,-0.602 2.398,-2.319 5.472,-5.15c3.254,-2.991 5.985,-3.271 10.358,-4.003c1.424,-0.241 2.692,-0.129 3.804,0.334c0.259,0.113 0.48,0.287 0.642,0.507c2.817,3.807 5.09,6.463 6.819,7.969c2.158,1.88 4.572,2.139 7.242,0.777c3.63,-1.852 4.702,-5.186 5.848,-9.253c0.073,-0.264 0.184,-0.516 0.331,-0.75c3.84,-6.19 10.751,-4.563 15.105,-0.181c2.741,2.775 3.493,6.741 6.087,9.705c1.632,1.871 4.024,3.362 6.169,2.413c4.492,-1.976 7.852,-4.922 10.083,-8.838c1.033,-1.813 1.589,-4.011 1.668,-6.595c0.068,-2.272 -0.046,-4.575 -0.339,-6.913" style="fill:none;fill-rule:nonzero;stroke:#bd8e26;stroke-width:1.82px;"/>
        <path d="M518.491,1139.15c5.493,4.554 9.215,10.269 11.164,17.142" style="fill:none;fill-rule:nonzero;stroke:#9d7121;stroke-width:1.82px;"/>
        <path d="M467.186,735.432c6.845,-0.585 12.967,-2.515 18.369,-5.792c5.017,-3.054 8.837,-7.347 11.459,-12.877c1.943,-4.114 2.991,-8.018 3.144,-11.71" style="fill:none;fill-rule:nonzero;stroke:#bd8e26;stroke-width:1.82px;"/>
        <path d="M500.158,705.053c1.326,-7.566 0.607,-14.603 -2.155,-21.109c-2.957,-6.969 -7.587,-12.295 -13.887,-15.975c-14.116,-8.241 -34.749,-6.452 -45.199,6.542c-6.099,7.591 -9.139,15.931 -9.12,25.021c0.017,8.975 2.725,16.734 8.121,23.276c6.893,8.377 17.718,13.807 29.268,12.624" style="fill:none;fill-rule:nonzero;stroke:#9d7121;stroke-width:1.82px;"/>
        <path d="M500.158,705.053c0.782,-8.524 -0.648,-16.392 -4.291,-23.602c-2.254,-4.476 -5.303,-8.054 -9.147,-10.735c-10.004,-6.982 -20.896,-8.759 -32.679,-5.332c-6.025,1.753 -10.586,4.546 -13.685,8.377c-5.585,6.91 -8.794,14.307 -9.624,22.193c-2.018,19.048 9.569,34.571 28.644,38.818c0.304,0.072 0.616,0.093 0.926,0.064c2.377,-0.235 4.672,-0.037 6.884,0.596" style="fill:none;fill-rule:nonzero;stroke:#643c05;stroke-width:1.82px;"/>
        <path d="M685.127,662.737c-12.971,1.085 -25.162,9.352 -29.69,21.587c-2.188,5.91 -3.022,11.889 -2.503,17.937c0.52,6.048 2.363,11.804 5.527,17.267c6.555,11.304 19.984,17.431 32.954,16.355c12.961,-1.084 25.153,-9.352 29.69,-21.587c2.188,-5.909 3.022,-11.888 2.503,-17.936c-0.526,-6.048 -2.368,-11.804 -5.528,-17.268c-6.554,-11.312 -19.982,-17.439 -32.953,-16.355" style="fill:none;fill-rule:nonzero;stroke:#9d7121;stroke-width:1.82px;"/>
        <path d="M685.182,663.577c-12.714,1.067 -24.676,9.172 -29.113,21.163c-2.145,5.795 -2.964,11.659 -2.456,17.593c0.513,5.928 2.319,11.569 5.417,16.925c6.426,11.095 19.598,17.104 32.311,16.038c12.715,-1.057 24.667,-9.162 29.113,-21.162c2.145,-5.795 2.964,-11.656 2.457,-17.584c-0.514,-5.933 -2.32,-11.578 -5.418,-16.933c-6.425,-11.088 -19.597,-17.097 -32.311,-16.04" style="fill:none;fill-rule:nonzero;stroke:#643c05;stroke-width:1.82px;"/>
        <path d="M576.468,796.543c10.602,-8.898 19.552,-19.617 26.849,-32.16c2.172,-3.749 1.824,-6.072 -0.11,-10.066c-3.417,-7.072 -5.888,-12.723 -7.416,-16.951c-3.055,-8.452 -4.723,-12.964 -5.005,-13.537c-0.892,-1.831 -2.16,-3.262 -3.804,-4.291c-0.831,-0.518 -2.704,-0.784 -5.619,-0.795c-7.358,-0.025 -11.379,-0.004 -12.063,0.063c-3.639,0.37 -4.583,1.897 -6.068,5.159c-0.361,0.789 -2.398,6.383 -6.114,16.78c-0.776,2.18 -3.316,7.491 -7.617,15.931c-1.128,2.213 -1.22,3.921 -0.102,6.035c5.055,9.543 11.107,18.401 18.16,26.575c1.453,1.687 4.145,4.109 8.075,7.265c0.245,0.198 0.6,0.194 0.834,-0.008" style="fill:none;fill-rule:nonzero;stroke:#9d7121;stroke-width:1.82px;"/>
        <path d="M496.189,917.923c-11.275,1.368 -22.134,-0.015 -32.578,-4.148" style="fill:none;fill-rule:nonzero;stroke:#9d7121;stroke-width:1.82px;"/>
        <path d="M463.611,913.775c-4.278,-1.945 -8.506,-4.277 -12.686,-6.993c-0.978,-0.633 -1.876,-0.955 -2.695,-0.967c-0.012,-0.001 -0.025,-0.001 -0.037,-0.001c-1.016,0 -1.852,0.866 -1.852,1.916l0,0.036c0.12,6.615 8.415,15.371 13.402,19.138" style="fill:none;fill-rule:nonzero;stroke:#bd8e26;stroke-width:1.82px;"/>
        <path d="M459.743,926.904c14.288,11.856 30.426,14.194 48.417,7.013c7.944,-3.175 15.171,-7.184 21.678,-12.027c0.379,-0.282 0.906,-0.282 1.284,0c5.402,3.999 11.223,7.449 17.462,10.346c14.031,6.512 28.7,8.166 44.008,4.961" style="fill:none;fill-rule:nonzero;stroke:#9d7121;stroke-width:1.82px;"/>
        <path d="M592.592,937.197c11.012,-2.132 20.689,-6.931 29.03,-14.395c0.395,-0.346 0.987,-0.376 1.421,-0.072c6.123,4.349 12.707,7.961 19.753,10.834c5.5,2.247 10.535,3.558 15.107,3.931" style="fill:none;fill-rule:nonzero;stroke:#bd8e26;stroke-width:1.82px;"/>
        <path d="M657.903,937.495c9.136,1.464 17.85,0.338 26.142,-3.379" style="fill:none;fill-rule:nonzero;stroke:#9d7121;stroke-width:1.82px;"/>
        <path d="M684.045,934.116c11.617,-4.627 19.31,-12.871 23.082,-24.732c0.207,-0.65 0.116,-1.783 -0.275,-3.397c-0.085,-0.368 -0.381,-0.653 -0.752,-0.724c-1.235,-0.241 -2.399,-0.045 -3.493,0.588c-3.709,2.163 -7.275,4.13 -10.697,5.901c-5.035,2.601 -10.031,4.599 -14.987,5.991" style="fill:none;fill-rule:nonzero;stroke:#bd8e26;stroke-width:1.82px;"/>
        <path d="M676.923,917.743c-8.329,1.253 -16.493,0.866 -24.493,-1.157" style="fill:none;fill-rule:nonzero;stroke:#9d7121;stroke-width:1.82px;"/>
        <path d="M652.43,916.586c-6.459,-2.579 -12.655,-6.021 -18.589,-10.329c-3.013,-2.192 -6.194,-4.635 -9.543,-7.328c-2.245,-1.807 -3.931,-2.674 -6.224,-0.505c-6.031,5.71 -12.667,10.62 -19.909,14.728c-7.913,4.482 -16.484,6.566 -25.712,6.253" style="fill:none;fill-rule:nonzero;stroke:#bd8e26;stroke-width:1.82px;"/>
        <path d="M572.453,919.405c-6.208,-0.898 -12.124,-2.759 -17.746,-5.584" style="fill:none;fill-rule:nonzero;stroke:#9d7121;stroke-width:1.82px;"/>
        <path d="M554.707,913.821c-7.431,-4.705 -14.064,-10.244 -19.9,-16.618c-0.909,-0.988 -2.36,-1.305 -3.603,-0.785c-1.747,0.728 -3.269,1.629 -4.565,2.701c-4.362,3.621 -8.586,7.06 -12.668,10.319c-3.837,3.066 -7.843,5.22 -12.017,6.461c-2.805,0.831 -4.727,1.506 -5.765,2.024" style="fill:none;fill-rule:nonzero;stroke:#bd8e26;stroke-width:1.82px;"/>
        <path d="M554.707,913.821c5.347,3.705 11.263,5.566 17.746,5.584" style="fill:none;fill-rule:nonzero;stroke:#643c05;stroke-width:1.82px;"/>
        <path d="M652.43,916.586c8.073,2.951 16.237,3.337 24.493,1.157" style="fill:none;fill-rule:nonzero;stroke:#643c05;stroke-width:1.82px;"/>
        <path d="M684.045,934.116c-8.457,2.807 -17.172,3.934 -26.142,3.379" style="fill:none;fill-rule:nonzero;stroke:#643c05;stroke-width:1.82px;"/>
        <path d="M592.592,937.197c-8.165,0.885 -14.777,1.178 -19.836,0.876c-6.471,-0.391 -13.224,-1.982 -20.258,-4.771c-7.767,-3.078 -14.639,-6.942 -20.615,-11.593c-0.726,-0.564 -1.749,-0.587 -2.493,-0.054c-6.478,4.608 -13.332,8.43 -20.561,11.467c-4.497,1.885 -8.686,3.093 -12.567,3.623c-5.048,0.699 -9.414,0.801 -13.099,0.307c-8.078,-1.078 -15.885,-4.461 -23.42,-10.148" style="fill:none;fill-rule:nonzero;stroke:#643c05;stroke-width:1.82px;"/>
        <path d="M463.611,913.775c10.377,5.037 21.236,6.419 32.578,4.148" style="fill:none;fill-rule:nonzero;stroke:#643c05;stroke-width:1.82px;"/>
        <path d="M486.353,988.124c0.944,3.063 2.768,5.449 5.133,8.792c8.121,11.458 20.927,18.75 34.567,21.497c16.683,3.352 34.951,-3.452 49.334,-11.693c0.678,-0.391 1.521,-0.391 2.199,-0c9.9,5.698 20.527,9.515 31.882,11.448c17.012,2.901 34.511,-3.84 47.344,-14.665c4.204,-3.554 7.309,-7.575 9.313,-12.063c1.008,-2.259 0.394,-6.045 -3.346,-4.663c-0.471,0.175 -4.051,1.69 -10.743,4.546c-10.871,4.635 -21.999,8.611 -33.595,8.475c-13.236,-0.162 -25.501,-5.485 -35.987,-13.689c-3.676,-2.864 -5.968,-4.564 -10.001,-1.645c-8.133,5.891 -16.967,10.286 -26.5,13.184c-6.801,2.066 -14.571,2.584 -23.31,1.554c-6.554,-0.768 -15.115,-4.265 -21.129,-7.202c-4.601,-2.249 -11.486,-5.955 -14.354,-5.268c-0.008,0.002 -0.015,0.004 -0.023,0.006c-0.597,0.161 -0.955,0.773 -0.792,1.357c0.002,0.009 0.005,0.019 0.008,0.029" style="fill:none;fill-rule:nonzero;stroke:#9d7121;stroke-width:1.82px;"/>
        <path d="M576.505,983.967c-0.644,-0.172 -1.336,-0.078 -1.916,0.262c-1.699,0.994 -4.07,2.446 -7.113,4.355c-5.158,3.229 -10.495,5.88 -16.014,7.952c-5.83,2.181 -11.638,3.461 -17.426,3.841c-8.475,0.554 -17.247,-1.028 -26.316,-4.745c-4.516,-1.842 -7.205,-3.011 -8.067,-3.505c-2.722,-1.563 -8.332,-3.859 -10.916,-4.654c-0.098,-0.029 -0.199,-0.044 -0.301,-0.044c-0.564,-0 -1.027,0.457 -1.027,1.012c-0,0.061 0.005,0.121 0.016,0.18c0.275,1.545 1.256,2.828 2.118,4.12c3.783,5.621 6.741,9.394 8.873,11.322c6.392,5.765 13.954,9.958 22.687,12.579c5.316,1.59 10.486,2.25 15.509,1.978c5.995,-0.331 11.153,-1.153 15.473,-2.467c7.523,-2.276 15.189,-5.572 22.999,-9.885c0.906,-0.497 2.016,-0.48 2.906,0.045c6.407,3.795 13.3,6.298 21.577,8.928c2.512,0.801 5.277,1.454 8.296,1.961c4.944,0.837 7.764,1.25 8.46,1.238c11.459,-0.205 22.089,-3.338 31.891,-9.398c5.414,-3.343 10.187,-7.681 14.318,-13.012c1.21,-1.563 4.143,-6.081 2.75,-8.196c-0.337,-0.513 -1.008,-0.713 -1.577,-0.469c-10.569,4.572 -22.384,9.343 -34.466,12.135c-2.64,0.608 -5.224,0.934 -7.754,0.976c-4.706,0.072 -7.318,0.069 -7.838,-0.009c-12.307,-1.874 -23.695,-6.982 -34.163,-15.325c-0.465,-0.374 -1.457,-0.765 -2.979,-1.175" style="fill:none;fill-rule:nonzero;stroke:#643c05;stroke-width:1.82px;"/>
    </g>
    <path d="M807.306,792.81c-0.025,-0.102 -0.043,-0.183 -0.055,-0.243c-0.022,-0.079 -0.094,-0.134 -0.177,-0.134c-0.068,0 -0.131,0.038 -0.162,0.097l-2.301,3.913c-0.462,0.794 -0.35,1.799 0.275,2.476l14.703,15.957c4.705,5.765 8.98,12.012 12.824,18.741c13.266,23.199 21.672,47.84 25.217,73.924c3.489,25.735 1.259,50.893 -6.692,75.477c-4.992,15.44 -11.354,30.163 -19.084,44.169c-9.341,16.915 -22.458,33.216 -36.574,46.842c-21.352,20.596 -44.784,38.526 -70.297,53.792c-0.013,0.007 -0.024,0.014 -0.036,0.022c-0.423,0.276 -0.538,0.851 -0.254,1.272c0.008,0.012 0.015,0.023 0.023,0.034c4.346,5.717 7.712,11.789 10.102,18.216c1.882,5.066 2.613,11.196 2.191,18.389c-0.661,11.168 -6.948,25.851 -16.976,31.679c-9.716,5.648 -22.541,3.841 -31.872,-2.096c-0.48,-0.307 -1.118,-0.242 -1.531,0.154c-4.574,4.401 -9.084,6.271 -15.5,6.036c-5.72,-0.205 -10.841,-2.021 -15.363,-5.449c-0.402,-0.305 -0.957,-0.334 -1.394,-0.072c-12.154,7.238 -25.592,6.777 -37.362,-0.841c-7.914,-5.125 -13.395,-12.625 -16.445,-22.499c-0.366,-1.193 -0.946,-3.232 -1.741,-6.117c-0.082,-0.292 -0.353,-0.496 -0.66,-0.497l-42.779,-0c-0.4,-0.001 -0.749,0.275 -0.835,0.66c-2.942,12.632 -9.872,23.737 -21.495,30.18c-11.238,6.225 -23.668,5.385 -34.292,-1.997c-0.486,-0.341 -1.147,-0.323 -1.613,0.045c-6.276,4.91 -13.294,7.087 -21.055,6.533c-4.482,-0.325 -7.618,-2.918 -11.046,-6.009c-0.463,-0.414 -1.152,-0.47 -1.668,-0.136c-4.956,3.241 -10.334,5.016 -16.133,5.323c-11.43,0.605 -19.149,-5.594 -24.759,-14.901c-3.366,-5.584 -5.346,-11.725 -5.939,-18.424c-1.259,-14.211 2.854,-26.84 12.338,-37.888c0.142,-0.166 0.22,-0.377 0.22,-0.594c0,-0.323 -0.17,-0.622 -0.449,-0.788c-19.864,-11.82 -39.169,-25.356 -55.54,-39.786c-13.682,-12.06 -25.024,-23.587 -34.025,-34.581c-11.306,-13.819 -20.671,-29.231 -28.096,-46.237c-2.395,-5.482 -4.943,-12.066 -7.645,-19.753c-9.386,-26.668 -12.081,-53.915 -8.084,-81.74c2.175,-15.156 6.303,-30.635 12.384,-46.436c8.891,-23.119 21.932,-43.472 39.122,-61.056c0.431,-0.442 0.544,-1.1 0.284,-1.654c-19.726,-41.674 -18.599,-89.826 -5.701,-133.218c6.278,-21.126 15.234,-42.595 26.986,-61.778c0.298,-0.486 0.206,-1.121 -0.22,-1.509c-12.742,-11.685 -21.596,-25.681 -27.014,-42.108c-5.634,-17.079 -7.752,-34.967 -6.352,-53.665c0.706,-9.434 4.657,-17.087 15.354,-17.476c4.1,-0.15 7.467,1.265 10.101,4.247c4.235,4.801 6.881,7.765 7.938,8.891c13.084,13.916 28.884,24.32 47.4,31.211c8.79,3.271 18.91,5.43 27.957,7.455c1.32,0.295 2.518,0.186 3.594,-0.326c35.831,-17.232 74.559,-27.767 113.993,-30.026c32.844,-1.88 66.09,2.44 97.686,11.502c16.139,4.633 31.695,10.847 46.667,18.641c0.788,0.41 2.123,0.437 4.006,0.082c4.491,-0.843 8.747,-1.765 12.769,-2.765c21.442,-5.307 40.365,-15.5 56.767,-30.578c3.618,-3.325 7.963,-7.846 13.034,-13.563c6.83,-7.689 17.958,-5.638 23.449,2.494c3.097,4.591 3.153,10.229 3.336,16.527c0.538,19.006 -2.814,37.361 -10.055,55.066c-5.476,13.391 -13.689,24.911 -24.64,34.562c-0.138,0.12 -0.17,0.32 -0.073,0.47c21.431,35.891 35.034,76.761 37.179,118.634c1.256,24.442 -3.419,50.819 -13.915,73.227Zm-80.793,-230.119c-8.97,1.264 -15.231,1.949 -18.782,2.051c-4.583,0.132 -8.894,-0.711 -12.934,-2.53c-5.866,-2.648 -13.951,-7.283 -20.716,-10.13c-21.076,-8.867 -43.054,-14.816 -65.933,-17.846c-7.169,-0.945 -12.931,-1.518 -17.289,-1.717c-10.294,-0.47 -22.952,-0.758 -34.805,0.407c-3.977,0.391 -6.849,0.693 -8.616,0.904c-13.059,1.566 -26.103,4.147 -39.131,7.743c-3.85,1.06 -6.667,2.118 -8.452,3.172l-17.81,6.588c-0.703,-0.181 -1.537,-0.076 -2.503,0.316c-6.975,2.837 -14.061,6.731 -18.461,9.126c-6.306,3.425 -11.769,4.653 -18.039,4.148c-17.133,-1.365 -33.109,-6.733 -49.315,-14.016c-10.658,-4.788 -20.353,-10.791 -29.086,-18.008c-0.336,-0.272 -0.547,-0.301 -0.633,-0.091l-0.604,-0.37c-0.074,-0.045 -0.16,-0.07 -0.248,-0.07c-0.256,0 -0.467,0.208 -0.467,0.461l-0,0.232c-0.385,0.133 -0.508,0.57 -0.367,1.311c2.237,11.849 6.09,22.237 11.559,31.165c4.883,7.958 10.606,14.521 17.168,19.69c1.003,0.788 1.831,1.533 2.485,2.231c0.168,0.178 0.38,0.312 0.614,0.388l0.412,0.128c0.183,0.059 0.353,0.148 0.504,0.261c5.238,4.079 10.863,7.328 16.876,9.75c0.31,0.12 0.635,0.187 0.963,0.199c1.772,0.06 3,-0.012 3.684,-0.217c15.357,-4.572 30.897,-6.503 46.621,-5.792c8.378,0.374 16.331,1.795 23.86,4.265c6.942,2.283 11.846,4.075 14.712,5.377c4.859,2.21 10.251,5.331 16.179,9.361c4.235,2.874 8.454,6.442 12.659,10.707c4.95,5.012 8.637,9.105 11.064,12.28c4.907,6.41 8.442,11.871 10.605,16.382c3.11,6.489 6.087,14.72 8.928,24.696l3.281,14.792c0.226,1.012 1.126,1.75 2.174,1.78c5.359,0.144 11.668,0.123 18.928,-0.063c1.186,-0.031 2.126,-0.202 2.823,-0.515c0.286,-0.13 0.487,-0.396 0.532,-0.705c0.587,-3.982 1.961,-10.365 4.125,-19.147c10.101,-40.934 43.577,-72.288 85.99,-78.83c12.662,-1.952 25.229,-1.802 37.702,0.452c2.371,0.861 5.777,1.686 10.22,2.475c0.776,0.133 4.583,1.13 11.421,2.991c1.553,0.422 2.933,0.323 4.144,-0.298c3.923,-1.997 10.009,-5.223 14.271,-8.575c6.973,-5.488 12.318,-10.554 16.033,-15.199c9.008,-11.289 14.843,-24.12 17.507,-38.493c0.123,-0.669 -0.1,-1.052 -0.669,-1.148l0.367,-2.178c0.005,-0.026 0.007,-0.052 0.007,-0.078c0,-0.243 -0.202,-0.443 -0.449,-0.443c-0.106,0 -0.21,0.037 -0.291,0.106c-7.529,6.391 -15.77,11.876 -24.722,16.454c-12.308,6.301 -25.006,10.991 -38.096,14.07Zm-314.582,64.806c-8.531,4.927 -15.717,10.478 -21.559,16.653c-3.209,3.398 -6.708,7.867 -10.496,13.41c-2.915,3.56 -4.904,7.544 -5.967,11.954c-3.447,9.295 -5.439,18.455 -5.977,27.478c-0.427,7.199 0.269,14.798 2.09,22.798c0.013,2.639 0.834,5.796 2.466,9.47c5.255,11.855 12.301,21.925 21.137,30.208c12.402,11.638 28.508,20.286 45.677,22.662c4.149,0.578 7.459,0.925 9.927,1.039c16.842,0.765 32.009,-2.463 45.502,-9.686c23.686,-12.678 39.846,-35.214 44.604,-61.373c0.88,-4.814 1.073,-10.208 0.577,-16.183c-0.776,-9.398 -2.795,-18.337 -6.059,-26.82c-6.667,-17.336 -18.072,-31.077 -34.217,-41.222c-7.738,-4.855 -16.152,-8.292 -25.245,-10.31c-5.005,-1.108 -8.583,-1.731 -10.734,-1.87c-2.866,-0.187 -6.716,-0.271 -11.55,-0.253c-4.54,0.012 -8.378,0.319 -11.513,0.921c-9.869,1.904 -18.803,4.973 -26.802,9.208c-1.271,0.669 -1.891,1.307 -1.861,1.916Zm293.105,-11.368c-24.242,-1.433 -44.921,5.53 -62.038,20.891c-5.481,4.923 -10.822,11.552 -16.023,19.889c-5.592,7.855 -9.423,16.415 -11.495,25.68c-1.741,7.813 -2.255,15.94 -1.539,24.38c0.666,7.921 2.7,15.792 6.104,23.611c2.396,5.506 5.018,10.514 7.865,15.026c3.038,4.813 6.573,9.163 10.606,13.048c15.424,14.85 33.958,22.988 55.603,24.416c14.568,0.964 28.19,-1.53 40.864,-7.482c12.045,-5.651 22.222,-13.244 30.534,-22.78c8.658,-9.933 14.58,-21.542 17.764,-34.825c1.699,-7.066 2.523,-13.072 2.475,-18.017c-0.184,-19.627 -6.658,-37.027 -19.424,-52.201c-14.62,-17.386 -35.593,-29.349 -58.601,-32.123c-1.38,-0.163 -2.603,-0.178 -3.667,-0.046c-0.134,0.018 -0.21,0.078 -0.229,0.181c-0.001,0.007 -0.001,0.013 -0.001,0.019c-0,0.049 0.041,0.09 0.091,0.09l0.012,-0c0.403,-0.024 0.77,0.057 1.099,0.243Zm-138.449,102.749c-1.657,0.843 -2.842,2.183 -3.557,4.021c-1.216,3.145 -3.266,8.798 -6.151,16.96c-0.916,2.609 -3.783,8.651 -8.598,18.127c-0.126,0.255 -0.195,0.536 -0.202,0.822c-0.03,1.826 0.374,3.521 1.21,5.088c4.596,8.614 10.304,16.92 17.123,24.92c2.357,2.757 5.308,4.871 8.131,7.618c0.755,0.722 1.957,0.762 2.759,0.09c3.178,-2.668 6.887,-6.238 11.128,-10.707c2.994,-3.163 5.745,-6.555 8.25,-10.175c2.86,-4.133 5.234,-7.795 7.122,-10.987c1.827,-3.091 2.112,-5.925 0.853,-8.504c-3.679,-7.536 -6.826,-14.906 -9.442,-22.11c-2.12,-5.838 -3.369,-9.124 -3.749,-9.859c-0.935,-1.801 -1.873,-3.147 -2.813,-4.039c-0.995,-0.939 -2.294,-1.503 -3.667,-1.591c-2.518,-0.156 -7.651,-0.253 -15.4,-0.288c-1.173,-0.007 -2.172,0.199 -2.997,0.614Zm223.614,43.264c-3.837,4.512 -6.383,7.389 -7.635,8.629c-2.579,2.567 -6.468,6.025 -11.669,10.374c-4.724,3.946 -8.907,7.045 -12.549,9.298c-7.987,4.94 -16.178,8.783 -24.575,11.53c-8.274,2.699 -16.912,4.34 -25.913,4.924c-8.813,0.573 -17.627,0.245 -26.446,-0.984c-10.791,-1.512 -21.293,-4.826 -31.505,-9.94c-6.373,-3.187 -10.455,-5.394 -12.246,-6.624c-4.21,-2.891 -8.534,-5.584 -12.971,-8.078c-0.751,0.17 -1.472,0.028 -2.163,-0.424c-0.007,-0.005 -0.014,-0.01 -0.022,-0.014c-0.607,-0.38 -1.426,-0.197 -1.814,0.405c-0.005,0.008 -0.01,0.017 -0.016,0.025c-9.303,15.153 -21.494,29.014 -36.151,38.927c-3.438,2.331 -7.663,5.195 -11.33,3.045c-6.844,-3.868 -12.922,-8.551 -18.233,-14.052c-2.682,-2.783 -4.368,-4.583 -5.059,-5.402c-6.313,-7.482 -12.286,-15.281 -17.921,-23.395c-1.063,0.108 -1.83,0.325 -2.3,0.65c-4.089,2.844 -8.217,5.627 -12.384,8.35c-14.691,9.596 -30.72,15.478 -48.088,17.647l0.377,-0.262c0.067,-0.049 0.107,-0.127 0.107,-0.21c-0,-0.143 -0.12,-0.262 -0.266,-0.262c-0.012,0 -0.023,0.001 -0.034,0.002l-4.821,0.714c-0.037,0.006 -0.071,0.009 -0.101,0.009c-5.5,-0 -9.872,0.021 -13.118,0.063c-4.454,0.066 -8.762,-0.18 -12.924,-0.74c-16.768,-2.254 -32.037,-8.061 -45.805,-17.422c-7.345,-5 -14.394,-10.874 -21.147,-17.62c-1.099,-1.097 -2.49,-2.672 -4.17,-4.726c-1.332,-1.621 -2.717,-3.205 -4.153,-4.753l-0.852,-0.642c-0.064,-0.048 -0.142,-0.074 -0.222,-0.074c-0.185,0 -0.342,0.138 -0.365,0.319c-0.024,0.252 0.006,0.508 0.092,0.767c-0.214,0.217 -0.278,0.437 -0.193,0.66c2.915,7.777 6.475,15.503 10.679,23.178c3.924,7.147 9.048,14.177 14.667,20.24c6.942,7.488 13.924,14.111 20.945,19.87c0.644,0.53 0.783,1.464 0.321,2.16c-0.972,1.491 -3.328,1.455 -5.821,1.807c-1.173,0.169 -2.493,0.211 -3.96,0.127c-12.173,-0.729 -23.145,-4.763 -32.917,-12.1c-0.348,-0.265 -0.671,-0.301 -0.971,-0.108c-0.581,0.078 -0.999,0.244 -1.256,0.497c-13.731,14.054 -24.071,30.361 -31.019,48.921c-0.178,-0.572 -0.407,-0.494 -0.687,0.235c-3.961,10.253 -6.866,20.006 -8.718,29.258c-0.966,4.862 -1.656,8.549 -2.071,11.06c-0.654,3.958 -1.158,9.422 -1.513,16.392c-0.22,4.283 0.257,7.78 0.312,12.045c0.03,2.078 0.305,5.078 0.824,9c1.345,10.174 2.98,18.918 4.904,26.231c6.481,24.569 19.158,47.43 35.191,67.797c0.078,0.095 0.179,0.17 0.293,0.217c0.287,0.121 0.476,0.087 0.568,-0.099c0.214,-0.073 0.428,-0.091 0.642,-0.055c0.251,0.145 0.54,-0.021 0.871,-0.497c2.08,-3.035 4.033,-6.893 5.362,-10.761c6.019,-17.415 9.484,-27.696 10.395,-30.84c10.358,-35.723 18.085,-72.469 23.182,-110.239c0.03,-0.217 -0.138,-0.283 -0.505,-0.199c1.091,-9.415 5.106,-22.229 15.006,-25.942c0.102,-0.039 0.209,-0.058 0.317,-0.058c0.375,-0 0.712,0.233 0.838,0.581c0.678,1.853 0.807,4.392 1.036,6.019c1.038,7.367 1.494,14.701 1.365,22.002c-0.348,3.536 -0.513,7.054 -0.494,10.554c0.001,0.046 0.01,0.095 0.025,0.145c0.047,0.146 0.141,0.25 0.208,0.229c0.022,-0.007 0.039,-0.027 0.05,-0.058c0.056,-0.186 0.102,-0.484 0.138,-0.894c0.226,7.012 0.024,14.635 -0.605,22.87c-2.01,26.319 -6.474,51.861 -13.392,76.625l-0.028,-0.497c-0.009,-0.096 -0.092,-0.171 -0.191,-0.171c-0.085,0 -0.16,0.056 -0.184,0.135c-4.795,17.295 -10.056,31.934 -16.748,49.49c-0.696,1.82 -1.017,3.709 -0.962,5.666c0.367,2.181 0.874,3.828 1.522,4.943c2.151,3.681 4.757,7.295 7.819,10.843c6.753,7.819 14.009,14.614 21.77,20.385c9.139,6.804 19.011,12.153 28.681,16.934c1.999,0.987 4.44,1.352 7.325,1.093c8.366,-0.765 18.4,-1.187 30.102,-1.265c13.209,-0.081 24.658,2.078 36.052,6.913c12.805,5.439 22.283,14.629 29.662,26.52c0.462,0.741 1.282,1.197 2.164,1.202c17.416,0.109 32.815,0.088 46.198,-0.063c1.65,-0.019 3.383,-0.009 4.382,-1.293c2.567,-3.262 4.995,-7.617 7.434,-10.49c9.853,-11.675 23.888,-18.813 38.957,-21.497c5.989,-1.06 11.253,-1.585 15.794,-1.572c6.001,0.024 16.539,0.515 31.615,1.473c2.781,0.175 5.714,-0.44 8.8,-1.844c6.941,-3.168 13.817,-7.042 20.624,-11.62c14.886,-10.021 27.169,-21.108 36.684,-35.836c2.659,-2.145 3.245,-5.26 1.76,-9.344c-4.088,-11.217 -7.098,-19.407 -9.029,-24.569c-0.776,-2.06 -2.817,-8.611 -6.123,-19.653c-2.231,-7.446 -4.015,-14.069 -5.353,-19.87c-4.834,-20.886 -8.03,-41.464 -9.588,-61.735c-0.452,-5.897 -0.749,-10.867 -0.889,-14.909c-0.544,-15.915 0.329,-31.168 2.622,-45.758c0.059,-0.382 0.395,-0.667 0.787,-0.667c0.114,0 0.227,0.024 0.331,0.071c4.039,1.831 7.009,4.783 8.909,8.855c1.754,3.765 2.863,6.969 3.327,9.614c1.785,10.235 3.61,21.388 5.473,33.46c1.527,9.91 4.449,24.341 8.763,43.292c2.573,11.283 5.61,22.741 9.111,34.373c3.129,10.397 6.704,21.698 10.726,33.903c1.539,4.669 3.422,8.973 5.645,12.912c0.123,0.223 0.342,0.379 0.596,0.425c0.22,0.049 0.288,0.018 0.202,-0.09c0.446,0.114 0.871,0.153 1.274,0.118c0.691,-0.115 1.287,-0.489 1.788,-1.122c5.702,-7.173 10.932,-14.864 15.693,-23.068c5.084,-8.759 9.756,-18.994 14.015,-30.705c4.492,-12.334 6.967,-25.472 8.726,-38.339c1.046,-7.663 1.379,-15.349 1,-23.06c-0.263,-5.367 -0.507,-8.967 -0.733,-10.798c-1.051,-8.47 -3.093,-18.123 -6.124,-28.96c-5.255,-18.753 -13.548,-35.587 -24.878,-50.503c-3.91,-5.15 -6.877,-8.762 -8.9,-10.834c-1.35,-1.385 -2.392,-2.386 -3.126,-3c-0.693,-0.57 -1.698,-0.6 -2.419,-0.072c-9.625,7.018 -20.28,10.919 -31.964,11.701c-2.548,0.172 -5.775,-0.153 -8.149,-0.957c-0.942,-0.315 -1.512,-1.273 -1.329,-2.232c0.073,-0.398 0.471,-0.901 1.191,-1.509c11.581,-9.796 21.267,-19.831 29.058,-30.109c6.759,-8.921 12.112,-19.891 16.06,-32.908l-0.147,-1.211c-0.008,-0.098 -0.092,-0.176 -0.192,-0.176c-0.052,0 -0.102,0.021 -0.138,0.058l-1.073,1.003Zm-120.95,367.097c-10.456,-0.211 -19.727,1.768 -27.811,5.937c-10.212,5.259 -16.039,14.027 -17.481,26.304c-0.929,7.915 2.552,13.427 10.441,16.535c0.941,0.368 2.863,0.401 5.766,0.1c0.316,-0.028 0.599,-0.203 0.76,-0.47c2.209,-3.551 2.036,-8.512 5.757,-11.412c4.327,-3.389 10.551,-5.313 14.978,-1.094c0.647,0.615 1.506,2.365 2.576,5.25c1.329,3.569 3.712,9.072 8.69,7.572c0.922,-0.277 1.628,-0.856 2.117,-1.735c2.347,-4.283 3.749,-7.725 7.599,-9.397c3.648,-1.582 9.075,0.244 11.852,2.783c2.738,2.5 4.687,4.184 5.848,5.051c2.952,2.205 5.637,4.554 8.333,1.518c3.74,-4.217 5.606,-9.653 5.6,-16.31c-1.668,-6.536 -4.708,-12.409 -9.121,-17.62c-0.194,-0.228 -0.41,-0.434 -0.641,-0.615c-4.761,-3.686 -9.833,-6.538 -15.216,-8.557c-6.423,-2.409 -13.105,-3.689 -20.047,-3.84Zm-139.596,27.054c-1.191,-7.38 -4.913,-13.093 -11.164,-17.142c-5.391,-3.415 -10.878,-5.87 -16.463,-7.364c-5.084,-1.355 -10.691,-2.087 -16.821,-2.195c-10.908,-0.181 -22.595,3.469 -31.193,9.198c-3.044,2.033 -6.371,4.915 -8.287,8.124c-2.154,3.595 -5.014,8.981 -5.802,12.695c-0.849,4.006 -0.235,8.154 1.843,12.442c1.475,3.046 4.601,8.431 8.598,4.22c0.574,-0.602 2.398,-2.319 5.472,-5.15c3.254,-2.991 5.985,-3.271 10.358,-4.003c1.424,-0.241 2.692,-0.129 3.804,0.334c0.259,0.113 0.48,0.287 0.642,0.507c2.817,3.807 5.09,6.463 6.819,7.969c2.158,1.88 4.572,2.139 7.242,0.777c3.63,-1.852 4.702,-5.186 5.848,-9.253c0.073,-0.264 0.184,-0.516 0.331,-0.75c3.84,-6.19 10.751,-4.563 15.105,-0.181c2.741,2.775 3.493,6.741 6.087,9.705c1.632,1.871 4.024,3.362 6.169,2.413c4.492,-1.976 7.852,-4.922 10.083,-8.838c1.033,-1.813 1.589,-4.011 1.668,-6.595c0.068,-2.272 -0.046,-4.575 -0.339,-6.913Z" style="fill-rule:nonzero;"/>
    <path d="M789.697,534.76c-3.052,17.675 -10.825,34.175 -24.052,46.518c-6.869,6.409 -14.529,11.729 -22.981,15.957c-1.362,0.687 -2.603,0.876 -3.721,0.57c-7.901,-2.145 -15.293,-3.744 -22.173,-4.798c-12.473,-2.254 -25.04,-2.404 -37.702,-0.452c-42.413,6.542 -75.889,37.896 -85.99,78.83c-2.164,8.782 -3.538,15.165 -4.125,19.147c-0.045,0.309 -0.246,0.575 -0.532,0.705c-0.697,0.313 -1.637,0.484 -2.823,0.515c-7.26,0.186 -13.569,0.207 -18.928,0.063c-1.048,-0.03 -1.948,-0.768 -2.174,-1.78l-3.281,-14.792c-2.652,-13.398 -7.263,-24.834 -13.832,-34.31c-10.45,-15.063 -24.676,-29.529 -41.13,-37.842c-17.306,-8.747 -37.078,-12.841 -56.712,-11.594c-11.806,0.75 -21.807,2.946 -34.044,6.027c-1.43,0.356 -2.729,0.25 -3.896,-0.316c-15.5,-7.536 -29.002,-17.963 -37.637,-32.494c-5.384,-9.054 -9.142,-19.604 -11.275,-31.653l-0,-0.232c-0,-0.253 0.211,-0.461 0.467,-0.461c0.088,0 0.174,0.025 0.248,0.07l0.604,0.37c0.52,0.597 1.088,1.142 1.706,1.636c7.98,6.386 16.863,11.858 26.647,16.418c11.659,5.44 23.57,9.597 35.73,12.47c7.654,1.808 17.251,3 25.034,1.4c1.741,-0.355 4.745,-1.653 9.01,-3.894c6.521,-3.415 13.157,-6.584 19.91,-9.505l17.81,-6.588c27.86,-8.903 55.979,-12.876 84.359,-11.919c30.365,1.025 59.835,7.419 88.41,19.184c7.663,3.153 14.602,7.093 22.44,10.852c3.073,1.47 6.308,2.253 9.706,2.349c7.004,0.199 14.251,-0.641 21.743,-2.52c13.09,-3.079 25.788,-7.769 38.096,-14.07c8.952,-4.578 17.193,-10.063 24.722,-16.454c0.081,-0.069 0.185,-0.106 0.291,-0.106c0.247,0 0.449,0.2 0.449,0.443c0,0.026 -0.002,0.052 -0.007,0.078l-0.367,2.178Z" style="fill:#ffdf00;fill-rule:nonzero;"/>
    <path d="M726.513,562.691c-7.492,1.879 -14.739,2.719 -21.743,2.52c-3.398,-0.096 -6.633,-0.879 -9.706,-2.349c-7.838,-3.759 -14.777,-7.699 -22.44,-10.852c-28.575,-11.765 -58.045,-18.159 -88.41,-19.184c-28.38,-0.957 -56.499,3.016 -84.359,11.919c1.785,-1.054 4.602,-2.112 8.452,-3.172c13.028,-3.596 26.072,-6.177 39.131,-7.743c1.767,-0.211 4.639,-0.513 8.616,-0.904c11.853,-1.165 24.511,-0.877 34.805,-0.407c4.358,0.199 10.12,0.772 17.289,1.717c22.879,3.03 44.857,8.979 65.933,17.846c6.765,2.847 14.85,7.482 20.716,10.13c4.04,1.819 8.351,2.662 12.934,2.53c3.551,-0.102 9.812,-0.787 18.782,-2.051Z" style="fill:#441f00;fill-rule:nonzero;"/>
    <path d="M482.045,551.333c-6.753,2.921 -13.389,6.09 -19.91,9.505c-4.265,2.241 -7.269,3.539 -9.01,3.894c-7.783,1.6 -17.38,0.408 -25.034,-1.4c-12.16,-2.873 -24.071,-7.03 -35.73,-12.47c-9.784,-4.56 -18.667,-10.032 -26.647,-16.418c-0.618,-0.494 -1.186,-1.039 -1.706,-1.636c0.086,-0.21 0.297,-0.181 0.633,0.091c8.733,7.217 18.428,13.22 29.086,18.008c16.206,7.283 32.182,12.651 49.315,14.016c6.27,0.505 11.733,-0.723 18.039,-4.148c4.4,-2.395 11.486,-6.289 18.461,-9.126c0.966,-0.392 1.8,-0.497 2.503,-0.316Z" style="fill:#441f00;fill-rule:nonzero;"/>
    <path d="M362.689,533.061c2.133,12.049 5.891,22.599 11.275,31.653c8.635,14.531 22.137,24.958 37.637,32.494c1.167,0.566 2.466,0.672 3.896,0.316c12.237,-3.081 22.238,-5.277 34.044,-6.027c19.634,-1.247 39.406,2.847 56.712,11.594c16.454,8.313 30.68,22.779 41.13,37.842c6.569,9.476 11.18,20.912 13.832,34.31c-2.841,-9.976 -5.818,-18.207 -8.928,-24.696c-2.163,-4.511 -5.698,-9.972 -10.605,-16.382c-2.427,-3.175 -6.114,-7.268 -11.064,-12.28c-4.205,-4.265 -8.424,-7.833 -12.659,-10.707c-5.928,-4.03 -11.32,-7.151 -16.179,-9.361c-2.866,-1.302 -7.77,-3.094 -14.712,-5.377c-7.529,-2.47 -15.482,-3.891 -23.86,-4.265c-15.724,-0.711 -31.264,1.22 -46.621,5.792c-0.684,0.205 -1.912,0.277 -3.684,0.217c-0.328,-0.012 -0.653,-0.079 -0.963,-0.199c-6.013,-2.422 -11.638,-5.671 -16.876,-9.75c-0.151,-0.113 -0.321,-0.202 -0.504,-0.261l-0.412,-0.128c-0.234,-0.076 -0.446,-0.21 -0.614,-0.388c-0.654,-0.698 -1.482,-1.443 -2.485,-2.231c-6.562,-5.169 -12.285,-11.732 -17.168,-19.69c-5.469,-8.928 -9.322,-19.316 -11.559,-31.165c-0.141,-0.741 -0.018,-1.178 0.367,-1.311Z" style="fill:#441f00;fill-rule:nonzero;"/>
    <path d="M716.77,593.007c6.88,1.054 14.272,2.653 22.173,4.798c1.118,0.306 2.359,0.117 3.721,-0.57c8.452,-4.228 16.112,-9.548 22.981,-15.957c13.227,-12.343 21,-28.843 24.052,-46.518c0.569,0.096 0.792,0.479 0.669,1.148c-2.664,14.373 -8.499,27.204 -17.507,38.493c-3.715,4.645 -9.06,9.711 -16.033,15.199c-4.262,3.352 -10.348,6.578 -14.271,8.575c-1.211,0.621 -2.591,0.72 -4.144,0.298c-6.838,-1.861 -10.645,-2.858 -11.421,-2.991c-4.443,-0.789 -7.849,-1.614 -10.22,-2.475Z" style="fill:#441f00;fill-rule:nonzero;"/>
    <path d="M370.022,719.79c5.693,22.726 23.172,42.226 43.834,53.385c15.445,8.34 33.953,10.853 51.644,8.711c29.259,-3.542 54.649,-22.364 66.593,-48.813c4.119,-9.12 6.481,-17.686 7.086,-25.698c0.898,-12.03 -0.813,-24.084 -5.133,-36.162c-10.055,-28.102 -34.173,-48.568 -63.826,-53.963c-20.337,-3.705 -39.767,-0.289 -58.289,10.247c-0.03,-0.609 0.59,-1.247 1.861,-1.916c7.999,-4.235 16.933,-7.304 26.802,-9.208c3.135,-0.602 6.973,-0.909 11.513,-0.921c4.834,-0.018 8.684,0.066 11.55,0.253c2.151,0.139 5.729,0.762 10.734,1.87c9.093,2.018 17.507,5.455 25.245,10.31c16.145,10.145 27.55,23.886 34.217,41.222c3.264,8.483 5.283,17.422 6.059,26.82c0.496,5.975 0.303,11.369 -0.577,16.183c-4.758,26.159 -20.918,48.695 -44.604,61.373c-13.493,7.223 -28.66,10.451 -45.502,9.686c-2.468,-0.114 -5.778,-0.461 -9.927,-1.039c-17.169,-2.376 -33.275,-11.024 -45.677,-22.662c-8.836,-8.283 -15.882,-18.353 -21.137,-30.208c-1.632,-3.674 -2.453,-6.831 -2.466,-9.47Z" style="fill:#441f00;fill-rule:nonzero;"/>
    <path d="M626.975,656.909c-5.212,8.669 -8.818,17.87 -10.816,27.605c-0.795,3.861 -1.244,7.693 -1.348,11.494c-0.229,7.979 -0.073,15.415 2.283,23.692c1.912,6.711 4.311,12.865 7.196,18.461c16.004,31.074 50.653,47.646 85.137,43.887c17.483,-1.909 33.399,-9.126 47.748,-21.649c14.089,-12.298 22.687,-27.994 26.28,-46.419c3.979,-20.412 -0.44,-41.891 -12.008,-58.562c-14.85,-21.433 -39.443,-37.563 -66.411,-39.289c-0.329,-0.186 -0.696,-0.267 -1.099,-0.243l-0.012,-0c-0.05,-0 -0.091,-0.041 -0.091,-0.09c-0,-0.006 -0,-0.012 0.001,-0.019c0.019,-0.103 0.095,-0.163 0.229,-0.181c1.064,-0.132 2.287,-0.117 3.667,0.046c23.008,2.774 43.981,14.737 58.601,32.123c12.766,15.174 19.24,32.574 19.424,52.201c0.048,4.945 -0.776,10.951 -2.475,18.017c-3.184,13.283 -9.106,24.892 -17.764,34.825c-8.312,9.536 -18.489,17.129 -30.534,22.78c-12.674,5.952 -26.296,8.446 -40.864,7.482c-21.645,-1.428 -40.179,-9.566 -55.603,-24.416c-4.033,-3.885 -7.568,-8.235 -10.606,-13.048c-2.847,-4.512 -5.469,-9.52 -7.865,-15.026c-3.404,-7.819 -5.438,-15.69 -6.104,-23.611c-0.716,-8.44 -0.202,-16.567 1.539,-24.38c2.072,-9.265 5.903,-17.825 11.495,-25.68Z" style="fill:#441f00;fill-rule:nonzero;"/>
    <path d="M370.022,719.79c-1.821,-8 -2.517,-15.599 -2.09,-22.798c0.538,-9.023 2.53,-18.183 5.977,-27.478l5.967,-11.954c3.788,-5.543 7.287,-10.012 10.496,-13.41c5.842,-6.175 13.028,-11.726 21.559,-16.653c18.522,-10.536 37.952,-13.952 58.289,-10.247c29.653,5.395 53.771,25.861 63.826,53.963c4.32,12.078 6.031,24.132 5.133,36.162c-0.605,8.012 -2.967,16.578 -7.086,25.698c-11.944,26.449 -37.334,45.271 -66.593,48.813c-17.691,2.142 -36.199,-0.371 -51.644,-8.711c-20.662,-11.159 -38.141,-30.659 -43.834,-53.385Zm97.164,15.642c6.845,-0.585 12.967,-2.515 18.369,-5.792c5.017,-3.054 8.837,-7.347 11.459,-12.877c1.943,-4.114 2.991,-8.018 3.144,-11.71c1.326,-7.566 0.607,-14.603 -2.155,-21.109c-2.957,-6.969 -7.587,-12.295 -13.887,-15.975c-14.116,-8.241 -34.749,-6.452 -45.199,6.542c-6.099,7.591 -9.139,15.931 -9.12,25.021c0.017,8.975 2.725,16.734 8.121,23.276c6.893,8.377 17.718,13.807 29.268,12.624Z" style="fill:#fff;fill-rule:nonzero;"/>
    <path d="M705.036,616.129c26.968,1.726 51.561,17.856 66.411,39.289c11.568,16.671 15.987,38.15 12.008,58.562c-3.593,18.425 -12.191,34.121 -26.28,46.419c-14.349,12.523 -30.265,19.74 -47.748,21.649c-34.484,3.759 -69.133,-12.813 -85.137,-43.887c-2.885,-5.596 -5.284,-11.75 -7.196,-18.461c-2.356,-8.277 -2.512,-15.713 -2.283,-23.692c0.104,-3.801 0.553,-7.633 1.348,-11.494c1.998,-9.735 5.604,-18.936 10.816,-27.605c5.201,-8.337 10.542,-14.966 16.023,-19.889c17.117,-15.361 37.796,-22.324 62.038,-20.891Zm-19.909,46.608c-12.971,1.085 -25.162,9.352 -29.69,21.587c-2.188,5.91 -3.022,11.889 -2.503,17.937c0.52,6.048 2.363,11.804 5.527,17.267c6.555,11.304 19.984,17.431 32.954,16.355c12.961,-1.084 25.153,-9.352 29.69,-21.587c2.188,-5.909 3.022,-11.888 2.503,-17.936c-0.526,-6.048 -2.368,-11.804 -5.528,-17.268c-6.554,-11.312 -19.982,-17.439 -32.953,-16.355Z" style="fill:#fff;fill-rule:nonzero;"/>
    <path d="M379.876,657.56l-5.967,11.954c1.063,-4.41 3.052,-8.394 5.967,-11.954Z" style="fill:#441f00;fill-rule:nonzero;"/>
    <path d="M723.608,696.36c0.519,6.048 -0.315,12.027 -2.503,17.936c-4.537,12.235 -16.729,20.503 -29.69,21.587c-12.97,1.076 -26.399,-5.051 -32.954,-16.355c-3.164,-5.463 -5.007,-11.219 -5.527,-17.267c-0.519,-6.048 0.315,-12.027 2.503,-17.937c4.528,-12.235 16.719,-20.502 29.69,-21.587c12.971,-1.084 26.399,5.043 32.953,16.355c3.16,5.464 5.002,11.22 5.528,17.268Zm-38.426,-32.783c-12.714,1.067 -24.676,9.172 -29.113,21.163c-2.145,5.795 -2.964,11.659 -2.456,17.593c0.513,5.928 2.319,11.569 5.417,16.925c6.426,11.095 19.598,17.104 32.311,16.038c12.715,-1.057 24.667,-9.162 29.113,-21.162c2.145,-5.795 2.964,-11.656 2.457,-17.584c-0.514,-5.933 -2.32,-11.578 -5.418,-16.933c-6.425,-11.088 -19.597,-17.097 -32.311,-16.04Z" style="fill:#441f00;fill-rule:nonzero;"/>
    <path d="M500.158,705.053c0.782,-8.524 -0.648,-16.392 -4.291,-23.602c-2.254,-4.476 -5.303,-8.054 -9.147,-10.735c-10.004,-6.982 -20.896,-8.759 -32.679,-5.332c-6.025,1.753 -10.586,4.546 -13.685,8.377c-5.585,6.91 -8.794,14.307 -9.624,22.193c-2.018,19.048 9.569,34.571 28.644,38.818c0.304,0.072 0.616,0.093 0.926,0.064c2.377,-0.235 4.672,-0.037 6.884,0.596c-11.55,1.183 -22.375,-4.247 -29.268,-12.624c-5.396,-6.542 -8.104,-14.301 -8.121,-23.276c-0.019,-9.09 3.021,-17.43 9.12,-25.021c10.45,-12.994 31.083,-14.783 45.199,-6.542c6.3,3.68 10.93,9.006 13.887,15.975c2.762,6.506 3.481,13.543 2.155,21.109Z" style="fill:#441f00;fill-rule:nonzero;"/>
    <path d="M685.182,663.577c12.714,-1.057 25.886,4.952 32.311,16.04c3.098,5.355 4.904,11 5.418,16.933c0.507,5.928 -0.312,11.789 -2.457,17.584c-4.446,12 -16.398,20.105 -29.113,21.162c-12.713,1.066 -25.885,-4.943 -32.311,-16.038c-3.098,-5.356 -4.904,-10.997 -5.417,-16.925c-0.508,-5.934 0.311,-11.798 2.456,-17.593c4.437,-11.991 16.399,-20.096 29.113,-21.163Z" style="fill-rule:nonzero;"/>
    <path d="M500.158,705.053c-0.153,3.692 -1.201,7.596 -3.144,11.71c-2.622,5.53 -6.442,9.823 -11.459,12.877c-5.402,3.277 -11.524,5.207 -18.369,5.792c-2.212,-0.633 -4.507,-0.831 -6.884,-0.596c-0.31,0.029 -0.622,0.008 -0.926,-0.064c-19.075,-4.247 -30.662,-19.77 -28.644,-38.818c0.83,-7.886 4.039,-15.283 9.624,-22.193c3.099,-3.831 7.66,-6.624 13.685,-8.377c11.783,-3.427 22.675,-1.65 32.679,5.332c3.844,2.681 6.893,6.259 9.147,10.735c3.643,7.21 5.073,15.078 4.291,23.602Z" style="fill-rule:nonzero;"/>
    <path d="M566.587,718.878c0.825,-0.415 1.824,-0.621 2.997,-0.614c7.749,0.035 12.882,0.132 15.4,0.288c1.373,0.088 2.672,0.652 3.667,1.591c0.94,0.892 1.878,2.238 2.813,4.039c0.38,0.735 1.629,4.021 3.749,9.859c2.616,7.204 5.763,14.574 9.442,22.11c1.259,2.579 0.974,5.413 -0.853,8.504c-1.888,3.192 -4.262,6.854 -7.122,10.987c-2.505,3.62 -5.256,7.012 -8.25,10.175c-4.241,4.469 -7.95,8.039 -11.128,10.707c-0.802,0.672 -2.004,0.632 -2.759,-0.09c-2.823,-2.747 -5.774,-4.861 -8.131,-7.618c-6.819,-8 -12.527,-16.306 -17.123,-24.92c-0.836,-1.567 -1.24,-3.262 -1.21,-5.088c0.007,-0.286 0.076,-0.567 0.202,-0.822c4.815,-9.476 7.682,-15.518 8.598,-18.127c2.885,-8.162 4.935,-13.815 6.151,-16.96c0.715,-1.838 1.9,-3.178 3.557,-4.021Zm9.881,77.665c10.602,-8.898 19.552,-19.617 26.849,-32.16c2.172,-3.749 1.824,-6.072 -0.11,-10.066c-3.417,-7.072 -5.888,-12.723 -7.416,-16.951c-3.055,-8.452 -4.723,-12.964 -5.005,-13.537c-0.892,-1.831 -2.16,-3.262 -3.804,-4.291c-0.831,-0.518 -2.704,-0.784 -5.619,-0.795c-7.358,-0.025 -11.379,-0.004 -12.063,0.063c-3.639,0.37 -4.583,1.897 -6.068,5.159c-0.361,0.789 -2.398,6.383 -6.114,16.78c-0.776,2.18 -3.316,7.491 -7.617,15.931c-1.128,2.213 -1.22,3.921 -0.102,6.035c5.055,9.543 11.107,18.401 18.16,26.575c1.453,1.687 4.145,4.109 8.075,7.265c0.245,0.198 0.6,0.194 0.834,-0.008Z" style="fill:#441f00;fill-rule:nonzero;"/>
    <path d="M575.634,796.551c-3.93,-3.156 -6.622,-5.578 -8.075,-7.265c-7.053,-8.174 -13.105,-17.032 -18.16,-26.575c-1.118,-2.114 -1.026,-3.822 0.102,-6.035c4.301,-8.44 6.841,-13.751 7.617,-15.931c3.716,-10.397 5.753,-15.991 6.114,-16.78c1.485,-3.262 2.429,-4.789 6.068,-5.159c0.684,-0.067 4.705,-0.088 12.063,-0.063c2.915,0.011 4.788,0.277 5.619,0.795c1.644,1.029 2.912,2.46 3.804,4.291c0.282,0.573 1.95,5.085 5.005,13.537c1.528,4.228 3.999,9.879 7.416,16.951c1.934,3.994 2.282,6.317 0.11,10.066c-7.297,12.543 -16.247,23.262 -26.849,32.16c-0.234,0.202 -0.589,0.206 -0.834,0.008Z" style="fill:#ffd14d;fill-rule:nonzero;"/>
    <path d="M791.751,762.468c-1.766,4.102 -3.511,8.186 -5.234,12.253c-2.842,6.713 -5.968,12.903 -9.717,18.152c-7.84,10.994 -17.886,21.57 -30.139,31.726c-1.161,0.964 -1.791,1.925 -1.888,2.882c-0.104,0.958 0.636,1.935 1.787,2.359c2.176,0.801 4.602,1.13 7.278,0.985c12.687,-0.705 23.949,-4.819 33.788,-12.343c0.28,-0.216 0.685,-0.193 0.944,0.054c24.96,24.497 38.178,57.813 42.871,91.508c1.528,10.94 1.507,22.415 -0.064,34.427c-1.24,9.512 -2.594,17.295 -4.061,23.349c-5.75,23.837 -15.989,45.659 -30.716,65.465c-1.479,1.983 -3.065,3.868 -4.758,5.658c-0.403,0.035 -0.828,-0.004 -1.274,-0.118c-2.23,-3.892 -4.492,-9.301 -6.783,-16.229c-3.936,-11.91 -7.083,-21.84 -9.441,-29.792c-7.291,-24.535 -13.258,-50.348 -17.902,-77.438c-0.923,-5.385 -2.674,-16.18 -5.253,-32.385c-1.393,-8.792 -4.675,-18.045 -13.556,-21.967c-0.039,-0.016 -0.079,-0.031 -0.119,-0.044c-0.613,-0.193 -1.278,0.142 -1.472,0.742c-0.013,0.041 -0.024,0.082 -0.032,0.124c-1.063,5.217 -1.751,10.434 -2.063,15.651c-1.589,27.084 -0.122,53.836 4.4,80.258c3.862,22.565 9.411,44.372 16.646,65.421c2.366,6.878 5.616,15.728 9.754,26.547c1.069,2.783 0.586,5.717 -1.449,8.802c-9.515,14.728 -21.798,25.815 -36.684,35.836c-6.807,4.578 -13.683,8.452 -20.624,11.62c-3.086,1.404 -6.019,2.019 -8.8,1.844c-15.076,-0.958 -25.614,-1.449 -31.615,-1.473c-4.541,-0.013 -9.805,0.512 -15.794,1.572c-15.069,2.684 -29.104,9.822 -38.957,21.497c-2.439,2.873 -4.867,7.228 -7.434,10.49c-0.999,1.284 -2.732,1.274 -4.382,1.293c-13.383,0.151 -28.782,0.172 -46.198,0.063c-0.882,-0.005 -1.702,-0.461 -2.164,-1.202c-7.379,-11.891 -16.857,-21.081 -29.662,-26.52c-11.394,-4.835 -22.843,-6.994 -36.052,-6.913c-11.702,0.078 -21.736,0.5 -30.102,1.265c-2.885,0.259 -5.326,-0.106 -7.325,-1.093c-9.67,-4.781 -19.542,-10.13 -28.681,-16.934c-7.761,-5.771 -15.017,-12.566 -21.77,-20.385c-3.062,-3.548 -5.668,-7.162 -7.819,-10.843c-0.648,-1.115 -1.155,-2.762 -1.522,-4.943c1.082,-4.157 2.023,-7.256 2.824,-9.298c5.847,-14.873 10.944,-29.982 15.289,-45.325c6.918,-24.764 11.382,-50.306 13.392,-76.625c0.629,-8.235 0.831,-15.858 0.605,-22.87l0.073,-9.976c0.129,-7.301 -0.327,-14.635 -1.365,-22.002c-0.229,-1.627 -0.358,-4.166 -1.036,-6.019c-0.126,-0.348 -0.463,-0.581 -0.838,-0.581c-0.108,-0 -0.215,0.019 -0.317,0.058c-9.9,3.713 -13.915,16.527 -15.006,25.942c-3.941,27.066 -9.059,53.906 -15.353,80.52c-1.852,7.834 -4.501,17.105 -6.82,25.608c-2.778,10.201 -6.554,20.222 -9.744,30.352c-1.791,5.674 -4.253,11.026 -7.388,16.056c-0.214,-0.036 -0.428,-0.018 -0.642,0.055c-12.411,-15.494 -21.987,-31.443 -28.727,-47.845c-7.816,-19.025 -12.054,-39.651 -12.714,-61.879c-0.147,-4.814 0.113,-10.069 0.779,-15.768c1.907,-16.35 5.76,-31.897 11.559,-46.644c6.948,-18.56 17.288,-34.867 31.019,-48.921c0.257,-0.253 0.675,-0.419 1.256,-0.497c9.453,7.289 20.139,11.497 32.054,12.624c3.053,0.288 10.451,0.614 12.293,-2.44c0.453,-0.751 0.286,-1.725 -0.394,-2.287c-11.091,-9.207 -23.256,-20.728 -31.358,-33.054c-6.564,-9.975 -11.018,-20.185 -15.345,-30.677c-0.086,-0.259 -0.116,-0.515 -0.092,-0.767c0.023,-0.181 0.18,-0.319 0.365,-0.319c0.08,0 0.158,0.026 0.222,0.074l0.852,0.642c1.742,2.85 3.584,5.298 5.527,7.346c17.279,18.189 38.06,31.698 63.771,36.777c10.676,2.102 22.929,2.464 36.757,1.084c17.368,-2.169 33.397,-8.051 48.088,-17.647c4.167,-2.723 8.295,-5.506 12.384,-8.35c0.47,-0.325 1.237,-0.542 2.3,-0.65c2.824,4.699 5.876,9.201 9.158,13.509c4.308,5.656 8.961,11.006 13.96,16.048c5.8,5.843 11.831,10.274 18.095,13.292c3.667,2.15 7.892,-0.714 11.33,-3.045c14.657,-9.913 26.848,-23.774 36.151,-38.927c0.006,-0.008 0.011,-0.017 0.016,-0.025c0.388,-0.602 1.207,-0.785 1.814,-0.405c0.008,0.004 0.015,0.009 0.022,0.014c0.691,0.452 1.412,0.594 2.163,0.424c4.273,3.048 8.608,5.949 13.008,8.702c24.028,15.042 50.119,20.578 78.272,16.608c18.859,-2.662 35.767,-9.8 50.727,-21.415c5.506,-4.277 10.666,-8.677 15.482,-13.202c3.269,-3.072 5.943,-6.346 8.02,-9.822l1.073,-1.003c0.036,-0.037 0.086,-0.058 0.138,-0.058c0.1,0 0.184,0.078 0.192,0.176l0.147,1.211Zm-295.562,155.455c-11.275,1.368 -22.134,-0.015 -32.578,-4.148c-4.278,-1.945 -8.506,-4.277 -12.686,-6.993c-0.978,-0.633 -1.876,-0.955 -2.695,-0.967c-0.012,-0.001 -0.025,-0.001 -0.037,-0.001c-1.016,0 -1.852,0.866 -1.852,1.916l0,0.036c0.12,6.615 8.415,15.371 13.402,19.138c14.288,11.856 30.426,14.194 48.417,7.013c7.944,-3.175 15.171,-7.184 21.678,-12.027c0.379,-0.282 0.906,-0.282 1.284,0c5.402,3.999 11.223,7.449 17.462,10.346c14.031,6.512 28.7,8.166 44.008,4.961c11.012,-2.132 20.689,-6.931 29.03,-14.395c0.395,-0.346 0.987,-0.376 1.421,-0.072c6.123,4.349 12.707,7.961 19.753,10.834c5.5,2.247 10.535,3.558 15.107,3.931c9.136,1.464 17.85,0.338 26.142,-3.379c11.617,-4.627 19.31,-12.871 23.082,-24.732c0.207,-0.65 0.116,-1.783 -0.275,-3.397c-0.085,-0.368 -0.381,-0.653 -0.752,-0.724c-1.235,-0.241 -2.399,-0.045 -3.493,0.588c-3.709,2.163 -7.275,4.13 -10.697,5.901c-5.035,2.601 -10.031,4.599 -14.987,5.991c-8.329,1.253 -16.493,0.866 -24.493,-1.157c-6.459,-2.579 -12.655,-6.021 -18.589,-10.329c-3.013,-2.192 -6.194,-4.635 -9.543,-7.328c-2.245,-1.807 -3.931,-2.674 -6.224,-0.505c-6.031,5.71 -12.667,10.62 -19.909,14.728c-7.913,4.482 -16.484,6.566 -25.712,6.253c-6.208,-0.898 -12.124,-2.759 -17.746,-5.584c-7.431,-4.705 -14.064,-10.244 -19.9,-16.618c-0.909,-0.988 -2.36,-1.305 -3.603,-0.785c-1.747,0.728 -3.269,1.629 -4.565,2.701c-4.362,3.621 -8.586,7.06 -12.668,10.319c-3.837,3.066 -7.843,5.22 -12.017,6.461c-2.805,0.831 -4.727,1.506 -5.765,2.024Zm-9.836,70.201c0.944,3.063 2.768,5.449 5.133,8.792c8.121,11.458 20.927,18.75 34.567,21.497c16.683,3.352 34.951,-3.452 49.334,-11.693c0.678,-0.391 1.521,-0.391 2.199,-0c9.9,5.698 20.527,9.515 31.882,11.448c17.012,2.901 34.511,-3.84 47.344,-14.665c4.204,-3.554 7.309,-7.575 9.313,-12.063c1.008,-2.259 0.394,-6.045 -3.346,-4.663c-0.471,0.175 -4.051,1.69 -10.743,4.546c-10.871,4.635 -21.999,8.611 -33.595,8.475c-13.236,-0.162 -25.501,-5.485 -35.987,-13.689c-3.676,-2.864 -5.968,-4.564 -10.001,-1.645c-8.133,5.891 -16.967,10.286 -26.5,13.184c-6.801,2.066 -14.571,2.584 -23.31,1.554c-6.554,-0.768 -15.115,-4.265 -21.129,-7.202c-4.601,-2.249 -11.486,-5.955 -14.354,-5.268c-0.008,0.002 -0.015,0.004 -0.023,0.006c-0.597,0.161 -0.955,0.773 -0.792,1.357c0.002,0.009 0.005,0.019 0.008,0.029Z" style="fill:#ffdf00;fill-rule:nonzero;"/>
    <path d="M469.211,807.033c-13.828,1.38 -26.081,1.018 -36.757,-1.084c-25.711,-5.079 -46.492,-18.588 -63.771,-36.777c-1.943,-2.048 -3.785,-4.496 -5.527,-7.346c1.436,1.548 2.821,3.132 4.153,4.753c1.68,2.054 3.071,3.629 4.17,4.726c6.753,6.746 13.802,12.62 21.147,17.62c13.768,9.361 29.037,15.168 45.805,17.422c4.162,0.56 8.47,0.806 12.924,0.74c3.246,-0.042 7.618,-0.063 13.118,-0.063c0.03,-0 0.064,-0.003 0.101,-0.009l4.821,-0.714c0.011,-0.001 0.022,-0.002 0.034,-0.002c0.146,0 0.266,0.119 0.266,0.262c-0,0.083 -0.04,0.161 -0.107,0.21l-0.377,0.262Z" style="fill:#441f00;fill-rule:nonzero;"/>
    <path d="M790.201,762.142c-2.077,3.476 -4.751,6.75 -8.02,9.822c-4.816,4.525 -9.976,8.925 -15.482,13.202c-14.96,11.615 -31.868,18.753 -50.727,21.415c-28.153,3.97 -54.244,-1.566 -78.272,-16.608c-4.4,-2.753 -8.735,-5.654 -13.008,-8.702c4.437,2.494 8.761,5.187 12.971,8.078c1.791,1.23 5.873,3.437 12.246,6.624c10.212,5.114 20.714,8.428 31.505,9.94c8.819,1.229 17.633,1.557 26.446,0.984c9.001,-0.584 17.639,-2.225 25.913,-4.924c8.397,-2.747 16.588,-6.59 24.575,-11.53c3.642,-2.253 7.825,-5.352 12.549,-9.298c5.201,-4.349 9.09,-7.807 11.669,-10.374c1.252,-1.24 3.798,-4.117 7.635,-8.629Z" style="fill:#441f00;fill-rule:nonzero;"/>
    <path d="M361.809,762.196c4.327,10.492 8.781,20.702 15.345,30.677c8.102,12.326 20.267,23.847 31.358,33.054c0.68,0.562 0.847,1.536 0.394,2.287c-1.842,3.054 -9.24,2.728 -12.293,2.44c-11.915,-1.127 -22.601,-5.335 -32.054,-12.624c0.3,-0.193 0.623,-0.157 0.971,0.108c9.772,7.337 20.744,11.371 32.917,12.1c1.467,0.084 2.787,0.042 3.96,-0.127c2.493,-0.352 4.849,-0.316 5.821,-1.807c0.462,-0.696 0.323,-1.63 -0.321,-2.16c-7.021,-5.759 -14.003,-12.382 -20.945,-19.87c-5.619,-6.063 -10.743,-13.093 -14.667,-20.24c-4.204,-7.675 -7.764,-15.401 -10.679,-23.178c-0.085,-0.223 -0.021,-0.443 0.193,-0.66Z" style="fill:#441f00;fill-rule:nonzero;"/>
    <path d="M791.751,762.468c-3.948,13.017 -9.301,23.987 -16.06,32.908c-7.791,10.278 -17.477,20.313 -29.058,30.109c-0.72,0.608 -1.118,1.111 -1.191,1.509c-0.183,0.959 0.387,1.917 1.329,2.232c2.374,0.804 5.601,1.129 8.149,0.957c11.684,-0.782 22.339,-4.683 31.964,-11.701c0.721,-0.528 1.726,-0.498 2.419,0.072c0.734,0.614 1.776,1.615 3.126,3c2.023,2.072 4.99,5.684 8.9,10.834c11.33,14.916 19.623,31.75 24.878,50.503c3.031,10.837 5.073,20.49 6.124,28.96c0.226,1.831 0.47,5.431 0.733,10.798c0.379,7.711 0.046,15.397 -1,23.06c-1.759,12.867 -4.234,26.005 -8.726,38.339c-4.259,11.711 -8.931,21.946 -14.015,30.705c-4.761,8.204 -9.991,15.895 -15.693,23.068c-0.501,0.633 -1.097,1.007 -1.788,1.122c1.693,-1.79 3.279,-3.675 4.758,-5.658c14.727,-19.806 24.966,-41.628 30.716,-65.465c1.467,-6.054 2.821,-13.837 4.061,-23.349c1.571,-12.012 1.592,-23.487 0.064,-34.427c-4.693,-33.695 -17.911,-67.011 -42.871,-91.508c-0.259,-0.247 -0.664,-0.27 -0.944,-0.054c-9.839,7.524 -21.101,11.638 -33.788,12.343c-2.676,0.145 -5.102,-0.184 -7.278,-0.985c-1.151,-0.424 -1.891,-1.401 -1.787,-2.359c0.097,-0.957 0.727,-1.918 1.888,-2.882c12.253,-10.156 22.299,-20.732 30.139,-31.726c3.749,-5.249 6.875,-11.439 9.717,-18.152c1.723,-4.067 3.468,-8.151 5.234,-12.253Z" style="fill:#441f00;fill-rule:nonzero;"/>
    <path d="M573.196,823.235c-6.264,-3.018 -12.295,-7.449 -18.095,-13.292c-4.999,-5.042 -9.652,-10.392 -13.96,-16.048c-3.282,-4.308 -6.334,-8.81 -9.158,-13.509c5.635,8.114 11.608,15.913 17.921,23.395c0.691,0.819 2.377,2.619 5.059,5.402c5.311,5.501 11.389,10.184 18.233,14.052Z" style="fill:#441f00;fill-rule:nonzero;"/>
    <path d="M807.306,792.81l-2.062,4.636c-0.146,0.324 -0.089,0.702 0.146,0.967c1.112,1.289 2.931,3.174 5.454,5.656c2.506,2.464 5.42,6.066 8.745,10.807l-14.703,-15.957c-0.625,-0.677 -0.737,-1.682 -0.275,-2.476l2.301,-3.913c0.031,-0.059 0.094,-0.097 0.162,-0.097c0.083,0 0.155,0.055 0.177,0.134c0.012,0.06 0.03,0.141 0.055,0.243Z" style="fill:#441f00;fill-rule:nonzero;"/>
    <path d="M790.568,1038.83c0.086,0.108 0.018,0.139 -0.202,0.09c-0.254,-0.046 -0.473,-0.202 -0.596,-0.425c-2.223,-3.939 -4.106,-8.243 -5.645,-12.912c-4.022,-12.205 -7.597,-23.506 -10.726,-33.903c-3.501,-11.632 -6.538,-23.09 -9.111,-34.373c-4.314,-18.951 -7.236,-33.382 -8.763,-43.292c-1.863,-12.072 -3.688,-23.225 -5.473,-33.46c-0.464,-2.645 -1.573,-5.849 -3.327,-9.614c-1.9,-4.072 -4.87,-7.024 -8.909,-8.855c-0.104,-0.047 -0.217,-0.071 -0.331,-0.071c-0.392,0 -0.728,0.285 -0.787,0.667c-2.293,14.59 -3.166,29.843 -2.622,45.758c0.14,4.042 0.437,9.012 0.889,14.909c1.558,20.271 4.754,40.849 9.588,61.735c1.338,5.801 3.122,12.424 5.353,19.87c3.306,11.042 5.347,17.593 6.123,19.653c1.931,5.162 4.941,13.352 9.029,24.569c1.485,4.084 0.899,7.199 -1.76,9.344c2.035,-3.085 2.518,-6.019 1.449,-8.802c-4.138,-10.819 -7.388,-19.669 -9.754,-26.547c-7.235,-21.049 -12.784,-42.856 -16.646,-65.421c-4.522,-26.422 -5.989,-53.174 -4.4,-80.258c0.312,-5.217 1,-10.434 2.063,-15.651c0.008,-0.042 0.019,-0.083 0.032,-0.124c0.194,-0.6 0.859,-0.935 1.472,-0.742c0.04,0.013 0.08,0.028 0.119,0.044c8.881,3.922 12.163,13.175 13.556,21.967c2.579,16.205 4.33,27 5.253,32.385c4.644,27.09 10.611,52.903 17.902,77.438c2.358,7.952 5.505,17.882 9.441,29.792c2.291,6.928 4.553,12.337 6.783,16.229Z" style="fill:#441f00;fill-rule:nonzero;"/>
    <path d="M332.284,867.448c-5.799,14.747 -9.652,30.294 -11.559,46.644c-0.666,5.699 -0.926,10.954 -0.779,15.768c0.66,22.228 4.898,42.854 12.714,61.879c6.74,16.402 16.316,32.351 28.727,47.845c-0.092,0.186 -0.281,0.22 -0.568,0.099c-0.114,-0.047 -0.215,-0.122 -0.293,-0.217c-16.033,-20.367 -28.71,-43.228 -35.191,-67.797c-1.924,-7.313 -3.559,-16.057 -4.904,-26.231c-0.519,-3.922 -0.794,-6.922 -0.824,-9c-0.055,-4.265 -0.532,-7.762 -0.312,-12.045c0.355,-6.97 0.859,-12.434 1.513,-16.392c0.415,-2.511 1.105,-6.198 2.071,-11.06c1.852,-9.252 4.757,-19.005 8.718,-29.258c0.28,-0.729 0.509,-0.807 0.687,-0.235Z" style="fill:#441f00;fill-rule:nonzero;"/>
    <path d="M362.029,1039.53c3.135,-5.03 5.597,-10.382 7.388,-16.056c3.19,-10.13 6.966,-20.151 9.744,-30.352c2.319,-8.503 4.968,-17.774 6.82,-25.608c6.294,-26.614 11.412,-53.454 15.353,-80.52c0.367,-0.084 0.535,-0.018 0.505,0.199c-5.097,37.77 -12.824,74.516 -23.182,110.239c-0.911,3.144 -4.376,13.425 -10.395,30.84c-1.329,3.868 -3.282,7.726 -5.362,10.761c-0.331,0.476 -0.62,0.642 -0.871,0.497Z" style="fill:#441f00;fill-rule:nonzero;"/>
    <path d="M419.896,889.595l-0.073,9.976c-0.036,0.41 -0.082,0.708 -0.138,0.894c-0.011,0.031 -0.028,0.051 -0.05,0.058c-0.067,0.021 -0.161,-0.083 -0.208,-0.229c-0.015,-0.05 -0.024,-0.099 -0.025,-0.145c-0.019,-3.5 0.146,-7.018 0.494,-10.554Z" style="fill:#441f00;fill-rule:nonzero;"/>
    <path d="M554.707,913.821c5.347,3.705 11.263,5.566 17.746,5.584c9.228,0.313 17.799,-1.771 25.712,-6.253c7.242,-4.108 13.878,-9.018 19.909,-14.728c2.293,-2.169 3.979,-1.302 6.224,0.505c3.349,2.693 6.53,5.136 9.543,7.328c5.934,4.308 12.13,7.75 18.589,10.329c8.073,2.951 16.237,3.337 24.493,1.157c4.956,-1.392 9.952,-3.39 14.987,-5.991c3.422,-1.771 6.988,-3.738 10.697,-5.901c1.094,-0.633 2.258,-0.829 3.493,-0.588c0.371,0.071 0.667,0.356 0.752,0.724c0.391,1.614 0.482,2.747 0.275,3.397c-3.772,11.861 -11.465,20.105 -23.082,24.732c-8.457,2.807 -17.172,3.934 -26.142,3.379c-4.572,-0.373 -9.607,-1.684 -15.107,-3.931c-7.046,-2.873 -13.63,-6.485 -19.753,-10.834c-0.434,-0.304 -1.026,-0.274 -1.421,0.072c-8.341,7.464 -18.018,12.263 -29.03,14.395c-8.165,0.885 -14.777,1.178 -19.836,0.876c-6.471,-0.391 -13.224,-1.982 -20.258,-4.771c-7.767,-3.078 -14.639,-6.942 -20.615,-11.593c-0.726,-0.564 -1.749,-0.587 -2.493,-0.054c-6.478,4.608 -13.332,8.43 -20.561,11.467c-4.497,1.885 -8.686,3.093 -12.567,3.623c-5.048,0.699 -9.414,0.801 -13.099,0.307c-8.078,-1.078 -15.885,-4.461 -23.42,-10.148c-4.987,-3.767 -13.282,-12.523 -13.402,-19.138l0,-0.036c0,-1.05 0.836,-1.916 1.852,-1.916c0.012,0 0.025,0 0.037,0.001c0.819,0.012 1.717,0.334 2.695,0.967c4.18,2.716 8.408,5.048 12.686,6.993c10.377,5.037 21.236,6.419 32.578,4.148c1.038,-0.518 2.96,-1.193 5.765,-2.024c4.174,-1.241 8.18,-3.395 12.017,-6.461c4.082,-3.259 8.306,-6.698 12.668,-10.319c1.296,-1.072 2.818,-1.973 4.565,-2.701c1.243,-0.52 2.694,-0.203 3.603,0.785c5.836,6.374 12.469,11.913 19.9,16.618Z" style="fill:#978800;fill-rule:nonzero;"/>
    <path d="M463.611,913.775c10.444,4.133 21.303,5.516 32.578,4.148c-11.342,2.271 -22.201,0.889 -32.578,-4.148Z" style="fill:#441f00;fill-rule:nonzero;"/>
    <path d="M554.707,913.821c5.622,2.825 11.538,4.686 17.746,5.584c-6.483,-0.018 -12.399,-1.879 -17.746,-5.584Z" style="fill:#441f00;fill-rule:nonzero;"/>
    <path d="M652.43,916.586c8,2.023 16.164,2.41 24.493,1.157c-8.256,2.18 -16.42,1.794 -24.493,-1.157Z" style="fill:#441f00;fill-rule:nonzero;"/>
    <path d="M592.592,937.197c-15.308,3.205 -29.977,1.551 -44.008,-4.961c-6.239,-2.897 -12.06,-6.347 -17.462,-10.346c-0.378,-0.282 -0.905,-0.282 -1.284,0c-6.507,4.843 -13.734,8.852 -21.678,12.027c-17.991,7.181 -34.129,4.843 -48.417,-7.013c7.535,5.687 15.342,9.07 23.42,10.148c3.685,0.494 8.051,0.392 13.099,-0.307c3.881,-0.53 8.07,-1.738 12.567,-3.623c7.229,-3.037 14.083,-6.859 20.561,-11.467c0.744,-0.533 1.767,-0.51 2.493,0.054c5.976,4.651 12.848,8.515 20.615,11.593c7.034,2.789 13.787,4.38 20.258,4.771c5.059,0.302 11.671,0.009 19.836,-0.876Z" style="fill:#441f00;fill-rule:nonzero;"/>
    <path d="M684.045,934.116c-8.292,3.717 -17.006,4.843 -26.142,3.379c8.97,0.555 17.685,-0.572 26.142,-3.379Z" style="fill:#441f00;fill-rule:nonzero;"/>
    <path d="M486.353,988.124c-0.003,-0.01 -0.006,-0.02 -0.008,-0.029c-0.163,-0.584 0.195,-1.196 0.792,-1.357c0.008,-0.002 0.015,-0.004 0.023,-0.006c2.868,-0.687 9.753,3.019 14.354,5.268c6.014,2.937 14.575,6.434 21.129,7.202c8.739,1.03 16.509,0.512 23.31,-1.554c9.533,-2.898 18.367,-7.293 26.5,-13.184c4.033,-2.919 6.325,-1.219 10.001,1.645c10.486,8.204 22.751,13.527 35.987,13.689c11.596,0.136 22.724,-3.84 33.595,-8.475c6.692,-2.856 10.272,-4.371 10.743,-4.546c3.74,-1.382 4.354,2.404 3.346,4.663c-2.004,4.488 -5.109,8.509 -9.313,12.063c-12.833,10.825 -30.332,17.566 -47.344,14.665c-11.355,-1.933 -21.982,-5.75 -31.882,-11.448c-0.678,-0.391 -1.521,-0.391 -2.199,-0c-14.383,8.241 -32.651,15.045 -49.334,11.693c-13.64,-2.747 -26.446,-10.039 -34.567,-21.497c-2.365,-3.343 -4.189,-5.729 -5.133,-8.792Zm90.152,-4.157c-0.644,-0.172 -1.336,-0.078 -1.916,0.262c-1.699,0.994 -4.07,2.446 -7.113,4.355c-5.158,3.229 -10.495,5.88 -16.014,7.952c-5.83,2.181 -11.638,3.461 -17.426,3.841c-8.475,0.554 -17.247,-1.028 -26.316,-4.745c-4.516,-1.842 -7.205,-3.011 -8.067,-3.505c-2.722,-1.563 -8.332,-3.859 -10.916,-4.654c-0.098,-0.029 -0.199,-0.044 -0.301,-0.044c-0.564,-0 -1.027,0.457 -1.027,1.012c-0,0.061 0.005,0.121 0.016,0.18c0.275,1.545 1.256,2.828 2.118,4.12c3.783,5.621 6.741,9.394 8.873,11.322c6.392,5.765 13.954,9.958 22.687,12.579c5.316,1.59 10.486,2.25 15.509,1.978c5.995,-0.331 11.153,-1.153 15.473,-2.467c7.523,-2.276 15.189,-5.572 22.999,-9.885c0.906,-0.497 2.016,-0.48 2.906,0.045c6.407,3.795 13.3,6.298 21.577,8.928c2.512,0.801 5.277,1.454 8.296,1.961c4.944,0.837 7.764,1.25 8.46,1.238c11.459,-0.205 22.089,-3.338 31.891,-9.398c5.414,-3.343 10.187,-7.681 14.318,-13.012c1.21,-1.563 4.143,-6.081 2.75,-8.196c-0.337,-0.513 -1.008,-0.713 -1.577,-0.469c-10.569,4.572 -22.384,9.343 -34.466,12.135c-2.64,0.608 -5.224,0.934 -7.754,0.976c-4.706,0.072 -7.318,0.069 -7.838,-0.009c-12.307,-1.874 -23.695,-6.982 -34.163,-15.325c-0.465,-0.374 -1.457,-0.765 -2.979,-1.175Z" style="fill:#441f00;fill-rule:nonzero;"/>
    <path d="M578.249,1054.81c1.221,0.41 2.019,0.802 2.391,1.175c8.4,8.344 17.537,13.452 27.413,15.325c0.417,0.079 2.514,0.082 6.29,0.009c2.029,-0.042 4.104,-0.367 6.222,-0.976c9.695,-2.792 19.176,-7.563 27.657,-12.135c0.456,-0.243 0.995,-0.044 1.265,0.47c1.118,2.114 -1.236,6.632 -2.207,8.196c-3.314,5.331 -7.145,9.668 -11.489,13.011c-7.865,6.061 -16.395,9.193 -25.589,9.397c-0.559,0.013 -2.823,-0.4 -6.789,-1.237c-2.423,-0.506 -4.642,-1.16 -6.658,-1.961c-6.641,-2.63 -12.172,-5.132 -17.314,-8.927c-0.714,-0.525 -1.604,-0.543 -2.331,-0.046c-6.267,4.313 -12.42,7.609 -18.456,9.885c-3.466,1.314 -7.605,2.136 -12.416,2.467c-4.03,0.272 -8.179,-0.388 -12.445,-1.978c-7.007,-2.621 -13.076,-6.814 -18.205,-12.578c-1.711,-1.928 -4.084,-5.702 -7.12,-11.323c-0.691,-1.292 -1.479,-2.575 -1.699,-4.12c-0.009,-0.059 -0.013,-0.12 -0.013,-0.18c-0,-0.555 0.372,-1.012 0.824,-1.012c0.082,0 0.163,0.015 0.241,0.045c2.074,0.795 6.576,3.09 8.76,4.653c0.692,0.494 2.849,1.662 6.473,3.506c7.277,3.717 14.316,5.298 21.118,4.744c4.643,-0.38 9.304,-1.66 13.982,-3.841c4.428,-2.072 8.712,-4.722 12.85,-7.951c2.442,-1.91 4.345,-3.361 5.708,-4.355c0.465,-0.341 1.021,-0.435 1.537,-0.263Z" style="fill:#978800;fill-rule:nonzero;"/>
    <path d="M575.678,984.19c1.522,0.41 2.515,0.801 2.979,1.175c10.468,8.344 21.856,13.451 34.163,15.325c0.52,0.079 3.133,0.082 7.838,0.009c2.53,-0.042 5.114,-0.367 7.754,-0.976c12.082,-2.791 23.897,-7.563 34.466,-12.135c0.569,-0.244 1.239,-0.044 1.577,0.47c1.393,2.114 -1.541,6.632 -2.75,8.196c-4.131,5.331 -8.904,9.668 -14.318,13.012c-9.802,6.059 -20.432,9.192 -31.89,9.397c-0.697,0.012 -3.517,-0.401 -8.46,-1.238c-3.02,-0.506 -5.785,-1.16 -8.296,-1.961c-8.277,-2.63 -15.171,-5.133 -21.578,-8.928c-0.889,-0.525 -2,-0.542 -2.906,-0.045c-7.81,4.313 -15.476,7.609 -22.999,9.885c-4.32,1.314 -9.477,2.136 -15.472,2.467c-5.024,0.272 -10.193,-0.388 -15.51,-1.978c-8.732,-2.621 -16.295,-6.814 -22.687,-12.579c-2.132,-1.927 -5.09,-5.701 -8.873,-11.322c-0.861,-1.292 -1.842,-2.575 -2.117,-4.12c-0.011,-0.059 -0.017,-0.119 -0.017,-0.18c0,-0.555 0.464,-1.012 1.027,-1.012c0.102,-0 0.203,0.015 0.301,0.044c2.584,0.795 8.194,3.091 10.917,4.654c0.862,0.494 3.55,1.663 8.066,3.506c9.069,3.716 17.841,5.298 26.317,4.744c5.787,-0.38 11.595,-1.659 17.425,-3.841c5.518,-2.072 10.856,-4.722 16.014,-7.951c3.044,-1.91 5.415,-3.362 7.113,-4.356c0.58,-0.34 1.272,-0.434 1.916,-0.262Z" style="fill:#978800;fill-rule:nonzero;"/>
    <path d="M405.826,999.066c-4.345,15.343 -9.442,30.452 -15.289,45.325c-0.801,2.042 -1.742,5.141 -2.824,9.298c-0.055,-1.957 0.266,-3.846 0.962,-5.666c6.692,-17.556 11.953,-32.195 16.748,-49.49c0.024,-0.079 0.099,-0.135 0.184,-0.135c0.099,0 0.182,0.075 0.191,0.171l0.028,0.497Z" style="fill:#441f00;fill-rule:nonzero;"/>
    <path d="M714.276,1159.87c-2.164,-5.831 -4.98,-11.175 -8.451,-16.03c-0.305,-0.426 -0.656,-0.811 -1.045,-1.147c-4.192,-3.621 -8.614,-6.356 -13.264,-8.205c-6.734,-2.675 -14.156,-4.424 -22.265,-5.25c6.942,0.151 13.624,1.431 20.047,3.84c5.383,2.019 10.455,4.871 15.216,8.557c0.231,0.181 0.447,0.387 0.641,0.615c4.413,5.211 7.453,11.084 9.121,17.62Z" style="fill:#441f00;fill-rule:nonzero;"/>
    <path d="M669.251,1129.24c8.109,0.826 15.531,2.575 22.265,5.25c4.65,1.849 9.072,4.584 13.264,8.205c0.389,0.336 0.74,0.721 1.045,1.147c3.471,4.855 6.287,10.199 8.451,16.03c0.006,6.657 -1.86,12.093 -5.6,16.31c-2.696,3.036 -5.381,0.687 -8.333,-1.518c-1.161,-0.867 -3.11,-2.551 -5.848,-5.051c-2.777,-2.539 -8.204,-4.365 -11.852,-2.783c-3.85,1.672 -5.252,5.114 -7.599,9.397c-0.489,0.879 -1.195,1.458 -2.117,1.735c-4.978,1.5 -7.361,-4.003 -8.69,-7.572c-1.07,-2.885 -1.929,-4.635 -2.576,-5.25c-4.427,-4.219 -10.651,-2.295 -14.978,1.094c-3.721,2.9 -3.548,7.861 -5.757,11.412c-0.161,0.267 -0.444,0.442 -0.76,0.47c-2.903,0.301 -4.825,0.268 -5.766,-0.1c-7.889,-3.108 -11.37,-8.62 -10.441,-16.535c1.442,-12.277 7.269,-21.045 17.481,-26.304c8.084,-4.169 17.355,-6.148 27.811,-5.937Z" style="fill:#ffdf00;fill-rule:nonzero;stroke:#000;stroke-width:0.78px;stroke-linejoin:round;stroke-miterlimit:2;"/>
    <path d="M518.491,1139.15c5.493,4.554 9.215,10.269 11.164,17.142c0.293,2.338 0.407,4.641 0.339,6.913c-0.079,2.584 -0.635,4.782 -1.668,6.595c-2.231,3.916 -5.591,6.862 -10.083,8.838c-2.145,0.949 -4.537,-0.542 -6.169,-2.413c-2.594,-2.964 -3.346,-6.93 -6.087,-9.705c-4.354,-4.382 -11.265,-6.009 -15.105,0.181c-0.147,0.234 -0.258,0.486 -0.331,0.75c-1.146,4.067 -2.218,7.401 -5.848,9.253c-2.67,1.362 -5.084,1.103 -7.242,-0.777c-1.729,-1.506 -4.002,-4.162 -6.819,-7.969c-0.162,-0.22 -0.383,-0.394 -0.642,-0.507c-1.112,-0.463 -2.38,-0.575 -3.804,-0.334c-4.373,0.732 -7.104,1.012 -10.358,4.003c-3.074,2.831 -4.898,4.548 -5.472,5.15c-3.997,4.211 -7.123,-1.174 -8.598,-4.22c-2.078,-4.288 -2.692,-8.436 -1.843,-12.442c0.788,-3.714 3.648,-9.1 5.802,-12.695c1.916,-3.209 5.243,-6.091 8.287,-8.124c8.598,-5.729 20.285,-9.379 31.193,-9.198c6.13,0.108 11.737,0.84 16.821,2.195c5.585,1.494 11.072,3.949 16.463,7.364Z" style="fill:#ffdf00;fill-rule:nonzero;"/>
    <path d="M529.655,1156.29c-1.949,-6.873 -5.671,-12.588 -11.164,-17.142c6.251,4.049 9.973,9.762 11.164,17.142Z" style="fill:#441f00;fill-rule:nonzero;"/>
    <g id="logo-text">
        <path d="M1012.6,1055.62l0,-420l76.2,0l0,149.4c22,-27.2 52.2,-40.8 90.6,-40.8c37.2,0 66.8,11.3 88.8,33.9c22,22.6 33,57.1 33,103.5l0,174l-76.2,0l0,-167.4c0,-52 -21.6,-78 -64.8,-78c-22,0 -39.4,7.6 -52.2,22.8c-12.8,15.2 -19.2,36 -19.2,62.4l0,160.2l-76.2,0Z" style="fill-rule:nonzero;"/>
        <path d="M1366.6,1055.62l0,-65.4l86.4,0l0,-177l-86.4,0l0,-65.4l163.2,0l0,242.4l84,0l0,65.4l-247.2,0Zm159.6,-364.8c-9.2,9.2 -20.8,13.8 -34.8,13.8c-14,0 -25.6,-4.6 -34.8,-13.8c-9.2,-9.2 -13.8,-20.6 -13.8,-34.2c0,-13.6 4.6,-24.9 13.8,-33.9c9.2,-9 20.8,-13.5 34.8,-13.5c14,0 25.6,4.5 34.8,13.5c9.2,9 13.8,20.3 13.8,33.9c0,13.6 -4.6,25 -13.8,34.2Z" style="fill-rule:nonzero;"/>
        <path d="M1657,1055.62l0,-65.4l63.6,0l0,-177l-63.6,0l0,-65.4l134.4,0l2.4,53.4c19.6,-35.6 50.8,-53.4 93.6,-53.4l35.4,0l0,69.6l-48,0c-26.8,0 -46.5,8 -59.1,24c-12.6,16 -18.9,36.8 -18.9,62.4l0,86.4l85.8,0l0,65.4l-225.6,0Z" style="fill-rule:nonzero;"/>
        <path d="M2122.6,1059.22c-49.2,0 -88,-14.2 -116.4,-42.6c-28.4,-28.4 -42.6,-66.4 -42.6,-114c0,-47.6 14,-85.9 42,-114.9c28,-29 65,-43.5 111,-43.5c44.8,0 81.1,13.3 108.9,39.9c27.8,26.6 41.9,62.3 42.3,107.1c0,9.2 -0.6,18.6 -1.8,28.2l-223.2,0l0,3.6c0.8,23.6 8.1,42.3 21.9,56.1c13.8,13.8 31.9,20.7 54.3,20.7c18,0 33,-4.1 45,-12.3c12,-8.2 20,-20.1 24,-35.7l75.6,0c-5.2,31.2 -20.5,56.9 -45.9,77.1c-25.4,20.2 -57.1,30.3 -95.1,30.3Zm-77.4,-192.6l145.2,0c-2.8,-20.4 -10.6,-36.2 -23.4,-47.4c-12.8,-11.2 -29.4,-16.8 -49.8,-16.8c-19.2,0 -35.5,5.8 -48.9,17.4c-13.4,11.6 -21.1,27.2 -23.1,46.8Z" style="fill-rule:nonzero;"/>
        <path d="M2372.2,1055.62l-66,-307.8l73.2,0l40.8,220.8l51,-180.6l52.2,0l49.8,180.6l42,-220.8l70.2,0l-66.6,307.8l-75,0l-47.4,-165l-48.6,165l-75.6,0Z" style="fill-rule:nonzero;"/>
        <path d="M2728.6,1055.62l0,-65.4l86.4,0l0,-177l-86.4,0l0,-65.4l163.2,0l0,242.4l84,0l0,65.4l-247.2,0Zm159.6,-364.8c-9.2,9.2 -20.8,13.8 -34.8,13.8c-14,0 -25.6,-4.6 -34.8,-13.8c-9.2,-9.2 -13.8,-20.6 -13.8,-34.2c0,-13.6 4.6,-24.9 13.8,-33.9c9.2,-9 20.8,-13.5 34.8,-13.5c14,0 25.6,4.5 34.8,13.5c9.2,9 13.8,20.3 13.8,33.9c0,13.6 -4.6,25 -13.8,34.2Z" style="fill-rule:nonzero;"/>
        <path d="M3162.4,1059.22c-41.6,0 -75.3,-9.5 -101.1,-28.5c-25.8,-19 -39.5,-44.7 -41.1,-77.1l73.2,0c1.6,14.4 8.5,26.2 20.7,35.4c12.2,9.2 28.5,13.8 48.9,13.8c39.2,0 58.8,-12.2 58.8,-36.6c0,-11.6 -4.8,-19.5 -14.4,-23.7c-9.6,-4.2 -27,-7.9 -52.2,-11.1c-16,-2 -29.7,-4.1 -41.1,-6.3c-11.4,-2.2 -23,-5.4 -34.8,-9.6c-11.8,-4.2 -21.2,-9.4 -28.2,-15.6c-7,-6.2 -12.8,-14.1 -17.4,-23.7c-4.6,-9.6 -6.9,-20.8 -6.9,-33.6c0,-30 11.7,-53.9 35.1,-71.7c23.4,-17.8 54.1,-26.7 92.1,-26.7c40,0 72.4,8.7 97.2,26.1c24.8,17.4 38.2,41.5 40.2,72.3l-73.8,0c-1.6,-12.8 -7.9,-23 -18.9,-30.6c-11,-7.6 -25.3,-11.4 -42.9,-11.4c-17.2,0 -30.8,3 -40.8,9c-10,6 -15,14.4 -15,25.2c0,11.6 5.1,19.7 15.3,24.3c10.2,4.6 27.5,8.3 51.9,11.1c20.8,2.4 37.9,5.2 51.3,8.4c13.4,3.2 26.6,8 39.6,14.4c13,6.4 22.6,15.2 28.8,26.4c6.2,11.2 9.3,25 9.3,41.4c0,30 -12.4,53.9 -37.2,71.7c-24.8,17.8 -57,26.7 -96.6,26.7Z" style="fill-rule:nonzero;"/>
        <path d="M3506.8,1059.22c-49.2,0 -88,-14.2 -116.4,-42.6c-28.4,-28.4 -42.6,-66.4 -42.6,-114c0,-47.6 14,-85.9 42,-114.9c28,-29 65,-43.5 111,-43.5c44.8,0 81.1,13.3 108.9,39.9c27.8,26.6 41.9,62.3 42.3,107.1c0,9.2 -0.6,18.6 -1.8,28.2l-223.2,0l0,3.6c0.8,23.6 8.1,42.3 21.9,56.1c13.8,13.8 31.9,20.7 54.3,20.7c18,0 33,-4.1 45,-12.3c12,-8.2 20,-20.1 24,-35.7l75.6,0c-5.2,31.2 -20.5,56.9 -45.9,77.1c-25.4,20.2 -57.1,30.3 -95.1,30.3Zm-77.4,-192.6l145.2,0c-2.8,-20.4 -10.6,-36.2 -23.4,-47.4c-12.8,-11.2 -29.4,-16.8 -49.8,-16.8c-19.2,0 -35.5,5.8 -48.9,17.4c-13.4,11.6 -21.1,27.2 -23.1,46.8Z" style="fill-rule:nonzero;"/>
    </g>
</svg>
