<?xml version="1.0" encoding="UTF-8" standalone="no"?><!DOCTYPE svg PUBLIC "-//W3C//DTD SVG 1.1//EN" "http://www.w3.org/Graphics/SVG/1.1/DTD/svg11.dtd"><svg width="100%" height="100%" viewBox="0 0 14199 3009" version="1.1" xmlns="http://www.w3.org/2000/svg" xmlns:xlink="http://www.w3.org/1999/xlink" xml:space="preserve" xmlns:serif="http://www.serif.com/" style="fill-rule:evenodd;clip-rule:evenodd;"><g><g><path d="M14018,1381.69c-13.854,-19.754 -25.996,-34.762 -36.437,-45.029c-10.513,-10.341 -18.092,-18.196 -22.725,-23.566c-0.98,-1.105 -1.217,-2.68 -0.609,-4.03l8.592,-19.316" style="fill:none;fill-rule:nonzero;stroke:#9e876d;stroke-width:7.58px;"/><g><path d="M13966.8,1289.75c43.733,-93.367 63.212,-203.271 57.979,-305.113c-8.938,-174.471 -65.617,-344.762 -154.913,-494.308c-0.404,-0.625 -0.271,-1.458 0.304,-1.958c45.629,-40.213 79.85,-88.213 102.667,-144.009c30.171,-73.771 44.137,-150.25 41.896,-229.441c-0.763,-26.242 -0.996,-49.734 -13.9,-68.863c-22.879,-33.883 -69.246,-42.429 -97.704,-10.392c-21.13,23.821 -39.234,42.659 -54.309,56.513c-68.341,62.825 -147.187,105.296 -236.529,127.408c-16.758,4.167 -34.492,8.009 -53.204,11.521c-7.846,1.479 -13.408,1.367 -16.692,-0.342c-62.383,-32.475 -127.2,-58.366 -194.446,-77.67c-131.65,-37.759 -270.175,-55.759 -407.025,-47.925c-164.308,9.412 -325.675,53.308 -474.97,125.108c-4.484,2.133 -9.475,2.587 -14.975,1.358c-37.696,-8.437 -79.863,-17.433 -116.488,-31.062c-77.15,-28.713 -142.983,-72.063 -197.5,-130.046c-4.404,-4.692 -15.429,-17.042 -33.075,-37.046c-10.975,-12.425 -25.004,-18.321 -42.087,-17.696c-44.571,1.621 -61.034,33.509 -63.975,72.817c-5.834,77.908 2.991,152.442 26.466,223.604c22.575,68.446 59.467,126.763 112.559,175.45c1.775,1.617 2.158,4.263 0.916,6.288c-48.966,79.929 -86.283,169.383 -112.441,257.408c-53.742,180.8 -58.438,381.433 23.754,555.075c1.083,2.308 0.612,5.05 -1.184,6.892c-71.625,73.266 -125.962,158.07 -163.008,254.4c-25.337,65.837 -42.537,130.333 -51.6,193.483c-16.654,115.937 -5.425,229.467 33.683,340.583c11.259,32.029 21.875,59.463 31.855,82.304c30.937,70.859 69.958,135.075 117.066,192.655c37.504,45.808 84.763,93.837 141.771,144.087c68.213,60.125 148.65,116.525 231.417,165.775c1.162,0.692 1.871,1.938 1.871,3.283c-0,0.905 -0.325,1.784 -0.917,2.475c-39.517,46.034 -56.654,98.655 -51.408,157.867c2.47,27.913 10.72,53.5 24.745,76.767c23.375,38.779 55.538,64.608 103.163,62.087c24.162,-1.279 46.571,-8.675 67.221,-22.179c2.15,-1.392 5.021,-1.158 6.95,0.567c14.283,12.879 27.35,23.683 46.025,25.037c32.337,2.309 61.579,-6.762 87.729,-27.221c1.942,-1.533 4.696,-1.608 6.721,-0.187c44.266,30.758 96.058,34.258 142.883,8.321c48.429,-26.846 77.304,-73.117 89.563,-125.75c0.358,-1.604 1.812,-2.754 3.479,-2.75l178.246,-0c1.279,0.004 2.408,0.854 2.75,2.071c3.312,12.02 5.729,20.516 7.254,25.487c12.708,41.142 35.546,72.392 68.521,93.746c49.041,31.742 105.033,33.662 155.675,3.504c1.82,-1.092 4.133,-0.971 5.808,0.3c18.842,14.283 40.179,21.85 64.012,22.704c26.734,0.979 45.525,-6.812 64.584,-25.15c1.721,-1.65 4.379,-1.921 6.379,-0.641c38.879,24.737 92.317,32.266 132.8,8.733c41.783,-24.283 67.979,-85.463 70.733,-131.996c1.759,-29.971 -1.287,-55.512 -9.129,-76.621c-9.958,-26.779 -23.983,-52.079 -42.092,-75.9c-0.033,-0.046 -0.062,-0.091 -0.095,-0.141c-1.184,-1.755 -0.705,-4.15 1.058,-5.3c0.05,-0.034 0.096,-0.063 0.15,-0.092c106.304,-63.608 203.937,-138.317 292.904,-224.133c58.817,-56.775 113.471,-124.696 152.392,-195.175c32.208,-58.359 58.716,-119.705 79.516,-184.038c33.13,-102.433 42.421,-207.258 27.884,-314.487c-14.771,-108.684 -49.796,-211.355 -105.071,-308.017c-16.017,-28.038 -33.829,-54.067 -53.433,-78.088" style="fill:none;fill-rule:nonzero;stroke:#bda472;stroke-width:7.58px;"/><path d="M13630.2,330.917c-37.376,5.266 -63.463,8.12 -78.259,8.545c-19.096,0.55 -37.058,-2.962 -53.892,-10.541c-24.441,-11.034 -58.129,-30.346 -86.316,-42.209c-87.817,-36.945 -179.392,-61.733 -274.721,-74.358c-29.871,-3.937 -53.879,-6.325 -72.038,-7.154c-42.891,-1.958 -95.633,-3.158 -145.02,1.696c-16.571,1.629 -28.538,2.887 -35.9,3.766c-54.413,6.525 -108.763,17.28 -163.046,32.263c-16.042,4.417 -27.779,8.825 -35.217,13.217" style="fill:none;fill-rule:nonzero;stroke:#643c05;stroke-width:7.58px;"/><path d="M12941.4,799.883l13.67,61.634c0.942,4.216 4.692,7.291 9.059,7.416c22.329,0.6 48.616,0.513 78.866,-0.262c4.942,-0.129 8.859,-0.842 11.763,-2.146c1.191,-0.542 2.029,-1.65 2.217,-2.938c2.445,-16.591 8.17,-43.187 17.187,-79.779c42.087,-170.558 181.571,-301.2 358.292,-328.458c52.758,-8.133 105.12,-7.508 157.091,1.883" style="fill:none;fill-rule:nonzero;stroke:#bd8e26;stroke-width:7.58px;"/><path d="M12685.8,256.142c116.083,-37.096 233.246,-53.65 351.496,-49.663c126.52,4.271 249.312,30.913 368.375,79.933c31.929,13.138 60.841,29.555 93.5,45.217c12.804,6.125 26.283,9.388 40.441,9.788c29.184,0.829 59.38,-2.671 90.596,-10.5" style="fill:none;fill-rule:nonzero;stroke:#9d7121;stroke-width:7.58px;"/><path d="M13540.7,553.575c-101.009,-5.971 -187.171,23.042 -258.492,87.046c-22.838,20.512 -45.092,48.133 -66.763,82.871" style="fill:none;fill-rule:nonzero;stroke:#bd8e26;stroke-width:7.58px;"/><path d="M13215.4,723.492c-23.301,32.729 -39.263,68.395 -47.896,107c-7.254,32.554 -9.396,66.416 -6.413,101.583c2.775,33.004 11.25,65.8 25.433,98.379c9.984,22.942 20.909,43.808 32.771,62.608c12.659,20.055 27.388,38.18 44.192,54.367c64.267,61.875 141.492,95.783 231.679,101.733c60.7,4.017 117.458,-6.375 170.267,-31.175c50.187,-23.545 92.592,-55.183 127.225,-94.916c36.075,-41.388 60.75,-89.759 74.016,-145.104c7.08,-29.442 10.513,-54.467 10.313,-75.071c-0.767,-81.779 -27.742,-154.279 -80.933,-217.504c-60.917,-72.442 -148.304,-122.288 -244.171,-133.846c-5.75,-0.679 -10.846,-0.742 -15.279,-0.192c-0.559,0.075 -0.875,0.325 -0.954,0.754c-0.005,0.029 -0.005,0.054 -0.005,0.079c0,0.205 0.171,0.375 0.38,0.375l0.05,0c1.679,-0.1 3.208,0.238 4.579,1.013" style="fill:none;fill-rule:nonzero;stroke:#643c05;stroke-width:7.58px;"/><path d="M13215.4,723.492c-21.717,36.12 -36.742,74.458 -45.067,115.02c-3.313,16.088 -5.184,32.055 -5.617,47.892c-0.954,33.246 -0.304,64.229 9.513,98.717c7.966,27.962 17.962,53.604 29.983,76.921c66.683,129.475 211.054,198.525 354.737,182.862c72.846,-7.954 139.163,-38.025 198.951,-90.204c58.704,-51.242 94.529,-116.642 109.5,-193.413c16.579,-85.05 -1.834,-174.545 -50.034,-244.008c-61.875,-89.304 -164.346,-156.512 -276.712,-163.704" style="fill:none;fill-rule:nonzero;stroke:#9d7121;stroke-width:7.58px;"/><path d="M13895.6,1161.96c-15.988,18.8 -26.596,30.788 -31.813,35.955c-10.746,10.695 -26.95,25.104 -48.621,43.225c-19.683,16.441 -37.112,29.354 -52.287,38.741c-33.28,20.584 -67.409,36.596 -102.396,48.042c-34.475,11.246 -70.467,18.083 -107.971,20.517c-36.721,2.387 -73.446,1.02 -110.192,-4.1c-44.962,-6.3 -88.72,-20.109 -131.27,-41.417c-26.555,-13.279 -43.563,-22.475 -51.025,-27.6c-17.542,-12.046 -35.559,-23.267 -54.046,-33.658" style="fill:none;fill-rule:nonzero;stroke:#643c05;stroke-width:7.58px;"/><path d="M12218.5,2376.73c1.529,9.088 3.641,15.95 6.342,20.596c8.962,15.338 19.82,30.396 32.579,45.179c28.137,32.579 58.37,60.892 90.708,84.938c38.079,28.35 79.212,50.637 119.504,70.558c8.329,4.113 18.5,5.633 30.521,4.554c34.858,-3.187 76.667,-4.946 125.425,-5.271c55.037,-0.337 102.742,8.659 150.217,28.805c53.354,22.662 92.845,60.954 123.591,110.5c1.925,3.087 5.342,4.987 9.017,5.008c72.567,0.454 136.729,0.367 192.492,-0.263c6.875,-0.079 14.095,-0.037 18.258,-5.387c10.696,-13.592 20.812,-31.738 30.975,-43.708c41.054,-48.646 99.533,-78.388 162.321,-89.571c24.954,-4.417 46.887,-6.604 65.808,-6.55c25.004,0.1 68.913,2.146 131.729,6.137c11.588,0.729 23.809,-1.833 36.667,-7.683c28.921,-13.2 57.571,-29.342 85.933,-48.417c62.025,-41.754 113.204,-87.95 152.85,-149.316" style="fill:none;fill-rule:nonzero;stroke:#bd8e26;stroke-width:7.58px;"/><path d="M13205.9,1241.67c17.804,12.7 35.866,24.787 54.2,36.258c100.116,62.675 208.829,85.742 326.133,69.2c78.579,-11.092 149.029,-40.833 211.362,-89.229c22.942,-17.821 44.442,-36.154 64.509,-55.009c13.62,-12.8 24.762,-26.441 33.416,-40.925" style="fill:none;fill-rule:nonzero;stroke:#9d7121;stroke-width:7.58px;"/><path d="M13391.6,2691.53c-43.567,-0.879 -82.196,7.367 -115.879,24.737c-42.55,21.913 -66.829,58.446 -72.838,109.6c-3.87,32.98 10.634,55.946 43.505,68.896c3.92,1.534 11.929,1.671 24.025,0.417c1.316,-0.117 2.496,-0.846 3.166,-1.958c9.204,-14.796 8.484,-35.467 23.988,-47.55c18.029,-14.121 43.962,-22.138 62.408,-4.559c2.696,2.563 6.275,9.854 10.734,21.875c5.537,14.871 15.466,37.8 36.208,31.55c3.842,-1.154 6.783,-3.566 8.821,-7.229c9.779,-17.846 15.621,-32.187 31.662,-39.154c15.2,-6.592 37.813,1.017 49.384,11.596c11.408,10.416 19.529,17.433 24.366,21.046c12.3,9.187 23.488,18.975 34.721,6.325c15.583,-17.571 23.358,-40.221 23.333,-67.959" style="fill:none;fill-rule:nonzero;stroke:#bd8e26;stroke-width:7.58px;"/><path d="M13579.2,2819.15c-6.95,-27.233 -19.617,-51.704 -38.005,-73.417c-0.808,-0.95 -1.708,-1.808 -2.671,-2.562c-19.837,-15.359 -40.97,-27.242 -63.399,-35.654c-26.763,-10.038 -54.605,-15.371 -83.53,-16" style="fill:none;fill-rule:nonzero;stroke:#643c05;stroke-width:7.58px;"/><path d="M13579.2,2819.15c-9.017,-24.296 -20.751,-46.563 -35.213,-66.792c-1.271,-1.775 -2.733,-3.379 -4.354,-4.779c-17.467,-15.087 -35.892,-26.483 -55.267,-34.187c-28.058,-11.146 -58.983,-18.434 -92.771,-21.875" style="fill:none;fill-rule:nonzero;stroke:#9d7121;stroke-width:7.58px;"/><path d="M13457.7,747.775c-54.046,4.521 -104.842,38.967 -123.708,89.946c-9.117,24.625 -12.592,49.537 -10.429,74.737c2.166,25.2 9.845,49.184 23.029,71.946c27.312,47.1 83.266,72.629 137.308,68.146c54.004,-4.517 104.804,-38.967 123.709,-89.946c9.116,-24.621 12.591,-49.533 10.429,-74.733c-2.192,-25.2 -9.867,-49.184 -23.034,-71.95c-27.308,-47.134 -83.258,-72.663 -137.304,-68.146" style="fill:none;fill-rule:nonzero;stroke:#9d7121;stroke-width:7.58px;"/><path d="M13458,751.275c-52.975,4.446 -102.817,38.217 -121.304,88.179c-8.938,24.146 -12.35,48.579 -10.233,73.304c2.137,24.7 9.662,48.204 22.57,70.521c26.775,46.229 81.659,71.267 134.63,66.825c52.979,-4.404 102.779,-38.175 121.304,-88.175c8.937,-24.146 12.35,-48.567 10.237,-73.267c-2.141,-24.72 -9.666,-48.241 -22.575,-70.554c-26.771,-46.2 -81.654,-71.237 -134.629,-66.833" style="fill:none;fill-rule:nonzero;stroke:#643c05;stroke-width:7.58px;"/><path d="M13344.3,1892.6c38.066,6.1 74.375,1.408 108.925,-14.079" style="fill:none;fill-rule:nonzero;stroke:#9d7121;stroke-width:7.58px;"/><path d="M13423.6,1810.3c-34.705,5.221 -68.721,3.608 -102.055,-4.821" style="fill:none;fill-rule:nonzero;stroke:#9d7121;stroke-width:7.58px;"/><path d="M13321.5,1805.48c33.638,12.296 67.654,13.904 102.054,4.821" style="fill:none;fill-rule:nonzero;stroke:#643c05;stroke-width:7.58px;"/><path d="M13453.2,1878.52c-35.237,11.696 -71.55,16.391 -108.925,14.079" style="fill:none;fill-rule:nonzero;stroke:#643c05;stroke-width:7.58px;"/><path d="M12629.5,2103.55c3.933,12.763 11.533,22.704 21.387,36.633c33.838,47.742 87.196,78.125 144.029,89.571c69.513,13.967 145.63,-14.383 205.559,-48.721c2.825,-1.629 6.337,-1.629 9.162,0c41.25,23.742 85.529,39.646 132.842,47.7c70.883,12.088 143.796,-16 197.267,-61.104c17.516,-14.808 30.454,-31.562 38.804,-50.262c4.2,-9.413 1.641,-25.188 -13.942,-19.429c-1.962,0.729 -16.879,7.041 -44.762,18.941c-45.296,19.313 -91.663,35.879 -139.98,35.313c-55.15,-0.675 -106.254,-22.854 -149.945,-57.038c-15.317,-11.933 -24.867,-19.016 -41.671,-6.854c-33.888,24.546 -70.696,42.858 -110.417,54.933c-28.337,8.609 -60.712,10.767 -97.125,6.475c-27.308,-3.2 -62.979,-17.77 -88.037,-30.008c-19.171,-9.371 -47.859,-24.812 -59.809,-21.95c-0.033,0.008 -0.062,0.017 -0.096,0.025c-2.487,0.671 -3.979,3.221 -3.3,5.654c0.009,0.038 0.021,0.079 0.034,0.121" style="fill:none;fill-rule:nonzero;stroke:#9d7121;stroke-width:7.58px;"/><path d="M13005.1,2086.23c-2.683,-0.716 -5.567,-0.325 -7.984,1.092c-7.079,4.142 -16.958,10.192 -29.637,18.146c-21.492,13.454 -43.729,24.5 -66.725,33.133c-24.292,9.088 -48.492,14.421 -72.608,16.004c-35.313,2.309 -71.863,-4.283 -109.65,-19.771c-18.817,-7.675 -30.021,-12.545 -33.613,-14.604c-11.341,-6.512 -34.716,-16.079 -45.483,-19.391c-0.408,-0.121 -0.829,-0.184 -1.254,-0.184c-2.35,0 -4.279,1.904 -4.279,4.217c-0,0.254 0.02,0.504 0.066,0.75c1.146,6.437 5.234,11.783 8.825,17.167c15.763,23.42 28.088,39.141 36.971,47.175c26.633,24.02 58.142,41.491 94.529,52.412c22.15,6.625 43.692,9.375 64.621,8.242c24.979,-1.379 46.471,-4.804 64.471,-10.279c31.346,-9.484 63.287,-23.217 95.829,-41.188c3.775,-2.071 8.4,-2 12.108,0.188c26.696,15.812 55.417,26.241 89.905,37.2c10.466,3.337 21.987,6.058 34.566,8.17c20.6,3.488 32.35,5.209 35.25,5.159c47.746,-0.854 92.038,-13.909 132.879,-39.159c22.559,-13.929 42.446,-32.004 59.659,-54.216c5.041,-6.513 17.262,-25.338 11.458,-34.15c-1.404,-2.138 -4.2,-2.971 -6.571,-1.954c-44.037,19.05 -93.267,38.929 -143.608,50.562c-11,2.533 -21.767,3.892 -32.308,4.067c-19.609,0.3 -30.492,0.287 -32.659,-0.038c-51.279,-7.808 -98.729,-29.091 -142.346,-63.854c-1.937,-1.558 -6.07,-3.187 -12.412,-4.896" style="fill:none;fill-rule:nonzero;stroke:#643c05;stroke-width:7.58px;"/><path d="M13966.8,1289.75c-0.105,-0.425 -0.18,-0.763 -0.23,-1.013c-0.091,-0.329 -0.391,-0.558 -0.737,-0.558c-0.284,-0 -0.546,0.158 -0.675,0.404l-9.588,16.304c-1.925,3.309 -1.458,7.496 1.146,10.317l61.263,66.487c19.604,24.021 37.416,50.05 53.433,78.088c55.275,96.662 90.3,199.333 105.071,308.017c14.537,107.229 5.246,212.054 -27.884,314.487c-20.8,64.333 -47.308,125.679 -79.516,184.038c-38.921,70.479 -93.575,138.4 -152.392,195.175c-88.967,85.816 -186.6,160.525 -292.904,224.133c-0.054,0.029 -0.1,0.058 -0.15,0.092c-1.763,1.15 -2.242,3.545 -1.058,5.3c0.033,0.05 0.062,0.095 0.095,0.141c18.109,23.821 32.134,49.121 42.092,75.9c7.842,21.109 10.888,46.65 9.129,76.621c-2.754,46.533 -28.95,107.713 -70.733,131.996c-40.483,23.533 -93.921,16.004 -132.8,-8.733c-2,-1.28 -4.658,-1.009 -6.379,0.641c-19.059,18.338 -37.85,26.129 -64.584,25.15c-23.833,-0.854 -45.17,-8.421 -64.012,-22.704c-1.675,-1.271 -3.987,-1.392 -5.808,-0.3c-50.642,30.158 -106.634,28.238 -155.675,-3.504c-32.975,-21.354 -55.813,-52.604 -68.521,-93.746c-1.525,-4.971 -3.942,-13.467 -7.254,-25.487c-0.342,-1.217 -1.471,-2.067 -2.75,-2.071l-178.246,-0c-1.667,-0.004 -3.121,1.146 -3.479,2.75c-12.259,52.633 -41.134,98.904 -89.563,125.75c-46.825,25.937 -98.617,22.437 -142.883,-8.321c-2.025,-1.421 -4.779,-1.346 -6.721,0.187c-26.15,20.459 -55.392,29.53 -87.729,27.221c-18.675,-1.354 -31.742,-12.158 -46.025,-25.037c-1.929,-1.725 -4.8,-1.959 -6.95,-0.567c-20.65,13.504 -43.058,20.9 -67.221,22.179c-47.625,2.521 -79.787,-23.308 -103.162,-62.087c-14.025,-23.267 -22.275,-48.854 -24.746,-76.767c-5.246,-59.212 11.891,-111.833 51.408,-157.867c0.592,-0.691 0.917,-1.57 0.917,-2.475c-0,-1.345 -0.709,-2.591 -1.871,-3.283c-82.767,-49.25 -163.204,-105.65 -231.417,-165.775c-57.008,-50.25 -104.266,-98.279 -141.771,-144.087c-47.108,-57.58 -86.129,-121.796 -117.066,-192.655c-9.979,-22.841 -20.596,-50.275 -31.854,-82.304c-39.109,-111.116 -50.338,-224.646 -33.684,-340.583c9.063,-63.15 26.263,-127.646 51.6,-193.483c37.046,-96.33 91.383,-181.134 163.009,-254.4c1.795,-1.842 2.266,-4.584 1.183,-6.892c-82.192,-173.642 -77.496,-374.275 -23.754,-555.075c26.158,-88.025 63.475,-177.479 112.441,-257.408c1.242,-2.025 0.859,-4.671 -0.916,-6.288c-53.092,-48.687 -89.984,-107.004 -112.559,-175.45c-23.475,-71.162 -32.3,-145.696 -26.466,-223.604c2.941,-39.308 19.404,-71.196 63.975,-72.817c17.083,-0.625 31.112,5.271 42.087,17.696c17.646,20.004 28.671,32.354 33.075,37.046c54.517,57.983 120.35,101.333 197.5,130.046c36.625,13.629 78.792,22.625 116.488,31.062c5.5,1.229 10.491,0.775 14.975,-1.358c149.296,-71.8 310.662,-115.696 474.97,-125.108c136.851,-7.834 275.376,10.166 407.026,47.925c67.245,19.304 132.062,45.195 194.445,77.67c3.284,1.709 8.846,1.821 16.692,0.342c18.713,-3.512 36.446,-7.354 53.204,-11.521c89.342,-22.112 168.188,-64.583 236.529,-127.408c15.075,-13.854 33.18,-32.692 54.309,-56.513c28.458,-32.037 74.825,-23.491 97.704,10.392c12.904,19.129 13.137,42.621 13.9,68.863c2.242,79.191 -11.725,155.67 -41.896,229.441c-22.817,55.796 -57.037,103.796 -102.667,144.009c-0.575,0.5 -0.708,1.333 -0.304,1.958c89.296,149.546 145.975,319.837 154.913,494.308c5.233,101.842 -14.246,211.746 -57.979,305.113Zm-336.638,-958.829c-37.375,5.266 -63.463,8.12 -78.258,8.545c-19.096,0.55 -37.059,-2.962 -53.892,-10.541c-24.442,-11.034 -58.129,-30.346 -86.317,-42.209c-87.816,-36.945 -179.391,-61.733 -274.721,-74.358c-29.87,-3.937 -53.879,-6.325 -72.037,-7.154c-42.892,-1.958 -95.633,-3.158 -145.021,1.696c-16.571,1.629 -28.537,2.887 -35.9,3.766c-54.412,6.525 -108.762,17.28 -163.046,32.263c-16.041,4.417 -27.779,8.825 -35.216,13.217l-74.209,27.45c-2.929,-0.755 -6.404,-0.317 -10.429,1.316c-29.062,11.821 -58.587,28.046 -76.921,38.025c-26.275,14.271 -49.037,19.388 -75.162,17.284c-71.388,-5.688 -137.954,-28.055 -205.479,-58.4c-44.409,-19.95 -84.805,-44.963 -121.192,-75.034c-1.4,-1.133 -2.279,-1.254 -2.638,-0.379l-2.516,-1.542c-0.309,-0.187 -0.667,-0.291 -1.034,-0.291c-1.066,-0 -1.945,0.866 -1.945,1.921l-0,0.966c-1.605,0.554 -2.117,2.375 -1.53,5.463c9.321,49.371 25.375,92.654 48.163,129.854c20.346,33.158 44.192,60.504 71.533,82.042c4.179,3.283 7.629,6.387 10.354,9.295c0.7,0.742 1.584,1.3 2.559,1.617l1.716,0.533c0.763,0.246 1.471,0.617 2.1,1.088c21.825,16.996 45.263,30.533 70.317,40.625c1.292,0.5 2.646,0.779 4.013,0.829c7.383,0.25 12.5,-0.05 15.35,-0.904c63.987,-19.05 128.737,-27.096 194.254,-24.133c34.908,1.558 68.046,7.479 99.416,17.77c28.925,9.513 49.359,16.98 61.3,22.405c20.246,9.208 42.713,22.212 67.413,39.004c17.646,11.975 35.225,26.841 52.746,44.612c20.625,20.884 35.987,37.938 46.1,51.167c20.446,26.708 35.175,49.462 44.187,68.258c12.959,27.038 25.363,61.334 37.2,102.9l13.671,61.634c0.942,4.216 4.692,7.291 9.058,7.416c22.33,0.6 48.617,0.513 78.867,-0.262c4.942,-0.129 8.858,-0.842 11.763,-2.146c1.191,-0.542 2.029,-1.65 2.216,-2.938c2.446,-16.591 8.171,-43.187 17.188,-79.779c42.087,-170.558 181.571,-301.2 358.291,-328.458c52.759,-8.133 105.121,-7.508 157.092,1.883c9.879,3.588 24.071,7.025 42.583,10.313c3.234,0.554 19.096,4.708 47.588,12.462c6.471,1.759 12.221,1.346 17.267,-1.241c16.345,-8.321 41.704,-21.763 59.462,-35.73c29.054,-22.866 51.325,-43.975 66.804,-63.329c37.534,-47.037 61.846,-100.5 72.946,-160.387c0.513,-2.788 -0.417,-4.384 -2.787,-4.784l1.529,-9.075c0.021,-0.108 0.029,-0.216 0.029,-0.325c-0,-1.012 -0.842,-1.845 -1.871,-1.845c-0.442,-0 -0.875,0.154 -1.212,0.441c-31.371,26.629 -65.709,49.484 -103.009,68.559c-51.283,26.254 -104.191,45.795 -158.733,58.625Zm-1310.76,270.025c-35.546,20.529 -65.488,43.658 -89.83,69.387c-13.37,14.158 -27.95,32.779 -43.733,55.875c-12.146,14.833 -20.433,31.433 -24.862,49.808c-14.363,38.73 -22.663,76.896 -24.905,114.492c-1.779,29.996 1.121,61.658 8.709,94.992c0.054,10.996 3.475,24.15 10.275,39.458c21.896,49.396 51.254,91.354 88.071,125.867c51.675,48.491 118.783,84.525 190.32,94.425c17.288,2.408 31.08,3.854 41.363,4.329c70.175,3.187 133.371,-10.263 189.592,-40.358c98.691,-52.825 166.025,-146.725 185.85,-255.721c3.666,-20.059 4.47,-42.534 2.404,-67.429c-3.234,-39.159 -11.646,-76.405 -25.246,-111.75c-27.779,-72.234 -75.3,-129.488 -142.571,-171.759c-32.242,-20.229 -67.3,-34.55 -105.187,-42.958c-20.855,-4.617 -35.763,-7.213 -44.725,-7.792c-11.942,-0.779 -27.984,-1.129 -48.125,-1.054c-18.917,0.05 -34.909,1.329 -47.971,3.838c-41.121,7.933 -78.346,20.72 -111.675,38.366c-5.296,2.788 -7.879,5.446 -7.754,7.984Zm1221.27,-47.367c-101.008,-5.971 -187.17,23.042 -258.491,87.046c-22.838,20.512 -45.092,48.133 -66.763,82.871c-23.3,32.729 -39.262,68.395 -47.896,107c-7.254,32.554 -9.395,66.416 -6.412,101.583c2.775,33.004 11.25,65.8 25.433,98.379c9.984,22.942 20.909,43.808 32.771,62.608c12.658,20.055 27.388,38.18 44.192,54.367c64.266,61.875 141.491,95.783 231.679,101.733c60.7,4.017 117.458,-6.375 170.267,-31.175c50.187,-23.545 92.591,-55.183 127.225,-94.916c36.075,-41.388 60.75,-89.759 74.016,-145.104c7.079,-29.442 10.513,-54.467 10.313,-75.071c-0.767,-81.779 -27.742,-154.279 -80.934,-217.504c-60.916,-72.442 -148.304,-122.288 -244.17,-133.846c-5.75,-0.679 -10.846,-0.742 -15.28,-0.192c-0.558,0.075 -0.875,0.325 -0.954,0.754c-0.004,0.029 -0.004,0.054 -0.004,0.079c0,0.205 0.171,0.375 0.379,0.375l0.05,0c1.679,-0.1 3.209,0.238 4.579,1.013Zm-576.87,428.121c-6.905,3.512 -11.842,9.096 -14.821,16.754c-5.067,13.104 -13.609,36.658 -25.629,70.667c-3.817,10.87 -15.763,36.045 -35.825,75.529c-0.525,1.062 -0.813,2.233 -0.842,3.425c-0.125,7.608 1.558,14.671 5.042,21.2c19.15,35.891 42.933,70.5 71.345,103.833c9.821,11.488 22.117,20.296 33.88,31.742c3.145,3.008 8.154,3.175 11.495,0.375c13.242,-11.117 28.696,-25.992 46.367,-44.613c12.475,-13.179 23.938,-27.312 34.375,-42.396c11.917,-17.22 21.808,-32.479 29.675,-45.779c7.613,-12.879 8.8,-24.687 3.554,-35.433c-15.329,-31.4 -28.441,-62.108 -39.341,-92.125c-8.834,-24.325 -14.038,-38.017 -15.621,-41.079c-3.896,-7.504 -7.804,-13.113 -11.721,-16.829c-4.146,-3.913 -9.558,-6.263 -15.279,-6.63c-10.492,-0.65 -31.879,-1.054 -64.167,-1.2c-4.887,-0.029 -9.05,0.83 -12.487,2.559Zm931.725,180.266c-15.988,18.8 -26.596,30.788 -31.813,35.955c-10.746,10.695 -26.95,25.104 -48.621,43.225c-19.683,16.441 -37.112,29.354 -52.287,38.741c-33.279,20.584 -67.409,36.596 -102.396,48.042c-34.475,11.246 -70.467,18.083 -107.971,20.517c-36.721,2.387 -73.446,1.02 -110.192,-4.1c-44.962,-6.3 -88.72,-20.109 -131.27,-41.417c-26.555,-13.279 -43.563,-22.475 -51.025,-27.6c-17.542,-12.046 -35.559,-23.267 -54.046,-33.658c-3.129,0.708 -6.134,0.116 -9.013,-1.767c-0.029,-0.021 -0.058,-0.042 -0.091,-0.058c-2.53,-1.584 -5.942,-0.821 -7.559,1.687c-0.021,0.033 -0.041,0.071 -0.066,0.104c-38.763,63.138 -89.559,120.892 -150.63,162.196c-14.325,9.713 -31.929,21.646 -47.208,12.688c-28.517,-16.117 -53.842,-35.63 -75.971,-58.55c-11.175,-11.596 -18.2,-19.096 -21.079,-22.509c-26.304,-31.175 -51.192,-63.671 -74.671,-97.479c-4.429,0.45 -7.625,1.354 -9.583,2.708c-17.038,11.85 -34.238,23.446 -51.6,34.792c-61.213,39.983 -128,64.492 -200.367,73.529l1.571,-1.091c0.279,-0.205 0.446,-0.53 0.446,-0.875c-0,-0.596 -0.5,-1.092 -1.108,-1.092c-0.05,-0 -0.096,0.004 -0.142,0.008l-20.088,2.975c-0.154,0.025 -0.295,0.038 -0.42,0.038c-22.917,-0 -41.134,0.087 -54.659,0.262c-18.558,0.275 -36.508,-0.75 -53.85,-3.083c-69.866,-9.392 -133.487,-33.588 -190.854,-72.592c-30.604,-20.833 -59.975,-45.308 -88.112,-73.416c-4.58,-4.571 -10.375,-11.134 -17.375,-19.692c-5.55,-6.754 -11.321,-13.354 -17.305,-19.804l-3.55,-2.675c-0.266,-0.2 -0.591,-0.309 -0.925,-0.309c-0.77,0 -1.425,0.575 -1.52,1.33c-0.1,1.05 0.025,2.116 0.383,3.195c-0.892,0.905 -1.158,1.821 -0.804,2.75c12.146,32.405 26.979,64.596 44.496,96.575c16.35,29.78 37.7,59.071 61.112,84.334c28.925,31.2 58.017,58.796 87.271,82.791c2.683,2.209 3.262,6.1 1.337,9c-4.05,6.213 -13.866,6.063 -24.254,7.53c-4.887,0.704 -10.387,0.879 -16.5,0.529c-50.721,-3.038 -96.437,-19.846 -137.154,-50.417c-1.45,-1.104 -2.796,-1.254 -4.046,-0.45c-2.421,0.325 -4.162,1.017 -5.233,2.071c-57.213,58.558 -100.296,126.504 -129.246,203.837c-0.742,-2.383 -1.696,-2.058 -2.862,0.98c-16.505,42.72 -28.609,83.358 -36.325,121.908c-4.025,20.258 -6.9,35.621 -8.63,46.083c-2.725,16.492 -4.825,39.259 -6.304,68.3c-0.916,17.846 1.071,32.417 1.3,50.188c0.125,8.658 1.271,21.158 3.434,37.5c5.604,42.391 12.416,78.825 20.433,109.296c27.004,102.37 79.825,197.625 146.629,282.487c0.325,0.396 0.746,0.708 1.221,0.904c1.196,0.504 1.983,0.363 2.367,-0.412c0.891,-0.304 1.783,-0.379 2.675,-0.229c1.046,0.604 2.25,-0.088 3.629,-2.071c8.666,-12.646 16.804,-28.721 22.341,-44.838c25.08,-72.562 39.517,-115.4 43.313,-128.5c43.158,-148.846 75.354,-301.954 96.592,-459.329c0.125,-0.904 -0.575,-1.179 -2.105,-0.829c4.546,-39.229 21.275,-92.621 62.525,-108.092c0.425,-0.162 0.871,-0.241 1.321,-0.241c1.563,-0 2.967,0.97 3.492,2.42c2.825,7.721 3.362,18.3 4.317,25.08c4.325,30.695 6.225,61.254 5.687,91.675c-1.45,14.733 -2.137,29.391 -2.058,43.975c0.004,0.191 0.041,0.395 0.104,0.604c0.196,0.608 0.587,1.041 0.867,0.954c0.091,-0.029 0.162,-0.113 0.208,-0.242c0.233,-0.775 0.425,-2.016 0.575,-3.725c0.942,29.217 0.1,60.979 -2.521,95.292c-8.375,109.662 -26.975,216.087 -55.8,319.271l-0.117,-2.071c-0.037,-0.4 -0.383,-0.713 -0.795,-0.713c-0.354,0 -0.667,0.234 -0.767,0.563c-19.979,72.062 -41.9,133.058 -69.783,206.208c-2.9,7.584 -4.238,15.454 -4.009,23.609c1.53,9.087 3.642,15.95 6.342,20.595c8.962,15.338 19.821,30.396 32.579,45.18c28.138,32.579 58.371,60.891 90.708,84.937c38.08,28.35 79.213,50.638 119.505,70.558c8.329,4.113 18.5,5.634 30.52,4.555c34.859,-3.188 76.667,-4.946 125.425,-5.271c55.038,-0.338 102.742,8.658 150.217,28.804c53.354,22.662 92.846,60.954 123.592,110.5c1.925,3.087 5.341,4.987 9.016,5.008c72.567,0.454 136.73,0.367 192.492,-0.262c6.875,-0.079 14.096,-0.038 18.258,-5.388c10.696,-13.591 20.813,-31.737 30.975,-43.708c41.055,-48.646 99.534,-78.388 162.321,-89.571c24.954,-4.417 46.888,-6.604 65.809,-6.55c25.004,0.1 68.912,2.146 131.729,6.138c11.587,0.729 23.808,-1.834 36.666,-7.684c28.921,-13.2 57.571,-29.341 85.934,-48.416c62.025,-41.755 113.204,-87.95 152.85,-149.317c11.079,-8.938 13.521,-21.917 7.333,-38.933c-17.033,-46.738 -29.575,-80.863 -37.621,-102.371c-3.233,-8.584 -11.737,-35.879 -25.512,-81.888c-9.296,-31.025 -16.729,-58.621 -22.304,-82.791c-20.142,-87.025 -33.459,-172.767 -39.95,-257.23c-1.884,-24.57 -3.121,-45.279 -3.705,-62.12c-2.266,-66.313 1.371,-129.867 10.925,-190.659c0.246,-1.591 1.646,-2.779 3.28,-2.779c0.475,0 0.945,0.1 1.379,0.296c16.829,7.629 29.204,19.929 37.121,36.896c7.308,15.687 11.929,29.037 13.862,40.058c7.438,42.646 15.042,89.117 22.804,139.417c6.363,41.291 18.538,101.421 36.513,180.383c10.721,47.013 23.375,94.754 37.962,143.221c13.038,43.321 27.934,90.408 44.692,141.262c6.413,19.455 14.258,37.388 23.521,53.8c0.512,0.93 1.425,1.58 2.483,1.771c0.917,0.204 1.2,0.075 0.842,-0.375c1.858,0.475 3.629,0.638 5.308,0.492c2.879,-0.479 5.363,-2.038 7.45,-4.675c23.758,-29.888 45.55,-61.933 65.388,-96.117c21.183,-36.496 40.65,-79.141 58.395,-127.937c18.717,-51.392 29.03,-106.134 36.359,-159.746c4.358,-31.929 5.746,-63.954 4.166,-96.083c-1.095,-22.363 -2.112,-37.363 -3.054,-44.992c-4.379,-35.292 -12.887,-75.513 -25.516,-120.667c-21.896,-78.137 -56.45,-148.279 -103.659,-210.429c-16.291,-21.458 -28.654,-36.508 -37.083,-45.142c-5.625,-5.77 -9.967,-9.941 -13.025,-12.5c-2.888,-2.375 -7.075,-2.5 -10.079,-0.3c-40.104,29.242 -84.5,45.496 -133.184,48.755c-10.616,0.716 -24.062,-0.638 -33.954,-3.988c-3.925,-1.312 -6.3,-5.304 -5.537,-9.3c0.304,-1.658 1.962,-3.754 4.962,-6.287c48.254,-40.817 88.613,-82.63 121.075,-125.455c28.163,-37.17 50.467,-82.879 66.917,-137.116l-0.613,-5.046c-0.033,-0.408 -0.383,-0.733 -0.8,-0.733c-0.216,-0 -0.425,0.087 -0.575,0.241l-4.47,4.179Zm-503.959,1529.57c-43.566,-0.879 -82.196,7.367 -115.879,24.738c-42.55,21.912 -66.829,58.446 -72.837,109.6c-3.871,32.979 10.633,55.946 43.504,68.896c3.921,1.533 11.929,1.67 24.025,0.416c1.316,-0.116 2.496,-0.846 3.166,-1.958c9.205,-14.796 8.484,-35.467 23.988,-47.55c18.029,-14.121 43.962,-22.138 62.408,-4.558c2.696,2.562 6.275,9.854 10.734,21.875c5.537,14.87 15.466,37.8 36.208,31.55c3.842,-1.155 6.783,-3.567 8.821,-7.23c9.779,-17.845 15.621,-32.187 31.662,-39.154c15.2,-6.591 37.813,1.017 49.384,11.596c11.408,10.417 19.529,17.433 24.366,21.046c12.3,9.187 23.488,18.975 34.721,6.325c15.583,-17.571 23.358,-40.221 23.333,-67.958c-6.95,-27.234 -19.616,-51.705 -38.004,-73.417c-0.808,-0.95 -1.708,-1.808 -2.671,-2.563c-19.837,-15.358 -40.97,-27.241 -63.4,-35.654c-26.762,-10.037 -54.604,-15.371 -83.529,-16Zm-581.65,112.725c-4.962,-30.75 -20.471,-54.554 -46.516,-71.425c-22.463,-14.229 -45.325,-24.458 -68.596,-30.683c-21.184,-5.646 -44.546,-8.696 -70.088,-9.146c-45.45,-0.754 -94.146,14.454 -129.971,38.325c-12.683,8.471 -26.545,20.479 -34.529,33.85c-8.975,14.979 -20.891,37.421 -24.175,52.896c-3.537,16.692 -0.979,33.975 7.679,51.842c6.146,12.691 19.171,35.129 35.825,17.583c2.392,-2.508 9.992,-9.663 22.8,-21.458c13.559,-12.463 24.938,-13.63 43.159,-16.68c5.933,-1.004 11.216,-0.537 15.85,1.392c1.079,0.471 2,1.196 2.675,2.113c11.737,15.862 21.208,26.929 28.412,33.204c8.992,7.833 19.05,8.912 30.175,3.237c15.125,-7.716 19.592,-21.608 24.367,-38.554c0.304,-1.1 0.767,-2.15 1.379,-3.125c16,-25.792 44.796,-19.012 62.938,-0.754c11.42,11.562 14.554,28.087 25.362,40.437c6.8,7.796 16.767,14.009 25.704,10.055c18.717,-8.234 32.717,-20.509 42.013,-36.825c4.304,-7.555 6.621,-16.713 6.95,-27.48c0.283,-9.466 -0.192,-19.062 -1.413,-28.804Z" style="fill-rule:nonzero;"/><path d="M13893.4,214.537c-12.717,73.646 -45.105,142.396 -100.217,193.825c-28.621,26.705 -60.538,48.871 -95.754,66.488c-5.675,2.862 -10.846,3.65 -15.504,2.375c-32.921,-8.938 -63.721,-15.6 -92.388,-19.992c-51.971,-9.391 -104.333,-10.016 -157.092,-1.883c-176.72,27.258 -316.204,157.9 -358.291,328.458c-9.017,36.592 -14.742,63.188 -17.188,79.779c-0.187,1.288 -1.025,2.396 -2.216,2.938c-2.905,1.304 -6.821,2.017 -11.763,2.146c-30.25,0.775 -56.537,0.862 -78.867,0.262c-4.366,-0.125 -8.116,-3.2 -9.058,-7.416l-13.671,-61.634c-11.05,-55.825 -30.262,-103.475 -57.633,-142.958c-43.542,-62.763 -102.817,-123.038 -171.375,-157.675c-72.108,-36.446 -154.492,-53.504 -236.3,-48.308c-49.192,3.125 -90.863,12.275 -141.85,25.112c-5.958,1.483 -11.371,1.042 -16.233,-1.317c-64.584,-31.4 -120.842,-74.845 -156.821,-135.391c-22.434,-37.725 -38.092,-81.684 -46.979,-131.888l-0,-0.966c-0,-1.055 0.879,-1.921 1.945,-1.921c0.367,-0 0.725,0.104 1.034,0.291l2.516,1.542c2.167,2.488 4.534,4.758 7.109,6.817c33.25,26.608 70.262,49.408 111.029,68.408c48.579,22.667 98.208,39.988 148.875,51.958c31.892,7.534 71.879,12.5 104.308,5.834c7.254,-1.479 19.771,-6.888 37.542,-16.225c27.171,-14.229 54.821,-27.434 82.958,-39.604l74.209,-27.45c116.083,-37.096 233.245,-53.65 351.495,-49.663c126.521,4.271 249.313,30.913 368.375,79.933c31.93,13.138 60.842,29.555 93.5,45.217c12.805,6.125 26.284,9.388 40.442,9.788c29.183,0.829 59.379,-2.671 90.596,-10.5c54.542,-12.83 107.45,-32.371 158.733,-58.625c37.3,-19.075 71.638,-41.93 103.009,-68.559c0.337,-0.287 0.77,-0.441 1.212,-0.441c1.029,-0 1.871,0.833 1.871,1.845c-0,0.109 -0.008,0.217 -0.029,0.325l-1.529,9.075Z" style="fill:#ffdf00;fill-rule:nonzero;"/><path d="M13630.2,330.917c-31.217,7.829 -61.413,11.329 -90.596,10.5c-14.159,-0.4 -27.638,-3.663 -40.442,-9.788c-32.658,-15.662 -61.571,-32.079 -93.5,-45.217c-119.063,-49.02 -241.854,-75.662 -368.375,-79.933c-118.25,-3.987 -235.413,12.567 -351.496,49.663c7.438,-4.392 19.175,-8.8 35.217,-13.217c54.283,-14.983 108.633,-25.738 163.046,-32.263c7.362,-0.879 19.329,-2.137 35.9,-3.766c49.387,-4.854 102.129,-3.654 145.02,-1.696c18.159,0.829 42.167,3.217 72.038,7.154c95.329,12.625 186.904,37.413 274.721,74.358c28.187,11.863 61.875,31.175 86.316,42.209c16.834,7.579 34.796,11.091 53.892,10.541c14.796,-0.425 40.883,-3.279 78.258,-8.545Z" style="fill:#441f00;fill-rule:nonzero;"/><path d="M13215.4,723.492c-21.717,36.12 -36.742,74.458 -45.067,115.02c-3.313,16.088 -5.184,32.055 -5.617,47.892c-0.954,33.246 -0.304,64.229 9.513,98.717c7.966,27.962 17.962,53.604 29.983,76.921c66.683,129.475 211.054,198.525 354.737,182.862c72.846,-7.954 139.163,-38.025 198.951,-90.204c58.704,-51.242 94.529,-116.642 109.5,-193.413c16.579,-85.05 -1.834,-174.545 -50.034,-244.008c-61.875,-89.304 -164.346,-156.512 -276.712,-163.704c-1.371,-0.775 -2.9,-1.113 -4.579,-1.013l-0.05,0c-0.209,0 -0.38,-0.17 -0.38,-0.375c0,-0.025 0,-0.05 0.004,-0.079c0.08,-0.429 0.396,-0.679 0.955,-0.754c4.433,-0.55 9.529,-0.487 15.279,0.192c95.866,11.558 183.254,61.404 244.171,133.846c53.191,63.225 80.166,135.725 80.933,217.504c0.2,20.604 -3.233,45.629 -10.313,75.071c-13.266,55.345 -37.941,103.716 -74.016,145.104c-34.634,39.733 -77.038,71.371 -127.225,94.916c-52.809,24.8 -109.567,35.192 -170.267,31.175c-90.187,-5.95 -167.412,-39.858 -231.679,-101.733c-16.804,-16.187 -31.533,-34.312 -44.192,-54.367c-11.862,-18.8 -22.787,-39.666 -32.771,-62.608c-14.183,-32.579 -22.658,-65.375 -25.433,-98.379c-2.983,-35.167 -0.842,-69.029 6.413,-101.583c8.633,-38.605 24.595,-74.271 47.895,-107Z" style="fill:#441f00;fill-rule:nonzero;"/><path d="M13540.7,553.575c112.366,7.192 214.837,74.4 276.712,163.704c48.2,69.463 66.613,158.958 50.033,244.008c-14.97,76.771 -50.795,142.171 -109.5,193.413c-59.787,52.179 -126.104,82.25 -198.95,90.204c-143.683,15.663 -288.054,-53.387 -354.737,-182.862c-12.021,-23.317 -22.017,-48.959 -29.984,-76.921c-9.816,-34.488 -10.466,-65.471 -9.512,-98.717c0.433,-15.837 2.304,-31.804 5.617,-47.892c8.325,-40.562 23.35,-78.9 45.066,-115.02c21.671,-34.738 43.925,-62.359 66.763,-82.871c71.321,-64.004 157.483,-93.017 258.491,-87.046Zm-82.954,194.2c-54.046,4.521 -104.841,38.967 -123.708,89.946c-9.117,24.625 -12.592,49.537 -10.429,74.737c2.166,25.2 9.846,49.184 23.029,71.946c27.312,47.1 83.267,72.629 137.308,68.146c54.004,-4.517 104.804,-38.967 123.709,-89.946c9.116,-24.621 12.591,-49.533 10.429,-74.733c-2.192,-25.2 -9.867,-49.184 -23.034,-71.95c-27.308,-47.134 -83.258,-72.663 -137.304,-68.146Z" style="fill:#fff;fill-rule:nonzero;"/><path d="M13618.1,887.871c2.162,25.2 -1.313,50.112 -10.43,74.733c-18.904,50.979 -69.704,85.429 -123.708,89.946c-54.042,4.483 -109.996,-21.046 -137.308,-68.146c-13.184,-22.762 -20.863,-46.746 -23.029,-71.946c-2.163,-25.2 1.312,-50.112 10.429,-74.737c18.866,-50.979 69.662,-85.425 123.708,-89.946c54.046,-4.517 109.996,21.012 137.304,68.146c13.167,22.766 20.842,46.75 23.033,71.95Zm-160.108,-136.596c-52.975,4.446 -102.816,38.217 -121.304,88.179c-8.937,24.146 -12.35,48.579 -10.233,73.304c2.137,24.7 9.662,48.204 22.571,70.521c26.775,46.229 81.658,71.267 134.629,66.825c52.979,-4.404 102.779,-38.175 121.304,-88.175c8.937,-24.146 12.35,-48.567 10.237,-73.267c-2.141,-24.72 -9.666,-48.241 -22.575,-70.554c-26.77,-46.2 -81.654,-71.237 -134.629,-66.833Z" style="fill:#441f00;fill-rule:nonzero;"/><path d="M13458,751.275c52.975,-4.404 107.858,20.633 134.629,66.833c12.909,22.313 20.434,45.834 22.575,70.554c2.113,24.7 -1.3,49.121 -10.237,73.267c-18.525,50 -68.325,83.771 -121.304,88.175c-52.971,4.442 -107.855,-20.596 -134.63,-66.825c-12.908,-22.317 -20.433,-45.821 -22.57,-70.521c-2.117,-24.725 1.295,-49.158 10.233,-73.304c18.487,-49.962 68.329,-83.733 121.304,-88.179Z" style="fill-rule:nonzero;"/><path d="M13902,1163.32c-7.359,17.091 -14.629,34.108 -21.808,51.054c-11.842,27.971 -24.867,53.762 -40.488,75.633c-32.667,45.809 -74.525,89.875 -125.579,132.192c-4.838,4.017 -7.463,8.021 -7.867,12.008c-0.433,3.992 2.65,8.063 7.446,9.829c9.067,3.338 19.175,4.709 30.325,4.105c52.862,-2.938 99.787,-20.08 140.783,-51.43c1.167,-0.9 2.854,-0.804 3.934,0.225c104,102.071 159.075,240.888 178.629,381.284c6.366,45.583 6.279,93.396 -0.267,143.446c-5.166,39.633 -10.808,72.062 -16.921,97.287c-23.958,99.321 -66.621,190.246 -127.983,272.771c-6.163,8.262 -12.771,16.117 -19.825,23.575c-1.679,0.146 -3.45,-0.017 -5.308,-0.492c-9.292,-16.216 -18.717,-38.754 -28.263,-67.621c-16.4,-49.625 -29.512,-91 -39.337,-124.133c-30.379,-102.229 -55.242,-209.783 -74.592,-322.658c-3.846,-22.438 -11.142,-67.417 -21.887,-134.938c-5.805,-36.633 -19.48,-75.187 -56.484,-91.529c-0.162,-0.067 -0.329,-0.129 -0.496,-0.183c-2.554,-0.804 -5.325,0.591 -6.133,3.091c-0.054,0.171 -0.1,0.342 -0.133,0.517c-4.43,21.738 -7.296,43.475 -8.596,65.213c-6.621,112.85 -0.508,224.316 18.333,334.408c16.092,94.021 39.213,184.883 69.359,272.587c9.858,28.659 23.399,65.534 40.641,110.613c4.454,11.596 2.442,23.821 -6.037,36.675c-39.646,61.367 -90.825,107.562 -152.85,149.317c-28.363,19.075 -57.013,35.216 -85.934,48.416c-12.858,5.85 -25.079,8.413 -36.666,7.684c-62.817,-3.992 -106.725,-6.038 -131.73,-6.138c-18.92,-0.054 -40.854,2.133 -65.808,6.55c-62.787,11.183 -121.266,40.925 -162.321,89.571c-10.162,11.971 -20.279,30.117 -30.975,43.708c-4.162,5.35 -11.383,5.309 -18.258,5.388c-55.762,0.629 -119.925,0.716 -192.492,0.262c-3.675,-0.021 -7.091,-1.921 -9.016,-5.008c-30.746,-49.546 -70.238,-87.838 -123.592,-110.5c-47.475,-20.146 -95.179,-29.142 -150.217,-28.804c-48.758,0.325 -90.566,2.083 -125.425,5.271c-12.021,1.079 -22.191,-0.442 -30.52,-4.555c-40.292,-19.92 -81.425,-42.208 -119.505,-70.558c-32.337,-24.046 -62.57,-52.358 -90.708,-84.937c-12.758,-14.784 -23.617,-29.842 -32.579,-45.18c-2.7,-4.645 -4.813,-11.508 -6.342,-20.595c4.509,-17.321 8.429,-30.234 11.767,-38.742c24.362,-61.971 45.6,-124.925 63.704,-188.854c28.825,-103.184 47.425,-209.609 55.8,-319.271c2.621,-34.313 3.463,-66.075 2.521,-95.292l0.304,-41.566c0.538,-30.421 -1.362,-60.98 -5.687,-91.675c-0.955,-6.78 -1.492,-17.359 -4.317,-25.08c-0.525,-1.45 -1.929,-2.42 -3.492,-2.42c-0.45,-0 -0.896,0.079 -1.321,0.241c-41.25,15.471 -57.979,68.863 -62.525,108.092c-16.42,112.775 -37.745,224.608 -63.97,335.5c-7.717,32.642 -18.755,71.271 -28.417,106.7c-11.575,42.504 -27.309,84.258 -40.6,126.467c-7.463,23.641 -17.721,45.941 -30.783,66.9c-0.892,-0.15 -1.784,-0.075 -2.675,0.229c-51.713,-64.559 -91.613,-131.013 -119.696,-199.354c-32.567,-79.271 -50.225,-165.213 -52.975,-257.83c-0.613,-20.058 0.47,-41.954 3.246,-65.7c7.945,-68.125 24,-132.904 48.162,-194.35c28.95,-77.333 72.033,-145.279 129.246,-203.837c1.071,-1.054 2.812,-1.746 5.233,-2.071c39.388,30.371 83.913,47.904 133.559,52.6c12.72,1.2 43.545,2.558 51.22,-10.167c1.888,-3.129 1.192,-7.187 -1.641,-9.529c-46.213,-38.362 -96.9,-86.366 -130.659,-137.725c-27.35,-41.562 -45.908,-84.104 -63.937,-127.821c-0.358,-1.079 -0.483,-2.145 -0.383,-3.195c0.095,-0.755 0.75,-1.33 1.52,-1.33c0.334,0 0.659,0.109 0.925,0.309l3.55,2.675c7.259,11.875 14.934,22.075 23.03,30.608c71.995,75.788 158.583,132.075 265.712,153.238c44.483,8.758 95.538,10.266 153.154,4.516c72.367,-9.037 139.154,-33.546 200.367,-73.529c17.362,-11.346 34.562,-22.942 51.6,-34.792c1.958,-1.354 5.154,-2.258 9.583,-2.708c11.767,19.579 24.484,38.338 38.159,56.288c17.95,23.566 37.337,45.858 58.166,66.866c24.167,24.346 49.296,42.809 75.396,55.384c15.279,8.958 32.883,-2.975 47.208,-12.688c61.071,-41.304 111.867,-99.058 150.63,-162.196c0.025,-0.033 0.045,-0.071 0.066,-0.104c1.617,-2.508 5.029,-3.271 7.559,-1.687c0.033,0.016 0.062,0.037 0.091,0.058c2.879,1.883 5.884,2.475 9.013,1.767c17.804,12.7 35.866,24.787 54.2,36.258c100.116,62.675 208.829,85.742 326.133,69.2c78.579,-11.092 149.029,-40.833 211.362,-89.229c22.942,-17.821 44.442,-36.154 64.509,-55.009c13.621,-12.8 24.762,-26.441 33.416,-40.925l4.471,-4.179c0.15,-0.154 0.359,-0.241 0.575,-0.241c0.417,-0 0.767,0.325 0.8,0.733l0.613,5.046Zm-1231.51,647.729c-46.98,5.7 -92.225,-0.063 -135.742,-17.283c-17.825,-8.105 -35.442,-17.821 -52.858,-29.138c-4.075,-2.637 -7.817,-3.979 -11.23,-4.029c-0.05,-0.004 -0.104,-0.004 -0.154,-0.004c-4.233,-0 -7.716,3.608 -7.716,7.983l-0,0.15c0.5,27.563 35.062,64.046 55.841,79.742c59.534,49.4 126.775,59.141 201.738,29.221c33.1,-13.23 63.212,-29.934 90.325,-50.113c1.579,-1.175 3.775,-1.175 5.35,0c22.508,16.663 46.762,31.038 72.758,43.108c58.463,27.134 119.583,34.025 183.367,20.671c45.883,-8.883 86.204,-28.879 120.958,-59.979c1.646,-1.442 4.113,-1.567 5.921,-0.3c25.512,18.121 52.946,33.171 82.304,45.142c22.917,9.362 43.896,14.825 62.946,16.379c38.067,6.1 74.375,1.408 108.925,-14.079c48.404,-19.279 80.458,-53.629 96.175,-103.05c0.862,-2.709 0.483,-7.429 -1.146,-14.154c-0.354,-1.534 -1.587,-2.721 -3.133,-3.017c-5.146,-1.004 -9.996,-0.188 -14.554,2.45c-15.455,9.012 -30.313,17.208 -44.571,24.587c-20.979,10.838 -41.796,19.163 -62.446,24.963c-34.704,5.221 -68.721,3.608 -102.054,-4.821c-26.913,-10.746 -52.729,-25.087 -77.454,-43.037c-12.555,-9.134 -25.809,-19.313 -39.763,-30.534c-9.354,-7.529 -16.379,-11.141 -25.933,-2.104c-25.129,23.792 -52.779,44.25 -82.954,61.367c-32.971,18.675 -68.684,27.358 -107.134,26.054c-25.866,-3.742 -50.516,-11.496 -73.941,-23.267c-30.963,-19.604 -58.6,-42.683 -82.917,-69.241c-3.788,-4.117 -9.834,-5.438 -15.013,-3.271c-7.279,3.033 -13.62,6.787 -19.02,11.254c-18.175,15.087 -35.775,29.417 -52.784,42.996c-15.987,12.775 -32.679,21.75 -50.071,26.921c-11.687,3.462 -19.695,6.275 -24.02,8.433Zm-40.984,292.504c3.934,12.763 11.534,22.704 21.388,36.633c33.837,47.742 87.196,78.125 144.029,89.571c69.512,13.967 145.629,-14.383 205.558,-48.721c2.825,-1.629 6.338,-1.629 9.163,0c41.25,23.742 85.529,39.646 132.841,47.7c70.884,12.088 143.796,-16 197.267,-61.104c17.517,-14.808 30.454,-31.562 38.804,-50.262c4.2,-9.413 1.642,-25.188 -13.941,-19.429c-1.963,0.729 -16.88,7.041 -44.763,18.941c-45.296,19.313 -91.662,35.879 -139.979,35.313c-55.15,-0.675 -106.254,-22.854 -149.946,-57.038c-15.317,-11.933 -24.867,-19.016 -41.671,-6.854c-33.887,24.546 -70.696,42.858 -110.416,54.933c-28.338,8.609 -60.713,10.767 -97.125,6.475c-27.309,-3.2 -62.98,-17.77 -88.038,-30.008c-19.171,-9.371 -47.858,-24.812 -59.808,-21.95c-0.034,0.008 -0.063,0.017 -0.096,0.025c-2.488,0.671 -3.979,3.221 -3.3,5.654c0.008,0.038 0.021,0.079 0.033,0.121Z" style="fill:#ffdf00;fill-rule:nonzero;"/><path d="M13895.6,1161.96c-8.655,14.484 -19.796,28.125 -33.417,40.925c-20.067,18.855 -41.567,37.188 -64.508,55.009c-62.334,48.396 -132.784,78.137 -211.363,89.229c-117.304,16.542 -226.017,-6.525 -326.133,-69.2c-18.334,-11.471 -36.396,-23.558 -54.2,-36.258c18.487,10.391 36.504,21.612 54.046,33.658c7.462,5.125 24.47,14.321 51.025,27.6c42.55,21.308 86.308,35.117 131.27,41.417c36.746,5.12 73.471,6.487 110.192,4.1c37.504,-2.434 73.496,-9.271 107.971,-20.517c34.987,-11.446 69.117,-27.458 102.396,-48.042c15.175,-9.387 32.604,-22.3 52.287,-38.741c21.671,-18.121 37.875,-32.53 48.621,-43.225c5.217,-5.167 15.825,-17.155 31.813,-35.955Z" style="fill:#441f00;fill-rule:nonzero;"/><path d="M12914.3,1793.96c22.279,15.438 46.929,23.192 73.941,23.267c38.45,1.304 74.163,-7.379 107.133,-26.054c30.176,-17.117 57.826,-37.575 82.955,-61.367c9.554,-9.037 16.579,-5.425 25.933,2.104c13.954,11.221 27.208,21.4 39.763,30.534c24.725,17.95 50.541,32.291 77.454,43.037c33.637,12.296 67.654,13.904 102.054,4.821c20.65,-5.8 41.467,-14.125 62.446,-24.963c14.258,-7.379 29.116,-15.575 44.57,-24.587c4.559,-2.638 9.409,-3.454 14.555,-2.45c1.546,0.296 2.779,1.483 3.133,3.017c1.629,6.725 2.008,11.445 1.146,14.154c-15.717,49.421 -47.771,83.771 -96.175,103.05c-35.238,11.696 -71.55,16.391 -108.925,14.079c-19.05,-1.554 -40.029,-7.017 -62.946,-16.379c-29.358,-11.971 -56.792,-27.021 -82.304,-45.142c-1.809,-1.267 -4.275,-1.142 -5.921,0.3c-34.754,31.1 -75.075,51.096 -120.958,59.979c-34.021,3.688 -61.571,4.909 -82.65,3.65c-26.963,-1.629 -55.1,-8.258 -84.409,-19.879c-32.362,-12.825 -60.995,-28.925 -85.895,-48.304c-3.025,-2.35 -7.288,-2.446 -10.388,-0.225c-26.992,19.2 -55.55,35.125 -85.671,47.779c-18.737,7.854 -36.191,12.888 -52.362,15.096c-21.034,2.912 -39.225,3.337 -54.579,1.279c-33.659,-4.492 -66.188,-18.587 -97.584,-42.283c-20.779,-15.696 -55.341,-52.179 -55.841,-79.742l-0,-0.15c-0,-4.375 3.483,-7.983 7.716,-7.983c0.05,-0 0.104,-0 0.154,0.004c3.413,0.05 7.155,1.392 11.229,4.029c17.417,11.317 35.034,21.033 52.859,29.138c43.237,20.987 88.483,26.745 135.742,17.283c4.325,-2.158 12.333,-4.971 24.02,-8.433c17.392,-5.171 34.084,-14.146 50.071,-26.921c17.008,-13.579 34.608,-27.909 52.783,-42.996c5.4,-4.467 11.742,-8.221 19.021,-11.254c5.18,-2.167 11.225,-0.846 15.013,3.271c24.316,26.558 51.954,49.637 82.916,69.241Z" style="fill:#978800;fill-rule:nonzero;"/><path d="M13321.5,1805.48c33.334,8.429 67.35,10.042 102.054,4.821c-34.4,9.083 -68.416,7.475 -102.054,-4.821Z" style="fill:#441f00;fill-rule:nonzero;"/><path d="M13453.2,1878.52c-34.55,15.487 -70.858,20.179 -108.925,14.079c37.375,2.312 73.688,-2.383 108.925,-14.079Z" style="fill:#441f00;fill-rule:nonzero;"/><path d="M12629.5,2103.55c-0.013,-0.042 -0.025,-0.083 -0.033,-0.121c-0.68,-2.433 0.812,-4.983 3.299,-5.654c0.034,-0.008 0.063,-0.017 0.096,-0.025c11.95,-2.862 40.638,12.579 59.809,21.95c25.058,12.238 60.729,26.808 88.037,30.008c36.413,4.292 68.788,2.134 97.125,-6.475c39.721,-12.075 76.529,-30.387 110.417,-54.933c16.804,-12.162 26.354,-5.079 41.671,6.854c43.691,34.184 94.796,56.363 149.945,57.038c48.317,0.566 94.684,-16 139.98,-35.313c27.883,-11.9 42.8,-18.212 44.762,-18.941c15.583,-5.759 18.142,10.016 13.942,19.429c-8.35,18.7 -21.288,35.454 -38.804,50.262c-53.471,45.104 -126.384,73.192 -197.267,61.104c-47.313,-8.054 -91.592,-23.958 -132.842,-47.7c-2.825,-1.629 -6.337,-1.629 -9.162,0c-59.929,34.338 -136.046,62.688 -205.558,48.721c-56.834,-11.446 -110.192,-41.829 -144.03,-89.571c-9.854,-13.929 -17.454,-23.87 -21.387,-36.633Zm375.633,-17.321c-2.683,-0.716 -5.566,-0.325 -7.983,1.092c-7.079,4.142 -16.958,10.192 -29.638,18.146c-21.491,13.454 -43.729,24.5 -66.725,33.133c-24.291,9.088 -48.491,14.421 -72.608,16.004c-35.312,2.309 -71.862,-4.283 -109.65,-19.771c-18.817,-7.675 -30.021,-12.545 -33.612,-14.604c-11.342,-6.512 -34.717,-16.079 -45.484,-19.391c-0.408,-0.121 -0.829,-0.184 -1.254,-0.184c-2.35,0 -4.279,1.904 -4.279,4.217c-0,0.254 0.021,0.504 0.067,0.75c1.145,6.437 5.233,11.783 8.825,17.167c15.762,23.42 28.087,39.141 36.97,47.175c26.634,24.02 58.142,41.491 94.53,52.412c22.15,6.625 43.691,9.375 64.62,8.242c24.98,-1.379 46.471,-4.804 64.471,-10.279c31.346,-9.484 63.288,-23.217 95.829,-41.188c3.775,-2.071 8.4,-2 12.109,0.188c26.696,15.812 55.416,26.241 89.904,37.2c10.467,3.337 21.987,6.058 34.567,8.17c20.6,3.488 32.35,5.209 35.25,5.159c47.745,-0.854 92.037,-13.909 132.879,-39.159c22.558,-13.929 42.446,-32.004 59.658,-54.216c5.042,-6.513 17.263,-25.338 11.458,-34.15c-1.404,-2.138 -4.2,-2.971 -6.57,-1.954c-44.038,19.05 -93.267,38.929 -143.609,50.562c-11,2.533 -21.766,3.892 -32.308,4.067c-19.608,0.3 -30.492,0.287 -32.658,-0.038c-51.28,-7.808 -98.73,-29.091 -142.346,-63.854c-1.938,-1.558 -6.071,-3.187 -12.413,-4.896Z" style="fill:#441f00;fill-rule:nonzero;"/><path d="M13001.7,2087.16c6.341,1.709 10.479,3.338 12.412,4.896c43.617,34.767 91.067,56.046 142.346,63.854c2.167,0.33 13.054,0.342 32.658,0.038c10.542,-0.175 21.309,-1.529 32.309,-4.067c50.341,-11.629 99.57,-31.512 143.608,-50.562c2.371,-1.017 5.162,-0.184 6.571,1.958c5.804,8.808 -6.421,27.633 -11.459,34.15c-17.212,22.213 -37.1,40.283 -59.658,54.217c-40.842,25.246 -85.133,38.3 -132.875,39.154c-2.904,0.05 -14.654,-1.671 -35.25,-5.158c-12.583,-2.109 -24.104,-4.834 -34.567,-8.171c-34.487,-10.959 -63.212,-21.388 -89.908,-37.2c-3.704,-2.188 -8.333,-2.259 -12.108,-0.188c-32.542,17.971 -64.484,31.704 -95.829,41.188c-18,5.475 -39.488,8.9 -64.467,10.279c-20.933,1.133 -42.471,-1.617 -64.625,-8.242c-36.383,-10.921 -67.896,-28.391 -94.529,-52.412c-8.884,-8.029 -21.209,-23.754 -36.971,-47.175c-3.588,-5.384 -7.675,-10.729 -8.821,-17.167c-0.046,-0.246 -0.071,-0.496 -0.071,-0.75c0,-2.312 1.934,-4.217 4.279,-4.217c0.425,0 0.846,0.063 1.255,0.184c10.766,3.312 34.141,12.879 45.487,19.391c3.592,2.059 14.792,6.93 33.608,14.609c37.788,15.483 74.338,22.075 109.655,19.766c24.112,-1.583 48.312,-6.912 72.604,-16.004c22.991,-8.633 45.233,-19.675 66.725,-33.129c12.683,-7.958 22.562,-14.008 29.637,-18.15c2.417,-1.417 5.3,-1.808 7.984,-1.092Z" style="fill:#978800;fill-rule:nonzero;"/><path d="M13579.2,2819.15c-9.017,-24.296 -20.751,-46.563 -35.213,-66.792c-1.271,-1.775 -2.733,-3.379 -4.354,-4.779c-17.467,-15.087 -35.892,-26.483 -55.267,-34.187c-28.058,-11.146 -58.983,-18.434 -92.771,-21.875c28.925,0.629 56.767,5.962 83.53,16c22.429,8.412 43.562,20.295 63.399,35.654c0.963,0.754 1.863,1.612 2.671,2.562c18.388,21.713 31.055,46.184 38.004,73.417Z" style="fill:#441f00;fill-rule:nonzero;"/><path d="M13391.6,2691.53c33.788,3.442 64.713,10.729 92.771,21.875c19.375,7.704 37.8,19.1 55.267,34.187c1.62,1.4 3.083,3.005 4.354,4.78c14.462,20.229 26.196,42.495 35.212,66.791c0.025,27.738 -7.75,50.388 -23.333,67.959c-11.233,12.65 -22.421,2.862 -34.721,-6.325c-4.837,-3.613 -12.958,-10.63 -24.366,-21.046c-11.571,-10.579 -34.184,-18.188 -49.384,-11.596c-16.041,6.967 -21.883,21.308 -31.662,39.154c-2.038,3.663 -4.979,6.075 -8.821,7.229c-20.742,6.25 -30.671,-16.679 -36.209,-31.55c-4.458,-12.021 -8.037,-19.312 -10.733,-21.875c-18.446,-17.579 -44.379,-9.562 -62.408,4.559c-15.504,12.083 -14.783,32.754 -23.988,47.55c-0.671,1.112 -1.85,1.841 -3.166,1.958c-12.096,1.254 -20.105,1.117 -24.025,-0.417c-32.871,-12.95 -47.375,-35.916 -43.505,-68.896c6.009,-51.154 30.288,-87.687 72.838,-109.6c33.683,-17.37 72.312,-25.616 115.879,-24.737Z" style="fill:#ffdf00;fill-rule:nonzero;stroke:#000;stroke-width:3.25px;stroke-linejoin:round;stroke-miterlimit:2;"/></g><path d="M13966.8,1289.75c-0.105,-0.425 -0.18,-0.763 -0.23,-1.013c-0.091,-0.329 -0.391,-0.558 -0.737,-0.558c-0.284,-0 -0.546,0.158 -0.675,0.404l-9.588,16.304c-1.925,3.309 -1.458,7.496 1.146,10.317l61.263,66.487" style="fill:none;fill-rule:nonzero;stroke:#643c05;stroke-width:7.58px;"/><path d="M12685.8,256.142l-74.209,27.45" style="fill:none;fill-rule:nonzero;stroke:#bd8e26;stroke-width:7.58px;"/><path d="M12611.6,283.592c-2.93,-0.755 -6.405,-0.317 -10.43,1.316c-29.062,11.821 -58.587,28.046 -76.92,38.025c-26.275,14.271 -49.038,19.388 -75.163,17.284c-71.387,-5.688 -137.954,-28.055 -205.479,-58.4c-44.408,-19.95 -84.804,-44.963 -121.192,-75.034c-1.4,-1.133 -2.279,-1.254 -2.637,-0.379" style="fill:none;fill-rule:nonzero;stroke:#643c05;stroke-width:7.58px;"/><path d="M12119.7,206.404l-2.516,-1.542c-0.309,-0.187 -0.667,-0.291 -1.034,-0.291c-1.066,-0 -1.946,0.866 -1.946,1.921l0,0.966" style="fill:none;fill-rule:nonzero;stroke:#bd8e26;stroke-width:7.58px;"/><path d="M12114.2,207.458c-1.604,0.554 -2.116,2.375 -1.529,5.463c9.321,49.371 25.375,92.654 48.163,129.854c20.345,33.158 44.191,60.504 71.533,82.042c4.179,3.283 7.629,6.387 10.354,9.295c0.7,0.742 1.583,1.3 2.558,1.617l1.717,0.533c0.763,0.246 1.471,0.617 2.1,1.088c21.825,16.996 45.262,30.533 70.317,40.625c1.291,0.5 2.646,0.779 4.012,0.829c7.384,0.25 12.5,-0.05 15.35,-0.904c63.988,-19.05 128.738,-27.096 194.254,-24.133c34.909,1.558 68.046,7.479 99.417,17.77c28.925,9.513 49.358,16.98 61.3,22.405c20.246,9.208 42.713,22.212 67.413,39.004c17.645,11.975 35.225,26.841 52.745,44.612c20.625,20.884 35.988,37.938 46.1,51.167c20.446,26.708 35.175,49.462 44.188,68.258c12.958,27.038 25.362,61.334 37.2,102.9" style="fill:none;fill-rule:nonzero;stroke:#643c05;stroke-width:7.58px;"/><path d="M13589.6,457.233c9.879,3.588 24.07,7.025 42.583,10.313c3.233,0.554 19.096,4.708 47.587,12.462c6.471,1.759 12.221,1.346 17.267,-1.241c16.346,-8.321 41.704,-21.763 59.462,-35.73c29.055,-22.866 51.325,-43.975 66.805,-63.329c37.533,-47.037 61.845,-100.5 72.945,-160.387c0.513,-2.788 -0.416,-4.384 -2.787,-4.784" style="fill:none;fill-rule:nonzero;stroke:#643c05;stroke-width:7.58px;"/><path d="M13893.4,214.537l1.529,-9.075c0.021,-0.108 0.029,-0.216 0.029,-0.325c-0,-1.012 -0.842,-1.845 -1.871,-1.845c-0.442,-0 -0.875,0.154 -1.213,0.441c-31.37,26.629 -65.708,49.484 -103.008,68.559c-51.283,26.254 -104.192,45.795 -158.733,58.625" style="fill:none;fill-rule:nonzero;stroke:#bd8e26;stroke-width:7.58px;"/><path d="M13893.4,214.537c-12.717,73.646 -45.105,142.396 -100.217,193.825c-28.621,26.705 -60.538,48.871 -95.754,66.488c-5.675,2.862 -10.846,3.65 -15.504,2.375c-32.921,-8.938 -63.721,-15.6 -92.388,-19.992" style="fill:none;fill-rule:nonzero;stroke:#9d7121;stroke-width:7.58px;"/><path d="M12941.4,799.883c-11.05,-55.825 -30.263,-103.475 -57.634,-142.958c-43.541,-62.763 -102.816,-123.038 -171.375,-157.675c-72.108,-36.446 -154.491,-53.504 -236.3,-48.308c-49.191,3.125 -90.862,12.275 -141.85,25.112c-5.958,1.483 -11.371,1.042 -16.233,-1.317c-64.583,-31.4 -120.842,-74.845 -156.821,-135.391c-22.433,-37.725 -38.092,-81.684 -46.979,-131.888" style="fill:none;fill-rule:nonzero;stroke:#9d7121;stroke-width:7.58px;"/><path d="M12119.7,206.404c2.167,2.488 4.534,4.758 7.109,6.817c33.25,26.608 70.262,49.408 111.029,68.408c48.579,22.667 98.208,39.988 148.875,51.958c31.891,7.534 71.879,12.5 104.308,5.834c7.254,-1.479 19.771,-6.888 37.542,-16.225c27.171,-14.229 54.821,-27.434 82.958,-39.604" style="fill:none;fill-rule:nonzero;stroke:#9d7121;stroke-width:7.58px;"/><path d="M12319.4,600.942c-35.546,20.529 -65.488,43.658 -89.829,69.387c-13.371,14.158 -27.95,32.779 -43.734,55.875" style="fill:none;fill-rule:nonzero;stroke:#bd8e26;stroke-width:7.58px;"/><path d="M12185.9,726.204c-12.146,14.833 -20.433,31.433 -24.862,49.808" style="fill:none;fill-rule:nonzero;stroke:#643c05;stroke-width:7.58px;"/><path d="M12161,776.012c-14.362,38.73 -22.662,76.896 -24.904,114.492c-1.779,29.996 1.121,61.658 8.708,94.992" style="fill:none;fill-rule:nonzero;stroke:#bd8e26;stroke-width:7.58px;"/><path d="M12144.8,985.496c0.054,10.996 3.475,24.15 10.274,39.458c21.896,49.396 51.255,91.354 88.071,125.867c51.675,48.491 118.784,84.525 190.321,94.425c17.288,2.408 31.079,3.854 41.363,4.329c70.175,3.187 133.371,-10.263 189.591,-40.358c98.692,-52.825 166.025,-146.725 185.85,-255.721c3.667,-20.059 4.471,-42.534 2.405,-67.429c-3.234,-39.159 -11.646,-76.405 -25.246,-111.75c-27.779,-72.234 -75.3,-129.488 -142.571,-171.759c-32.242,-20.229 -67.3,-34.55 -105.188,-42.958c-20.854,-4.617 -35.762,-7.213 -44.725,-7.792c-11.941,-0.779 -27.983,-1.129 -48.125,-1.054c-18.916,0.05 -34.908,1.329 -47.97,3.838c-41.121,7.933 -78.346,20.72 -111.676,38.366c-5.295,2.788 -7.879,5.446 -7.754,7.984" style="fill:none;fill-rule:nonzero;stroke:#643c05;stroke-width:7.58px;"/><path d="M12144.8,985.496c23.72,94.691 96.55,175.941 182.641,222.437c64.354,34.75 141.471,45.221 215.183,36.296c121.913,-14.758 227.705,-93.183 277.471,-203.387c17.163,-38 27.005,-73.692 29.525,-107.075c3.742,-50.125 -3.387,-100.35 -21.387,-150.675c-41.896,-117.092 -142.388,-202.367 -265.942,-224.846c-84.737,-15.438 -165.696,-1.204 -242.871,42.696" style="fill:none;fill-rule:nonzero;stroke:#9d7121;stroke-width:7.58px;"/><path d="M12161,776.012l24.863,-49.808" style="fill:none;fill-rule:nonzero;stroke:#9d7121;stroke-width:7.58px;"/><path d="M12963.8,981.696c-6.905,3.512 -11.842,9.096 -14.821,16.754c-5.067,13.104 -13.609,36.658 -25.629,70.667c-3.817,10.87 -15.763,36.045 -35.825,75.529c-0.525,1.062 -0.813,2.233 -0.842,3.425c-0.125,7.608 1.558,14.671 5.042,21.2c19.15,35.891 42.933,70.5 71.345,103.833c9.821,11.488 22.117,20.296 33.88,31.742c3.145,3.008 8.154,3.175 11.495,0.375c13.242,-11.117 28.696,-25.992 46.367,-44.613c12.475,-13.179 23.938,-27.312 34.375,-42.396c11.917,-17.22 21.808,-32.479 29.675,-45.779c7.613,-12.879 8.8,-24.687 3.554,-35.433c-15.329,-31.4 -28.441,-62.108 -39.341,-92.125c-8.834,-24.325 -14.038,-38.017 -15.621,-41.079c-3.896,-7.504 -7.804,-13.113 -11.721,-16.829c-4.146,-3.913 -9.558,-6.263 -15.279,-6.63c-10.492,-0.65 -31.879,-1.054 -64.167,-1.2c-4.887,-0.029 -9.05,0.83 -12.487,2.559" style="fill:none;fill-rule:nonzero;stroke:#643c05;stroke-width:7.58px;"/><path d="M13205.9,1241.67c-3.13,0.708 -6.134,0.116 -9.013,-1.767c-0.029,-0.021 -0.058,-0.042 -0.092,-0.058c-2.529,-1.584 -5.941,-0.821 -7.558,1.687c-0.021,0.033 -0.042,0.071 -0.067,0.104c-38.762,63.138 -89.558,120.892 -150.629,162.196c-14.325,9.713 -31.929,21.646 -47.208,12.688" style="fill:none;fill-rule:nonzero;stroke:#bd8e26;stroke-width:7.58px;"/><path d="M12991.4,1416.52c-28.516,-16.117 -53.842,-35.63 -75.971,-58.55c-11.175,-11.596 -18.2,-19.096 -21.079,-22.509c-26.304,-31.175 -51.192,-63.671 -74.671,-97.479" style="fill:none;fill-rule:nonzero;stroke:#643c05;stroke-width:7.58px;"/><path d="M12819.6,1237.98c-4.429,0.45 -7.625,1.354 -9.584,2.708c-17.037,11.85 -34.237,23.446 -51.6,34.792c-61.212,39.983 -127.999,64.492 -200.366,73.529" style="fill:none;fill-rule:nonzero;stroke:#bd8e26;stroke-width:7.58px;"/><path d="M12558.1,1349.01l1.571,-1.091c0.279,-0.205 0.446,-0.53 0.446,-0.875c-0,-0.596 -0.5,-1.092 -1.108,-1.092c-0.05,-0 -0.096,0.004 -0.142,0.008l-20.088,2.975c-0.154,0.025 -0.295,0.038 -0.421,0.038c-22.916,-0 -41.133,0.087 -54.658,0.262c-18.558,0.275 -36.508,-0.75 -53.85,-3.083c-69.867,-9.392 -133.487,-33.588 -190.854,-72.592c-30.604,-20.833 -59.975,-45.308 -88.112,-73.416c-4.58,-4.571 -10.375,-11.134 -17.376,-19.692c-5.549,-6.754 -11.32,-13.354 -17.304,-19.804" style="fill:none;fill-rule:nonzero;stroke:#643c05;stroke-width:7.58px;"/><path d="M12116.2,1160.65l-3.55,-2.675c-0.267,-0.2 -0.592,-0.309 -0.925,-0.309c-0.771,0 -1.426,0.575 -1.521,1.33c-0.1,1.05 0.025,2.116 0.383,3.195" style="fill:none;fill-rule:nonzero;stroke:#bd8e26;stroke-width:7.58px;"/><path d="M12110.6,1162.19c-0.892,0.905 -1.159,1.821 -0.805,2.75c12.146,32.405 26.979,64.596 44.496,96.575c16.35,29.78 37.7,59.071 61.113,84.334c28.925,31.2 58.016,58.796 87.271,82.791c2.683,2.209 3.262,6.1 1.337,9c-4.05,6.213 -13.867,6.063 -24.254,7.53c-4.888,0.704 -10.388,0.879 -16.5,0.529c-50.721,-3.038 -96.438,-19.846 -137.154,-50.417c-1.45,-1.104 -2.796,-1.254 -4.046,-0.45" style="fill:none;fill-rule:nonzero;stroke:#643c05;stroke-width:7.58px;"/><path d="M12122,1394.83c-2.421,0.325 -4.163,1.017 -5.234,2.071c-57.212,58.558 -100.295,126.504 -129.245,203.837" style="fill:none;fill-rule:nonzero;stroke:#bd8e26;stroke-width:7.58px;"/><path d="M11987.6,1600.74c-0.742,-2.383 -1.696,-2.058 -2.863,0.98c-16.504,42.72 -28.608,83.358 -36.325,121.908c-4.025,20.258 -6.9,35.621 -8.629,46.083c-2.725,16.492 -4.825,39.259 -6.304,68.3c-0.917,17.846 1.071,32.417 1.3,50.188c0.125,8.658 1.271,21.158 3.433,37.5c5.604,42.391 12.417,78.825 20.433,109.296c27.005,102.37 79.825,197.625 146.63,282.487c0.325,0.396 0.745,0.708 1.22,0.904c1.196,0.504 1.984,0.363 2.367,-0.412" style="fill:none;fill-rule:nonzero;stroke:#643c05;stroke-width:7.58px;"/><path d="M12108.8,2317.94c0.891,-0.305 1.783,-0.38 2.674,-0.23" style="fill:none;fill-rule:nonzero;stroke:#bd8e26;stroke-width:7.58px;"/><path d="M12111.5,2317.73c1.046,0.604 2.25,-0.087 3.629,-2.071c8.667,-12.645 16.805,-28.72 22.342,-44.837c25.079,-72.563 39.517,-115.4 43.313,-128.5c43.158,-148.846 75.354,-301.954 96.591,-459.329c0.125,-0.904 -0.575,-1.179 -2.104,-0.829" style="fill:none;fill-rule:nonzero;stroke:#643c05;stroke-width:7.58px;"/><path d="M12275.3,1682.17c4.546,-39.229 21.275,-92.621 62.525,-108.092c0.425,-0.162 0.871,-0.241 1.321,-0.241c1.562,-0 2.966,0.97 3.491,2.42c2.825,7.721 3.363,18.3 4.317,25.08c4.325,30.695 6.225,61.254 5.688,91.675" style="fill:none;fill-rule:nonzero;stroke:#bd8e26;stroke-width:7.58px;"/><path d="M12352.6,1693.02c-1.45,14.733 -2.137,29.391 -2.058,43.975c0.004,0.191 0.042,0.395 0.104,0.604c0.196,0.608 0.588,1.041 0.867,0.954c0.091,-0.029 0.162,-0.113 0.208,-0.242c0.233,-0.775 0.425,-2.016 0.575,-3.725" style="fill:none;fill-rule:nonzero;stroke:#643c05;stroke-width:7.58px;"/><path d="M12352.3,1734.58c0.941,29.217 0.099,60.979 -2.521,95.292c-8.375,109.662 -26.975,216.087 -55.8,319.271" style="fill:none;fill-rule:nonzero;stroke:#bd8e26;stroke-width:7.58px;"/><path d="M12294,2149.15l-0.116,-2.071c-0.038,-0.4 -0.384,-0.713 -0.796,-0.713c-0.354,0 -0.667,0.234 -0.767,0.563c-19.979,72.062 -41.9,133.058 -69.783,206.208c-2.9,7.584 -4.238,15.454 -4.009,23.609" style="fill:none;fill-rule:nonzero;stroke:#643c05;stroke-width:7.58px;"/><path d="M13783.4,2396.86c11.079,-8.937 13.52,-21.916 7.333,-38.933c-17.033,-46.738 -29.575,-80.863 -37.621,-102.371c-3.233,-8.583 -11.737,-35.879 -25.513,-81.887c-9.295,-31.025 -16.729,-58.621 -22.304,-82.792c-20.141,-87.025 -33.458,-172.767 -39.95,-257.229c-1.883,-24.571 -3.12,-45.279 -3.704,-62.121c-2.266,-66.313 1.371,-129.867 10.925,-190.658c0.246,-1.592 1.646,-2.78 3.279,-2.78c0.475,0 0.946,0.1 1.379,0.296c16.83,7.629 29.205,19.929 37.121,36.896c7.309,15.688 11.929,29.038 13.863,40.058c7.437,42.646 15.042,89.117 22.804,139.417c6.363,41.292 18.538,101.421 36.513,180.383c10.72,47.013 23.374,94.755 37.962,143.221c13.037,43.321 27.933,90.409 44.692,141.263c6.412,19.454 14.258,37.387 23.521,53.8c0.512,0.929 1.425,1.579 2.483,1.771c0.916,0.204 1.2,0.075 0.842,-0.375" style="fill:none;fill-rule:nonzero;stroke:#643c05;stroke-width:7.58px;"/><path d="M13897.1,2314.82c1.858,0.475 3.629,0.637 5.308,0.491" style="fill:none;fill-rule:nonzero;stroke:#bd8e26;stroke-width:7.58px;"/><path d="M13902.4,2315.28c2.879,-0.479 5.362,-2.038 7.45,-4.675c23.758,-29.888 45.55,-61.933 65.387,-96.117c21.184,-36.496 40.65,-79.141 58.396,-127.937c18.717,-51.392 29.029,-106.134 36.358,-159.746c4.359,-31.929 5.746,-63.954 4.167,-96.083c-1.096,-22.363 -2.112,-37.363 -3.054,-44.992c-4.379,-35.292 -12.888,-75.513 -25.517,-120.667c-21.896,-78.137 -56.45,-148.279 -103.658,-210.429c-16.292,-21.458 -28.654,-36.508 -37.083,-45.142c-5.625,-5.77 -9.967,-9.941 -13.025,-12.5c-2.888,-2.375 -7.075,-2.5 -10.08,-0.3c-40.104,29.242 -84.5,45.496 -133.183,48.755c-10.617,0.716 -24.062,-0.638 -33.954,-3.988c-3.925,-1.312 -6.3,-5.304 -5.538,-9.3c0.305,-1.658 1.963,-3.754 4.963,-6.287c48.254,-40.817 88.612,-82.63 121.075,-125.455c28.162,-37.17 50.467,-82.879 66.917,-137.116" style="fill:none;fill-rule:nonzero;stroke:#643c05;stroke-width:7.58px;"/><path d="M13902,1163.32l-0.613,-5.046c-0.033,-0.408 -0.383,-0.733 -0.8,-0.733c-0.216,-0 -0.425,0.087 -0.575,0.241l-4.47,4.179" style="fill:none;fill-rule:nonzero;stroke:#bd8e26;stroke-width:7.58px;"/><path d="M13902,1163.32c-7.359,17.091 -14.629,34.108 -21.808,51.054c-11.842,27.971 -24.867,53.762 -40.488,75.633c-32.667,45.809 -74.525,89.875 -125.579,132.192c-4.838,4.017 -7.463,8.021 -7.867,12.008c-0.433,3.992 2.65,8.063 7.446,9.829c9.067,3.338 19.175,4.709 30.325,4.105c52.862,-2.938 99.787,-20.08 140.783,-51.43c1.167,-0.9 2.854,-0.804 3.934,0.225c104,102.071 159.075,240.888 178.629,381.284c6.366,45.583 6.279,93.396 -0.267,143.446c-5.166,39.633 -10.808,72.062 -16.921,97.287c-23.958,99.321 -66.621,190.246 -127.983,272.771c-6.163,8.262 -12.771,16.117 -19.825,23.575" style="fill:none;fill-rule:nonzero;stroke:#9d7121;stroke-width:7.58px;"/><path d="M13897.1,2314.82c-9.292,-16.217 -18.717,-38.755 -28.263,-67.621c-16.4,-49.625 -29.512,-91 -39.337,-124.134c-30.38,-102.229 -55.242,-209.783 -74.592,-322.658c-3.846,-22.437 -11.142,-67.417 -21.888,-134.937c-5.804,-36.634 -19.479,-75.188 -56.483,-91.53c-0.162,-0.066 -0.329,-0.129 -0.496,-0.183c-2.554,-0.804 -5.325,0.592 -6.133,3.092c-0.054,0.171 -0.1,0.341 -0.133,0.516c-4.43,21.738 -7.296,43.475 -8.596,65.213c-6.621,112.85 -0.509,224.317 18.333,334.408c16.092,94.021 39.212,184.884 69.358,272.588c9.859,28.658 23.4,65.533 40.642,110.612c4.454,11.596 2.442,23.821 -6.038,36.675" style="fill:none;fill-rule:nonzero;stroke:#9d7121;stroke-width:7.58px;"/><path d="M12218.5,2376.73c4.508,-17.321 8.429,-30.233 11.767,-38.741c24.362,-61.971 45.6,-124.925 63.704,-188.855" style="fill:none;fill-rule:nonzero;stroke:#9d7121;stroke-width:7.58px;"/><path d="M12352.3,1734.58l0.304,-41.566" style="fill:none;fill-rule:nonzero;stroke:#9d7121;stroke-width:7.58px;"/><path d="M12275.3,1682.17c-16.421,112.775 -37.746,224.608 -63.971,335.5c-7.717,32.642 -18.754,71.271 -28.417,106.7c-11.575,42.504 -27.308,84.258 -40.6,126.467c-7.462,23.641 -17.721,45.941 -30.783,66.9" style="fill:none;fill-rule:nonzero;stroke:#9d7121;stroke-width:7.58px;"/><path d="M12108.8,2317.94c-51.713,-64.559 -91.613,-131.013 -119.696,-199.355c-32.567,-79.27 -50.225,-165.212 -52.975,-257.829c-0.613,-20.058 0.47,-41.954 3.246,-65.7c7.945,-68.125 24,-132.904 48.162,-194.35" style="fill:none;fill-rule:nonzero;stroke:#9d7121;stroke-width:7.58px;"/><path d="M12122,1394.83c39.387,30.371 83.912,47.904 133.558,52.6c12.721,1.2 43.546,2.558 51.221,-10.167c1.887,-3.129 1.192,-7.187 -1.642,-9.529c-46.212,-38.362 -96.9,-86.366 -130.658,-137.725c-27.35,-41.562 -45.908,-84.104 -63.938,-127.821" style="fill:none;fill-rule:nonzero;stroke:#9d7121;stroke-width:7.58px;"/><path d="M12116.2,1160.65c7.258,11.875 14.933,22.075 23.029,30.608c71.996,75.788 158.583,132.075 265.712,153.238c44.484,8.758 95.538,10.266 153.154,4.516" style="fill:none;fill-rule:nonzero;stroke:#9d7121;stroke-width:7.58px;"/><path d="M12819.6,1237.98c11.766,19.579 24.483,38.338 38.158,56.288c17.95,23.566 37.338,45.858 58.167,66.866c24.167,24.346 49.296,42.809 75.396,55.384" style="fill:none;fill-rule:nonzero;stroke:#9d7121;stroke-width:7.58px;"/><path d="M12809.9,2804.23c-4.963,-30.75 -20.471,-54.554 -46.517,-71.425" style="fill:none;fill-rule:nonzero;stroke:#643c05;stroke-width:7.58px;"/><path d="M12763.4,2732.82c-22.463,-14.23 -45.326,-24.459 -68.596,-30.684c-21.184,-5.646 -44.546,-8.696 -70.088,-9.146c-45.45,-0.754 -94.146,14.455 -129.971,38.325c-12.683,8.471 -26.546,20.48 -34.529,33.85c-8.975,14.98 -20.892,37.421 -24.175,52.896c-3.537,16.692 -0.979,33.975 7.679,51.842c6.146,12.692 19.171,35.129 35.825,17.583c2.392,-2.508 9.992,-9.662 22.8,-21.458c13.559,-12.463 24.938,-13.629 43.159,-16.679c5.933,-1.004 11.216,-0.538 15.85,1.391c1.079,0.471 2,1.196 2.675,2.113c11.737,15.862 21.208,26.929 28.412,33.204c8.992,7.833 19.05,8.913 30.175,3.238c15.125,-7.717 19.592,-21.609 24.367,-38.555c0.304,-1.1 0.766,-2.15 1.379,-3.125c16,-25.791 44.796,-19.012 62.937,-0.754c11.421,11.563 14.555,28.088 25.363,40.438c6.8,7.796 16.767,14.008 25.704,10.054c18.717,-8.233 32.717,-20.508 42.013,-36.825c4.304,-7.554 6.62,-16.713 6.95,-27.479c0.283,-9.467 -0.192,-19.063 -1.413,-28.804" style="fill:none;fill-rule:nonzero;stroke:#bd8e26;stroke-width:7.58px;"/><path d="M12763.4,2732.82c22.887,18.975 38.395,42.787 46.516,71.425" style="fill:none;fill-rule:nonzero;stroke:#9d7121;stroke-width:7.58px;"/><path d="M12549.6,1050.67c28.521,-2.438 54.029,-10.479 76.537,-24.134c20.904,-12.725 36.821,-30.612 47.746,-53.654c8.096,-17.141 12.463,-33.408 13.1,-48.791" style="fill:none;fill-rule:nonzero;stroke:#bd8e26;stroke-width:7.58px;"/><path d="M12687,924.092c5.525,-31.525 2.529,-60.846 -8.979,-87.955c-12.321,-29.037 -31.613,-51.229 -57.863,-66.562c-58.817,-34.338 -144.787,-26.883 -188.329,27.258c-25.413,31.629 -38.079,66.379 -38,104.254c0.071,37.396 11.354,69.725 33.837,96.984c28.721,34.904 73.825,57.529 121.95,52.6" style="fill:none;fill-rule:nonzero;stroke:#9d7121;stroke-width:7.58px;"/><path d="M12687,924.092c3.258,-35.517 -2.7,-68.3 -17.879,-98.342c-9.392,-18.65 -22.096,-33.558 -38.113,-44.729c-41.683,-29.092 -87.067,-36.496 -136.162,-22.217c-25.104,7.304 -44.109,18.942 -57.021,34.904c-23.271,28.792 -36.642,59.613 -40.1,92.471c-8.408,79.367 39.871,144.046 119.35,161.742c1.267,0.3 2.567,0.387 3.858,0.266c9.904,-0.979 19.467,-0.154 28.684,2.484" style="fill:none;fill-rule:nonzero;stroke:#643c05;stroke-width:7.58px;"/><path d="M13005,1305.3c44.175,-37.075 81.467,-81.738 111.871,-134c9.05,-15.621 7.6,-25.3 -0.458,-41.942c-14.238,-29.466 -24.534,-53.012 -30.9,-70.629c-12.729,-35.217 -19.68,-54.017 -20.854,-56.404c-3.717,-7.629 -9.001,-13.592 -15.851,-17.879c-3.462,-2.159 -11.266,-3.267 -23.412,-3.313c-30.658,-0.104 -47.413,-0.016 -50.263,0.263c-15.162,1.541 -19.095,7.904 -25.283,21.496c-1.504,3.287 -9.992,26.595 -25.475,69.916c-3.233,9.084 -13.817,31.213 -31.737,66.379c-4.7,9.221 -5.084,16.338 -0.425,25.146c21.062,39.763 46.279,76.671 75.666,110.729c6.054,7.03 17.271,17.121 33.646,30.271c1.021,0.825 2.5,0.809 3.475,-0.033" style="fill:none;fill-rule:nonzero;stroke:#9d7121;stroke-width:7.58px;"/><path d="M12670.5,1811.05c-46.979,5.7 -92.225,-0.063 -135.741,-17.283" style="fill:none;fill-rule:nonzero;stroke:#9d7121;stroke-width:7.58px;"/><path d="M12534.8,1793.77c-17.825,-8.105 -35.442,-17.821 -52.859,-29.138c-4.075,-2.637 -7.816,-3.979 -11.229,-4.029c-0.05,-0.004 -0.104,-0.004 -0.154,-0.004c-4.233,-0 -7.717,3.608 -7.717,7.983l0.001,0.15c0.499,27.563 35.062,64.046 55.841,79.742" style="fill:none;fill-rule:nonzero;stroke:#bd8e26;stroke-width:7.58px;"/><path d="M12518.6,1848.47c59.533,49.4 126.775,59.141 201.737,29.221c33.1,-13.23 63.213,-29.934 90.325,-50.113c1.579,-1.175 3.775,-1.175 5.35,0c22.509,16.663 46.763,31.038 72.759,43.108c58.462,27.134 119.583,34.025 183.366,20.671" style="fill:none;fill-rule:nonzero;stroke:#9d7121;stroke-width:7.58px;"/><path d="M13072.2,1891.36c45.883,-8.883 86.204,-28.879 120.958,-59.979c1.646,-1.442 4.112,-1.567 5.921,-0.3c25.512,18.121 52.945,33.171 82.304,45.142c22.916,9.362 43.896,14.825 62.946,16.379" style="fill:none;fill-rule:nonzero;stroke:#bd8e26;stroke-width:7.58px;"/><path d="M13453.2,1878.52c48.404,-19.279 80.458,-53.629 96.175,-103.05c0.863,-2.709 0.484,-7.429 -1.146,-14.154c-0.354,-1.534 -1.587,-2.721 -3.133,-3.017c-5.146,-1.004 -9.996,-0.188 -14.554,2.45c-15.454,9.012 -30.313,17.208 -44.571,24.587c-20.979,10.838 -41.796,19.163 -62.446,24.963" style="fill:none;fill-rule:nonzero;stroke:#bd8e26;stroke-width:7.58px;"/><path d="M13321.5,1805.48c-26.912,-10.746 -52.729,-25.087 -77.454,-43.037c-12.554,-9.134 -25.808,-19.313 -39.763,-30.534c-9.354,-7.529 -16.379,-11.141 -25.933,-2.104c-25.129,23.792 -52.779,44.25 -82.954,61.367c-32.971,18.675 -68.683,27.358 -107.133,26.054" style="fill:none;fill-rule:nonzero;stroke:#bd8e26;stroke-width:7.58px;"/><path d="M12988.3,1817.23c-25.867,-3.742 -50.517,-11.496 -73.942,-23.267" style="fill:none;fill-rule:nonzero;stroke:#9d7121;stroke-width:7.58px;"/><path d="M12914.3,1793.96c-30.963,-19.604 -58.6,-42.683 -82.917,-69.241c-3.788,-4.117 -9.834,-5.438 -15.013,-3.271c-7.279,3.033 -13.62,6.787 -19.021,11.254c-18.175,15.087 -35.774,29.417 -52.783,42.996c-15.987,12.775 -32.679,21.75 -50.071,26.921c-11.687,3.462 -19.695,6.275 -24.021,8.433" style="fill:none;fill-rule:nonzero;stroke:#bd8e26;stroke-width:7.58px;"/><path d="M12914.3,1793.96c22.279,15.438 46.929,23.192 73.941,23.267" style="fill:none;fill-rule:nonzero;stroke:#643c05;stroke-width:7.58px;"/><path d="M13072.2,1891.36c-34.021,3.688 -61.571,4.909 -82.65,3.65c-26.963,-1.629 -55.101,-8.258 -84.409,-19.879c-32.362,-12.825 -60.996,-28.925 -85.896,-48.304c-3.025,-2.35 -7.287,-2.446 -10.387,-0.225c-26.992,19.2 -55.55,35.125 -85.671,47.779c-18.737,7.854 -36.192,12.888 -52.362,15.096c-21.034,2.912 -39.225,3.337 -54.58,1.279c-33.658,-4.492 -66.187,-18.587 -97.583,-42.283" style="fill:none;fill-rule:nonzero;stroke:#643c05;stroke-width:7.58px;"/><path d="M12534.8,1793.77c43.237,20.987 88.483,26.745 135.741,17.283" style="fill:none;fill-rule:nonzero;stroke:#643c05;stroke-width:7.58px;"/><path d="M12611.6,283.592c-28.138,12.17 -55.788,25.375 -82.959,39.604c-17.771,9.337 -30.287,14.746 -37.541,16.225c-32.43,6.666 -72.417,1.7 -104.309,-5.834c-50.666,-11.97 -100.296,-29.291 -148.875,-51.958c-40.767,-19 -77.779,-41.8 -111.029,-68.408c-2.575,-2.059 -4.942,-4.329 -7.108,-6.817c0.358,-0.875 1.237,-0.754 2.637,0.379c36.388,30.071 76.783,55.084 121.192,75.034c67.525,30.345 134.091,52.712 205.479,58.4c26.125,2.104 48.887,-3.013 75.163,-17.284c18.333,-9.979 47.858,-26.204 76.92,-38.025c4.025,-1.633 7.5,-2.071 10.429,-1.316Z" style="fill:#441f00;fill-rule:nonzero;"/><path d="M12114.2,207.458c8.888,50.204 24.546,94.163 46.979,131.888c35.98,60.546 92.238,103.991 156.821,135.391c4.863,2.359 10.275,2.8 16.234,1.317c50.987,-12.837 92.658,-21.987 141.85,-25.112c81.808,-5.196 164.191,11.862 236.3,48.308c68.558,34.637 127.833,94.912 171.375,157.675c27.37,39.483 46.583,87.133 57.633,142.958c-11.838,-41.566 -24.242,-75.862 -37.2,-102.9c-9.013,-18.796 -23.742,-41.55 -44.188,-68.258c-10.112,-13.229 -25.475,-30.283 -46.1,-51.167c-17.52,-17.771 -35.1,-32.637 -52.745,-44.612c-24.7,-16.792 -47.167,-29.796 -67.413,-39.004c-11.942,-5.425 -32.375,-12.892 -61.3,-22.405c-31.371,-10.291 -64.508,-16.212 -99.417,-17.77c-65.516,-2.963 -130.266,5.083 -194.254,24.133c-2.85,0.854 -7.966,1.154 -15.35,0.904c-1.366,-0.05 -2.721,-0.329 -4.012,-0.829c-25.054,-10.092 -48.492,-23.629 -70.317,-40.625c-0.629,-0.471 -1.337,-0.842 -2.1,-1.088l-1.717,-0.533c-0.975,-0.317 -1.858,-0.875 -2.558,-1.617c-2.725,-2.908 -6.175,-6.012 -10.354,-9.295c-27.342,-21.538 -51.188,-48.884 -71.533,-82.042c-22.788,-37.2 -38.842,-80.483 -48.163,-129.854c-0.587,-3.088 -0.075,-4.909 1.529,-5.463Z" style="fill:#441f00;fill-rule:nonzero;"/><path d="M13589.6,457.233c28.666,4.392 59.466,11.054 92.387,19.992c4.658,1.275 9.829,0.487 15.504,-2.375c35.217,-17.617 67.133,-39.783 95.754,-66.488c55.113,-51.429 87.5,-120.179 100.217,-193.825c2.371,0.4 3.3,1.996 2.787,4.784c-11.1,59.887 -35.412,113.35 -72.945,160.387c-15.48,19.354 -37.75,40.463 -66.805,63.329c-17.758,13.967 -43.116,27.409 -59.462,35.73c-5.046,2.587 -10.796,3 -17.267,1.241c-28.491,-7.754 -44.354,-11.908 -47.587,-12.462c-18.513,-3.288 -32.704,-6.725 -42.584,-10.313Z" style="fill:#441f00;fill-rule:nonzero;"/><path d="M12144.8,985.496c23.72,94.691 96.55,175.941 182.641,222.437c64.354,34.75 141.471,45.221 215.183,36.296c121.913,-14.758 227.705,-93.183 277.471,-203.387c17.163,-38 27.005,-73.692 29.525,-107.075c3.742,-50.125 -3.387,-100.35 -21.387,-150.675c-41.896,-117.092 -142.388,-202.367 -265.942,-224.846c-84.737,-15.438 -165.696,-1.204 -242.871,42.696c-0.125,-2.538 2.459,-5.196 7.754,-7.984c33.33,-17.646 70.555,-30.433 111.675,-38.366c13.063,-2.509 29.055,-3.788 47.971,-3.838c20.142,-0.075 36.184,0.275 48.125,1.054c8.963,0.579 23.871,3.175 44.725,7.792c37.888,8.408 72.946,22.729 105.188,42.958c67.271,42.271 114.792,99.525 142.571,171.759c13.6,35.345 22.012,72.591 25.246,111.75c2.066,24.895 1.262,47.37 -2.405,67.429c-19.825,108.996 -87.158,202.896 -185.85,255.721c-56.22,30.095 -119.416,43.545 -189.591,40.358c-10.284,-0.475 -24.075,-1.921 -41.363,-4.329c-71.537,-9.9 -138.646,-45.934 -190.321,-94.425c-36.816,-34.513 -66.175,-76.471 -88.07,-125.867c-6.8,-15.308 -10.221,-28.462 -10.275,-39.458Z" style="fill:#441f00;fill-rule:nonzero;"/><path d="M12144.8,985.496c-7.588,-33.334 -10.488,-64.996 -8.709,-94.992c2.242,-37.596 10.542,-75.762 24.904,-114.492l24.863,-49.808c15.783,-23.096 30.362,-41.717 43.733,-55.875c24.342,-25.729 54.283,-48.858 89.829,-69.387c77.175,-43.9 158.134,-58.134 242.871,-42.696c123.554,22.479 224.046,107.754 265.942,224.846c18,50.325 25.129,100.55 21.387,150.675c-2.52,33.383 -12.362,69.075 -29.525,107.075c-49.766,110.204 -155.558,188.629 -277.47,203.387c-73.713,8.925 -150.83,-1.546 -215.184,-36.296c-86.091,-46.496 -158.921,-127.746 -182.641,-222.437Zm404.85,65.175c28.52,-2.438 54.029,-10.479 76.537,-24.134c20.904,-12.725 36.821,-30.612 47.746,-53.654c8.096,-17.141 12.462,-33.408 13.1,-48.791c5.525,-31.525 2.529,-60.846 -8.979,-87.955c-12.321,-29.037 -31.613,-51.229 -57.863,-66.562c-58.817,-34.338 -144.787,-26.883 -188.329,27.258c-25.413,31.629 -38.079,66.379 -38,104.254c0.071,37.396 11.354,69.725 33.837,96.984c28.721,34.904 73.825,57.529 121.95,52.6Z" style="fill:#fff;fill-rule:nonzero;"/><path d="M12185.9,726.204l-24.862,49.808c4.429,-18.375 12.716,-34.975 24.862,-49.808Z" style="fill:#441f00;fill-rule:nonzero;"/><path d="M12687,924.092c3.258,-35.517 -2.7,-68.3 -17.879,-98.342c-9.392,-18.65 -22.096,-33.558 -38.113,-44.729c-41.683,-29.092 -87.067,-36.496 -136.162,-22.217c-25.104,7.304 -44.109,18.942 -57.021,34.904c-23.271,28.792 -36.642,59.613 -40.1,92.471c-8.408,79.367 39.871,144.046 119.35,161.742c1.267,0.3 2.567,0.387 3.858,0.266c9.904,-0.979 19.467,-0.154 28.684,2.484c-48.126,4.929 -93.23,-17.696 -121.95,-52.6c-22.484,-27.259 -33.767,-59.588 -33.838,-96.984c-0.079,-37.875 12.588,-72.625 38,-104.254c43.542,-54.141 129.513,-61.596 188.329,-27.258c26.25,15.333 45.542,37.525 57.863,66.562c11.508,27.109 14.504,56.43 8.979,87.955Z" style="fill:#441f00;fill-rule:nonzero;"/><path d="M12687,924.092c-0.638,15.383 -5.004,31.65 -13.1,48.791c-10.925,23.042 -26.842,40.929 -47.746,53.654c-22.508,13.655 -48.017,21.696 -76.537,24.134c-9.217,-2.638 -18.78,-3.463 -28.684,-2.484c-1.291,0.121 -2.591,0.034 -3.858,-0.266c-79.479,-17.696 -127.758,-82.375 -119.35,-161.742c3.458,-32.858 16.829,-63.679 40.1,-92.471c12.912,-15.962 31.917,-27.6 57.021,-34.904c49.095,-14.279 94.479,-6.875 136.162,22.217c16.017,11.171 28.721,26.079 38.113,44.729c15.179,30.042 21.137,62.825 17.879,98.342Z" style="fill-rule:nonzero;"/><path d="M12963.8,981.696c3.437,-1.729 7.6,-2.588 12.487,-2.559c32.288,0.146 53.675,0.55 64.167,1.2c5.721,0.367 11.133,2.717 15.279,6.63c3.917,3.716 7.825,9.325 11.721,16.829c1.583,3.062 6.787,16.754 15.621,41.079c10.9,30.017 24.012,60.725 39.341,92.125c5.246,10.746 4.059,22.554 -3.554,35.433c-7.867,13.3 -17.758,28.559 -29.675,45.779c-10.438,15.084 -21.9,29.217 -34.375,42.396c-17.671,18.621 -33.125,33.496 -46.367,44.613c-3.341,2.8 -8.35,2.633 -11.495,-0.375c-11.763,-11.446 -24.059,-20.254 -33.88,-31.742c-28.412,-33.333 -52.195,-67.942 -71.345,-103.833c-3.484,-6.529 -5.167,-13.592 -5.042,-21.2c0.029,-1.192 0.316,-2.363 0.842,-3.425c20.062,-39.484 32.008,-64.659 35.825,-75.529c12.02,-34.009 20.562,-57.563 25.629,-70.667c2.979,-7.658 7.916,-13.242 14.82,-16.754Zm41.171,323.604c44.175,-37.075 81.467,-81.738 111.871,-134c9.05,-15.621 7.6,-25.3 -0.458,-41.942c-14.238,-29.466 -24.533,-53.012 -30.9,-70.629c-12.729,-35.217 -19.679,-54.017 -20.854,-56.404c-3.717,-7.629 -9,-13.592 -15.85,-17.879c-3.463,-2.159 -11.267,-3.267 -23.413,-3.313c-30.658,-0.104 -47.412,-0.016 -50.262,0.263c-15.163,1.541 -19.096,7.904 -25.284,21.496c-1.504,3.287 -9.991,26.595 -25.475,69.916c-3.233,9.084 -13.816,31.213 -31.737,66.379c-4.7,9.221 -5.084,16.338 -0.425,25.146c21.062,39.763 46.279,76.671 75.666,110.729c6.055,7.03 17.271,17.121 33.646,30.271c1.021,0.825 2.5,0.809 3.475,-0.033Z" style="fill:#441f00;fill-rule:nonzero;"/><path d="M13001.5,1305.33c-16.375,-13.15 -27.592,-23.241 -33.646,-30.271c-29.387,-34.058 -54.604,-70.966 -75.667,-110.729c-4.658,-8.808 -4.275,-15.925 0.425,-25.146c17.921,-35.166 28.504,-57.295 31.738,-66.379c15.483,-43.321 23.971,-66.629 25.475,-69.916c6.187,-13.592 10.121,-19.955 25.283,-21.496c2.85,-0.279 19.604,-0.367 50.263,-0.263c12.146,0.046 19.95,1.154 23.412,3.313c6.85,4.287 12.134,10.25 15.85,17.879c1.175,2.387 8.125,21.187 20.854,56.404c6.367,17.617 16.663,41.163 30.9,70.629c8.059,16.642 9.509,26.321 0.459,41.942c-30.404,52.262 -67.696,96.925 -111.871,134c-0.975,0.842 -2.454,0.858 -3.475,0.033Z" style="fill:#ffd14d;fill-rule:nonzero;"/><path d="M12558.1,1349.01c-57.616,5.75 -108.671,4.242 -153.154,-4.516c-107.129,-21.163 -193.717,-77.45 -265.712,-153.238c-8.096,-8.533 -15.771,-18.733 -23.03,-30.608c5.984,6.45 11.755,13.05 17.305,19.804c6.999,8.558 12.795,15.121 17.374,19.692c28.138,28.108 57.509,52.583 88.113,73.416c57.367,39.004 120.987,63.2 190.854,72.592c17.342,2.333 35.292,3.358 53.85,3.083c13.525,-0.175 31.742,-0.262 54.658,-0.262c0.126,-0 0.267,-0.013 0.421,-0.038l20.088,-2.975c0.046,-0.004 0.092,-0.008 0.142,-0.008c0.608,-0 1.108,0.496 1.108,1.092c-0,0.345 -0.167,0.67 -0.446,0.875l-1.571,1.091Z" style="fill:#441f00;fill-rule:nonzero;"/><path d="M12110.6,1162.19c18.029,43.717 36.587,86.259 63.937,127.821c33.758,51.359 84.446,99.363 130.658,137.725c2.834,2.342 3.53,6.4 1.642,9.529c-7.675,12.725 -38.5,11.367 -51.221,10.167c-49.646,-4.696 -94.171,-22.229 -133.558,-52.6c1.25,-0.804 2.596,-0.654 4.046,0.45c40.716,30.571 86.433,47.379 137.154,50.417c6.112,0.35 11.612,0.175 16.5,-0.529c10.387,-1.467 20.204,-1.317 24.254,-7.53c1.925,-2.9 1.346,-6.791 -1.338,-9c-29.254,-23.995 -58.345,-51.591 -87.27,-82.791c-23.413,-25.263 -44.763,-54.554 -61.113,-84.334c-17.517,-31.979 -32.35,-64.17 -44.496,-96.575c-0.354,-0.929 -0.087,-1.845 0.804,-2.75Z" style="fill:#441f00;fill-rule:nonzero;"/><path d="M13902,1163.32c-16.45,54.237 -38.754,99.946 -66.917,137.116c-32.462,42.825 -72.821,84.638 -121.075,125.455c-3,2.533 -4.658,4.629 -4.962,6.287c-0.763,3.996 1.612,7.988 5.537,9.3c9.892,3.35 23.338,4.704 33.954,3.988c48.684,-3.259 93.08,-19.513 133.184,-48.755c3.004,-2.2 7.191,-2.075 10.079,0.3c3.058,2.559 7.4,6.73 13.025,12.5c8.429,8.634 20.792,23.684 37.083,45.142c47.209,62.15 81.763,132.292 103.659,210.429c12.629,45.154 21.137,85.375 25.516,120.667c0.942,7.629 1.959,22.629 3.054,44.992c1.58,32.129 0.192,64.154 -4.166,96.083c-7.329,53.612 -17.642,108.354 -36.359,159.746c-17.745,48.796 -37.212,91.441 -58.395,127.937c-19.838,34.184 -41.63,66.229 -65.388,96.117c-2.087,2.637 -4.571,4.196 -7.45,4.675c7.054,-7.458 13.663,-15.313 19.825,-23.575c61.363,-82.525 104.025,-173.45 127.983,-272.771c6.113,-25.225 11.755,-57.654 16.921,-97.287c6.546,-50.05 6.634,-97.863 0.267,-143.446c-19.554,-140.396 -74.629,-279.213 -178.629,-381.284c-1.079,-1.029 -2.767,-1.125 -3.934,-0.225c-40.995,31.35 -87.92,48.492 -140.783,51.43c-11.15,0.604 -21.258,-0.767 -30.325,-4.105c-4.796,-1.766 -7.879,-5.837 -7.446,-9.829c0.404,-3.987 3.029,-7.991 7.867,-12.008c51.054,-42.317 92.912,-86.383 125.579,-132.192c15.621,-21.871 28.646,-47.662 40.488,-75.633c7.179,-16.946 14.45,-33.963 21.808,-51.054Z" style="fill:#441f00;fill-rule:nonzero;"/><path d="M12991.4,1416.52c-26.1,-12.575 -51.229,-31.038 -75.396,-55.384c-20.829,-21.008 -40.216,-43.3 -58.166,-66.866c-13.675,-17.95 -26.392,-36.709 -38.159,-56.288c23.48,33.808 48.367,66.304 74.671,97.479c2.879,3.413 9.904,10.913 21.079,22.509c22.13,22.92 47.455,42.433 75.971,58.55Z" style="fill:#441f00;fill-rule:nonzero;"/><path d="M13966.8,1289.75l-8.592,19.316c-0.609,1.35 -0.371,2.925 0.608,4.03c4.634,5.37 12.213,13.225 22.725,23.566c10.442,10.267 22.584,25.275 36.438,45.029l-61.263,-66.487c-2.604,-2.821 -3.071,-7.008 -1.146,-10.317l9.588,-16.304c0.129,-0.246 0.392,-0.404 0.675,-0.404c0.346,-0 0.646,0.229 0.737,0.558c0.05,0.25 0.125,0.588 0.23,1.013Z" style="fill:#441f00;fill-rule:nonzero;"/><path d="M13897.1,2314.82c0.358,0.45 0.075,0.579 -0.842,0.375c-1.058,-0.192 -1.971,-0.842 -2.484,-1.771c-9.262,-16.413 -17.108,-34.346 -23.52,-53.8c-16.759,-50.854 -31.655,-97.942 -44.692,-141.263c-14.588,-48.466 -27.242,-96.208 -37.962,-143.221c-17.976,-78.962 -30.15,-139.091 -36.513,-180.383c-7.762,-50.3 -15.367,-96.771 -22.804,-139.417c-1.933,-11.02 -6.554,-24.37 -13.863,-40.058c-7.916,-16.967 -20.291,-29.267 -37.121,-36.896c-0.433,-0.196 -0.904,-0.296 -1.379,-0.296c-1.633,0 -3.033,1.188 -3.279,2.78c-9.554,60.791 -13.192,124.345 -10.925,190.658c0.583,16.842 1.821,37.55 3.704,62.121c6.492,84.462 19.809,170.204 39.95,257.229c5.575,24.171 13.009,51.767 22.305,82.792c13.775,46.008 22.279,73.304 25.512,81.887c8.046,21.508 20.587,55.633 37.621,102.371c6.187,17.017 3.746,29.996 -7.334,38.933c8.48,-12.854 10.492,-25.079 6.038,-36.675c-17.242,-45.079 -30.783,-81.954 -40.642,-110.612c-30.145,-87.704 -53.266,-178.567 -69.358,-272.588c-18.842,-110.091 -24.954,-221.558 -18.333,-334.408c1.3,-21.738 4.166,-43.475 8.596,-65.213c0.033,-0.175 0.079,-0.345 0.133,-0.516c0.808,-2.5 3.579,-3.896 6.133,-3.092c0.167,0.054 0.334,0.117 0.496,0.183c37.004,16.342 50.679,54.896 56.483,91.53c10.746,67.52 18.042,112.5 21.888,134.937c19.35,112.875 44.212,220.429 74.592,322.658c9.825,33.134 22.937,74.509 39.337,124.134c9.546,28.866 18.971,51.404 28.263,67.621Z" style="fill:#441f00;fill-rule:nonzero;"/><path d="M11987.6,1600.74c-24.163,61.446 -40.217,126.225 -48.163,194.35c-2.775,23.746 -3.858,45.642 -3.246,65.7c2.75,92.617 20.408,178.559 52.975,257.83c28.083,68.341 67.983,134.795 119.696,199.354c-0.383,0.775 -1.171,0.916 -2.367,0.412c-0.475,-0.196 -0.896,-0.508 -1.221,-0.904c-66.804,-84.862 -119.625,-180.117 -146.629,-282.487c-8.016,-30.471 -14.829,-66.905 -20.433,-109.296c-2.163,-16.342 -3.308,-28.842 -3.433,-37.5c-0.229,-17.771 -2.217,-32.342 -1.3,-50.188c1.479,-29.041 3.579,-51.808 6.304,-68.3c1.729,-10.462 4.604,-25.825 8.629,-46.083c7.717,-38.55 19.821,-79.188 36.325,-121.908c1.167,-3.038 2.121,-3.363 2.862,-0.98Z" style="fill:#441f00;fill-rule:nonzero;"/><path d="M12111.5,2317.73c13.063,-20.958 23.321,-43.258 30.784,-66.9c13.291,-42.208 29.025,-83.962 40.6,-126.466c9.662,-35.43 20.7,-74.059 28.416,-106.7c26.225,-110.892 47.55,-222.725 63.971,-335.5c1.529,-0.35 2.229,-0.075 2.104,0.829c-21.237,157.375 -53.433,310.483 -96.591,459.329c-3.796,13.1 -18.234,55.937 -43.313,128.5c-5.537,16.117 -13.675,32.192 -22.342,44.837c-1.379,1.984 -2.583,2.675 -3.629,2.071Z" style="fill:#441f00;fill-rule:nonzero;"/><path d="M12352.6,1693.02l-0.304,41.566c-0.15,1.709 -0.342,2.95 -0.575,3.725c-0.046,0.129 -0.117,0.213 -0.208,0.242c-0.279,0.087 -0.671,-0.346 -0.867,-0.954c-0.062,-0.209 -0.1,-0.413 -0.104,-0.604c-0.079,-14.584 0.608,-29.242 2.058,-43.975Z" style="fill:#441f00;fill-rule:nonzero;"/><path d="M12534.8,1793.77c43.516,17.22 88.762,22.983 135.741,17.283c-47.258,9.462 -92.504,3.704 -135.741,-17.283Z" style="fill:#441f00;fill-rule:nonzero;"/><path d="M12914.3,1793.96c23.424,11.771 48.075,19.525 73.941,23.267c-27.012,-0.075 -51.662,-7.829 -73.942,-23.267Z" style="fill:#441f00;fill-rule:nonzero;"/><path d="M13072.2,1891.36c-63.784,13.354 -124.905,6.463 -183.367,-20.671c-25.996,-12.07 -50.25,-26.445 -72.758,-43.108c-1.576,-1.175 -3.771,-1.175 -5.351,0c-27.112,20.179 -57.224,36.883 -90.324,50.113c-74.963,29.92 -142.205,20.179 -201.738,-29.221c31.396,23.696 63.925,37.791 97.583,42.283c15.355,2.058 33.546,1.633 54.58,-1.279c16.17,-2.208 33.625,-7.242 52.362,-15.096c30.121,-12.654 58.679,-28.579 85.671,-47.779c3.1,-2.221 7.362,-2.125 10.387,0.225c24.9,19.379 53.534,35.479 85.896,48.304c29.309,11.621 57.446,18.25 84.408,19.879c21.08,1.259 48.63,0.038 82.65,-3.65Z" style="fill:#441f00;fill-rule:nonzero;"/><path d="M13012.4,2381.4c5.087,1.708 8.412,3.342 9.962,4.896c35,34.766 73.071,56.05 114.221,63.854c1.738,0.329 10.475,0.342 26.209,0.037c8.454,-0.175 17.099,-1.529 25.925,-4.066c40.395,-11.634 79.9,-31.513 115.237,-50.563c1.9,-1.012 4.146,-0.183 5.271,1.959c4.658,8.808 -5.15,27.633 -9.196,34.15c-13.808,22.212 -29.771,40.283 -47.871,54.212c-32.771,25.254 -68.312,38.304 -106.621,39.154c-2.329,0.054 -11.762,-1.666 -28.287,-5.154c-10.096,-2.108 -19.342,-4.833 -27.742,-8.171c-27.671,-10.958 -50.717,-21.383 -72.141,-37.196c-2.975,-2.187 -6.684,-2.262 -9.713,-0.191c-26.112,17.971 -51.75,31.704 -76.9,41.187c-14.442,5.475 -31.688,8.9 -51.733,10.279c-16.792,1.134 -34.08,-1.616 -51.855,-8.241c-29.195,-10.921 -54.483,-28.392 -75.854,-52.409c-7.129,-8.033 -17.016,-23.758 -29.666,-47.179c-2.88,-5.383 -6.163,-10.729 -7.08,-17.166c-0.037,-0.246 -0.054,-0.5 -0.054,-0.75c0,-2.313 1.55,-4.217 3.434,-4.217c0.341,-0 0.679,0.062 1.004,0.187c8.641,3.313 27.4,12.875 36.5,19.388c2.883,2.058 11.871,6.925 26.971,14.608c30.32,15.488 59.65,22.075 87.991,19.767c19.346,-1.583 38.767,-6.917 58.259,-16.004c18.45,-8.634 36.3,-19.675 53.541,-33.129c10.175,-7.959 18.104,-14.005 23.784,-18.146c1.937,-1.421 4.254,-1.813 6.404,-1.096Z" style="fill:#978800;fill-rule:nonzero;"/><path d="M12294,2149.15c-18.104,63.929 -39.342,126.883 -63.704,188.854c-3.338,8.508 -7.258,21.421 -11.767,38.742c-0.229,-8.155 1.109,-16.025 4.009,-23.609c27.883,-73.15 49.804,-134.146 69.783,-206.208c0.1,-0.329 0.413,-0.563 0.767,-0.563c0.412,0 0.758,0.313 0.796,0.713l0.116,2.071Z" style="fill:#441f00;fill-rule:nonzero;"/><path d="M12763.4,2732.82c22.887,18.975 38.395,42.787 46.516,71.425c1.221,9.741 1.696,19.337 1.413,28.804c-0.329,10.766 -2.646,19.925 -6.95,27.479c-9.296,16.317 -23.296,28.592 -42.013,36.825c-8.937,3.954 -18.904,-2.258 -25.704,-10.054c-10.808,-12.35 -13.942,-28.875 -25.362,-40.438c-18.142,-18.258 -46.938,-25.037 -62.938,0.754c-0.612,0.975 -1.075,2.025 -1.379,3.125c-4.775,16.946 -9.242,30.838 -24.367,38.555c-11.125,5.675 -21.183,4.595 -30.175,-3.238c-7.204,-6.275 -16.675,-17.342 -28.412,-33.204c-0.675,-0.917 -1.596,-1.642 -2.675,-2.113c-4.634,-1.929 -9.917,-2.395 -15.85,-1.391c-18.221,3.05 -29.6,4.216 -43.159,16.679c-12.808,11.796 -20.408,18.95 -22.8,21.458c-16.654,17.546 -29.679,-4.891 -35.825,-17.583c-8.658,-17.867 -11.216,-35.15 -7.679,-51.842c3.283,-15.475 15.2,-37.916 24.175,-52.896c7.984,-13.37 21.846,-25.379 34.529,-33.85c35.825,-23.87 84.521,-39.079 129.971,-38.325c25.542,0.45 48.904,3.5 70.088,9.146c23.271,6.225 46.133,16.454 68.596,30.684Z" style="fill:#ffdf00;fill-rule:nonzero;"/><path d="M12809.9,2804.23c-8.121,-28.637 -23.63,-52.45 -46.517,-71.425c26.046,16.871 41.554,40.675 46.517,71.425Z" style="fill:#441f00;fill-rule:nonzero;"/></g></g><g id="logo-text"><path d="M0,2555.82l0,-1750l317.5,-0l0,622.5c91.667,-113.334 217.5,-170 377.5,-170c155,-0 278.333,47.083 370,141.25c91.667,94.166 137.5,237.916 137.5,431.25l0,725l-317.5,-0l-0,-697.5c-0,-216.667 -90,-325 -270,-325c-91.667,-0 -164.167,31.666 -217.5,95c-53.333,63.333 -80,150 -80,260l0,667.5l-317.5,-0Z" style="fill-rule:nonzero;"/><path d="M1475,2555.82l0,-272.5l360,-0l0,-737.5l-360,-0l0,-272.5l680,-0l0,1010l350,-0l0,272.5l-1030,-0Zm665,-1520c-38.333,38.333 -86.667,57.5 -145,57.5c-58.333,-0 -106.667,-19.167 -145,-57.5c-38.333,-38.334 -57.5,-85.834 -57.5,-142.5c0,-56.667 19.167,-103.75 57.5,-141.25c38.333,-37.5 86.667,-56.25 145,-56.25c58.333,-0 106.667,18.75 145,56.25c38.333,37.5 57.5,84.583 57.5,141.25c0,56.666 -19.167,104.166 -57.5,142.5Z" style="fill-rule:nonzero;"/><path d="M2685,2555.82l0,-272.5l265,-0l0,-737.5l-265,-0l0,-272.5l560,-0l10,222.5c81.667,-148.334 211.667,-222.5 390,-222.5l147.5,-0l0,290l-200,-0c-111.667,-0 -193.75,33.333 -246.25,100c-52.5,66.666 -78.75,153.333 -78.75,260l0,360l357.5,-0l0,272.5l-940,-0Z" style="fill-rule:nonzero;"/><path d="M4625.02,2570.82c-205,-0 -366.667,-59.167 -485,-177.5c-118.334,-118.334 -177.5,-276.667 -177.5,-475c-0,-198.334 58.333,-357.917 175,-478.75c116.667,-120.834 270.833,-181.25 462.5,-181.25c186.667,-0 337.917,55.416 453.75,166.25c115.833,110.833 174.583,259.583 176.25,446.25c-0,38.333 -2.5,77.5 -7.5,117.5l-930,-0l-0,15c3.333,98.333 33.75,176.25 91.25,233.75c57.5,57.5 132.917,86.25 226.25,86.25c75,-0 137.5,-17.084 187.5,-51.25c50,-34.167 83.333,-83.75 100,-148.75l315,-0c-21.667,130 -85.417,237.083 -191.25,321.25c-105.833,84.166 -237.917,126.25 -396.25,126.25Zm-322.5,-802.5l605,-0c-11.667,-85 -44.167,-150.834 -97.5,-197.5c-53.333,-46.667 -122.5,-70 -207.5,-70c-80,-0 -147.917,24.166 -203.75,72.5c-55.833,48.333 -87.917,113.333 -96.25,195Z" style="fill-rule:nonzero;"/><path d="M5665.02,2555.82l-275,-1282.5l305,-0l170,920l212.5,-752.5l217.5,-0l207.5,752.5l175,-920l292.5,-0l-277.5,1282.5l-312.5,-0l-197.5,-687.5l-202.5,687.5l-315,-0Z" style="fill-rule:nonzero;"/><path d="M7150.02,2555.82l-0,-272.5l360,-0l-0,-737.5l-360,-0l-0,-272.5l680,-0l-0,1010l350,-0l-0,272.5l-1030,-0Zm665,-1520c-38.333,38.333 -86.667,57.5 -145,57.5c-58.333,-0 -106.667,-19.167 -145,-57.5c-38.333,-38.334 -57.5,-85.834 -57.5,-142.5c-0,-56.667 19.167,-103.75 57.5,-141.25c38.333,-37.5 86.667,-56.25 145,-56.25c58.333,-0 106.666,18.75 145,56.25c38.333,37.5 57.5,84.583 57.5,141.25c-0,56.666 -19.167,104.166 -57.5,142.5Z" style="fill-rule:nonzero;"/><path d="M8957.52,2570.82c-173.334,-0 -313.75,-39.584 -421.25,-118.75c-107.5,-79.167 -164.584,-186.25 -171.25,-321.25l305,-0c6.666,60 35.416,109.166 86.25,147.5c50.833,38.333 118.75,57.5 203.75,57.5c163.333,-0 245,-50.834 245,-152.5c-0,-48.334 -20,-81.25 -60,-98.75c-40,-17.5 -112.5,-32.917 -217.5,-46.25c-66.667,-8.334 -123.75,-17.084 -171.25,-26.25c-47.5,-9.167 -95.834,-22.5 -145,-40c-49.167,-17.5 -88.334,-39.167 -117.5,-65c-29.167,-25.834 -53.334,-58.75 -72.5,-98.75c-19.167,-40 -28.75,-86.667 -28.75,-140c-0,-125 48.75,-224.584 146.25,-298.75c97.5,-74.167 225.416,-111.25 383.75,-111.25c166.666,-0 301.666,36.25 405,108.75c103.333,72.5 159.166,172.916 167.5,301.25l-307.5,-0c-6.667,-53.334 -32.917,-95.834 -78.75,-127.5c-45.834,-31.667 -105.417,-47.5 -178.75,-47.5c-71.667,-0 -128.334,12.5 -170,37.5c-41.667,25 -62.5,60 -62.5,105c-0,48.333 21.25,82.083 63.75,101.25c42.5,19.166 114.583,34.583 216.25,46.25c86.666,10 157.916,21.666 213.75,35c55.833,13.333 110.833,33.333 165,60c54.166,26.666 94.166,63.333 120,110c25.833,46.666 38.75,104.166 38.75,172.5c-0,125 -51.667,224.583 -155,298.75c-103.334,74.166 -237.5,111.25 -402.5,111.25Z" style="fill-rule:nonzero;"/><path d="M10392.5,2570.82c-205,-0 -366.667,-59.167 -485,-177.5c-118.334,-118.334 -177.5,-276.667 -177.5,-475c-0,-198.334 58.333,-357.917 175,-478.75c116.666,-120.834 270.833,-181.25 462.5,-181.25c186.666,-0 337.916,55.416 453.75,166.25c115.833,110.833 174.583,259.583 176.25,446.25c-0,38.333 -2.5,77.5 -7.5,117.5l-930,-0l-0,15c3.333,98.333 33.75,176.25 91.25,233.75c57.5,57.5 132.917,86.25 226.25,86.25c75,-0 137.5,-17.084 187.5,-51.25c50,-34.167 83.333,-83.75 100,-148.75l315,-0c-21.667,130 -85.417,237.083 -191.25,321.25c-105.833,84.166 -237.917,126.25 -396.25,126.25Zm-322.5,-802.5l605,-0c-11.667,-85 -44.167,-150.834 -97.5,-197.5c-53.334,-46.667 -122.5,-70 -207.5,-70c-80,-0 -147.917,24.166 -203.75,72.5c-55.834,48.333 -87.917,113.333 -96.25,195Z" style="fill-rule:nonzero;"/></g></svg>