<?xml version="1.0" encoding="UTF-8" standalone="no"?>
<!DOCTYPE svg PUBLIC "-//W3C//DTD SVG 1.1//EN" "http://www.w3.org/Graphics/SVG/1.1/DTD/svg11.dtd">
<svg xmlns="http://www.w3.org/2000/svg" version="1.1" viewBox="0.00 0.00 1024.00 1024.00">
<path fill="#ffd23a" d="
  M 528.11 888.47
  Q 527.13 923.83 527.06 942.21
  C 527.03 950.66 526.15 957.54 518.07 960.72
  Q 513.07 962.69 507.86 960.74
  C 501.30 958.29 499.17 952.52 498.99 945.50
  Q 498.88 941.24 498.89 937.00
  Q 498.95 914.09 498.96 889.32
  A 1.36 1.35 89.2 0 0 497.57 887.96
  Q 494.96 888.03 492.00 887.52
  Q 482.55 885.90 473.47 882.89
  A 1.18 1.17 16.4 0 0 471.96 883.71
  Q 465.18 910.41 456.81 945.55
  Q 456.23 947.98 454.94 951.18
  C 452.77 956.57 447.55 960.30 441.74 959.41
  Q 432.10 957.94 429.33 949.24
  Q 428.02 945.12 429.11 940.03
  Q 436.15 907.37 445.22 872.21
  A 0.05 0.03 76.7 0 1 445.23 872.18
  L 445.57 871.71
  A 1.21 1.20 31.8 0 0 445.15 869.95
  L 426.48 859.90
  A 1.03 1.03 0.0 0 0 425.05 860.39
  Q 404.83 906.00 394.71 927.76
  C 391.91 933.78 389.37 938.68 382.26 939.20
  C 369.76 940.12 363.10 928.10 367.99 917.23
  Q 380.72 888.99 393.89 860.34
  C 396.16 855.39 398.00 850.65 400.57 845.98
  A 0.56 0.55 31.9 0 0 400.39 845.25
  Q 375.01 828.04 352.98 808.03
  Q 292.60 753.19 258.85 678.72
  Q 253.04 665.89 246.20 646.39
  Q 235.74 616.56 230.52 582.26
  Q 229.41 575.00 227.56 558.10
  Q 227.00 552.98 226.92 547.39
  C 226.85 543.07 226.11 538.29 226.06 533.10
  Q 225.96 521.62 226.04 508.71
  C 226.07 503.23 227.01 497.45 227.00 492.46
  C 227.00 487.37 228.08 483.92 228.03 479.36
  Q 228.02 478.72 228.66 474.16
  Q 229.39 468.97 230.20 463.02
  Q 233.34 439.84 240.55 417.55
  Q 242.91 410.26 246.79 401.68
  A 1.10 1.07 -45.7 0 0 246.79 400.79
  Q 239.30 384.81 235.16 368.02
  Q 234.48 365.27 233.67 360.31
  Q 232.54 353.39 232.26 352.24
  A 8.13 8.00 -51.0 0 1 232.03 349.88
  Q 232.14 347.54 231.56 343.28
  C 230.84 337.92 231.03 333.65 231.07 327.29
  C 231.09 323.10 231.84 320.08 231.94 316.45
  Q 232.06 312.43 232.98 308.63
  Q 233.07 308.24 234.57 300.90
  Q 241.28 268.07 262.83 242.05
  C 270.19 233.17 277.60 225.28 287.08 218.36
  C 288.32 217.45 289.43 216.34 291.10 215.75
  A 0.65 0.65 0.0 0 0 291.09 214.52
  Q 271.69 208.10 254.91 196.08
  Q 229.84 178.13 218.22 150.30
  Q 210.61 132.08 208.44 111.63
  Q 206.61 94.40 207.00 78.20
  A 5.80 5.08 -41.2 0 1 207.13 77.22
  Q 209.54 66.89 219.28 64.98
  C 226.03 63.65 231.51 66.72 235.26 71.99
  C 256.90 102.37 288.89 123.50 324.80 131.71
  Q 327.92 132.42 336.82 134.07
  Q 341.93 135.01 344.27 135.08
  C 347.81 135.18 350.38 135.93 354.27 136.01
  Q 364.04 136.21 366.75 135.75
  Q 370.43 135.11 376.82 132.53
  Q 405.54 120.92 408.55 119.80
  Q 445.31 106.13 483.83 102.12
  Q 495.23 100.93 508.27 100.91
  Q 528.14 100.89 532.76 101.14
  Q 543.41 101.71 560.55 104.04
  Q 592.69 108.40 623.60 120.72
  Q 635.36 125.41 654.35 133.43
  Q 655.13 133.75 661.58 135.76
  A 3.85 3.62 -33.6 0 0 662.70 135.95
  Q 673.61 136.13 677.49 135.84
  Q 706.19 133.75 735.51 119.28
  Q 764.77 104.83 784.08 81.85
  C 786.75 78.67 788.88 75.46 791.04 72.14
  C 795.53 65.23 804.14 62.26 811.51 66.77
  C 816.87 70.05 818.63 76.22 818.62 82.52
  Q 818.62 85.55 817.79 103.22
  Q 817.43 110.91 814.77 125.07
  C 811.73 141.29 804.69 158.90 794.93 172.24
  Q 781.37 190.76 759.71 203.23
  Q 748.06 209.94 733.76 215.01
  A 0.56 0.55 52.7 0 0 733.63 215.99
  C 763.06 236.49 783.93 265.96 791.27 301.45
  Q 794.69 318.00 794.73 333.50
  Q 794.74 340.47 793.16 353.58
  C 791.23 369.62 785.70 385.76 779.10 399.78
  A 3.29 3.28 46.9 0 0 779.02 402.42
  Q 788.87 427.01 793.53 452.50
  Q 799.97 487.64 799.93 521.92
  Q 799.90 556.23 793.91 591.36
  C 784.09 648.88 760.77 705.56 724.76 752.03
  Q 704.58 778.08 683.11 798.12
  Q 662.55 817.32 640.39 833.40
  Q 638.65 834.66 625.24 844.35
  A 1.10 1.10 0.0 0 0 624.89 845.73
  Q 638.97 875.12 655.22 911.76
  C 658.60 919.40 661.31 924.38 657.96 931.22
  C 655.17 936.91 650.11 939.62 643.79 938.99
  C 637.03 938.31 634.66 934.32 631.99 928.50
  Q 619.66 901.67 607.93 875.81
  Q 603.96 867.08 600.30 859.60
  A 1.04 1.03 62.6 0 0 598.87 859.14
  L 579.58 869.56
  A 0.40 0.39 -21.7 0 0 579.38 870.01
  Q 587.00 900.51 595.46 937.14
  Q 597.05 944.04 596.32 947.32
  Q 594.69 954.59 587.16 957.81
  A 3.28 3.23 32.9 0 1 585.86 958.08
  L 579.27 958.08
  A 3.82 3.81 58.5 0 1 577.53 957.66
  Q 570.38 954.09 568.52 945.96
  Q 560.59 911.45 554.19 884.65
  C 554.01 883.87 554.04 883.33 553.96 882.53
  A 0.68 0.67 -1.5 0 0 553.32 881.93
  C 551.70 881.84 550.85 882.59 549.39 883.03
  Q 541.46 885.45 540.84 885.58
  Q 533.18 887.09 528.56 887.95
  A 0.55 0.54 -4.6 0 0 528.11 888.47
  Z
  M 520.03 335.30
  C 520.10 331.29 519.82 324.70 520.34 319.55
  Q 522.47 298.56 528.26 282.75
  Q 541.81 245.79 572.39 221.20
  C 586.47 209.88 603.06 201.90 620.22 197.27
  Q 630.62 194.46 640.08 193.38
  Q 645.95 192.71 657.75 192.09
  Q 663.70 191.78 673.46 192.39
  Q 681.31 192.89 687.52 192.48
  Q 702.21 191.51 715.24 188.98
  Q 724.33 187.21 734.08 183.38
  Q 774.50 167.48 786.40 126.48
  Q 788.37 119.70 788.87 117.23
  A 0.57 0.57 0.0 0 0 787.89 116.74
  C 778.05 127.89 764.60 136.95 751.00 144.00
  Q 727.90 155.96 702.01 161.49
  Q 697.42 162.48 685.62 164.41
  Q 683.56 164.74 678.81 165.17
  Q 672.07 165.77 672.00 165.77
  C 664.22 166.28 657.15 165.66 650.13 163.02
  Q 643.18 160.42 640.33 159.18
  Q 621.21 150.90 608.51 146.28
  Q 582.72 136.91 553.78 132.66
  Q 527.23 128.76 500.12 130.40
  Q 472.91 132.04 447.01 138.50
  Q 418.38 145.65 390.22 157.93
  Q 378.94 162.85 371.31 164.77
  C 362.41 167.01 352.92 165.36 343.50 164.81
  Q 337.41 164.45 319.71 160.50
  Q 288.51 153.54 261.67 136.70
  Q 249.77 129.23 238.26 117.87
  Q 237.98 117.59 237.34 117.26
  A 0.30 0.30 0.0 0 0 236.91 117.59
  Q 241.88 140.64 256.36 158.19
  C 269.83 174.51 291.15 184.72 311.71 189.10
  Q 321.94 191.27 332.26 191.89
  C 339.63 192.33 343.93 192.94 349.92 192.53
  Q 362.50 191.68 372.23 192.11
  Q 389.24 192.88 406.09 197.20
  C 439.14 205.69 467.57 227.33 485.84 255.92
  C 497.34 273.92 504.00 294.23 506.38 315.62
  C 507.13 322.38 506.93 328.64 507.20 335.24
  A 0.85 0.85 0.0 0 0 508.05 336.06
  L 519.26 336.06
  A 0.77 0.77 0.0 0 0 520.03 335.30
  Z
  M 460.56 393.58
  C 476.45 369.03 482.75 338.03 476.45 309.50
  C 470.37 281.97 454.99 257.09 431.84 240.72
  Q 406.72 222.97 375.99 221.13
  Q 362.37 220.32 349.29 222.52
  Q 325.54 226.52 306.57 240.04
  Q 294.14 248.89 285.82 259.00
  Q 267.17 281.69 261.56 311.87
  Q 261.02 314.76 261.00 315.58
  C 260.91 318.83 260.00 321.38 259.97 324.81
  C 259.91 330.30 259.59 337.64 260.62 344.17
  Q 261.75 351.27 262.01 352.49
  Q 269.75 387.99 294.82 411.17
  Q 319.57 434.04 354.06 439.25
  Q 359.18 440.02 367.01 440.10
  Q 376.76 440.20 380.00 439.93
  Q 393.92 438.80 404.79 435.53
  Q 440.31 424.85 460.56 393.58
  Z
  M 569.39 265.31
  Q 547.57 297.08 548.74 337.46
  C 549.30 356.70 556.09 376.77 566.55 392.96
  Q 585.82 422.76 619.55 434.69
  Q 629.30 438.14 646.52 439.97
  Q 649.31 440.26 661.00 440.08
  Q 669.40 439.94 675.41 438.96
  Q 698.97 435.12 718.94 422.07
  Q 739.23 408.82 751.29 388.59
  Q 763.41 368.28 766.01 343.50
  Q 768.61 318.69 759.26 293.74
  Q 746.20 258.91 716.20 239.04
  Q 696.86 226.23 674.82 222.52
  C 646.37 217.74 616.12 223.29 593.10 240.85
  Q 578.56 251.94 569.39 265.31
  Z
  M 512.11 470.78
  A 0.76 0.76 0.0 0 0 513.38 470.78
  L 548.07 418.46
  A 0.41 0.40 44.4 0 0 548.06 417.98
  Q 531.52 394.78 524.54 367.53
  A 0.82 0.80 -6.8 0 0 523.75 366.92
  L 503.13 366.92
  A 0.74 0.74 0.0 0 0 502.41 367.48
  C 498.05 385.84 489.45 403.48 478.66 418.92
  A 0.70 0.69 -44.6 0 0 478.65 419.70
  L 512.11 470.78
  Z
  M 672.63 768.69
  Q 676.39 765.48 678.47 762.97
  Q 678.82 762.55 687.01 753.04
  Q 757.60 671.10 769.36 562.38
  Q 770.04 556.14 770.05 555.59
  C 770.10 552.24 770.45 550.68 770.80 547.26
  Q 770.87 546.53 771.58 524.28
  Q 772.12 507.70 768.93 477.00
  C 768.80 475.75 768.11 473.97 768.07 472.63
  Q 768.02 471.12 767.76 469.39
  Q 765.44 454.32 762.40 443.31
  Q 759.02 431.05 758.44 428.75
  A 0.78 0.78 0.0 0 0 757.13 428.40
  Q 744.56 441.28 728.57 450.31
  Q 713.32 458.92 702.46 462.62
  C 700.67 463.23 699.15 463.74 697.96 465.22
  Q 687.53 478.27 679.04 491.36
  Q 669.64 505.85 663.25 519.48
  Q 643.21 562.21 639.06 609.77
  C 638.56 615.49 638.04 618.99 637.99 623.13
  Q 637.74 649.05 638.18 653.65
  Q 639.56 667.92 640.14 672.51
  Q 646.66 723.98 672.09 768.59
  A 0.36 0.35 55.4 0 0 672.63 768.69
  Z
  M 268.72 428.30
  A 0.36 0.36 0.0 0 0 268.12 428.45
  Q 259.99 453.36 257.01 479.77
  Q 256.60 483.39 256.55 483.61
  C 255.66 487.32 256.04 491.82 255.61 495.15
  C 254.72 501.97 255.00 507.14 254.67 515.13
  Q 254.38 522.23 254.52 527.38
  Q 255.97 582.85 271.92 631.61
  Q 293.41 697.32 339.61 752.89
  Q 348.14 763.15 353.39 768.80
  A 0.57 0.56 42.0 0 0 354.25 768.76
  Q 355.04 767.70 356.04 765.79
  Q 356.13 765.62 361.91 754.48
  Q 365.48 747.59 367.45 743.02
  Q 383.53 705.65 387.84 664.83
  C 388.10 662.37 387.97 659.88 388.39 657.48
  Q 388.88 654.63 388.93 651.99
  Q 389.33 627.12 388.74 620.01
  Q 387.43 604.38 385.44 592.32
  Q 377.33 543.14 352.45 500.61
  Q 344.52 487.05 329.06 466.72
  C 328.08 465.44 326.27 463.88 325.12 463.41
  Q 312.35 458.09 309.48 456.73
  Q 286.83 446.02 268.72 428.30
  Z
  M 568.05 441.66
  Q 543.60 478.66 528.13 501.62
  C 525.20 505.96 522.28 510.76 517.50 512.05
  Q 505.78 515.19 499.33 505.45
  Q 482.02 479.28 465.62 454.43
  Q 462.17 449.20 457.86 442.00
  A 1.23 1.23 0.0 0 0 455.98 441.72
  Q 454.82 442.79 453.65 443.64
  Q 439.17 454.16 420.71 460.93
  Q 395.72 470.07 369.29 470.05
  A 0.74 0.74 0.0 0 0 368.74 471.29
  Q 369.98 472.62 371.12 474.43
  Q 406.59 530.60 415.01 594.76
  C 417.94 617.08 419.08 639.20 417.07 661.29
  Q 415.98 673.27 414.52 682.77
  Q 407.58 728.03 387.47 769.74
  Q 382.50 780.04 376.70 788.70
  A 0.89 0.88 37.5 0 0 376.86 789.87
  Q 389.43 800.84 401.95 810.53
  Q 415.81 821.25 427.14 828.59
  Q 448.95 842.72 472.52 851.98
  Q 485.72 857.17 493.17 858.56
  Q 506.35 861.01 510.49 860.91
  Q 527.24 860.53 542.30 855.53
  Q 565.16 847.94 586.81 835.06
  Q 618.91 815.95 646.80 790.96
  C 647.73 790.12 649.07 789.48 649.81 788.65
  A 0.89 0.89 0.0 0 0 649.90 787.60
  Q 622.63 742.55 613.49 690.25
  Q 612.64 685.42 610.34 667.23
  C 609.91 663.83 610.00 660.58 609.48 657.25
  Q 609.04 654.43 608.98 649.73
  Q 608.84 638.85 608.97 624.31
  Q 609.00 620.56 609.91 610.21
  Q 610.25 606.39 611.50 596.15
  Q 619.05 534.28 651.80 480.11
  Q 653.39 477.49 658.07 470.79
  A 0.42 0.42 0.0 0 0 657.73 470.13
  Q 637.18 469.97 616.69 464.52
  Q 602.73 460.81 590.12 454.36
  Q 579.86 449.11 568.77 441.52
  A 0.51 0.51 0.0 0 0 568.05 441.66
  Z"
/>
<path fill="#ffd23a" d="
  M 429.1959 301.9722
  A 65.70 65.52 -26.6 0 1 399.7872 389.9750
  A 65.70 65.52 -26.6 0 1 311.7041 360.8078
  A 65.70 65.52 -26.6 0 1 341.1128 272.8050
  A 65.70 65.52 -26.6 0 1 429.1959 301.9722
  Z
  M 363.3076 293.9927
  A 38.46 37.99 -99.9 0 0 332.4957 338.4116
  A 38.46 37.99 -99.9 0 0 376.5324 369.7673
  A 38.46 37.99 -99.9 0 0 407.3443 325.3484
  A 38.46 37.99 -99.9 0 0 363.3076 293.9927
  Z"
/>
<path fill="#ffd23a" d="
  M 723.03 331.30
  A 65.57 65.57 0.0 0 1 657.46 396.87
  A 65.57 65.57 0.0 0 1 591.89 331.30
  A 65.57 65.57 0.0 0 1 657.46 265.73
  A 65.57 65.57 0.0 0 1 723.03 331.30
  Z
  M 656.8738 293.3115
  A 38.53 37.98 -90.5 0 0 619.2314 332.1714
  A 38.53 37.98 -90.5 0 0 657.5462 370.3685
  A 38.53 37.98 -90.5 0 0 695.1886 331.5086
  A 38.53 37.98 -90.5 0 0 656.8738 293.3115
  Z"
/>
</svg>
