<?xml version="1.0" encoding="UTF-8" standalone="no"?>
<!DOCTYPE svg PUBLIC "-//W3C//DTD SVG 1.1//EN" "http://www.w3.org/Graphics/SVG/1.1/DTD/svg11.dtd">
<svg xmlns="http://www.w3.org/2000/svg" version="1.1" viewBox="0.00 0.00 1024.00 1024.00">
<g stroke-width="2.00" fill="none" stroke-linecap="butt">
<path stroke="#88877e" vector-effect="non-scaling-stroke" d="
  M 310.80 777.87
  C 316.49 811.45 324.37 845.28 335.39 877.39
  C 336.75 881.33 338.23 885.49 342.14 886.29
  Q 344.73 886.82 351.56 886.83
  Q 451.23 886.97 732.75 886.69
  Q 748.97 886.68 766.74 886.07
  C 780.62 885.60 792.69 877.87 800.07 866.55
  Q 803.14 861.84 806.13 855.37
  C 827.40 809.30 836.33 757.94 833.84 707.51
  C 831.36 657.14 810.73 610.03 773.45 576.32
  C 759.63 563.82 742.19 552.45 725.34 543.68
  A 0.70 0.70 0.0 0 1 725.12 542.61
  C 750.72 511.43 764.24 473.88 766.71 433.74
  Q 769.39 390.18 760.59 345.94
  Q 755.79 321.83 746.19 300.28
  C 742.62 292.25 737.92 284.20 733.26 275.86
  A 1.12 1.12 0.0 0 1 733.66 274.35
  Q 733.85 274.23 739.02 271.01
  Q 758.24 259.04 769.64 239.86
  Q 783.47 216.61 785.57 189.68
  C 786.52 177.63 786.52 162.98 784.27 150.02
  C 782.74 141.22 773.76 137.64 766.54 143.31
  Q 765.47 144.15 752.98 154.22
  C 723.79 177.74 687.75 190.35 651.94 200.89
  C 650.47 201.32 649.01 201.91 647.61 201.14
  C 616.20 183.85 581.57 172.55 545.50 169.22
  Q 520.62 166.93 493.54 169.34
  Q 438.87 174.19 390.62 201.26
  A 3.70 3.68 37.3 0 1 387.91 201.62
  Q 361.91 195.10 337.97 186.29
  Q 311.22 176.44 288.72 161.07
  C 281.94 156.44 272.41 148.40 267.73 144.78
  Q 264.00 141.89 261.88 141.30
  C 253.87 139.08 249.55 144.98 248.54 152.02
  C 241.76 199.20 256.92 247.94 298.27 274.69
  A 1.26 1.26 0.0 0 1 298.70 276.33
  C 294.97 283.53 291.01 290.36 288.35 296.39
  Q 273.91 329.17 271.38 365.48
  A 0.67 0.67 0.0 0 1 270.44 366.05
  Q 246.00 355.22 218.73 357.18
  Q 185.56 359.57 158.92 380.40
  C 137.86 396.88 122.68 423.12 119.28 450.08
  C 111.77 509.55 152.03 563.10 211.12 571.58
  A 0.98 0.97 4.1 0 1 211.96 572.54
  L 211.96 601.96
  A 1.01 1.01 0.0 0 1 211.10 602.96
  Q 184.58 607.19 165.71 626.49
  C 143.79 648.91 134.80 678.73 138.63 709.90
  C 143.09 746.13 158.51 782.72 184.25 808.94
  C 198.22 823.16 215.24 827.27 234.03 824.36
  Q 245.28 822.62 259.38 815.68
  Q 285.54 802.79 305.89 782.45
  C 307.11 781.23 308.66 779.08 309.97 777.63
  A 0.48 0.48 0.0 0 1 310.80 777.87"
/>
<path stroke="#886b19" vector-effect="non-scaling-stroke" d="
  M 304.26 316.82
  Q 304.61 316.56 307.06 312.80
  C 318.44 295.37 336.58 281.81 356.03 273.78
  Q 370.52 267.80 387.22 266.94
  C 409.02 265.83 432.01 269.63 450.33 280.91
  C 472.17 294.37 490.08 316.87 495.62 342.35
  A 0.54 0.54 0.0 0 0 496.39 342.72
  Q 513.66 333.98 532.39 339.65
  C 534.11 340.17 537.19 341.53 539.32 342.61
  A 0.50 0.50 0.0 0 0 540.03 342.30
  Q 545.73 322.12 555.69 308.91
  C 572.56 286.55 596.76 271.74 624.53 267.61
  C 632.45 266.43 642.64 266.36 650.50 266.84
  C 680.52 268.68 704.87 283.04 724.07 305.79
  A 0.18 0.18 0.0 0 0 724.37 305.61
  Q 717.12 288.15 706.17 271.87
  C 703.10 267.31 705.81 265.29 710.04 263.52
  Q 738.64 251.57 753.44 223.94
  Q 766.15 200.21 765.52 172.89
  A 0.25 0.25 0.0 0 0 765.11 172.70
  C 741.96 191.25 713.70 203.62 685.01 212.26
  Q 672.04 216.17 650.31 222.54
  C 645.69 223.90 642.34 225.10 638.79 222.69
  C 608.67 202.29 573.85 192.38 537.74 190.39
  Q 506.72 188.69 476.17 193.19
  C 458.60 195.78 441.40 200.66 425.88 207.65
  Q 413.70 213.15 399.58 221.79
  C 396.03 223.97 393.70 224.86 389.89 223.90
  C 362.58 217.00 333.58 208.27 306.65 195.81
  Q 285.43 186.00 267.52 172.61
  A 0.34 0.33 18.9 0 0 266.98 172.87
  C 267.06 195.11 275.07 216.60 287.27 234.19
  Q 297.46 248.88 313.25 258.48
  Q 316.43 260.41 325.61 265.18
  C 329.08 266.98 327.47 270.67 326.08 273.06
  Q 315.63 290.99 310.27 301.98
  Q 305.78 311.19 303.97 316.62
  A 0.19 0.18 -9.8 0 0 304.26 316.82"
/>
<path stroke="#88877e" vector-effect="non-scaling-stroke" d="
  M 560.3032 357.4586
  A 81.97 79.16 -173.4 0 0 632.6316 445.5154
  A 81.97 79.16 -173.4 0 0 723.1568 376.3014
  A 81.97 79.16 -173.4 0 0 650.8284 288.2446
  A 81.97 79.16 -173.4 0 0 560.3032 357.4586"
/>
<path stroke="#88877e" vector-effect="non-scaling-stroke" d="
  M 312.8777 363.5698
  A 81.62 79.20 -177.5 0 0 390.9653 446.2546
  A 81.62 79.20 -177.5 0 0 475.9623 370.6902
  A 81.62 79.20 -177.5 0 0 397.8747 288.0054
  A 81.62 79.20 -177.5 0 0 312.8777 363.5698"
/>
<path stroke="#886b19" vector-effect="non-scaling-stroke" d="
  M 491.59 401.70
  Q 517.52 385.21 544.41 400.74
  A 0.30 0.30 0.0 0 0 544.84 400.36
  Q 538.00 384.11 537.69 366.61
  A 2.50 2.49 10.2 0 0 536.10 364.33
  Q 517.33 356.94 499.90 366.06
  A 2.68 2.66 77.2 0 0 498.48 368.34
  Q 497.97 385.44 491.27 401.43
  A 0.22 0.22 0.0 0 0 491.59 401.70"
/>
<path stroke="#88877e" vector-effect="non-scaling-stroke" d="
  M 143.11 445.92
  C 132.83 491.05 161.31 537.25 206.33 547.50
  C 251.35 557.75 297.02 528.43 307.29 483.31
  C 317.57 438.18 289.09 391.99 244.07 381.74
  C 199.05 371.48 153.38 400.80 143.11 445.92"
/>
<path stroke="#886b19" vector-effect="non-scaling-stroke" d="
  M 744.40 383.24
  Q 740.72 406.85 727.85 424.92
  Q 714.86 443.15 694.11 454.53
  Q 667.45 469.14 635.02 467.41
  C 608.16 465.97 583.22 453.63 564.87 434.18
  A 0.39 0.39 0.0 0 0 564.22 434.30
  Q 552.84 461.83 535.55 486.43
  C 532.34 491.00 528.60 495.28 524.58 499.08
  C 521.57 501.93 518.06 505.00 514.56 501.41
  C 495.94 482.31 482.78 458.10 472.94 433.55
  A 0.38 0.38 0.0 0 0 472.30 433.44
  Q 438.35 470.85 386.99 468.00
  Q 355.65 466.25 330.51 448.16
  A 0.27 0.27 0.0 0 0 330.08 448.42
  C 333.89 471.25 331.03 494.29 319.55 514.59
  A 2.10 2.09 42.1 0 0 319.67 516.84
  C 334.31 537.18 353.74 552.71 376.31 563.67
  Q 399.19 574.78 426.44 582.05
  C 463.52 591.96 502.35 596.35 540.83 594.11
  Q 553.92 593.35 563.47 592.40
  Q 592.60 589.49 620.80 581.06
  C 647.83 572.98 673.47 560.75 694.78 542.79
  Q 726.09 516.40 738.34 477.11
  Q 743.81 459.56 745.65 441.24
  Q 748.57 412.30 745.04 383.25
  A 0.32 0.32 0.0 0 0 744.40 383.24"
/>
<path stroke="#88877e" vector-effect="non-scaling-stroke" d="
  M 322.46 551.04
  L 306.40 534.41
  A 0.11 0.11 0.0 0 0 306.24 534.41
  Q 302.42 539.07 298.19 542.95
  Q 272.44 566.56 238.30 571.49
  A 0.79 0.78 -4.3 0 0 237.63 572.26
  L 237.63 602.29
  A 0.79 0.79 0.0 0 0 238.32 603.07
  Q 249.06 604.39 258.46 607.62
  A 1.11 1.10 -56.9 0 0 259.58 607.38
  C 280.50 587.77 300.63 569.34 322.42 551.73
  A 0.47 0.46 48.5 0 0 322.46 551.04"
/>
<path stroke="#88877e" vector-effect="non-scaling-stroke" d="
  M 483.37 613.27
  Q 452.04 610.42 422.67 603.09
  Q 401.54 597.82 382.55 589.24
  A 0.38 0.38 0.0 0 0 382.02 589.50
  Q 381.97 589.66 382.17 590.06
  Q 423.95 673.46 423.98 673.50
  A 0.56 0.55 53.9 0 0 424.86 673.64
  C 433.26 665.31 441.22 656.24 448.99 648.39
  Q 462.70 634.52 483.60 613.92
  A 0.38 0.38 0.0 0 0 483.37 613.27"
/>
<path stroke="#88877e" vector-effect="non-scaling-stroke" d="
  M 656.10 589.96
  C 624.35 603.22 590.93 610.42 556.71 613.03
  A 0.57 0.57 0.0 0 0 556.35 614.00
  L 614.05 673.74
  A 0.57 0.56 -53.6 0 0 614.96 673.60
  L 656.56 590.45
  A 0.36 0.36 0.0 0 0 656.10 589.96"
/>
<path stroke="#886b19" vector-effect="non-scaling-stroke" d="
  M 261.80 735.91
  Q 245.38 741.29 227.81 742.25
  C 222.31 742.55 218.11 742.85 214.93 738.20
  Q 211.87 733.74 214.66 729.20
  Q 216.78 725.75 220.03 725.26
  Q 229.89 723.76 232.25 723.27
  C 254.50 718.57 277.70 704.33 277.96 678.76
  A 0.65 0.65 0.0 0 0 277.20 678.11
  C 273.99 678.64 270.02 679.63 266.48 680.06
  Q 246.89 682.43 225.50 682.04
  C 220.44 681.94 216.61 681.04 214.14 677.08
  C 211.97 673.61 212.04 667.65 215.40 664.67
  C 218.89 661.58 222.93 661.42 227.05 661.44
  Q 237.18 661.51 246.25 661.00
  C 252.78 660.63 260.89 659.65 266.81 656.14
  C 275.46 651.01 271.62 641.10 265.62 636.08
  C 256.63 628.56 243.44 625.57 231.00 624.31
  Q 218.16 623.00 205.05 626.79
  Q 194.56 629.82 184.63 638.62
  C 151.07 668.37 155.89 712.70 171.71 749.82
  Q 180.78 771.09 196.08 789.35
  A 1.82 1.81 -32.6 0 0 198.25 789.82
  Q 228.73 775.52 251.33 751.09
  Q 257.59 744.33 262.11 736.30
  A 0.27 0.26 -83.9 0 0 261.80 735.91"
/>
<path stroke="#886b19" vector-effect="non-scaling-stroke" d="
  M 647.34 762.49
  Q 674.69 731.67 700.96 693.70
  Q 705.03 687.83 709.99 679.21
  Q 711.15 677.20 710.12 674.71
  Q 705.90 664.48 700.14 650.86
  A 1.22 1.22 0.0 0 1 700.72 649.30
  Q 713.50 643.03 726.94 633.80
  A 0.39 0.39 0.0 0 0 726.66 633.09
  L 679.70 639.82
  A 0.66 0.65 72.7 0 0 679.21 640.76
  C 687.76 658.07 691.42 665.05 695.96 676.82
  Q 697.05 679.65 695.54 682.04
  Q 680.33 706.10 661.59 736.58
  Q 654.75 747.70 646.99 762.25
  A 0.21 0.21 0.0 0 0 647.34 762.49"
/>
<path stroke="#88877e" vector-effect="non-scaling-stroke" d="
  M 564.45 649.37
  A 0.48 0.48 0.0 0 0 563.70 649.45
  L 543.37 681.67
  A 0.48 0.48 0.0 0 0 543.31 682.05
  L 566.21 768.10
  A 0.48 0.48 0.0 0 0 567.11 768.19
  L 605.22 692.03
  A 0.48 0.48 0.0 0 0 605.13 691.49
  L 564.45 649.37"
/>
<path stroke="#88877e" vector-effect="non-scaling-stroke" d="
  M 433.15 691.42
  A 0.38 0.38 0.0 0 0 433.08 691.87
  L 472.58 768.36
  A 0.38 0.38 0.0 0 0 473.28 768.28
  L 494.53 682.19
  A 0.38 0.38 0.0 0 0 494.49 681.90
  L 475.04 650.19
  A 0.38 0.38 0.0 0 0 474.45 650.12
  L 433.15 691.42"
/>
<path stroke="#886b19" vector-effect="non-scaling-stroke" d="
  M 725.91 766.84
  A 0.26 0.26 0.0 0 0 725.40 766.83
  Q 724.37 771.46 723.42 775.58
  Q 721.80 782.57 721.48 784.32
  Q 715.49 816.39 705.36 854.84
  Q 703.11 863.38 702.04 870.61
  A 0.42 0.41 4.7 0 0 702.45 871.09
  Q 728.14 870.85 754.00 870.77
  C 762.90 870.74 768.95 870.47 775.58 866.10
  A 0.50 0.50 0.0 0 0 775.52 865.24
  Q 770.46 862.76 764.13 860.61
  Q 742.47 853.25 719.80 845.77
  A 1.41 1.41 0.0 0 1 718.84 844.26
  Q 720.27 831.97 723.39 804.90
  Q 724.29 797.12 724.99 787.10
  Q 725.99 772.73 726.10 769.25
  Q 726.14 768.00 725.91 766.84"
/>
<path stroke="#88877e" vector-effect="non-scaling-stroke" d="
  M 615.1336 335.1776
  A 31.85 31.02 -102.1 0 0 591.4792 372.8224
  A 31.85 31.02 -102.1 0 0 628.4864 397.4624
  A 31.85 31.02 -102.1 0 0 652.1408 359.8176
  A 31.85 31.02 -102.1 0 0 615.1336 335.1776"
/>
<path stroke="#88877e" vector-effect="non-scaling-stroke" d="
  M 416.9665 334.7626
  A 31.73 31.04 -86.7 0 0 384.1515 364.6532
  A 31.73 31.04 -86.7 0 0 413.3135 398.1174
  A 31.73 31.04 -86.7 0 0 446.1285 368.2268
  A 31.73 31.04 -86.7 0 0 416.9665 334.7626"
/>
<path stroke="#88877e" vector-effect="non-scaling-stroke" d="
  M 226.42 417.99
  C 232.30 412.96 230.98 404.98 224.38 401.32
  C 221.45 399.70 217.42 399.95 214.36 400.36
  C 204.29 401.71 193.84 406.04 185.94 412.61
  C 167.46 427.97 159.17 446.79 160.93 470.99
  C 161.25 475.44 163.16 478.55 167.09 480.19
  Q 172.40 482.40 177.12 478.89
  Q 180.75 476.19 180.86 472.86
  Q 181.15 463.85 181.24 461.99
  Q 181.73 450.87 187.66 440.85
  C 194.88 428.65 205.93 422.45 219.90 420.31
  Q 224.52 419.61 226.42 417.99"
/>
</g>
<path fill="#fffaeb" d="
  M 1024.00 0.00
  L 1024.00 1024.00
  L 0.00 1024.00
  L 0.00 0.00
  L 1024.00 0.00
  Z
  M 310.80 777.87
  C 316.49 811.45 324.37 845.28 335.39 877.39
  C 336.75 881.33 338.23 885.49 342.14 886.29
  Q 344.73 886.82 351.56 886.83
  Q 451.23 886.97 732.75 886.69
  Q 748.97 886.68 766.74 886.07
  C 780.62 885.60 792.69 877.87 800.07 866.55
  Q 803.14 861.84 806.13 855.37
  C 827.40 809.30 836.33 757.94 833.84 707.51
  C 831.36 657.14 810.73 610.03 773.45 576.32
  C 759.63 563.82 742.19 552.45 725.34 543.68
  A 0.70 0.70 0.0 0 1 725.12 542.61
  C 750.72 511.43 764.24 473.88 766.71 433.74
  Q 769.39 390.18 760.59 345.94
  Q 755.79 321.83 746.19 300.28
  C 742.62 292.25 737.92 284.20 733.26 275.86
  A 1.12 1.12 0.0 0 1 733.66 274.35
  Q 733.85 274.23 739.02 271.01
  Q 758.24 259.04 769.64 239.86
  Q 783.47 216.61 785.57 189.68
  C 786.52 177.63 786.52 162.98 784.27 150.02
  C 782.74 141.22 773.76 137.64 766.54 143.31
  Q 765.47 144.15 752.98 154.22
  C 723.79 177.74 687.75 190.35 651.94 200.89
  C 650.47 201.32 649.01 201.91 647.61 201.14
  C 616.20 183.85 581.57 172.55 545.50 169.22
  Q 520.62 166.93 493.54 169.34
  Q 438.87 174.19 390.62 201.26
  A 3.70 3.68 37.3 0 1 387.91 201.62
  Q 361.91 195.10 337.97 186.29
  Q 311.22 176.44 288.72 161.07
  C 281.94 156.44 272.41 148.40 267.73 144.78
  Q 264.00 141.89 261.88 141.30
  C 253.87 139.08 249.55 144.98 248.54 152.02
  C 241.76 199.20 256.92 247.94 298.27 274.69
  A 1.26 1.26 0.0 0 1 298.70 276.33
  C 294.97 283.53 291.01 290.36 288.35 296.39
  Q 273.91 329.17 271.38 365.48
  A 0.67 0.67 0.0 0 1 270.44 366.05
  Q 246.00 355.22 218.73 357.18
  Q 185.56 359.57 158.92 380.40
  C 137.86 396.88 122.68 423.12 119.28 450.08
  C 111.77 509.55 152.03 563.10 211.12 571.58
  A 0.98 0.97 4.1 0 1 211.96 572.54
  L 211.96 601.96
  A 1.01 1.01 0.0 0 1 211.10 602.96
  Q 184.58 607.19 165.71 626.49
  C 143.79 648.91 134.80 678.73 138.63 709.90
  C 143.09 746.13 158.51 782.72 184.25 808.94
  C 198.22 823.16 215.24 827.27 234.03 824.36
  Q 245.28 822.62 259.38 815.68
  Q 285.54 802.79 305.89 782.45
  C 307.11 781.23 308.66 779.08 309.97 777.63
  A 0.48 0.48 0.0 0 1 310.80 777.87
  Z"
/>
<path fill="#111310" d="
  M 309.97 777.63
  C 308.66 779.08 307.11 781.23 305.89 782.45
  Q 285.54 802.79 259.38 815.68
  Q 245.28 822.62 234.03 824.36
  C 215.24 827.27 198.22 823.16 184.25 808.94
  C 158.51 782.72 143.09 746.13 138.63 709.90
  C 134.80 678.73 143.79 648.91 165.71 626.49
  Q 184.58 607.19 211.10 602.96
  A 1.01 1.01 0.0 0 0 211.96 601.96
  L 211.96 572.54
  A 0.98 0.97 4.1 0 0 211.12 571.58
  C 152.03 563.10 111.77 509.55 119.28 450.08
  C 122.68 423.12 137.86 396.88 158.92 380.40
  Q 185.56 359.57 218.73 357.18
  Q 246.00 355.22 270.44 366.05
  A 0.67 0.67 0.0 0 0 271.38 365.48
  Q 273.91 329.17 288.35 296.39
  C 291.01 290.36 294.97 283.53 298.70 276.33
  A 1.26 1.26 0.0 0 0 298.27 274.69
  C 256.92 247.94 241.76 199.20 248.54 152.02
  C 249.55 144.98 253.87 139.08 261.88 141.30
  Q 264.00 141.89 267.73 144.78
  C 272.41 148.40 281.94 156.44 288.72 161.07
  Q 311.22 176.44 337.97 186.29
  Q 361.91 195.10 387.91 201.62
  A 3.70 3.68 37.3 0 0 390.62 201.26
  Q 438.87 174.19 493.54 169.34
  Q 520.62 166.93 545.50 169.22
  C 581.57 172.55 616.20 183.85 647.61 201.14
  C 649.01 201.91 650.47 201.32 651.94 200.89
  C 687.75 190.35 723.79 177.74 752.98 154.22
  Q 765.47 144.15 766.54 143.31
  C 773.76 137.64 782.74 141.22 784.27 150.02
  C 786.52 162.98 786.52 177.63 785.57 189.68
  Q 783.47 216.61 769.64 239.86
  Q 758.24 259.04 739.02 271.01
  Q 733.85 274.23 733.66 274.35
  A 1.12 1.12 0.0 0 0 733.26 275.86
  C 737.92 284.20 742.62 292.25 746.19 300.28
  Q 755.79 321.83 760.59 345.94
  Q 769.39 390.18 766.71 433.74
  C 764.24 473.88 750.72 511.43 725.12 542.61
  A 0.70 0.70 0.0 0 0 725.34 543.68
  C 742.19 552.45 759.63 563.82 773.45 576.32
  C 810.73 610.03 831.36 657.14 833.84 707.51
  C 836.33 757.94 827.40 809.30 806.13 855.37
  Q 803.14 861.84 800.07 866.55
  C 792.69 877.87 780.62 885.60 766.74 886.07
  Q 748.97 886.68 732.75 886.69
  Q 451.23 886.97 351.56 886.83
  Q 344.73 886.82 342.14 886.29
  C 338.23 885.49 336.75 881.33 335.39 877.39
  C 324.37 845.28 316.49 811.45 310.80 777.87
  A 0.48 0.48 0.0 0 0 309.97 777.63
  Z
  M 304.26 316.82
  Q 304.61 316.56 307.06 312.80
  C 318.44 295.37 336.58 281.81 356.03 273.78
  Q 370.52 267.80 387.22 266.94
  C 409.02 265.83 432.01 269.63 450.33 280.91
  C 472.17 294.37 490.08 316.87 495.62 342.35
  A 0.54 0.54 0.0 0 0 496.39 342.72
  Q 513.66 333.98 532.39 339.65
  C 534.11 340.17 537.19 341.53 539.32 342.61
  A 0.50 0.50 0.0 0 0 540.03 342.30
  Q 545.73 322.12 555.69 308.91
  C 572.56 286.55 596.76 271.74 624.53 267.61
  C 632.45 266.43 642.64 266.36 650.50 266.84
  C 680.52 268.68 704.87 283.04 724.07 305.79
  A 0.18 0.18 0.0 0 0 724.37 305.61
  Q 717.12 288.15 706.17 271.87
  C 703.10 267.31 705.81 265.29 710.04 263.52
  Q 738.64 251.57 753.44 223.94
  Q 766.15 200.21 765.52 172.89
  A 0.25 0.25 0.0 0 0 765.11 172.70
  C 741.96 191.25 713.70 203.62 685.01 212.26
  Q 672.04 216.17 650.31 222.54
  C 645.69 223.90 642.34 225.10 638.79 222.69
  C 608.67 202.29 573.85 192.38 537.74 190.39
  Q 506.72 188.69 476.17 193.19
  C 458.60 195.78 441.40 200.66 425.88 207.65
  Q 413.70 213.15 399.58 221.79
  C 396.03 223.97 393.70 224.86 389.89 223.90
  C 362.58 217.00 333.58 208.27 306.65 195.81
  Q 285.43 186.00 267.52 172.61
  A 0.34 0.33 18.9 0 0 266.98 172.87
  C 267.06 195.11 275.07 216.60 287.27 234.19
  Q 297.46 248.88 313.25 258.48
  Q 316.43 260.41 325.61 265.18
  C 329.08 266.98 327.47 270.67 326.08 273.06
  Q 315.63 290.99 310.27 301.98
  Q 305.78 311.19 303.97 316.62
  A 0.19 0.18 -9.8 0 0 304.26 316.82
  Z
  M 560.3032 357.4586
  A 81.97 79.16 -173.4 0 0 632.6316 445.5154
  A 81.97 79.16 -173.4 0 0 723.1568 376.3014
  A 81.97 79.16 -173.4 0 0 650.8284 288.2446
  A 81.97 79.16 -173.4 0 0 560.3032 357.4586
  Z
  M 312.8777 363.5698
  A 81.62 79.20 -177.5 0 0 390.9653 446.2546
  A 81.62 79.20 -177.5 0 0 475.9623 370.6902
  A 81.62 79.20 -177.5 0 0 397.8747 288.0054
  A 81.62 79.20 -177.5 0 0 312.8777 363.5698
  Z
  M 491.59 401.70
  Q 517.52 385.21 544.41 400.74
  A 0.30 0.30 0.0 0 0 544.84 400.36
  Q 538.00 384.11 537.69 366.61
  A 2.50 2.49 10.2 0 0 536.10 364.33
  Q 517.33 356.94 499.90 366.06
  A 2.68 2.66 77.2 0 0 498.48 368.34
  Q 497.97 385.44 491.27 401.43
  A 0.22 0.22 0.0 0 0 491.59 401.70
  Z
  M 143.11 445.92
  C 132.83 491.05 161.31 537.25 206.33 547.50
  C 251.35 557.75 297.02 528.43 307.29 483.31
  C 317.57 438.18 289.09 391.99 244.07 381.74
  C 199.05 371.48 153.38 400.80 143.11 445.92
  Z
  M 744.40 383.24
  Q 740.72 406.85 727.85 424.92
  Q 714.86 443.15 694.11 454.53
  Q 667.45 469.14 635.02 467.41
  C 608.16 465.97 583.22 453.63 564.87 434.18
  A 0.39 0.39 0.0 0 0 564.22 434.30
  Q 552.84 461.83 535.55 486.43
  C 532.34 491.00 528.60 495.28 524.58 499.08
  C 521.57 501.93 518.06 505.00 514.56 501.41
  C 495.94 482.31 482.78 458.10 472.94 433.55
  A 0.38 0.38 0.0 0 0 472.30 433.44
  Q 438.35 470.85 386.99 468.00
  Q 355.65 466.25 330.51 448.16
  A 0.27 0.27 0.0 0 0 330.08 448.42
  C 333.89 471.25 331.03 494.29 319.55 514.59
  A 2.10 2.09 42.1 0 0 319.67 516.84
  C 334.31 537.18 353.74 552.71 376.31 563.67
  Q 399.19 574.78 426.44 582.05
  C 463.52 591.96 502.35 596.35 540.83 594.11
  Q 553.92 593.35 563.47 592.40
  Q 592.60 589.49 620.80 581.06
  C 647.83 572.98 673.47 560.75 694.78 542.79
  Q 726.09 516.40 738.34 477.11
  Q 743.81 459.56 745.65 441.24
  Q 748.57 412.30 745.04 383.25
  A 0.32 0.32 0.0 0 0 744.40 383.24
  Z
  M 322.46 551.04
  L 306.40 534.41
  A 0.11 0.11 0.0 0 0 306.24 534.41
  Q 302.42 539.07 298.19 542.95
  Q 272.44 566.56 238.30 571.49
  A 0.79 0.78 -4.3 0 0 237.63 572.26
  L 237.63 602.29
  A 0.79 0.79 0.0 0 0 238.32 603.07
  Q 249.06 604.39 258.46 607.62
  A 1.11 1.10 -56.9 0 0 259.58 607.38
  C 280.50 587.77 300.63 569.34 322.42 551.73
  A 0.47 0.46 48.5 0 0 322.46 551.04
  Z
  M 483.37 613.27
  Q 452.04 610.42 422.67 603.09
  Q 401.54 597.82 382.55 589.24
  A 0.38 0.38 0.0 0 0 382.02 589.50
  Q 381.97 589.66 382.17 590.06
  Q 423.95 673.46 423.98 673.50
  A 0.56 0.55 53.9 0 0 424.86 673.64
  C 433.26 665.31 441.22 656.24 448.99 648.39
  Q 462.70 634.52 483.60 613.92
  A 0.38 0.38 0.0 0 0 483.37 613.27
  Z
  M 656.10 589.96
  C 624.35 603.22 590.93 610.42 556.71 613.03
  A 0.57 0.57 0.0 0 0 556.35 614.00
  L 614.05 673.74
  A 0.57 0.56 -53.6 0 0 614.96 673.60
  L 656.56 590.45
  A 0.36 0.36 0.0 0 0 656.10 589.96
  Z
  M 261.80 735.91
  Q 245.38 741.29 227.81 742.25
  C 222.31 742.55 218.11 742.85 214.93 738.20
  Q 211.87 733.74 214.66 729.20
  Q 216.78 725.75 220.03 725.26
  Q 229.89 723.76 232.25 723.27
  C 254.50 718.57 277.70 704.33 277.96 678.76
  A 0.65 0.65 0.0 0 0 277.20 678.11
  C 273.99 678.64 270.02 679.63 266.48 680.06
  Q 246.89 682.43 225.50 682.04
  C 220.44 681.94 216.61 681.04 214.14 677.08
  C 211.97 673.61 212.04 667.65 215.40 664.67
  C 218.89 661.58 222.93 661.42 227.05 661.44
  Q 237.18 661.51 246.25 661.00
  C 252.78 660.63 260.89 659.65 266.81 656.14
  C 275.46 651.01 271.62 641.10 265.62 636.08
  C 256.63 628.56 243.44 625.57 231.00 624.31
  Q 218.16 623.00 205.05 626.79
  Q 194.56 629.82 184.63 638.62
  C 151.07 668.37 155.89 712.70 171.71 749.82
  Q 180.78 771.09 196.08 789.35
  A 1.82 1.81 -32.6 0 0 198.25 789.82
  Q 228.73 775.52 251.33 751.09
  Q 257.59 744.33 262.11 736.30
  A 0.27 0.26 -83.9 0 0 261.80 735.91
  Z
  M 647.34 762.49
  Q 674.69 731.67 700.96 693.70
  Q 705.03 687.83 709.99 679.21
  Q 711.15 677.20 710.12 674.71
  Q 705.90 664.48 700.14 650.86
  A 1.22 1.22 0.0 0 1 700.72 649.30
  Q 713.50 643.03 726.94 633.80
  A 0.39 0.39 0.0 0 0 726.66 633.09
  L 679.70 639.82
  A 0.66 0.65 72.7 0 0 679.21 640.76
  C 687.76 658.07 691.42 665.05 695.96 676.82
  Q 697.05 679.65 695.54 682.04
  Q 680.33 706.10 661.59 736.58
  Q 654.75 747.70 646.99 762.25
  A 0.21 0.21 0.0 0 0 647.34 762.49
  Z
  M 564.45 649.37
  A 0.48 0.48 0.0 0 0 563.70 649.45
  L 543.37 681.67
  A 0.48 0.48 0.0 0 0 543.31 682.05
  L 566.21 768.10
  A 0.48 0.48 0.0 0 0 567.11 768.19
  L 605.22 692.03
  A 0.48 0.48 0.0 0 0 605.13 691.49
  L 564.45 649.37
  Z
  M 433.15 691.42
  A 0.38 0.38 0.0 0 0 433.08 691.87
  L 472.58 768.36
  A 0.38 0.38 0.0 0 0 473.28 768.28
  L 494.53 682.19
  A 0.38 0.38 0.0 0 0 494.49 681.90
  L 475.04 650.19
  A 0.38 0.38 0.0 0 0 474.45 650.12
  L 433.15 691.42
  Z
  M 725.91 766.84
  A 0.26 0.26 0.0 0 0 725.40 766.83
  Q 724.37 771.46 723.42 775.58
  Q 721.80 782.57 721.48 784.32
  Q 715.49 816.39 705.36 854.84
  Q 703.11 863.38 702.04 870.61
  A 0.42 0.41 4.7 0 0 702.45 871.09
  Q 728.14 870.85 754.00 870.77
  C 762.90 870.74 768.95 870.47 775.58 866.10
  A 0.50 0.50 0.0 0 0 775.52 865.24
  Q 770.46 862.76 764.13 860.61
  Q 742.47 853.25 719.80 845.77
  A 1.41 1.41 0.0 0 1 718.84 844.26
  Q 720.27 831.97 723.39 804.90
  Q 724.29 797.12 724.99 787.10
  Q 725.99 772.73 726.10 769.25
  Q 726.14 768.00 725.91 766.84
  Z"
/>
<path fill="#ffc321" d="
  M 303.97 316.62
  Q 305.78 311.19 310.27 301.98
  Q 315.63 290.99 326.08 273.06
  C 327.47 270.67 329.08 266.98 325.61 265.18
  Q 316.43 260.41 313.25 258.48
  Q 297.46 248.88 287.27 234.19
  C 275.07 216.60 267.06 195.11 266.98 172.87
  A 0.34 0.33 18.9 0 1 267.52 172.61
  Q 285.43 186.00 306.65 195.81
  C 333.58 208.27 362.58 217.00 389.89 223.90
  C 393.70 224.86 396.03 223.97 399.58 221.79
  Q 413.70 213.15 425.88 207.65
  C 441.40 200.66 458.60 195.78 476.17 193.19
  Q 506.72 188.69 537.74 190.39
  C 573.85 192.38 608.67 202.29 638.79 222.69
  C 642.34 225.10 645.69 223.90 650.31 222.54
  Q 672.04 216.17 685.01 212.26
  C 713.70 203.62 741.96 191.25 765.11 172.70
  A 0.25 0.25 0.0 0 1 765.52 172.89
  Q 766.15 200.21 753.44 223.94
  Q 738.64 251.57 710.04 263.52
  C 705.81 265.29 703.10 267.31 706.17 271.87
  Q 717.12 288.15 724.37 305.61
  A 0.18 0.18 0.0 0 1 724.07 305.79
  C 704.87 283.04 680.52 268.68 650.50 266.84
  C 642.64 266.36 632.45 266.43 624.53 267.61
  C 596.76 271.74 572.56 286.55 555.69 308.91
  Q 545.73 322.12 540.03 342.30
  A 0.50 0.50 0.0 0 1 539.32 342.61
  C 537.19 341.53 534.11 340.17 532.39 339.65
  Q 513.66 333.98 496.39 342.72
  A 0.54 0.54 0.0 0 1 495.62 342.35
  C 490.08 316.87 472.17 294.37 450.33 280.91
  C 432.01 269.63 409.02 265.83 387.22 266.94
  Q 370.52 267.80 356.03 273.78
  C 336.58 281.81 318.44 295.37 307.06 312.80
  Q 304.61 316.56 304.26 316.82
  A 0.19 0.18 -9.8 0 1 303.97 316.62
  Z"
/>
<path fill="#fffaeb" d="
  M 560.3032 357.4586
  A 81.97 79.16 -173.4 0 1 650.8284 288.2446
  A 81.97 79.16 -173.4 0 1 723.1568 376.3014
  A 81.97 79.16 -173.4 0 1 632.6316 445.5154
  A 81.97 79.16 -173.4 0 1 560.3032 357.4586
  Z
  M 615.1336 335.1776
  A 31.85 31.02 -102.1 0 0 591.4792 372.8224
  A 31.85 31.02 -102.1 0 0 628.4864 397.4624
  A 31.85 31.02 -102.1 0 0 652.1408 359.8176
  A 31.85 31.02 -102.1 0 0 615.1336 335.1776
  Z"
/>
<path fill="#fffaeb" d="
  M 312.8777 363.5698
  A 81.62 79.20 -177.5 0 1 397.8747 288.0054
  A 81.62 79.20 -177.5 0 1 475.9623 370.6902
  A 81.62 79.20 -177.5 0 1 390.9653 446.2546
  A 81.62 79.20 -177.5 0 1 312.8777 363.5698
  Z
  M 416.9665 334.7626
  A 31.73 31.04 -86.7 0 0 384.1515 364.6532
  A 31.73 31.04 -86.7 0 0 413.3135 398.1174
  A 31.73 31.04 -86.7 0 0 446.1285 368.2268
  A 31.73 31.04 -86.7 0 0 416.9665 334.7626
  Z"
/>
<ellipse fill="#111310" cx="0.00" cy="0.00" transform="translate(415.14,366.44) rotate(-86.7)" rx="31.73" ry="31.04"/>
<ellipse fill="#111310" cx="0.00" cy="0.00" transform="translate(621.81,366.32) rotate(-102.1)" rx="31.85" ry="31.02"/>
<path fill="#ffc321" d="
  M 491.59 401.70
  A 0.22 0.22 0.0 0 1 491.27 401.43
  Q 497.97 385.44 498.48 368.34
  A 2.68 2.66 77.2 0 1 499.90 366.06
  Q 517.33 356.94 536.10 364.33
  A 2.50 2.49 10.2 0 1 537.69 366.61
  Q 538.00 384.11 544.84 400.36
  A 0.30 0.30 0.0 0 1 544.41 400.74
  Q 517.52 385.21 491.59 401.70
  Z"
/>
<path fill="#fffaeb" d="
  M 244.07 381.74
  C 289.09 391.99 317.57 438.18 307.29 483.31
  C 297.02 528.43 251.35 557.75 206.33 547.50
  C 161.31 537.25 132.83 491.05 143.11 445.92
  C 153.38 400.80 199.05 371.48 244.07 381.74
  Z
  M 226.42 417.99
  C 232.30 412.96 230.98 404.98 224.38 401.32
  C 221.45 399.70 217.42 399.95 214.36 400.36
  C 204.29 401.71 193.84 406.04 185.94 412.61
  C 167.46 427.97 159.17 446.79 160.93 470.99
  C 161.25 475.44 163.16 478.55 167.09 480.19
  Q 172.40 482.40 177.12 478.89
  Q 180.75 476.19 180.86 472.86
  Q 181.15 463.85 181.24 461.99
  Q 181.73 450.87 187.66 440.85
  C 194.88 428.65 205.93 422.45 219.90 420.31
  Q 224.52 419.61 226.42 417.99
  Z"
/>
<path fill="#ffc321" d="
  M 744.40 383.24
  A 0.32 0.32 0.0 0 1 745.04 383.25
  Q 748.57 412.30 745.65 441.24
  Q 743.81 459.56 738.34 477.11
  Q 726.09 516.40 694.78 542.79
  C 673.47 560.75 647.83 572.98 620.80 581.06
  Q 592.60 589.49 563.47 592.40
  Q 553.92 593.35 540.83 594.11
  C 502.35 596.35 463.52 591.96 426.44 582.05
  Q 399.19 574.78 376.31 563.67
  C 353.74 552.71 334.31 537.18 319.67 516.84
  A 2.10 2.09 42.1 0 1 319.55 514.59
  C 331.03 494.29 333.89 471.25 330.08 448.42
  A 0.27 0.27 0.0 0 1 330.51 448.16
  Q 355.65 466.25 386.99 468.00
  Q 438.35 470.85 472.30 433.44
  A 0.38 0.38 0.0 0 1 472.94 433.55
  C 482.78 458.10 495.94 482.31 514.56 501.41
  C 518.06 505.00 521.57 501.93 524.58 499.08
  C 528.60 495.28 532.34 491.00 535.55 486.43
  Q 552.84 461.83 564.22 434.30
  A 0.39 0.39 0.0 0 1 564.87 434.18
  C 583.22 453.63 608.16 465.97 635.02 467.41
  Q 667.45 469.14 694.11 454.53
  Q 714.86 443.15 727.85 424.92
  Q 740.72 406.85 744.40 383.24
  Z"
/>
<path fill="#111310" d="
  M 224.38 401.32
  C 230.98 404.98 232.30 412.96 226.42 417.99
  Q 224.52 419.61 219.90 420.31
  C 205.93 422.45 194.88 428.65 187.66 440.85
  Q 181.73 450.87 181.24 461.99
  Q 181.15 463.85 180.86 472.86
  Q 180.75 476.19 177.12 478.89
  Q 172.40 482.40 167.09 480.19
  C 163.16 478.55 161.25 475.44 160.93 470.99
  C 159.17 446.79 167.46 427.97 185.94 412.61
  C 193.84 406.04 204.29 401.71 214.36 400.36
  C 217.42 399.95 221.45 399.70 224.38 401.32
  Z"
/>
<path fill="#fffaeb" d="
  M 322.46 551.04
  A 0.47 0.46 48.5 0 1 322.42 551.73
  C 300.63 569.34 280.50 587.77 259.58 607.38
  A 1.11 1.10 -56.9 0 1 258.46 607.62
  Q 249.06 604.39 238.32 603.07
  A 0.79 0.79 0.0 0 1 237.63 602.29
  L 237.63 572.26
  A 0.79 0.78 -4.3 0 1 238.30 571.49
  Q 272.44 566.56 298.19 542.95
  Q 302.42 539.07 306.24 534.41
  A 0.11 0.11 0.0 0 1 306.40 534.41
  L 322.46 551.04
  Z"
/>
<path fill="#fffaeb" d="
  M 483.37 613.27
  A 0.38 0.38 0.0 0 1 483.60 613.92
  Q 462.70 634.52 448.99 648.39
  C 441.22 656.24 433.26 665.31 424.86 673.64
  A 0.56 0.55 53.9 0 1 423.98 673.50
  Q 423.95 673.46 382.17 590.06
  Q 381.97 589.66 382.02 589.50
  A 0.38 0.38 0.0 0 1 382.55 589.24
  Q 401.54 597.82 422.67 603.09
  Q 452.04 610.42 483.37 613.27
  Z"
/>
<path fill="#fffaeb" d="
  M 656.10 589.96
  A 0.36 0.36 0.0 0 1 656.56 590.45
  L 614.96 673.60
  A 0.57 0.56 -53.6 0 1 614.05 673.74
  L 556.35 614.00
  A 0.57 0.57 0.0 0 1 556.71 613.03
  C 590.93 610.42 624.35 603.22 656.10 589.96
  Z"
/>
<path fill="#ffc321" d="
  M 261.80 735.91
  A 0.27 0.26 -83.9 0 1 262.11 736.30
  Q 257.59 744.33 251.33 751.09
  Q 228.73 775.52 198.25 789.82
  A 1.82 1.81 -32.6 0 1 196.08 789.35
  Q 180.78 771.09 171.71 749.82
  C 155.89 712.70 151.07 668.37 184.63 638.62
  Q 194.56 629.82 205.05 626.79
  Q 218.16 623.00 231.00 624.31
  C 243.44 625.57 256.63 628.56 265.62 636.08
  C 271.62 641.10 275.46 651.01 266.81 656.14
  C 260.89 659.65 252.78 660.63 246.25 661.00
  Q 237.18 661.51 227.05 661.44
  C 222.93 661.42 218.89 661.58 215.40 664.67
  C 212.04 667.65 211.97 673.61 214.14 677.08
  C 216.61 681.04 220.44 681.94 225.50 682.04
  Q 246.89 682.43 266.48 680.06
  C 270.02 679.63 273.99 678.64 277.20 678.11
  A 0.65 0.65 0.0 0 1 277.96 678.76
  C 277.70 704.33 254.50 718.57 232.25 723.27
  Q 229.89 723.76 220.03 725.26
  Q 216.78 725.75 214.66 729.20
  Q 211.87 733.74 214.93 738.20
  C 218.11 742.85 222.31 742.55 227.81 742.25
  Q 245.38 741.29 261.80 735.91
  Z"
/>
<path fill="#ffc321" d="
  M 647.34 762.49
  A 0.21 0.21 0.0 0 1 646.99 762.25
  Q 654.75 747.70 661.59 736.58
  Q 680.33 706.10 695.54 682.04
  Q 697.05 679.65 695.96 676.82
  C 691.42 665.05 687.76 658.07 679.21 640.76
  A 0.66 0.65 72.7 0 1 679.70 639.82
  L 726.66 633.09
  A 0.39 0.39 0.0 0 1 726.94 633.80
  Q 713.50 643.03 700.72 649.30
  A 1.22 1.22 0.0 0 0 700.14 650.86
  Q 705.90 664.48 710.12 674.71
  Q 711.15 677.20 709.99 679.21
  Q 705.03 687.83 700.96 693.70
  Q 674.69 731.67 647.34 762.49
  Z"
/>
<path fill="#fffaeb" d="
  M 564.45 649.37
  L 605.13 691.49
  A 0.48 0.48 0.0 0 1 605.22 692.03
  L 567.11 768.19
  A 0.48 0.48 0.0 0 1 566.21 768.10
  L 543.31 682.05
  A 0.48 0.48 0.0 0 1 543.37 681.67
  L 563.70 649.45
  A 0.48 0.48 0.0 0 1 564.45 649.37
  Z"
/>
<path fill="#fffaeb" d="
  M 433.15 691.42
  L 474.45 650.12
  A 0.38 0.38 0.0 0 1 475.04 650.19
  L 494.49 681.90
  A 0.38 0.38 0.0 0 1 494.53 682.19
  L 473.28 768.28
  A 0.38 0.38 0.0 0 1 472.58 768.36
  L 433.08 691.87
  A 0.38 0.38 0.0 0 1 433.15 691.42
  Z"
/>
<path fill="#ffc321" d="
  M 725.91 766.84
  Q 726.14 768.00 726.10 769.25
  Q 725.99 772.73 724.99 787.10
  Q 724.29 797.12 723.39 804.90
  Q 720.27 831.97 718.84 844.26
  A 1.41 1.41 0.0 0 0 719.80 845.77
  Q 742.47 853.25 764.13 860.61
  Q 770.46 862.76 775.52 865.24
  A 0.50 0.50 0.0 0 1 775.58 866.10
  C 768.95 870.47 762.90 870.74 754.00 870.77
  Q 728.14 870.85 702.45 871.09
  A 0.42 0.41 4.7 0 1 702.04 870.61
  Q 703.11 863.38 705.36 854.84
  Q 715.49 816.39 721.48 784.32
  Q 721.80 782.57 723.42 775.58
  Q 724.37 771.46 725.40 766.83
  A 0.26 0.26 0.0 0 1 725.91 766.84
  Z"
/>
</svg>
