<?xml version="1.0" encoding="UTF-8" standalone="no"?>
<!DOCTYPE svg PUBLIC "-//W3C//DTD SVG 1.1//EN" "http://www.w3.org/Graphics/SVG/1.1/DTD/svg11.dtd">
<svg xmlns="http://www.w3.org/2000/svg" version="1.1" viewBox="0.00 0.00 682.00 1024.00">
<g stroke-width="2.00" fill="none" stroke-linecap="butt">
<path stroke="#8a8b86" vector-effect="non-scaling-stroke" d="
  M 213.34 606.68
  Q 189.86 606.67 151.02 607.21
  Q 144.75 607.30 141.30 608.63
  C 126.91 614.20 120.95 626.66 124.32 641.58
  C 136.73 696.54 150.78 765.71 159.01 805.26
  Q 160.78 813.80 162.23 817.01
  Q 168.84 831.73 183.06 837.50
  C 189.16 839.98 195.31 840.05 202.50 840.05
  Q 344.43 839.98 475.72 840.05
  C 482.11 840.06 488.97 840.21 494.52 839.01
  C 502.64 837.26 509.17 833.39 516.23 828.74
  Q 543.65 810.71 570.11 793.28
  C 576.63 788.99 582.15 785.64 584.51 779.07
  C 589.35 765.61 579.05 753.87 565.20 753.14
  Q 559.89 752.86 559.25 752.85
  Q 530.11 752.80 496.14 752.83
  A 0.48 0.48 0.0 0 1 495.67 752.45
  L 480.53 681.05
  A 0.34 0.34 0.0 0 1 480.98 680.67
  Q 498.31 687.22 516.15 690.53
  Q 525.34 692.24 529.76 692.02
  C 537.06 691.65 541.55 684.37 538.33 677.86
  C 529.11 659.22 519.79 640.09 515.41 620.29
  Q 513.50 611.63 513.20 604.00
  A 0.23 0.23 0.0 0 1 513.61 603.84
  Q 520.38 611.82 526.28 616.22
  Q 535.33 622.96 543.14 614.89
  C 546.00 611.92 546.03 607.35 545.01 603.74
  C 543.46 598.30 543.45 596.65 542.31 591.01
  C 541.29 585.96 541.31 581.39 540.54 575.49
  Q 540.02 571.56 539.86 566.50
  C 539.15 544.46 539.52 524.33 540.57 505.81
  Q 541.47 489.87 540.79 480.89
  C 539.62 465.39 538.47 454.09 535.16 440.55
  Q 527.83 410.63 508.07 386.23
  A 0.86 0.85 -43.6 0 1 508.10 385.11
  Q 520.72 371.47 526.66 354.49
  C 534.00 333.50 533.00 310.57 525.24 289.61
  C 518.45 271.25 504.98 257.01 488.24 246.93
  A 0.44 0.43 41.0 0 1 488.19 246.22
  Q 505.92 231.78 512.47 210.25
  Q 516.67 196.45 517.38 189.95
  Q 518.82 176.81 518.83 176.68
  C 519.55 167.53 513.43 160.01 503.98 160.58
  Q 500.97 160.76 496.19 163.77
  C 474.96 177.08 452.28 187.81 428.18 194.50
  A 1.98 1.98 0.0 0 1 426.87 194.42
  C 407.00 185.86 385.87 179.34 364.47 177.13
  Q 316.91 172.21 272.23 187.97
  Q 264.27 190.78 257.15 193.67
  A 4.34 4.31 -48.4 0 1 254.42 193.84
  C 230.03 187.43 205.93 176.78 184.50 162.96
  Q 181.03 160.72 178.09 160.61
  Q 171.76 160.37 167.86 164.55
  C 163.41 169.32 163.85 174.06 164.44 180.52
  Q 165.85 195.97 171.13 211.14
  Q 178.37 231.93 195.55 245.23
  A 0.48 0.48 0.0 0 1 195.49 246.03
  C 177.68 255.93 161.85 272.94 155.94 292.84
  C 150.96 309.60 149.17 327.01 152.69 343.58
  Q 156.68 362.37 166.35 378.93
  Q 168.09 381.93 170.07 384.04
  A 2.46 2.45 23.1 0 1 170.74 385.70
  Q 170.84 391.21 168.20 396.21
  Q 148.67 433.19 148.22 473.79
  C 147.91 501.48 154.36 527.46 166.48 551.76
  C 175.71 570.29 189.31 585.91 205.52 599.74
  Q 208.35 602.15 213.48 606.29
  A 0.22 0.22 0.0 0 1 213.34 606.68"
/>
<path stroke="#8b741f" vector-effect="non-scaling-stroke" d="
  M 492.13 191.22
  Q 460.48 209.85 425.62 218.50
  A 3.79 3.75 -39.5 0 1 423.11 218.27
  C 408.04 211.39 392.06 205.37 376.63 202.02
  Q 361.07 198.65 344.18 198.38
  Q 303.31 197.75 265.05 216.05
  Q 261.65 217.67 260.06 218.45
  A 4.15 4.10 38.5 0 1 257.28 218.75
  Q 246.11 216.07 236.75 213.25
  Q 211.48 205.65 189.90 191.25
  A 0.37 0.37 0.0 0 0 189.34 191.63
  Q 194.79 219.12 216.75 236.46
  Q 218.72 238.02 220.05 237.74
  Q 229.53 235.75 233.01 235.34
  Q 238.30 234.72 248.50 234.96
  C 287.96 235.90 319.53 261.82 328.16 300.41
  A 0.63 0.62 83.6 0 0 328.77 300.90
  L 354.03 300.90
  A 0.80 0.80 0.0 0 0 354.81 300.28
  C 362.71 265.67 389.73 240.00 425.35 235.47
  Q 433.14 234.48 444.71 234.88
  Q 454.60 235.22 463.77 237.58
  A 2.21 2.21 0.0 0 0 465.58 237.25
  Q 489.38 220.61 492.59 191.51
  A 0.31 0.30 -12.2 0 0 492.13 191.22"
/>
<path stroke="#8a8980" vector-effect="non-scaling-stroke" d="
  M 302.38 295.08
  C 295.01 276.17 278.28 262.49 258.20 259.37
  Q 248.91 257.92 238.50 257.93
  C 222.17 257.95 206.83 265.40 194.91 275.92
  C 172.16 295.98 169.35 329.37 180.97 356.01
  Q 185.12 365.52 191.27 371.50
  Q 209.96 389.66 236.60 391.65
  C 266.70 393.90 292.48 376.80 303.00 348.77
  Q 312.96 322.23 302.38 295.08"
/>
<path stroke="#8a8980" vector-effect="non-scaling-stroke" d="
  M 493.19 368.96
  Q 506.90 351.98 507.85 329.20
  Q 509.35 293.17 481.82 270.43
  C 466.75 257.99 450.06 257.00 431.51 258.28
  Q 404.53 260.15 388.10 281.58
  Q 376.67 296.51 375.29 315.52
  Q 374.30 329.15 376.67 340.63
  C 381.02 361.66 395.00 378.81 414.98 387.17
  C 436.21 396.05 461.01 391.60 480.49 379.50
  Q 488.91 374.26 493.19 368.96"
/>
<path stroke="#8b741f" vector-effect="non-scaling-stroke" d="
  M 355.46 352.66
  Q 351.67 340.06 351.83 325.42
  A 0.63 0.62 90.0 0 0 351.21 324.79
  L 330.89 324.79
  A 0.54 0.54 0.0 0 0 330.35 325.35
  Q 330.63 338.41 326.83 351.38
  A 0.27 0.27 0.0 0 0 327.16 351.71
  C 332.98 349.96 338.95 348.56 344.94 349.83
  Q 350.33 350.97 355.15 352.94
  A 0.23 0.23 0.0 0 0 355.46 352.66"
/>
<path stroke="#8b741f" vector-effect="non-scaling-stroke" d="
  M 506.79 663.15
  Q 501.50 650.97 498.80 644.22
  Q 491.15 625.10 491.00 606.76
  Q 490.83 586.14 490.91 577.80
  A 9.62 9.59 -59.9 0 0 489.59 572.83
  Q 489.29 572.32 483.49 562.27
  Q 462.83 526.41 462.98 485.25
  Q 463.00 480.21 464.26 477.31
  C 467.87 468.97 479.38 468.60 483.19 476.88
  A 3.74 3.73 -59.5 0 1 483.52 478.16
  Q 483.95 483.52 486.23 500.35
  C 489.89 527.42 501.22 551.66 516.88 574.78
  A 0.28 0.28 0.0 0 0 517.39 574.60
  Q 517.11 571.08 516.32 565.00
  C 515.00 554.71 515.37 539.52 515.80 526.92
  C 516.29 512.97 517.34 500.25 517.43 486.50
  Q 517.58 463.91 511.61 441.86
  C 507.34 426.10 500.61 413.43 490.44 401.39
  A 1.12 1.10 54.8 0 0 489.05 401.14
  C 472.34 410.51 450.61 416.98 431.78 415.13
  Q 418.04 413.79 404.92 408.71
  C 391.24 403.41 379.93 393.26 370.31 381.77
  A 0.29 0.29 0.0 0 0 369.82 381.86
  Q 365.67 392.71 361.59 402.35
  C 357.82 411.29 347.18 430.35 334.76 421.09
  Q 328.13 416.15 324.07 407.12
  Q 317.74 393.05 313.87 380.33
  A 0.39 0.38 -34.5 0 0 313.20 380.21
  Q 291.18 408.89 254.70 414.64
  C 243.00 416.48 229.80 414.09 218.25 411.24
  Q 204.82 407.93 192.01 400.82
  A 0.93 0.93 0.0 0 0 190.77 401.15
  Q 181.32 416.76 176.44 434.42
  C 170.32 456.51 168.28 477.95 173.49 500.50
  C 179.10 524.77 188.69 549.10 204.28 567.70
  C 215.82 581.47 231.35 594.97 247.90 603.62
  A 1.58 1.58 0.0 0 0 249.60 603.47
  Q 252.20 601.48 255.17 599.93
  C 261.28 596.74 266.16 600.78 269.25 605.74
  A 0.55 0.55 0.0 0 0 270.11 605.84
  C 273.07 602.87 276.57 599.93 280.42 598.98
  C 287.74 597.17 292.60 600.97 297.37 605.90
  A 2.95 2.92 -22.0 0 0 299.47 606.78
  L 363.73 606.78
  A 2.21 2.20 18.2 0 0 365.50 605.89
  Q 369.14 601.02 375.15 599.05
  C 383.08 596.46 388.25 601.18 392.64 607.03
  A 0.41 0.41 0.0 0 0 393.28 607.04
  C 399.75 599.09 409.15 594.85 417.94 602.34
  Q 419.39 603.58 421.29 605.18
  A 2.75 2.73 -22.7 0 0 422.89 605.83
  C 432.55 606.47 441.80 606.68 449.79 609.77
  C 461.77 614.39 468.57 624.76 471.22 637.27
  Q 474.10 650.82 474.74 654.13
  A 2.94 2.94 0.0 0 0 476.94 656.43
  L 506.50 663.48
  A 0.25 0.24 -4.2 0 0 506.79 663.15"
/>
<path stroke="#8a8980" vector-effect="non-scaling-stroke" d="
  M 268.43 634.54
  C 267.18 639.84 263.62 644.51 257.71 644.92
  C 248.98 645.52 243.64 638.81 242.94 630.71
  A 0.71 0.70 87.3 0 0 242.24 630.07
  Q 170.55 630.01 156.53 630.02
  C 152.99 630.02 148.31 630.57 147.01 634.22
  Q 146.59 635.41 147.21 638.26
  Q 167.23 730.40 182.29 801.68
  Q 183.49 807.38 184.96 809.63
  C 188.66 815.25 193.45 816.92 200.57 816.98
  Q 202.85 817.00 211.75 816.99
  Q 471.78 816.95 476.89 817.01
  C 479.50 817.04 481.73 817.24 483.36 815.00
  A 1.87 1.83 -24.6 0 0 483.71 814.09
  C 484.15 809.68 482.30 804.80 481.30 799.96
  Q 480.40 795.63 463.39 714.44
  Q 458.35 690.40 455.18 676.28
  Q 450.83 656.94 446.80 638.17
  Q 445.15 630.54 437.45 630.37
  Q 429.86 630.19 420.22 630.27
  A 0.38 0.37 5.6 0 0 419.85 630.57
  C 418.36 637.74 415.31 645.20 406.54 644.90
  Q 396.79 644.57 393.46 634.33
  A 0.28 0.27 50.3 0 0 392.96 634.28
  C 390.01 639.69 387.02 644.34 380.61 644.96
  C 374.23 645.58 369.45 641.64 367.75 635.57
  Q 366.42 630.80 366.34 630.55
  A 0.78 0.77 80.5 0 0 365.61 630.02
  L 296.92 629.99
  A 1.12 1.12 0.0 0 0 295.82 630.89
  C 294.48 637.73 291.23 644.72 283.23 645.02
  C 277.28 645.24 272.27 642.24 270.17 636.70
  Q 269.33 634.51 269.05 634.31
  A 0.40 0.40 0.0 0 0 268.43 634.54"
/>
<path stroke="#8a8b86" vector-effect="non-scaling-stroke" d="
  M 556.35 775.40
  A 0.34 0.34 0.0 0 0 556.16 774.78
  L 500.51 774.78
  A 0.34 0.34 0.0 0 0 500.18 775.19
  L 506.98 807.30
  A 0.34 0.34 0.0 0 0 507.50 807.52
  L 556.35 775.40"
/>
<path stroke="#8a8980" vector-effect="non-scaling-stroke" d="
  M 285.96 325.82
  A 30.32 30.32 0.0 0 0 255.64 295.50
  A 30.32 30.32 0.0 0 0 225.32 325.82
  A 30.32 30.32 0.0 0 0 255.64 356.14
  A 30.32 30.32 0.0 0 0 285.96 325.82"
/>
<path stroke="#8a8980" vector-effect="non-scaling-stroke" d="
  M 458.02 325.82
  A 30.57 30.57 0.0 0 0 427.45 295.25
  A 30.57 30.57 0.0 0 0 396.88 325.82
  A 30.57 30.57 0.0 0 0 427.45 356.39
  A 30.57 30.57 0.0 0 0 458.02 325.82"
/>
</g>
<path fill="#fdfbf7" d="
  M 682.00 0.00
  L 682.00 1024.00
  L 0.00 1024.00
  L 0.00 0.00
  L 682.00 0.00
  Z
  M 213.34 606.68
  Q 189.86 606.67 151.02 607.21
  Q 144.75 607.30 141.30 608.63
  C 126.91 614.20 120.95 626.66 124.32 641.58
  C 136.73 696.54 150.78 765.71 159.01 805.26
  Q 160.78 813.80 162.23 817.01
  Q 168.84 831.73 183.06 837.50
  C 189.16 839.98 195.31 840.05 202.50 840.05
  Q 344.43 839.98 475.72 840.05
  C 482.11 840.06 488.97 840.21 494.52 839.01
  C 502.64 837.26 509.17 833.39 516.23 828.74
  Q 543.65 810.71 570.11 793.28
  C 576.63 788.99 582.15 785.64 584.51 779.07
  C 589.35 765.61 579.05 753.87 565.20 753.14
  Q 559.89 752.86 559.25 752.85
  Q 530.11 752.80 496.14 752.83
  A 0.48 0.48 0.0 0 1 495.67 752.45
  L 480.53 681.05
  A 0.34 0.34 0.0 0 1 480.98 680.67
  Q 498.31 687.22 516.15 690.53
  Q 525.34 692.24 529.76 692.02
  C 537.06 691.65 541.55 684.37 538.33 677.86
  C 529.11 659.22 519.79 640.09 515.41 620.29
  Q 513.50 611.63 513.20 604.00
  A 0.23 0.23 0.0 0 1 513.61 603.84
  Q 520.38 611.82 526.28 616.22
  Q 535.33 622.96 543.14 614.89
  C 546.00 611.92 546.03 607.35 545.01 603.74
  C 543.46 598.30 543.45 596.65 542.31 591.01
  C 541.29 585.96 541.31 581.39 540.54 575.49
  Q 540.02 571.56 539.86 566.50
  C 539.15 544.46 539.52 524.33 540.57 505.81
  Q 541.47 489.87 540.79 480.89
  C 539.62 465.39 538.47 454.09 535.16 440.55
  Q 527.83 410.63 508.07 386.23
  A 0.86 0.85 -43.6 0 1 508.10 385.11
  Q 520.72 371.47 526.66 354.49
  C 534.00 333.50 533.00 310.57 525.24 289.61
  C 518.45 271.25 504.98 257.01 488.24 246.93
  A 0.44 0.43 41.0 0 1 488.19 246.22
  Q 505.92 231.78 512.47 210.25
  Q 516.67 196.45 517.38 189.95
  Q 518.82 176.81 518.83 176.68
  C 519.55 167.53 513.43 160.01 503.98 160.58
  Q 500.97 160.76 496.19 163.77
  C 474.96 177.08 452.28 187.81 428.18 194.50
  A 1.98 1.98 0.0 0 1 426.87 194.42
  C 407.00 185.86 385.87 179.34 364.47 177.13
  Q 316.91 172.21 272.23 187.97
  Q 264.27 190.78 257.15 193.67
  A 4.34 4.31 -48.4 0 1 254.42 193.84
  C 230.03 187.43 205.93 176.78 184.50 162.96
  Q 181.03 160.72 178.09 160.61
  Q 171.76 160.37 167.86 164.55
  C 163.41 169.32 163.85 174.06 164.44 180.52
  Q 165.85 195.97 171.13 211.14
  Q 178.37 231.93 195.55 245.23
  A 0.48 0.48 0.0 0 1 195.49 246.03
  C 177.68 255.93 161.85 272.94 155.94 292.84
  C 150.96 309.60 149.17 327.01 152.69 343.58
  Q 156.68 362.37 166.35 378.93
  Q 168.09 381.93 170.07 384.04
  A 2.46 2.45 23.1 0 1 170.74 385.70
  Q 170.84 391.21 168.20 396.21
  Q 148.67 433.19 148.22 473.79
  C 147.91 501.48 154.36 527.46 166.48 551.76
  C 175.71 570.29 189.31 585.91 205.52 599.74
  Q 208.35 602.15 213.48 606.29
  A 0.22 0.22 0.0 0 1 213.34 606.68
  Z"
/>
<path fill="#171b15" d="
  M 213.48 606.29
  Q 208.35 602.15 205.52 599.74
  C 189.31 585.91 175.71 570.29 166.48 551.76
  C 154.36 527.46 147.91 501.48 148.22 473.79
  Q 148.67 433.19 168.20 396.21
  Q 170.84 391.21 170.74 385.70
  A 2.46 2.45 23.1 0 0 170.07 384.04
  Q 168.09 381.93 166.35 378.93
  Q 156.68 362.37 152.69 343.58
  C 149.17 327.01 150.96 309.60 155.94 292.84
  C 161.85 272.94 177.68 255.93 195.49 246.03
  A 0.48 0.48 0.0 0 0 195.55 245.23
  Q 178.37 231.93 171.13 211.14
  Q 165.85 195.97 164.44 180.52
  C 163.85 174.06 163.41 169.32 167.86 164.55
  Q 171.76 160.37 178.09 160.61
  Q 181.03 160.72 184.50 162.96
  C 205.93 176.78 230.03 187.43 254.42 193.84
  A 4.34 4.31 -48.4 0 0 257.15 193.67
  Q 264.27 190.78 272.23 187.97
  Q 316.91 172.21 364.47 177.13
  C 385.87 179.34 407.00 185.86 426.87 194.42
  A 1.98 1.98 0.0 0 0 428.18 194.50
  C 452.28 187.81 474.96 177.08 496.19 163.77
  Q 500.97 160.76 503.98 160.58
  C 513.43 160.01 519.55 167.53 518.83 176.68
  Q 518.82 176.81 517.38 189.95
  Q 516.67 196.45 512.47 210.25
  Q 505.92 231.78 488.19 246.22
  A 0.44 0.43 41.0 0 0 488.24 246.93
  C 504.98 257.01 518.45 271.25 525.24 289.61
  C 533.00 310.57 534.00 333.50 526.66 354.49
  Q 520.72 371.47 508.10 385.11
  A 0.86 0.85 -43.6 0 0 508.07 386.23
  Q 527.83 410.63 535.16 440.55
  C 538.47 454.09 539.62 465.39 540.79 480.89
  Q 541.47 489.87 540.57 505.81
  C 539.52 524.33 539.15 544.46 539.86 566.50
  Q 540.02 571.56 540.54 575.49
  C 541.31 581.39 541.29 585.96 542.31 591.01
  C 543.45 596.65 543.46 598.30 545.01 603.74
  C 546.03 607.35 546.00 611.92 543.14 614.89
  Q 535.33 622.96 526.28 616.22
  Q 520.38 611.82 513.61 603.84
  A 0.23 0.23 0.0 0 0 513.20 604.00
  Q 513.50 611.63 515.41 620.29
  C 519.79 640.09 529.11 659.22 538.33 677.86
  C 541.55 684.37 537.06 691.65 529.76 692.02
  Q 525.34 692.24 516.15 690.53
  Q 498.31 687.22 480.98 680.67
  A 0.34 0.34 0.0 0 0 480.53 681.05
  L 495.67 752.45
  A 0.48 0.48 0.0 0 0 496.14 752.83
  Q 530.11 752.80 559.25 752.85
  Q 559.89 752.86 565.20 753.14
  C 579.05 753.87 589.35 765.61 584.51 779.07
  C 582.15 785.64 576.63 788.99 570.11 793.28
  Q 543.65 810.71 516.23 828.74
  C 509.17 833.39 502.64 837.26 494.52 839.01
  C 488.97 840.21 482.11 840.06 475.72 840.05
  Q 344.43 839.98 202.50 840.05
  C 195.31 840.05 189.16 839.98 183.06 837.50
  Q 168.84 831.73 162.23 817.01
  Q 160.78 813.80 159.01 805.26
  C 150.78 765.71 136.73 696.54 124.32 641.58
  C 120.95 626.66 126.91 614.20 141.30 608.63
  Q 144.75 607.30 151.02 607.21
  Q 189.86 606.67 213.34 606.68
  A 0.22 0.22 0.0 0 0 213.48 606.29
  Z
  M 492.13 191.22
  Q 460.48 209.85 425.62 218.50
  A 3.79 3.75 -39.5 0 1 423.11 218.27
  C 408.04 211.39 392.06 205.37 376.63 202.02
  Q 361.07 198.65 344.18 198.38
  Q 303.31 197.75 265.05 216.05
  Q 261.65 217.67 260.06 218.45
  A 4.15 4.10 38.5 0 1 257.28 218.75
  Q 246.11 216.07 236.75 213.25
  Q 211.48 205.65 189.90 191.25
  A 0.37 0.37 0.0 0 0 189.34 191.63
  Q 194.79 219.12 216.75 236.46
  Q 218.72 238.02 220.05 237.74
  Q 229.53 235.75 233.01 235.34
  Q 238.30 234.72 248.50 234.96
  C 287.96 235.90 319.53 261.82 328.16 300.41
  A 0.63 0.62 83.6 0 0 328.77 300.90
  L 354.03 300.90
  A 0.80 0.80 0.0 0 0 354.81 300.28
  C 362.71 265.67 389.73 240.00 425.35 235.47
  Q 433.14 234.48 444.71 234.88
  Q 454.60 235.22 463.77 237.58
  A 2.21 2.21 0.0 0 0 465.58 237.25
  Q 489.38 220.61 492.59 191.51
  A 0.31 0.30 -12.2 0 0 492.13 191.22
  Z
  M 302.38 295.08
  C 295.01 276.17 278.28 262.49 258.20 259.37
  Q 248.91 257.92 238.50 257.93
  C 222.17 257.95 206.83 265.40 194.91 275.92
  C 172.16 295.98 169.35 329.37 180.97 356.01
  Q 185.12 365.52 191.27 371.50
  Q 209.96 389.66 236.60 391.65
  C 266.70 393.90 292.48 376.80 303.00 348.77
  Q 312.96 322.23 302.38 295.08
  Z
  M 493.19 368.96
  Q 506.90 351.98 507.85 329.20
  Q 509.35 293.17 481.82 270.43
  C 466.75 257.99 450.06 257.00 431.51 258.28
  Q 404.53 260.15 388.10 281.58
  Q 376.67 296.51 375.29 315.52
  Q 374.30 329.15 376.67 340.63
  C 381.02 361.66 395.00 378.81 414.98 387.17
  C 436.21 396.05 461.01 391.60 480.49 379.50
  Q 488.91 374.26 493.19 368.96
  Z
  M 355.46 352.66
  Q 351.67 340.06 351.83 325.42
  A 0.63 0.62 90.0 0 0 351.21 324.79
  L 330.89 324.79
  A 0.54 0.54 0.0 0 0 330.35 325.35
  Q 330.63 338.41 326.83 351.38
  A 0.27 0.27 0.0 0 0 327.16 351.71
  C 332.98 349.96 338.95 348.56 344.94 349.83
  Q 350.33 350.97 355.15 352.94
  A 0.23 0.23 0.0 0 0 355.46 352.66
  Z
  M 506.79 663.15
  Q 501.50 650.97 498.80 644.22
  Q 491.15 625.10 491.00 606.76
  Q 490.83 586.14 490.91 577.80
  A 9.62 9.59 -59.9 0 0 489.59 572.83
  Q 489.29 572.32 483.49 562.27
  Q 462.83 526.41 462.98 485.25
  Q 463.00 480.21 464.26 477.31
  C 467.87 468.97 479.38 468.60 483.19 476.88
  A 3.74 3.73 -59.5 0 1 483.52 478.16
  Q 483.95 483.52 486.23 500.35
  C 489.89 527.42 501.22 551.66 516.88 574.78
  A 0.28 0.28 0.0 0 0 517.39 574.60
  Q 517.11 571.08 516.32 565.00
  C 515.00 554.71 515.37 539.52 515.80 526.92
  C 516.29 512.97 517.34 500.25 517.43 486.50
  Q 517.58 463.91 511.61 441.86
  C 507.34 426.10 500.61 413.43 490.44 401.39
  A 1.12 1.10 54.8 0 0 489.05 401.14
  C 472.34 410.51 450.61 416.98 431.78 415.13
  Q 418.04 413.79 404.92 408.71
  C 391.24 403.41 379.93 393.26 370.31 381.77
  A 0.29 0.29 0.0 0 0 369.82 381.86
  Q 365.67 392.71 361.59 402.35
  C 357.82 411.29 347.18 430.35 334.76 421.09
  Q 328.13 416.15 324.07 407.12
  Q 317.74 393.05 313.87 380.33
  A 0.39 0.38 -34.5 0 0 313.20 380.21
  Q 291.18 408.89 254.70 414.64
  C 243.00 416.48 229.80 414.09 218.25 411.24
  Q 204.82 407.93 192.01 400.82
  A 0.93 0.93 0.0 0 0 190.77 401.15
  Q 181.32 416.76 176.44 434.42
  C 170.32 456.51 168.28 477.95 173.49 500.50
  C 179.10 524.77 188.69 549.10 204.28 567.70
  C 215.82 581.47 231.35 594.97 247.90 603.62
  A 1.58 1.58 0.0 0 0 249.60 603.47
  Q 252.20 601.48 255.17 599.93
  C 261.28 596.74 266.16 600.78 269.25 605.74
  A 0.55 0.55 0.0 0 0 270.11 605.84
  C 273.07 602.87 276.57 599.93 280.42 598.98
  C 287.74 597.17 292.60 600.97 297.37 605.90
  A 2.95 2.92 -22.0 0 0 299.47 606.78
  L 363.73 606.78
  A 2.21 2.20 18.2 0 0 365.50 605.89
  Q 369.14 601.02 375.15 599.05
  C 383.08 596.46 388.25 601.18 392.64 607.03
  A 0.41 0.41 0.0 0 0 393.28 607.04
  C 399.75 599.09 409.15 594.85 417.94 602.34
  Q 419.39 603.58 421.29 605.18
  A 2.75 2.73 -22.7 0 0 422.89 605.83
  C 432.55 606.47 441.80 606.68 449.79 609.77
  C 461.77 614.39 468.57 624.76 471.22 637.27
  Q 474.10 650.82 474.74 654.13
  A 2.94 2.94 0.0 0 0 476.94 656.43
  L 506.50 663.48
  A 0.25 0.24 -4.2 0 0 506.79 663.15
  Z
  M 268.43 634.54
  C 267.18 639.84 263.62 644.51 257.71 644.92
  C 248.98 645.52 243.64 638.81 242.94 630.71
  A 0.71 0.70 87.3 0 0 242.24 630.07
  Q 170.55 630.01 156.53 630.02
  C 152.99 630.02 148.31 630.57 147.01 634.22
  Q 146.59 635.41 147.21 638.26
  Q 167.23 730.40 182.29 801.68
  Q 183.49 807.38 184.96 809.63
  C 188.66 815.25 193.45 816.92 200.57 816.98
  Q 202.85 817.00 211.75 816.99
  Q 471.78 816.95 476.89 817.01
  C 479.50 817.04 481.73 817.24 483.36 815.00
  A 1.87 1.83 -24.6 0 0 483.71 814.09
  C 484.15 809.68 482.30 804.80 481.30 799.96
  Q 480.40 795.63 463.39 714.44
  Q 458.35 690.40 455.18 676.28
  Q 450.83 656.94 446.80 638.17
  Q 445.15 630.54 437.45 630.37
  Q 429.86 630.19 420.22 630.27
  A 0.38 0.37 5.6 0 0 419.85 630.57
  C 418.36 637.74 415.31 645.20 406.54 644.90
  Q 396.79 644.57 393.46 634.33
  A 0.28 0.27 50.3 0 0 392.96 634.28
  C 390.01 639.69 387.02 644.34 380.61 644.96
  C 374.23 645.58 369.45 641.64 367.75 635.57
  Q 366.42 630.80 366.34 630.55
  A 0.78 0.77 80.5 0 0 365.61 630.02
  L 296.92 629.99
  A 1.12 1.12 0.0 0 0 295.82 630.89
  C 294.48 637.73 291.23 644.72 283.23 645.02
  C 277.28 645.24 272.27 642.24 270.17 636.70
  Q 269.33 634.51 269.05 634.31
  A 0.40 0.40 0.0 0 0 268.43 634.54
  Z
  M 556.35 775.40
  A 0.34 0.34 0.0 0 0 556.16 774.78
  L 500.51 774.78
  A 0.34 0.34 0.0 0 0 500.18 775.19
  L 506.98 807.30
  A 0.34 0.34 0.0 0 0 507.50 807.52
  L 556.35 775.40
  Z"
/>
<path fill="#ffcd28" d="
  M 492.13 191.22
  A 0.31 0.30 -12.2 0 1 492.59 191.51
  Q 489.38 220.61 465.58 237.25
  A 2.21 2.21 0.0 0 1 463.77 237.58
  Q 454.60 235.22 444.71 234.88
  Q 433.14 234.48 425.35 235.47
  C 389.73 240.00 362.71 265.67 354.81 300.28
  A 0.80 0.80 0.0 0 1 354.03 300.90
  L 328.77 300.90
  A 0.63 0.62 83.6 0 1 328.16 300.41
  C 319.53 261.82 287.96 235.90 248.50 234.96
  Q 238.30 234.72 233.01 235.34
  Q 229.53 235.75 220.05 237.74
  Q 218.72 238.02 216.75 236.46
  Q 194.79 219.12 189.34 191.63
  A 0.37 0.37 0.0 0 1 189.90 191.25
  Q 211.48 205.65 236.75 213.25
  Q 246.11 216.07 257.28 218.75
  A 4.15 4.10 38.5 0 0 260.06 218.45
  Q 261.65 217.67 265.05 216.05
  Q 303.31 197.75 344.18 198.38
  Q 361.07 198.65 376.63 202.02
  C 392.06 205.37 408.04 211.39 423.11 218.27
  A 3.79 3.75 -39.5 0 0 425.62 218.50
  Q 460.48 209.85 492.13 191.22
  Z"
/>
<path fill="#fdf7eb" d="
  M 258.20 259.37
  C 278.28 262.49 295.01 276.17 302.38 295.08
  Q 312.96 322.23 303.00 348.77
  C 292.48 376.80 266.70 393.90 236.60 391.65
  Q 209.96 389.66 191.27 371.50
  Q 185.12 365.52 180.97 356.01
  C 169.35 329.37 172.16 295.98 194.91 275.92
  C 206.83 265.40 222.17 257.95 238.50 257.93
  Q 248.91 257.92 258.20 259.37
  Z
  M 285.96 325.82
  A 30.32 30.32 0.0 0 0 255.64 295.50
  A 30.32 30.32 0.0 0 0 225.32 325.82
  A 30.32 30.32 0.0 0 0 255.64 356.14
  A 30.32 30.32 0.0 0 0 285.96 325.82
  Z"
/>
<path fill="#fdf7eb" d="
  M 493.19 368.96
  Q 488.91 374.26 480.49 379.50
  C 461.01 391.60 436.21 396.05 414.98 387.17
  C 395.00 378.81 381.02 361.66 376.67 340.63
  Q 374.30 329.15 375.29 315.52
  Q 376.67 296.51 388.10 281.58
  Q 404.53 260.15 431.51 258.28
  C 450.06 257.00 466.75 257.99 481.82 270.43
  Q 509.35 293.17 507.85 329.20
  Q 506.90 351.98 493.19 368.96
  Z
  M 458.02 325.82
  A 30.57 30.57 0.0 0 0 427.45 295.25
  A 30.57 30.57 0.0 0 0 396.88 325.82
  A 30.57 30.57 0.0 0 0 427.45 356.39
  A 30.57 30.57 0.0 0 0 458.02 325.82
  Z"
/>
<circle fill="#171b15" cx="255.64" cy="325.82" r="30.32"/>
<circle fill="#171b15" cx="427.45" cy="325.82" r="30.57"/>
<path fill="#ffcd28" d="
  M 355.46 352.66
  A 0.23 0.23 0.0 0 1 355.15 352.94
  Q 350.33 350.97 344.94 349.83
  C 338.95 348.56 332.98 349.96 327.16 351.71
  A 0.27 0.27 0.0 0 1 326.83 351.38
  Q 330.63 338.41 330.35 325.35
  A 0.54 0.54 0.0 0 1 330.89 324.79
  L 351.21 324.79
  A 0.63 0.62 -90.0 0 1 351.83 325.42
  Q 351.67 340.06 355.46 352.66
  Z"
/>
<path fill="#ffcd28" d="
  M 506.79 663.15
  A 0.25 0.24 -4.2 0 1 506.50 663.48
  L 476.94 656.43
  A 2.94 2.94 0.0 0 1 474.74 654.13
  Q 474.10 650.82 471.22 637.27
  C 468.57 624.76 461.77 614.39 449.79 609.77
  C 441.80 606.68 432.55 606.47 422.89 605.83
  A 2.75 2.73 -22.7 0 1 421.29 605.18
  Q 419.39 603.58 417.94 602.34
  C 409.15 594.85 399.75 599.09 393.28 607.04
  A 0.41 0.41 0.0 0 1 392.64 607.03
  C 388.25 601.18 383.08 596.46 375.15 599.05
  Q 369.14 601.02 365.50 605.89
  A 2.21 2.20 18.2 0 1 363.73 606.78
  L 299.47 606.78
  A 2.95 2.92 -22.0 0 1 297.37 605.90
  C 292.60 600.97 287.74 597.17 280.42 598.98
  C 276.57 599.93 273.07 602.87 270.11 605.84
  A 0.55 0.55 0.0 0 1 269.25 605.74
  C 266.16 600.78 261.28 596.74 255.17 599.93
  Q 252.20 601.48 249.60 603.47
  A 1.58 1.58 0.0 0 1 247.90 603.62
  C 231.35 594.97 215.82 581.47 204.28 567.70
  C 188.69 549.10 179.10 524.77 173.49 500.50
  C 168.28 477.95 170.32 456.51 176.44 434.42
  Q 181.32 416.76 190.77 401.15
  A 0.93 0.93 0.0 0 1 192.01 400.82
  Q 204.82 407.93 218.25 411.24
  C 229.80 414.09 243.00 416.48 254.70 414.64
  Q 291.18 408.89 313.20 380.21
  A 0.39 0.38 -34.5 0 1 313.87 380.33
  Q 317.74 393.05 324.07 407.12
  Q 328.13 416.15 334.76 421.09
  C 347.18 430.35 357.82 411.29 361.59 402.35
  Q 365.67 392.71 369.82 381.86
  A 0.29 0.29 0.0 0 1 370.31 381.77
  C 379.93 393.26 391.24 403.41 404.92 408.71
  Q 418.04 413.79 431.78 415.13
  C 450.61 416.98 472.34 410.51 489.05 401.14
  A 1.12 1.10 54.8 0 1 490.44 401.39
  C 500.61 413.43 507.34 426.10 511.61 441.86
  Q 517.58 463.91 517.43 486.50
  C 517.34 500.25 516.29 512.97 515.80 526.92
  C 515.37 539.52 515.00 554.71 516.32 565.00
  Q 517.11 571.08 517.39 574.60
  A 0.28 0.28 0.0 0 1 516.88 574.78
  C 501.22 551.66 489.89 527.42 486.23 500.35
  Q 483.95 483.52 483.52 478.16
  A 3.74 3.73 -59.5 0 0 483.19 476.88
  C 479.38 468.60 467.87 468.97 464.26 477.31
  Q 463.00 480.21 462.98 485.25
  Q 462.83 526.41 483.49 562.27
  Q 489.29 572.32 489.59 572.83
  A 9.62 9.59 -59.9 0 1 490.91 577.80
  Q 490.83 586.14 491.00 606.76
  Q 491.15 625.10 498.80 644.22
  Q 501.50 650.97 506.79 663.15
  Z"
/>
<path fill="#fdf7eb" d="
  M 269.05 634.31
  Q 269.33 634.51 270.17 636.70
  C 272.27 642.24 277.28 645.24 283.23 645.02
  C 291.23 644.72 294.48 637.73 295.82 630.89
  A 1.12 1.12 0.0 0 1 296.92 629.99
  L 365.61 630.02
  A 0.78 0.77 80.5 0 1 366.34 630.55
  Q 366.42 630.80 367.75 635.57
  C 369.45 641.64 374.23 645.58 380.61 644.96
  C 387.02 644.34 390.01 639.69 392.96 634.28
  A 0.28 0.27 50.3 0 1 393.46 634.33
  Q 396.79 644.57 406.54 644.90
  C 415.31 645.20 418.36 637.74 419.85 630.57
  A 0.38 0.37 5.6 0 1 420.22 630.27
  Q 429.86 630.19 437.45 630.37
  Q 445.15 630.54 446.80 638.17
  Q 450.83 656.94 455.18 676.28
  Q 458.35 690.40 463.39 714.44
  Q 480.40 795.63 481.30 799.96
  C 482.30 804.80 484.15 809.68 483.71 814.09
  A 1.87 1.83 -24.6 0 1 483.36 815.00
  C 481.73 817.24 479.50 817.04 476.89 817.01
  Q 471.78 816.95 211.75 816.99
  Q 202.85 817.00 200.57 816.98
  C 193.45 816.92 188.66 815.25 184.96 809.63
  Q 183.49 807.38 182.29 801.68
  Q 167.23 730.40 147.21 638.26
  Q 146.59 635.41 147.01 634.22
  C 148.31 630.57 152.99 630.02 156.53 630.02
  Q 170.55 630.01 242.24 630.07
  A 0.71 0.70 87.3 0 1 242.94 630.71
  C 243.64 638.81 248.98 645.52 257.71 644.92
  C 263.62 644.51 267.18 639.84 268.43 634.54
  A 0.40 0.40 0.0 0 1 269.05 634.31
  Z"
/>
<path fill="#fdfbf7" d="
  M 556.35 775.40
  L 507.50 807.52
  A 0.34 0.34 0.0 0 1 506.98 807.30
  L 500.18 775.19
  A 0.34 0.34 0.0 0 1 500.51 774.78
  L 556.16 774.78
  A 0.34 0.34 0.0 0 1 556.35 775.40
  Z"
/>
</svg>
