<?xml version="1.0" encoding="UTF-8" standalone="no"?>
<!DOCTYPE svg PUBLIC "-//W3C//DTD SVG 1.1//EN" "http://www.w3.org/Graphics/SVG/1.1/DTD/svg11.dtd">
<svg xmlns="http://www.w3.org/2000/svg" version="1.1" viewBox="0.00 0.00 1024.00 1024.00">
<g stroke-width="2.00" fill="none" stroke-linecap="butt">
<path stroke="#7e7f7e" vector-effect="non-scaling-stroke" d="
  M 435.22 869.31
  Q 432.73 871.97 428.52 876.25
  C 418.27 886.65 411.36 900.43 412.43 915.29
  C 413.22 926.30 419.15 931.03 430.04 930.42
  C 436.12 930.08 440.33 927.22 443.24 922.15
  C 444.98 919.13 445.20 913.64 446.94 910.69
  C 457.42 892.97 476.39 886.81 495.99 886.59
  A 0.32 0.32 0.0 0 1 496.26 887.10
  C 488.43 897.88 483.04 913.54 486.83 926.66
  C 489.32 935.32 498.12 937.58 505.98 935.76
  Q 516.00 933.44 518.07 923.96
  Q 518.07 923.95 518.53 920.61
  Q 519.05 916.85 520.61 913.87
  Q 528.59 898.54 543.50 890.90
  C 559.65 882.61 577.82 884.10 595.07 887.68
  C 616.38 892.11 639.92 899.36 657.54 903.93
  C 682.34 910.36 708.36 914.95 734.25 916.26
  Q 739.10 916.51 744.41 915.17
  C 749.54 913.87 750.03 909.09 747.23 905.28
  C 736.26 890.32 730.33 875.90 729.94 857.49
  Q 729.14 819.61 739.10 782.90
  Q 740.34 778.32 744.70 765.23
  Q 747.38 757.19 750.28 747.54
  Q 752.90 738.80 760.98 718.72
  C 776.29 680.66 788.41 651.36 795.31 616.04
  C 800.66 588.71 801.37 561.29 799.57 532.25
  Q 797.95 506.11 790.17 478.81
  Q 782.21 450.91 771.58 428.85
  A 1.70 1.68 -49.4 0 1 771.49 427.61
  Q 772.35 424.81 775.76 414.31
  Q 789.52 371.89 782.23 328.77
  Q 779.73 313.97 777.12 302.13
  C 772.16 279.70 760.72 260.14 746.02 242.25
  Q 735.46 229.41 731.02 224.47
  A 0.49 0.49 0.0 0 1 731.11 223.73
  Q 741.37 216.91 748.44 210.43
  Q 757.98 201.70 767.90 190.91
  C 775.28 182.89 779.20 172.48 783.39 160.41
  Q 785.45 154.45 787.74 146.22
  Q 796.50 114.71 786.51 83.50
  Q 785.39 80.00 783.37 77.66
  C 781.52 75.51 778.28 76.73 777.04 78.78
  C 772.09 86.95 765.40 95.73 757.65 103.55
  C 746.33 114.99 732.81 126.30 719.24 134.28
  Q 686.04 153.82 647.65 160.23
  A 2.79 2.76 53.0 0 1 646.00 159.99
  Q 639.76 156.99 631.69 153.34
  Q 588.36 133.73 540.88 129.46
  Q 456.18 121.83 380.59 158.85
  A 4.06 4.02 35.3 0 1 378.31 159.23
  Q 319.24 151.55 275.42 112.36
  Q 258.66 97.37 246.65 78.88
  Q 245.28 76.76 242.62 76.83
  Q 240.64 76.89 239.15 79.63
  Q 237.70 82.29 237.22 83.99
  Q 233.16 98.23 232.39 112.34
  C 231.52 128.12 234.91 146.99 240.38 162.11
  Q 243.88 171.77 251.11 183.84
  C 254.51 189.51 259.36 194.94 263.96 199.54
  C 272.59 208.18 281.18 216.40 291.08 223.03
  A 0.49 0.49 0.0 0 1 291.19 223.75
  Q 277.99 240.22 267.43 256.44
  Q 256.99 272.48 250.84 291.37
  Q 240.90 321.95 240.19 352.78
  Q 239.48 384.09 248.30 414.45
  Q 250.30 421.33 253.22 427.28
  A 1.47 1.46 -47.0 0 1 253.26 428.50
  Q 242.89 453.33 235.38 479.36
  C 217.48 541.44 220.48 607.18 245.29 666.80
  Q 265.27 714.85 297.23 755.31
  Q 339.21 808.44 396.76 843.80
  A 0.50 0.49 -44.7 0 1 396.75 844.64
  C 382.99 853.05 369.92 863.45 360.31 876.23
  Q 351.29 888.23 349.59 902.52
  C 348.54 911.36 349.12 922.26 360.05 924.43
  C 367.50 925.92 373.78 925.18 378.53 918.77
  C 380.46 916.15 380.83 911.68 382.12 909.12
  Q 385.72 901.97 392.49 895.73
  Q 406.98 882.41 425.34 873.61
  Q 430.96 870.92 435.02 869.03
  A 0.18 0.17 9.6 0 1 435.22 869.31"
/>
<path stroke="#81660d" vector-effect="non-scaling-stroke" d="
  M 343.89 236.28
  C 303.22 260.91 279.92 300.44 281.36 348.53
  C 282.62 390.77 305.38 428.03 342.83 447.17
  Q 356.32 454.06 374.30 457.48
  Q 396.55 461.70 416.88 455.91
  Q 448.16 447.01 470.92 423.58
  A 4.93 4.91 72.3 0 0 472.21 421.07
  Q 473.68 413.25 475.62 405.61
  Q 481.74 381.65 495.63 361.07
  A 2.39 2.35 56.3 0 0 495.98 359.25
  Q 485.18 308.51 446.62 276.89
  C 417.30 252.85 381.25 245.19 345.24 236.08
  A 1.79 1.77 36.2 0 0 343.89 236.28"
/>
<path stroke="#81660d" vector-effect="non-scaling-stroke" d="
  M 527.64 359.20
  A 2.07 2.06 35.5 0 0 527.93 360.91
  Q 543.47 383.62 549.26 410.74
  Q 550.27 415.47 550.98 419.15
  C 551.47 421.67 552.26 422.94 553.98 424.55
  C 576.48 445.65 603.22 460.49 634.61 459.12
  C 671.06 457.54 703.32 438.57 723.76 407.87
  C 738.12 386.29 744.48 358.33 741.99 332.77
  Q 737.99 291.58 709.44 262.03
  Q 694.58 246.63 676.77 236.50
  A 2.56 2.55 -37.0 0 0 674.88 236.24
  Q 654.77 241.31 637.77 246.29
  Q 622.94 250.63 614.03 254.32
  Q 553.63 279.30 532.98 341.53
  Q 530.20 349.92 527.64 359.20"
/>
<path stroke="#81660d" vector-effect="non-scaling-stroke" d="
  M 678.27 866.46
  A 0.16 0.16 0.0 0 0 678.43 866.21
  C 663.45 843.54 650.37 825.38 638.97 803.96
  Q 593.93 719.34 604.15 621.90
  Q 606.49 599.52 611.99 577.74
  Q 623.63 531.55 652.45 493.93
  A 0.43 0.43 0.0 0 0 652.02 493.25
  Q 647.05 494.34 640.95 494.79
  Q 602.43 497.60 569.74 478.52
  Q 556.32 470.68 543.29 459.66
  A 0.47 0.47 0.0 0 0 542.54 459.86
  Q 541.81 461.90 540.50 464.52
  Q 532.03 481.41 523.94 495.44
  Q 520.21 501.90 517.42 505.16
  C 509.88 513.99 503.22 501.27 500.23 496.03
  Q 490.64 479.23 481.18 459.83
  A 0.46 0.46 0.0 0 0 480.44 459.70
  C 470.72 469.05 459.91 475.80 447.54 482.01
  Q 421.28 495.20 390.77 495.34
  Q 382.18 495.38 374.01 494.05
  A 0.50 0.50 0.0 0 0 373.50 494.80
  Q 391.91 525.55 399.27 560.50
  C 407.01 597.20 406.51 634.20 402.34 671.86
  Q 400.04 692.67 398.05 705.27
  Q 393.02 737.11 392.10 745.53
  Q 390.21 762.76 390.53 772.25
  Q 390.66 776.29 392.13 780.37
  C 394.88 788.04 399.38 797.26 405.71 801.86
  Q 424.23 815.30 446.41 825.17
  Q 488.20 843.76 534.34 851.01
  A 2.00 1.97 36.3 0 0 535.52 850.84
  Q 548.32 844.56 562.95 843.88
  Q 580.30 843.07 597.01 846.74
  Q 612.92 850.22 638.70 857.31
  Q 659.05 862.90 678.27 866.46"
/>
<path stroke="#81660d" vector-effect="non-scaling-stroke" d="
  M 350.68 755.56
  Q 358.06 718.97 362.55 689.62
  Q 366.94 660.94 367.59 641.46
  C 368.64 609.97 367.49 579.16 358.36 549.37
  C 353.85 534.65 347.75 522.79 338.78 511.22
  Q 329.84 499.68 324.97 494.76
  C 312.84 482.52 298.09 470.81 284.41 460.04
  A 0.29 0.28 28.3 0 0 283.97 460.17
  C 277.29 478.03 270.17 498.39 266.79 516.50
  Q 260.78 548.61 264.24 579.79
  C 269.94 631.15 290.41 680.13 321.83 721.67
  Q 335.07 739.18 350.30 755.67
  A 0.22 0.22 0.0 0 0 350.68 755.56"
/>
<path stroke="#81660d" vector-effect="non-scaling-stroke" d="
  M 691.75 819.13
  Q 693.36 801.09 696.53 785.80
  Q 698.54 776.06 703.67 761.32
  Q 716.88 723.38 716.81 723.31
  Q 716.53 723.04 720.57 713.32
  Q 736.46 675.01 748.01 637.61
  Q 761.23 594.78 759.91 545.52
  Q 759.36 524.90 755.68 508.76
  Q 750.85 487.60 743.01 464.71
  A 0.22 0.22 0.0 0 0 742.66 464.61
  Q 725.80 477.83 706.47 493.72
  Q 688.33 508.62 675.65 527.14
  Q 663.78 544.48 654.29 567.38
  C 631.95 621.31 630.53 682.36 649.37 737.62
  Q 654.22 751.84 658.41 761.36
  Q 667.69 782.43 680.67 803.89
  C 683.82 809.11 687.25 813.71 691.29 819.26
  A 0.26 0.25 -60.6 0 0 691.75 819.13"
/>
<path stroke="#81660d" vector-effect="non-scaling-stroke" d="
  M 399.6101 290.0853
  A 57.44 56.46 -79.0 0 0 333.2273 335.6969
  A 57.44 56.46 -79.0 0 0 377.6899 402.8547
  A 57.44 56.46 -79.0 0 0 444.0727 357.2431
  A 57.44 56.46 -79.0 0 0 399.6101 290.0853"
/>
<path stroke="#81660d" vector-effect="non-scaling-stroke" d="
  M 632.8848 288.9563
  A 57.44 56.46 -92.3 0 0 578.7755 348.6158
  A 57.44 56.46 -92.3 0 0 637.4952 403.7437
  A 57.44 56.46 -92.3 0 0 691.6045 344.0842
  A 57.44 56.46 -92.3 0 0 632.8848 288.9563"
/>
<path stroke="#81660d" vector-effect="non-scaling-stroke" d="
  M 394.81 361.64
  C 414.12 364.14 418.39 327.23 399.58 324.79
  C 380.77 322.36 375.49 359.14 394.81 361.64"
/>
<path stroke="#81660d" vector-effect="non-scaling-stroke" d="
  M 629.36 361.21
  C 650.68 359.50 644.93 323.29 626.44 324.78
  C 607.94 326.26 608.04 362.92 629.36 361.21"
/>
</g>
<path fill="#faf9f8" d="
  M 1024.00 0.00
  L 1024.00 1024.00
  L 0.00 1024.00
  L 0.00 0.00
  L 1024.00 0.00
  Z
  M 435.22 869.31
  Q 432.73 871.97 428.52 876.25
  C 418.27 886.65 411.36 900.43 412.43 915.29
  C 413.22 926.30 419.15 931.03 430.04 930.42
  C 436.12 930.08 440.33 927.22 443.24 922.15
  C 444.98 919.13 445.20 913.64 446.94 910.69
  C 457.42 892.97 476.39 886.81 495.99 886.59
  A 0.32 0.32 0.0 0 1 496.26 887.10
  C 488.43 897.88 483.04 913.54 486.83 926.66
  C 489.32 935.32 498.12 937.58 505.98 935.76
  Q 516.00 933.44 518.07 923.96
  Q 518.07 923.95 518.53 920.61
  Q 519.05 916.85 520.61 913.87
  Q 528.59 898.54 543.50 890.90
  C 559.65 882.61 577.82 884.10 595.07 887.68
  C 616.38 892.11 639.92 899.36 657.54 903.93
  C 682.34 910.36 708.36 914.95 734.25 916.26
  Q 739.10 916.51 744.41 915.17
  C 749.54 913.87 750.03 909.09 747.23 905.28
  C 736.26 890.32 730.33 875.90 729.94 857.49
  Q 729.14 819.61 739.10 782.90
  Q 740.34 778.32 744.70 765.23
  Q 747.38 757.19 750.28 747.54
  Q 752.90 738.80 760.98 718.72
  C 776.29 680.66 788.41 651.36 795.31 616.04
  C 800.66 588.71 801.37 561.29 799.57 532.25
  Q 797.95 506.11 790.17 478.81
  Q 782.21 450.91 771.58 428.85
  A 1.70 1.68 -49.4 0 1 771.49 427.61
  Q 772.35 424.81 775.76 414.31
  Q 789.52 371.89 782.23 328.77
  Q 779.73 313.97 777.12 302.13
  C 772.16 279.70 760.72 260.14 746.02 242.25
  Q 735.46 229.41 731.02 224.47
  A 0.49 0.49 0.0 0 1 731.11 223.73
  Q 741.37 216.91 748.44 210.43
  Q 757.98 201.70 767.90 190.91
  C 775.28 182.89 779.20 172.48 783.39 160.41
  Q 785.45 154.45 787.74 146.22
  Q 796.50 114.71 786.51 83.50
  Q 785.39 80.00 783.37 77.66
  C 781.52 75.51 778.28 76.73 777.04 78.78
  C 772.09 86.95 765.40 95.73 757.65 103.55
  C 746.33 114.99 732.81 126.30 719.24 134.28
  Q 686.04 153.82 647.65 160.23
  A 2.79 2.76 53.0 0 1 646.00 159.99
  Q 639.76 156.99 631.69 153.34
  Q 588.36 133.73 540.88 129.46
  Q 456.18 121.83 380.59 158.85
  A 4.06 4.02 35.3 0 1 378.31 159.23
  Q 319.24 151.55 275.42 112.36
  Q 258.66 97.37 246.65 78.88
  Q 245.28 76.76 242.62 76.83
  Q 240.64 76.89 239.15 79.63
  Q 237.70 82.29 237.22 83.99
  Q 233.16 98.23 232.39 112.34
  C 231.52 128.12 234.91 146.99 240.38 162.11
  Q 243.88 171.77 251.11 183.84
  C 254.51 189.51 259.36 194.94 263.96 199.54
  C 272.59 208.18 281.18 216.40 291.08 223.03
  A 0.49 0.49 0.0 0 1 291.19 223.75
  Q 277.99 240.22 267.43 256.44
  Q 256.99 272.48 250.84 291.37
  Q 240.90 321.95 240.19 352.78
  Q 239.48 384.09 248.30 414.45
  Q 250.30 421.33 253.22 427.28
  A 1.47 1.46 -47.0 0 1 253.26 428.50
  Q 242.89 453.33 235.38 479.36
  C 217.48 541.44 220.48 607.18 245.29 666.80
  Q 265.27 714.85 297.23 755.31
  Q 339.21 808.44 396.76 843.80
  A 0.50 0.49 -44.7 0 1 396.75 844.64
  C 382.99 853.05 369.92 863.45 360.31 876.23
  Q 351.29 888.23 349.59 902.52
  C 348.54 911.36 349.12 922.26 360.05 924.43
  C 367.50 925.92 373.78 925.18 378.53 918.77
  C 380.46 916.15 380.83 911.68 382.12 909.12
  Q 385.72 901.97 392.49 895.73
  Q 406.98 882.41 425.34 873.61
  Q 430.96 870.92 435.02 869.03
  A 0.18 0.17 9.6 0 1 435.22 869.31
  Z"
/>
<path fill="#020504" d="
  M 435.22 869.31
  A 0.18 0.17 9.6 0 0 435.02 869.03
  Q 430.96 870.92 425.34 873.61
  Q 406.98 882.41 392.49 895.73
  Q 385.72 901.97 382.12 909.12
  C 380.83 911.68 380.46 916.15 378.53 918.77
  C 373.78 925.18 367.50 925.92 360.05 924.43
  C 349.12 922.26 348.54 911.36 349.59 902.52
  Q 351.29 888.23 360.31 876.23
  C 369.92 863.45 382.99 853.05 396.75 844.64
  A 0.50 0.49 -44.7 0 0 396.76 843.80
  Q 339.21 808.44 297.23 755.31
  Q 265.27 714.85 245.29 666.80
  C 220.48 607.18 217.48 541.44 235.38 479.36
  Q 242.89 453.33 253.26 428.50
  A 1.47 1.46 -47.0 0 0 253.22 427.28
  Q 250.30 421.33 248.30 414.45
  Q 239.48 384.09 240.19 352.78
  Q 240.90 321.95 250.84 291.37
  Q 256.99 272.48 267.43 256.44
  Q 277.99 240.22 291.19 223.75
  A 0.49 0.49 0.0 0 0 291.08 223.03
  C 281.18 216.40 272.59 208.18 263.96 199.54
  C 259.36 194.94 254.51 189.51 251.11 183.84
  Q 243.88 171.77 240.38 162.11
  C 234.91 146.99 231.52 128.12 232.39 112.34
  Q 233.16 98.23 237.22 83.99
  Q 237.70 82.29 239.15 79.63
  Q 240.64 76.89 242.62 76.83
  Q 245.28 76.76 246.65 78.88
  Q 258.66 97.37 275.42 112.36
  Q 319.24 151.55 378.31 159.23
  A 4.06 4.02 35.3 0 0 380.59 158.85
  Q 456.18 121.83 540.88 129.46
  Q 588.36 133.73 631.69 153.34
  Q 639.76 156.99 646.00 159.99
  A 2.79 2.76 53.0 0 0 647.65 160.23
  Q 686.04 153.82 719.24 134.28
  C 732.81 126.30 746.33 114.99 757.65 103.55
  C 765.40 95.73 772.09 86.95 777.04 78.78
  C 778.28 76.73 781.52 75.51 783.37 77.66
  Q 785.39 80.00 786.51 83.50
  Q 796.50 114.71 787.74 146.22
  Q 785.45 154.45 783.39 160.41
  C 779.20 172.48 775.28 182.89 767.90 190.91
  Q 757.98 201.70 748.44 210.43
  Q 741.37 216.91 731.11 223.73
  A 0.49 0.49 0.0 0 0 731.02 224.47
  Q 735.46 229.41 746.02 242.25
  C 760.72 260.14 772.16 279.70 777.12 302.13
  Q 779.73 313.97 782.23 328.77
  Q 789.52 371.89 775.76 414.31
  Q 772.35 424.81 771.49 427.61
  A 1.70 1.68 -49.4 0 0 771.58 428.85
  Q 782.21 450.91 790.17 478.81
  Q 797.95 506.11 799.57 532.25
  C 801.37 561.29 800.66 588.71 795.31 616.04
  C 788.41 651.36 776.29 680.66 760.98 718.72
  Q 752.90 738.80 750.28 747.54
  Q 747.38 757.19 744.70 765.23
  Q 740.34 778.32 739.10 782.90
  Q 729.14 819.61 729.94 857.49
  C 730.33 875.90 736.26 890.32 747.23 905.28
  C 750.03 909.09 749.54 913.87 744.41 915.17
  Q 739.10 916.51 734.25 916.26
  C 708.36 914.95 682.34 910.36 657.54 903.93
  C 639.92 899.36 616.38 892.11 595.07 887.68
  C 577.82 884.10 559.65 882.61 543.50 890.90
  Q 528.59 898.54 520.61 913.87
  Q 519.05 916.85 518.53 920.61
  Q 518.07 923.95 518.07 923.96
  Q 516.00 933.44 505.98 935.76
  C 498.12 937.58 489.32 935.32 486.83 926.66
  C 483.04 913.54 488.43 897.88 496.26 887.10
  A 0.32 0.32 0.0 0 0 495.99 886.59
  C 476.39 886.81 457.42 892.97 446.94 910.69
  C 445.20 913.64 444.98 919.13 443.24 922.15
  C 440.33 927.22 436.12 930.08 430.04 930.42
  C 419.15 931.03 413.22 926.30 412.43 915.29
  C 411.36 900.43 418.27 886.65 428.52 876.25
  Q 432.73 871.97 435.22 869.31
  Z
  M 343.89 236.28
  C 303.22 260.91 279.92 300.44 281.36 348.53
  C 282.62 390.77 305.38 428.03 342.83 447.17
  Q 356.32 454.06 374.30 457.48
  Q 396.55 461.70 416.88 455.91
  Q 448.16 447.01 470.92 423.58
  A 4.93 4.91 72.3 0 0 472.21 421.07
  Q 473.68 413.25 475.62 405.61
  Q 481.74 381.65 495.63 361.07
  A 2.39 2.35 56.3 0 0 495.98 359.25
  Q 485.18 308.51 446.62 276.89
  C 417.30 252.85 381.25 245.19 345.24 236.08
  A 1.79 1.77 36.2 0 0 343.89 236.28
  Z
  M 527.64 359.20
  A 2.07 2.06 35.5 0 0 527.93 360.91
  Q 543.47 383.62 549.26 410.74
  Q 550.27 415.47 550.98 419.15
  C 551.47 421.67 552.26 422.94 553.98 424.55
  C 576.48 445.65 603.22 460.49 634.61 459.12
  C 671.06 457.54 703.32 438.57 723.76 407.87
  C 738.12 386.29 744.48 358.33 741.99 332.77
  Q 737.99 291.58 709.44 262.03
  Q 694.58 246.63 676.77 236.50
  A 2.56 2.55 -37.0 0 0 674.88 236.24
  Q 654.77 241.31 637.77 246.29
  Q 622.94 250.63 614.03 254.32
  Q 553.63 279.30 532.98 341.53
  Q 530.20 349.92 527.64 359.20
  Z
  M 678.27 866.46
  A 0.16 0.16 0.0 0 0 678.43 866.21
  C 663.45 843.54 650.37 825.38 638.97 803.96
  Q 593.93 719.34 604.15 621.90
  Q 606.49 599.52 611.99 577.74
  Q 623.63 531.55 652.45 493.93
  A 0.43 0.43 0.0 0 0 652.02 493.25
  Q 647.05 494.34 640.95 494.79
  Q 602.43 497.60 569.74 478.52
  Q 556.32 470.68 543.29 459.66
  A 0.47 0.47 0.0 0 0 542.54 459.86
  Q 541.81 461.90 540.50 464.52
  Q 532.03 481.41 523.94 495.44
  Q 520.21 501.90 517.42 505.16
  C 509.88 513.99 503.22 501.27 500.23 496.03
  Q 490.64 479.23 481.18 459.83
  A 0.46 0.46 0.0 0 0 480.44 459.70
  C 470.72 469.05 459.91 475.80 447.54 482.01
  Q 421.28 495.20 390.77 495.34
  Q 382.18 495.38 374.01 494.05
  A 0.50 0.50 0.0 0 0 373.50 494.80
  Q 391.91 525.55 399.27 560.50
  C 407.01 597.20 406.51 634.20 402.34 671.86
  Q 400.04 692.67 398.05 705.27
  Q 393.02 737.11 392.10 745.53
  Q 390.21 762.76 390.53 772.25
  Q 390.66 776.29 392.13 780.37
  C 394.88 788.04 399.38 797.26 405.71 801.86
  Q 424.23 815.30 446.41 825.17
  Q 488.20 843.76 534.34 851.01
  A 2.00 1.97 36.3 0 0 535.52 850.84
  Q 548.32 844.56 562.95 843.88
  Q 580.30 843.07 597.01 846.74
  Q 612.92 850.22 638.70 857.31
  Q 659.05 862.90 678.27 866.46
  Z
  M 350.68 755.56
  Q 358.06 718.97 362.55 689.62
  Q 366.94 660.94 367.59 641.46
  C 368.64 609.97 367.49 579.16 358.36 549.37
  C 353.85 534.65 347.75 522.79 338.78 511.22
  Q 329.84 499.68 324.97 494.76
  C 312.84 482.52 298.09 470.81 284.41 460.04
  A 0.29 0.28 28.3 0 0 283.97 460.17
  C 277.29 478.03 270.17 498.39 266.79 516.50
  Q 260.78 548.61 264.24 579.79
  C 269.94 631.15 290.41 680.13 321.83 721.67
  Q 335.07 739.18 350.30 755.67
  A 0.22 0.22 0.0 0 0 350.68 755.56
  Z
  M 691.75 819.13
  Q 693.36 801.09 696.53 785.80
  Q 698.54 776.06 703.67 761.32
  Q 716.88 723.38 716.81 723.31
  Q 716.53 723.04 720.57 713.32
  Q 736.46 675.01 748.01 637.61
  Q 761.23 594.78 759.91 545.52
  Q 759.36 524.90 755.68 508.76
  Q 750.85 487.60 743.01 464.71
  A 0.22 0.22 0.0 0 0 742.66 464.61
  Q 725.80 477.83 706.47 493.72
  Q 688.33 508.62 675.65 527.14
  Q 663.78 544.48 654.29 567.38
  C 631.95 621.31 630.53 682.36 649.37 737.62
  Q 654.22 751.84 658.41 761.36
  Q 667.69 782.43 680.67 803.89
  C 683.82 809.11 687.25 813.71 691.29 819.26
  A 0.26 0.25 -60.6 0 0 691.75 819.13
  Z"
/>
<path fill="#ffc715" d="
  M 343.89 236.28
  A 1.79 1.77 36.2 0 1 345.24 236.08
  C 381.25 245.19 417.30 252.85 446.62 276.89
  Q 485.18 308.51 495.98 359.25
  A 2.39 2.35 56.3 0 1 495.63 361.07
  Q 481.74 381.65 475.62 405.61
  Q 473.68 413.25 472.21 421.07
  A 4.93 4.91 72.3 0 1 470.92 423.58
  Q 448.16 447.01 416.88 455.91
  Q 396.55 461.70 374.30 457.48
  Q 356.32 454.06 342.83 447.17
  C 305.38 428.03 282.62 390.77 281.36 348.53
  C 279.92 300.44 303.22 260.91 343.89 236.28
  Z
  M 399.6101 290.0853
  A 57.44 56.46 -79.0 0 0 333.2273 335.6969
  A 57.44 56.46 -79.0 0 0 377.6899 402.8547
  A 57.44 56.46 -79.0 0 0 444.0727 357.2431
  A 57.44 56.46 -79.0 0 0 399.6101 290.0853
  Z"
/>
<path fill="#ffc715" d="
  M 527.64 359.20
  Q 530.20 349.92 532.98 341.53
  Q 553.63 279.30 614.03 254.32
  Q 622.94 250.63 637.77 246.29
  Q 654.77 241.31 674.88 236.24
  A 2.56 2.55 -37.0 0 1 676.77 236.50
  Q 694.58 246.63 709.44 262.03
  Q 737.99 291.58 741.99 332.77
  C 744.48 358.33 738.12 386.29 723.76 407.87
  C 703.32 438.57 671.06 457.54 634.61 459.12
  C 603.22 460.49 576.48 445.65 553.98 424.55
  C 552.26 422.94 551.47 421.67 550.98 419.15
  Q 550.27 415.47 549.26 410.74
  Q 543.47 383.62 527.93 360.91
  A 2.07 2.06 35.5 0 1 527.64 359.20
  Z
  M 632.8848 288.9563
  A 57.44 56.46 -92.3 0 0 578.7755 348.6158
  A 57.44 56.46 -92.3 0 0 637.4952 403.7437
  A 57.44 56.46 -92.3 0 0 691.6045 344.0842
  A 57.44 56.46 -92.3 0 0 632.8848 288.9563
  Z"
/>
<path fill="#020504" d="
  M 399.6101 290.0853
  A 57.44 56.46 -79.0 0 1 444.0727 357.2431
  A 57.44 56.46 -79.0 0 1 377.6899 402.8547
  A 57.44 56.46 -79.0 0 1 333.2273 335.6969
  A 57.44 56.46 -79.0 0 1 399.6101 290.0853
  Z
  M 394.81 361.64
  C 414.12 364.14 418.39 327.23 399.58 324.79
  C 380.77 322.36 375.49 359.14 394.81 361.64
  Z"
/>
<path fill="#020504" d="
  M 632.8848 288.9563
  A 57.44 56.46 -92.3 0 1 691.6045 344.0842
  A 57.44 56.46 -92.3 0 1 637.4952 403.7437
  A 57.44 56.46 -92.3 0 1 578.7755 348.6158
  A 57.44 56.46 -92.3 0 1 632.8848 288.9563
  Z
  M 629.36 361.21
  C 650.68 359.50 644.93 323.29 626.44 324.78
  C 607.94 326.26 608.04 362.92 629.36 361.21
  Z"
/>
<path fill="#ffc715" d="
  M 399.58 324.79
  C 418.39 327.23 414.12 364.14 394.81 361.64
  C 375.49 359.14 380.77 322.36 399.58 324.79
  Z"
/>
<path fill="#ffc715" d="
  M 626.44 324.78
  C 644.93 323.29 650.68 359.50 629.36 361.21
  C 608.04 362.92 607.94 326.26 626.44 324.78
  Z"
/>
<path fill="#ffc715" d="
  M 678.27 866.46
  Q 659.05 862.90 638.70 857.31
  Q 612.92 850.22 597.01 846.74
  Q 580.30 843.07 562.95 843.88
  Q 548.32 844.56 535.52 850.84
  A 2.00 1.97 36.3 0 1 534.34 851.01
  Q 488.20 843.76 446.41 825.17
  Q 424.23 815.30 405.71 801.86
  C 399.38 797.26 394.88 788.04 392.13 780.37
  Q 390.66 776.29 390.53 772.25
  Q 390.21 762.76 392.10 745.53
  Q 393.02 737.11 398.05 705.27
  Q 400.04 692.67 402.34 671.86
  C 406.51 634.20 407.01 597.20 399.27 560.50
  Q 391.91 525.55 373.50 494.80
  A 0.50 0.50 0.0 0 1 374.01 494.05
  Q 382.18 495.38 390.77 495.34
  Q 421.28 495.20 447.54 482.01
  C 459.91 475.80 470.72 469.05 480.44 459.70
  A 0.46 0.46 0.0 0 1 481.18 459.83
  Q 490.64 479.23 500.23 496.03
  C 503.22 501.27 509.88 513.99 517.42 505.16
  Q 520.21 501.90 523.94 495.44
  Q 532.03 481.41 540.50 464.52
  Q 541.81 461.90 542.54 459.86
  A 0.47 0.47 0.0 0 1 543.29 459.66
  Q 556.32 470.68 569.74 478.52
  Q 602.43 497.60 640.95 494.79
  Q 647.05 494.34 652.02 493.25
  A 0.43 0.43 0.0 0 1 652.45 493.93
  Q 623.63 531.55 611.99 577.74
  Q 606.49 599.52 604.15 621.90
  Q 593.93 719.34 638.97 803.96
  C 650.37 825.38 663.45 843.54 678.43 866.21
  A 0.16 0.16 0.0 0 1 678.27 866.46
  Z"
/>
<path fill="#ffc715" d="
  M 350.68 755.56
  A 0.22 0.22 0.0 0 1 350.30 755.67
  Q 335.07 739.18 321.83 721.67
  C 290.41 680.13 269.94 631.15 264.24 579.79
  Q 260.78 548.61 266.79 516.50
  C 270.17 498.39 277.29 478.03 283.97 460.17
  A 0.29 0.28 28.3 0 1 284.41 460.04
  C 298.09 470.81 312.84 482.52 324.97 494.76
  Q 329.84 499.68 338.78 511.22
  C 347.75 522.79 353.85 534.65 358.36 549.37
  C 367.49 579.16 368.64 609.97 367.59 641.46
  Q 366.94 660.94 362.55 689.62
  Q 358.06 718.97 350.68 755.56
  Z"
/>
<path fill="#ffc715" d="
  M 691.75 819.13
  A 0.26 0.25 -60.6 0 1 691.29 819.26
  C 687.25 813.71 683.82 809.11 680.67 803.89
  Q 667.69 782.43 658.41 761.36
  Q 654.22 751.84 649.37 737.62
  C 630.53 682.36 631.95 621.31 654.29 567.38
  Q 663.78 544.48 675.65 527.14
  Q 688.33 508.62 706.47 493.72
  Q 725.80 477.83 742.66 464.61
  A 0.22 0.22 0.0 0 1 743.01 464.71
  Q 750.85 487.60 755.68 508.76
  Q 759.36 524.90 759.91 545.52
  Q 761.23 594.78 748.01 637.61
  Q 736.46 675.01 720.57 713.32
  Q 716.53 723.04 716.81 723.31
  Q 716.88 723.38 703.67 761.32
  Q 698.54 776.06 696.53 785.80
  Q 693.36 801.09 691.75 819.13
  Z"
/>
</svg>
