<?xml version="1.0" encoding="UTF-8" standalone="no"?>
<!DOCTYPE svg PUBLIC "-//W3C//DTD SVG 1.1//EN" "http://www.w3.org/Graphics/SVG/1.1/DTD/svg11.dtd">
<svg xmlns="http://www.w3.org/2000/svg" version="1.1" viewBox="0.00 0.00 1024.00 1024.00">
<g stroke-width="2.00" fill="none" stroke-linecap="butt">
<path stroke="#878680" vector-effect="non-scaling-stroke" d="
  M 241.81 734.07
  C 229.17 770.67 230.28 810.39 247.22 845.24
  Q 256.27 863.84 268.77 879.99
  Q 289.23 906.42 315.92 927.35
  C 319.45 930.12 323.58 930.09 328.25 930.07
  Q 391.69 929.82 725.50 930.05
  C 733.52 930.05 739.08 930.17 745.13 926.63
  C 783.39 904.25 813.95 872.02 832.88 831.62
  Q 851.77 791.32 851.23 744.98
  Q 850.55 685.43 820.36 636.42
  C 812.06 622.94 802.49 612.02 790.92 601.82
  C 774.15 587.03 755.18 574.06 734.80 564.29
  A 0.38 0.38 0.0 0 1 734.71 563.67
  C 739.10 559.78 744.31 554.29 748.07 549.73
  Q 788.28 501.06 794.46 437.00
  C 797.05 410.22 796.01 385.06 792.48 358.51
  C 787.65 322.32 777.73 286.01 757.33 255.27
  A 0.95 0.95 0.0 0 1 757.60 253.95
  Q 783.99 236.54 797.61 207.31
  Q 813.92 172.33 811.94 133.49
  C 811.51 124.97 802.25 119.29 795.00 125.28
  C 790.40 129.07 785.26 134.18 779.75 138.30
  C 753.06 158.21 719.63 171.23 686.97 176.42
  C 682.56 177.12 670.40 179.22 667.19 177.05
  C 628.55 150.97 580.91 136.83 534.57 133.43
  Q 445.82 126.93 368.46 169.29
  Q 361.34 173.19 355.91 176.90
  C 352.41 179.29 341.54 176.91 337.53 176.20
  Q 291.64 168.08 253.27 144.01
  Q 243.38 137.81 232.34 127.80
  C 228.25 124.09 224.89 121.55 219.80 123.29
  C 212.73 125.72 212.23 132.63 212.30 139.51
  C 212.76 183.55 228.94 228.78 267.47 253.63
  A 0.96 0.95 33.9 0 1 267.74 254.97
  Q 254.95 273.68 246.81 295.04
  C 235.91 323.65 231.28 357.48 230.14 389.82
  Q 229.05 420.34 233.79 450.02
  Q 234.94 457.23 238.24 470.76
  C 241.26 483.10 242.91 490.12 244.08 497.03
  A 0.64 0.64 0.0 0 1 243.43 497.78
  Q 242.87 497.77 232.01 498.26
  C 187.94 500.28 149.49 526.40 131.42 566.87
  C 113.77 606.44 119.43 654.43 147.29 688.29
  Q 180.55 728.71 233.36 732.72
  C 236.03 732.92 239.08 732.70 241.32 733.19
  A 0.68 0.67 16.1 0 1 241.81 734.07"
/>
<path stroke="#8b6f22" vector-effect="non-scaling-stroke" d="
  M 234.35 156.62
  Q 236.36 173.58 242.47 189.53
  C 250.81 211.29 266.77 230.72 287.35 241.64
  Q 294.01 245.18 299.42 247.72
  A 0.53 0.53 0.0 0 1 299.50 248.62
  C 290.35 255.32 284.94 264.38 278.89 275.27
  Q 273.46 285.06 269.33 294.29
  A 0.24 0.24 0.0 0 0 269.64 294.62
  Q 270.15 294.42 270.73 293.69
  Q 291.18 267.74 322.78 256.02
  Q 337.91 250.40 353.00 249.30
  Q 370.98 247.97 390.88 251.18
  Q 427.88 257.15 454.53 283.21
  C 472.26 300.55 485.44 324.43 488.89 349.39
  A 0.50 0.49 -13.1 0 0 489.54 349.79
  Q 512.03 342.08 534.77 350.16
  A 0.80 0.78 14.4 0 0 535.82 349.55
  Q 539.41 326.96 551.35 307.60
  Q 577.98 264.45 626.79 252.86
  Q 655.11 246.14 681.89 250.74
  Q 707.07 255.06 728.23 269.98
  C 737.64 276.61 746.41 285.27 753.98 293.88
  A 0.39 0.39 0.0 0 0 754.63 293.46
  Q 748.82 280.34 741.93 268.85
  C 737.17 260.89 731.75 252.79 725.21 248.69
  A 0.81 0.81 0.0 0 1 725.29 247.28
  C 732.37 243.88 738.69 241.32 744.56 237.37
  C 772.50 218.57 786.68 190.01 790.23 156.82
  A 0.17 0.17 0.0 0 0 789.97 156.66
  Q 759.43 177.67 724.58 189.40
  C 709.10 194.61 694.20 197.31 677.00 198.94
  C 672.53 199.36 664.78 199.99 660.90 197.33
  C 623.78 171.84 580.44 158.42 535.29 155.13
  Q 520.50 154.05 508.26 154.18
  Q 482.52 154.47 455.77 159.56
  Q 410.55 168.15 371.68 191.34
  C 368.93 192.98 365.45 195.63 363.12 197.11
  C 358.46 200.10 352.26 199.33 346.72 198.82
  C 306.69 195.13 267.55 179.39 234.61 156.46
  A 0.17 0.17 0.0 0 0 234.35 156.62"
/>
<path stroke="#8b897c" vector-effect="non-scaling-stroke" d="
  M 465.4649 341.5347
  A 103.79 102.21 -17.0 0 0 336.3267 274.1361
  A 103.79 102.21 -17.0 0 0 266.9551 402.2253
  A 103.79 102.21 -17.0 0 0 396.0933 469.6239
  A 103.79 102.21 -17.0 0 0 465.4649 341.5347"
/>
<path stroke="#8b897c" vector-effect="non-scaling-stroke" d="
  M 686.54 470.44
  C 735.93 456.41 765.97 409.76 760.46 359.25
  C 757.30 330.29 740.90 304.98 717.44 288.09
  Q 692.67 270.25 661.46 269.95
  Q 636.81 269.70 616.64 278.18
  C 561.42 301.39 537.92 364.89 566.15 418.13
  C 573.11 431.25 580.84 441.97 592.33 450.86
  Q 619.48 471.89 652.75 473.85
  Q 670.80 474.91 686.54 470.44"
/>
<path stroke="#8b6f22" vector-effect="non-scaling-stroke" d="
  M 251.54 422.16
  Q 253.40 460.61 269.04 495.73
  C 270.70 499.46 272.60 504.02 276.02 505.27
  Q 309.14 517.37 331.23 546.28
  Q 340.81 558.81 345.72 571.30
  C 347.08 574.76 348.38 576.15 351.44 578.07
  C 381.38 596.86 415.06 609.38 449.31 616.13
  Q 471.70 620.55 502.99 622.64
  C 510.60 623.15 519.48 622.96 526.00 622.52
  Q 548.78 621.01 574.25 617.45
  Q 624.54 610.43 670.95 585.70
  Q 690.11 575.49 705.23 563.50
  C 735.26 539.67 755.97 507.96 766.70 470.73
  Q 774.22 444.66 774.95 419.51
  Q 775.01 417.33 774.90 414.58
  A 0.42 0.42 0.0 0 0 774.09 414.43
  Q 771.68 420.23 770.13 423.87
  C 765.20 435.45 758.34 445.93 749.71 455.24
  C 724.18 482.80 689.68 496.74 652.17 494.73
  C 613.70 492.67 579.13 474.23 557.25 443.86
  C 542.96 424.02 533.55 401.41 533.77 377.16
  A 2.35 2.34 -73.2 0 0 532.71 375.18
  C 520.60 367.22 503.72 367.50 491.41 375.48
  A 2.07 2.06 -16.2 0 0 490.47 377.17
  C 489.77 413.39 469.67 449.33 440.87 470.70
  Q 407.52 495.45 363.71 494.95
  Q 327.43 494.54 296.52 474.44
  Q 266.41 454.85 251.95 422.06
  A 0.21 0.21 0.0 0 0 251.54 422.16"
/>
<path stroke="#8b897c" vector-effect="non-scaling-stroke" d="
  M 233.7873 520.4932
  A 94.87 93.89 -92.4 0 0 143.9524 619.2117
  A 94.87 93.89 -92.4 0 0 241.7327 710.0668
  A 94.87 93.89 -92.4 0 0 331.5676 611.3483
  A 94.87 93.89 -92.4 0 0 233.7873 520.4932"
/>
<path stroke="#8b6f22" vector-effect="non-scaling-stroke" d="
  M 766.98 764.12
  L 767.61 882.40
  A 0.27 0.27 0.0 0 0 768.07 882.60
  C 774.92 876.00 782.10 868.86 787.51 862.33
  Q 817.12 826.60 825.50 781.28
  C 832.31 744.45 827.07 706.09 812.21 671.78
  C 797.43 637.65 768.43 607.38 734.39 592.00
  Q 726.12 588.26 716.01 584.24
  A 0.66 0.65 21.5 0 0 715.17 584.60
  Q 700.32 621.40 684.30 654.33
  Q 676.12 671.14 674.91 673.70
  Q 674.06 675.48 673.91 676.89
  A 0.94 0.94 0.0 0 0 674.85 677.93
  Q 706.32 677.85 712.27 677.92
  C 718.57 678.00 723.52 681.18 721.53 688.33
  Q 721.27 689.27 720.20 691.73
  Q 711.25 712.29 701.11 733.16
  Q 678.68 779.29 644.66 820.85
  C 619.06 852.12 589.08 881.54 556.58 907.13
  A 0.40 0.40 0.0 0 0 556.70 907.83
  Q 557.13 907.97 558.00 907.97
  Q 612.21 907.82 693.26 908.10
  C 704.37 908.14 716.55 909.00 728.20 908.96
  A 1.45 1.45 0.0 0 0 729.61 907.85
  Q 747.57 833.27 766.32 764.03
  A 0.34 0.34 0.0 0 1 766.98 764.12"
/>
<path stroke="#8b897c" vector-effect="non-scaling-stroke" d="
  M 539.34 643.05
  A 0.22 0.22 0.0 0 0 539.21 643.43
  L 617.41 716.17
  A 0.55 0.55 0.0 0 0 618.27 716.02
  L 672.54 609.83
  A 0.60 0.60 0.0 0 0 671.74 609.02
  Q 636.50 626.34 597.61 634.84
  Q 569.41 641.01 539.34 643.05"
/>
<path stroke="#8b897c" vector-effect="non-scaling-stroke" d="
  M 486.48 643.10
  C 444.99 638.31 405.67 630.24 368.14 613.39
  A 0.48 0.47 89.4 0 0 367.52 614.03
  L 412.87 710.49
  A 0.66 0.65 -34.0 0 0 413.91 710.69
  L 486.65 643.59
  A 0.29 0.28 26.4 0 0 486.48 643.10"
/>
<path stroke="#8b6f22" vector-effect="non-scaling-stroke" d="
  M 512.57 702.66
  Q 526.41 702.65 526.43 702.65
  A 2.87 2.84 15.8 0 0 528.70 701.39
  L 543.37 679.60
  A 0.94 0.93 38.5 0 0 543.23 678.41
  Q 532.05 667.78 512.93 649.94
  Q 512.84 649.87 512.76 649.84
  Q 512.65 649.82 512.55 649.82
  Q 512.44 649.82 512.33 649.84
  Q 512.25 649.87 512.16 649.94
  Q 493.06 667.80 481.88 678.44
  A 0.94 0.93 -38.6 0 0 481.75 679.63
  L 496.43 701.40
  A 2.87 2.84 -15.8 0 0 498.71 702.66
  Q 498.73 702.66 512.57 702.66"
/>
<path stroke="#8b6f22" vector-effect="non-scaling-stroke" d="
  M 357.34 714.56
  A 0.52 0.52 0.0 0 0 357.69 713.82
  Q 348.73 696.24 336.47 681.70
  A 0.54 0.54 0.0 0 0 335.64 681.71
  Q 324.48 695.47 310.60 706.65
  A 1.45 1.44 -34.5 0 0 310.25 708.50
  L 321.17 727.41
  A 1.26 1.26 0.0 0 0 322.89 727.87
  Q 339.32 718.49 357.34 714.56"
/>
<path stroke="#8b897c" vector-effect="non-scaling-stroke" d="
  M 423.17 732.10
  A 0.35 0.35 0.0 0 0 423.09 732.50
  L 458.49 807.79
  A 0.35 0.35 0.0 0 0 459.15 807.72
  L 478.75 716.47
  A 0.35 0.35 0.0 0 0 478.72 716.24
  L 466.11 692.31
  A 0.35 0.35 0.0 0 0 465.56 692.22
  L 423.17 732.10"
/>
<path stroke="#8b897c" vector-effect="non-scaling-stroke" d="
  M 547.59 715.99
  A 0.52 0.52 0.0 0 0 547.55 716.33
  L 567.82 813.06
  A 0.52 0.52 0.0 0 0 568.79 813.19
  L 607.54 737.36
  A 0.52 0.52 0.0 0 0 607.43 736.74
  L 560.18 692.80
  A 0.52 0.52 0.0 0 0 559.37 692.94
  L 547.59 715.99"
/>
<path stroke="#8b6f22" vector-effect="non-scaling-stroke" d="
  M 384.51 777.81
  Q 358.05 800.39 329.22 817.20
  Q 324.30 820.07 320.29 818.76
  C 312.63 816.25 309.14 806.27 315.94 800.42
  Q 318.43 798.28 319.09 797.84
  C 334.61 787.46 347.36 779.08 360.71 767.96
  Q 366.71 762.96 371.54 757.55
  Q 376.04 752.52 377.53 748.78
  C 380.42 741.53 372.97 736.93 366.71 736.70
  C 358.33 736.39 348.52 740.28 340.71 743.73
  Q 319.58 753.10 297.79 768.53
  C 292.12 772.54 285.88 775.87 279.68 771.05
  C 273.64 766.35 274.30 757.74 280.33 753.29
  Q 285.95 749.15 293.12 744.59
  A 0.76 0.74 59.0 0 0 293.36 743.58
  L 282.37 724.55
  A 1.08 1.08 0.0 0 0 280.97 724.11
  L 269.94 729.29
  A 4.23 4.21 -88.3 0 0 268.03 731.10
  C 258.74 748.36 255.47 767.52 255.82 787.01
  C 256.08 801.60 258.52 814.92 264.16 828.51
  Q 272.46 848.53 286.75 867.01
  Q 288.18 868.86 290.72 871.14
  A 2.90 2.87 64.1 0 0 292.85 871.89
  C 316.94 870.37 340.03 859.39 356.35 842.78
  C 373.00 825.85 385.13 801.94 384.94 778.01
  A 0.26 0.26 0.0 0 0 384.51 777.81"
/>
<path stroke="#8b6f22" vector-effect="non-scaling-stroke" d="
  M 512.63 888.79
  Q 512.71 888.79 512.74 888.78
  A 0.29 0.12 -67.8 0 0 512.88 888.64
  Q 527.76 863.09 547.18 827.65
  Q 548.08 826.00 547.61 823.77
  Q 540.94 791.97 527.11 724.96
  A 1.18 1.18 0.0 0 0 525.96 724.03
  Q 521.77 724.00 513.43 723.96
  Q 505.09 723.92 500.89 723.90
  A 1.18 1.18 0.0 0 0 499.74 724.83
  Q 485.26 791.70 478.28 823.43
  Q 477.79 825.66 478.67 827.32
  Q 497.74 862.94 512.37 888.64
  A 0.29 0.12 68.4 0 0 512.51 888.78
  Q 512.54 888.79 512.63 888.79"
/>
<path stroke="#8b6f22" vector-effect="non-scaling-stroke" d="
  M 468.63 907.35
  Q 466.08 905.23 454.04 895.44
  Q 421.44 868.90 392.92 838.00
  A 0.45 0.45 0.0 0 0 392.21 838.06
  L 384.17 849.99
  A 0.80 0.79 45.8 0 0 384.16 850.86
  Q 387.30 855.87 388.49 858.01
  C 393.38 866.76 395.24 876.84 386.70 883.94
  C 378.77 890.53 368.77 886.87 363.28 879.48
  Q 360.77 876.09 358.47 872.40
  A 0.73 0.73 0.0 0 0 357.43 872.18
  C 344.84 880.88 331.40 886.23 316.58 890.01
  A 0.43 0.43 0.0 0 0 316.31 890.64
  L 325.32 906.23
  A 3.09 3.09 0.0 0 0 328.00 907.78
  L 468.47 907.78
  A 0.25 0.24 -24.9 0 0 468.63 907.35"
/>
<path stroke="#8b897c" vector-effect="non-scaling-stroke" d="
  M 339.4146 364.7477
  A 50.51 49.90 -167.0 0 0 377.4049 424.7311
  A 50.51 49.90 -167.0 0 0 437.8454 387.4723
  A 50.51 49.90 -167.0 0 0 399.8551 327.4889
  A 50.51 49.90 -167.0 0 0 339.4146 364.7477"
/>
<path stroke="#8b897c" vector-effect="non-scaling-stroke" d="
  M 685.56 375.94
  A 50.06 50.06 0.0 0 0 635.50 325.88
  A 50.06 50.06 0.0 0 0 585.44 375.94
  A 50.06 50.06 0.0 0 0 635.50 426.00
  A 50.06 50.06 0.0 0 0 685.56 375.94"
/>
<path stroke="#8b897c" vector-effect="non-scaling-stroke" d="
  M 609.9326 362.6931
  A 11.74 11.45 -157.9 0 0 616.5022 377.7188
  A 11.74 11.45 -157.9 0 0 631.6874 371.5269
  A 11.74 11.45 -157.9 0 0 625.1178 356.5012
  A 11.74 11.45 -157.9 0 0 609.9326 362.6931"
/>
<path stroke="#8b897c" vector-effect="non-scaling-stroke" d="
  M 408.4056 355.8014
  A 11.88 11.60 -70.5 0 0 393.5054 363.1278
  A 11.88 11.60 -70.5 0 0 400.4744 378.1986
  A 11.88 11.60 -70.5 0 0 415.3746 370.8722
  A 11.88 11.60 -70.5 0 0 408.4056 355.8014"
/>
<path stroke="#8b6f22" vector-effect="non-scaling-stroke" d="
  M 512.46 551.18
  Q 517.59 551.16 521.41 546.65
  Q 535.88 529.59 547.06 509.10
  C 554.66 495.16 561.09 477.40 557.25 462.42
  Q 550.30 435.32 525.25 421.53
  C 521.52 419.47 516.28 417.81 511.92 417.82
  C 507.56 417.84 502.34 419.55 498.62 421.64
  Q 473.69 435.63 466.96 462.79
  C 463.24 477.80 469.81 495.50 477.52 509.38
  Q 488.87 529.78 503.48 546.73
  Q 507.34 551.20 512.46 551.18"
/>
<path stroke="#8b897c" vector-effect="non-scaling-stroke" d="
  M 512.52 524.78
  Q 512.90 524.77 513.00 524.65
  Q 522.02 513.00 528.19 499.02
  C 531.23 492.12 533.56 486.39 534.73 480.24
  Q 538.44 460.76 524.72 446.03
  C 521.61 442.68 516.78 438.56 511.99 438.59
  C 507.21 438.62 502.44 442.80 499.36 446.18
  Q 485.82 461.08 489.77 480.52
  C 491.02 486.65 493.42 492.35 496.54 499.21
  Q 502.88 513.12 512.05 524.65
  Q 512.15 524.78 512.52 524.78"
/>
<path stroke="#8b897c" vector-effect="non-scaling-stroke" d="
  M 178.65 566.05
  C 166.02 580.95 159.02 601.21 161.19 620.74
  C 162.14 629.31 173.04 632.00 177.53 624.80
  Q 179.01 622.43 178.96 618.00
  C 178.78 602.55 182.95 589.61 192.78 578.02
  C 202.60 566.42 214.68 560.19 229.95 557.83
  Q 234.34 557.16 236.43 555.31
  C 242.80 549.70 238.36 539.39 229.74 539.85
  C 210.13 540.91 191.29 551.14 178.65 566.05"
/>
</g>
<path fill="#f6f3ea" d="
  M 1024.00 0.00
  L 1024.00 1024.00
  L 0.00 1024.00
  L 0.00 0.00
  L 1024.00 0.00
  Z
  M 241.81 734.07
  C 229.17 770.67 230.28 810.39 247.22 845.24
  Q 256.27 863.84 268.77 879.99
  Q 289.23 906.42 315.92 927.35
  C 319.45 930.12 323.58 930.09 328.25 930.07
  Q 391.69 929.82 725.50 930.05
  C 733.52 930.05 739.08 930.17 745.13 926.63
  C 783.39 904.25 813.95 872.02 832.88 831.62
  Q 851.77 791.32 851.23 744.98
  Q 850.55 685.43 820.36 636.42
  C 812.06 622.94 802.49 612.02 790.92 601.82
  C 774.15 587.03 755.18 574.06 734.80 564.29
  A 0.38 0.38 0.0 0 1 734.71 563.67
  C 739.10 559.78 744.31 554.29 748.07 549.73
  Q 788.28 501.06 794.46 437.00
  C 797.05 410.22 796.01 385.06 792.48 358.51
  C 787.65 322.32 777.73 286.01 757.33 255.27
  A 0.95 0.95 0.0 0 1 757.60 253.95
  Q 783.99 236.54 797.61 207.31
  Q 813.92 172.33 811.94 133.49
  C 811.51 124.97 802.25 119.29 795.00 125.28
  C 790.40 129.07 785.26 134.18 779.75 138.30
  C 753.06 158.21 719.63 171.23 686.97 176.42
  C 682.56 177.12 670.40 179.22 667.19 177.05
  C 628.55 150.97 580.91 136.83 534.57 133.43
  Q 445.82 126.93 368.46 169.29
  Q 361.34 173.19 355.91 176.90
  C 352.41 179.29 341.54 176.91 337.53 176.20
  Q 291.64 168.08 253.27 144.01
  Q 243.38 137.81 232.34 127.80
  C 228.25 124.09 224.89 121.55 219.80 123.29
  C 212.73 125.72 212.23 132.63 212.30 139.51
  C 212.76 183.55 228.94 228.78 267.47 253.63
  A 0.96 0.95 33.9 0 1 267.74 254.97
  Q 254.95 273.68 246.81 295.04
  C 235.91 323.65 231.28 357.48 230.14 389.82
  Q 229.05 420.34 233.79 450.02
  Q 234.94 457.23 238.24 470.76
  C 241.26 483.10 242.91 490.12 244.08 497.03
  A 0.64 0.64 0.0 0 1 243.43 497.78
  Q 242.87 497.77 232.01 498.26
  C 187.94 500.28 149.49 526.40 131.42 566.87
  C 113.77 606.44 119.43 654.43 147.29 688.29
  Q 180.55 728.71 233.36 732.72
  C 236.03 732.92 239.08 732.70 241.32 733.19
  A 0.68 0.67 16.1 0 1 241.81 734.07
  Z"
/>
<path fill="#171816" d="
  M 241.32 733.19
  C 239.08 732.70 236.03 732.92 233.36 732.72
  Q 180.55 728.71 147.29 688.29
  C 119.43 654.43 113.77 606.44 131.42 566.87
  C 149.49 526.40 187.94 500.28 232.01 498.26
  Q 242.87 497.77 243.43 497.78
  A 0.64 0.64 0.0 0 0 244.08 497.03
  C 242.91 490.12 241.26 483.10 238.24 470.76
  Q 234.94 457.23 233.79 450.02
  Q 229.05 420.34 230.14 389.82
  C 231.28 357.48 235.91 323.65 246.81 295.04
  Q 254.95 273.68 267.74 254.97
  A 0.96 0.95 33.9 0 0 267.47 253.63
  C 228.94 228.78 212.76 183.55 212.30 139.51
  C 212.23 132.63 212.73 125.72 219.80 123.29
  C 224.89 121.55 228.25 124.09 232.34 127.80
  Q 243.38 137.81 253.27 144.01
  Q 291.64 168.08 337.53 176.20
  C 341.54 176.91 352.41 179.29 355.91 176.90
  Q 361.34 173.19 368.46 169.29
  Q 445.82 126.93 534.57 133.43
  C 580.91 136.83 628.55 150.97 667.19 177.05
  C 670.40 179.22 682.56 177.12 686.97 176.42
  C 719.63 171.23 753.06 158.21 779.75 138.30
  C 785.26 134.18 790.40 129.07 795.00 125.28
  C 802.25 119.29 811.51 124.97 811.94 133.49
  Q 813.92 172.33 797.61 207.31
  Q 783.99 236.54 757.60 253.95
  A 0.95 0.95 0.0 0 0 757.33 255.27
  C 777.73 286.01 787.65 322.32 792.48 358.51
  C 796.01 385.06 797.05 410.22 794.46 437.00
  Q 788.28 501.06 748.07 549.73
  C 744.31 554.29 739.10 559.78 734.71 563.67
  A 0.38 0.38 0.0 0 0 734.80 564.29
  C 755.18 574.06 774.15 587.03 790.92 601.82
  C 802.49 612.02 812.06 622.94 820.36 636.42
  Q 850.55 685.43 851.23 744.98
  Q 851.77 791.32 832.88 831.62
  C 813.95 872.02 783.39 904.25 745.13 926.63
  C 739.08 930.17 733.52 930.05 725.50 930.05
  Q 391.69 929.82 328.25 930.07
  C 323.58 930.09 319.45 930.12 315.92 927.35
  Q 289.23 906.42 268.77 879.99
  Q 256.27 863.84 247.22 845.24
  C 230.28 810.39 229.17 770.67 241.81 734.07
  A 0.68 0.67 16.1 0 0 241.32 733.19
  Z
  M 234.35 156.62
  Q 236.36 173.58 242.47 189.53
  C 250.81 211.29 266.77 230.72 287.35 241.64
  Q 294.01 245.18 299.42 247.72
  A 0.53 0.53 0.0 0 1 299.50 248.62
  C 290.35 255.32 284.94 264.38 278.89 275.27
  Q 273.46 285.06 269.33 294.29
  A 0.24 0.24 0.0 0 0 269.64 294.62
  Q 270.15 294.42 270.73 293.69
  Q 291.18 267.74 322.78 256.02
  Q 337.91 250.40 353.00 249.30
  Q 370.98 247.97 390.88 251.18
  Q 427.88 257.15 454.53 283.21
  C 472.26 300.55 485.44 324.43 488.89 349.39
  A 0.50 0.49 -13.1 0 0 489.54 349.79
  Q 512.03 342.08 534.77 350.16
  A 0.80 0.78 14.4 0 0 535.82 349.55
  Q 539.41 326.96 551.35 307.60
  Q 577.98 264.45 626.79 252.86
  Q 655.11 246.14 681.89 250.74
  Q 707.07 255.06 728.23 269.98
  C 737.64 276.61 746.41 285.27 753.98 293.88
  A 0.39 0.39 0.0 0 0 754.63 293.46
  Q 748.82 280.34 741.93 268.85
  C 737.17 260.89 731.75 252.79 725.21 248.69
  A 0.81 0.81 0.0 0 1 725.29 247.28
  C 732.37 243.88 738.69 241.32 744.56 237.37
  C 772.50 218.57 786.68 190.01 790.23 156.82
  A 0.17 0.17 0.0 0 0 789.97 156.66
  Q 759.43 177.67 724.58 189.40
  C 709.10 194.61 694.20 197.31 677.00 198.94
  C 672.53 199.36 664.78 199.99 660.90 197.33
  C 623.78 171.84 580.44 158.42 535.29 155.13
  Q 520.50 154.05 508.26 154.18
  Q 482.52 154.47 455.77 159.56
  Q 410.55 168.15 371.68 191.34
  C 368.93 192.98 365.45 195.63 363.12 197.11
  C 358.46 200.10 352.26 199.33 346.72 198.82
  C 306.69 195.13 267.55 179.39 234.61 156.46
  A 0.17 0.17 0.0 0 0 234.35 156.62
  Z
  M 465.4649 341.5347
  A 103.79 102.21 -17.0 0 0 336.3267 274.1361
  A 103.79 102.21 -17.0 0 0 266.9551 402.2253
  A 103.79 102.21 -17.0 0 0 396.0933 469.6239
  A 103.79 102.21 -17.0 0 0 465.4649 341.5347
  Z
  M 686.54 470.44
  C 735.93 456.41 765.97 409.76 760.46 359.25
  C 757.30 330.29 740.90 304.98 717.44 288.09
  Q 692.67 270.25 661.46 269.95
  Q 636.81 269.70 616.64 278.18
  C 561.42 301.39 537.92 364.89 566.15 418.13
  C 573.11 431.25 580.84 441.97 592.33 450.86
  Q 619.48 471.89 652.75 473.85
  Q 670.80 474.91 686.54 470.44
  Z
  M 251.54 422.16
  Q 253.40 460.61 269.04 495.73
  C 270.70 499.46 272.60 504.02 276.02 505.27
  Q 309.14 517.37 331.23 546.28
  Q 340.81 558.81 345.72 571.30
  C 347.08 574.76 348.38 576.15 351.44 578.07
  C 381.38 596.86 415.06 609.38 449.31 616.13
  Q 471.70 620.55 502.99 622.64
  C 510.60 623.15 519.48 622.96 526.00 622.52
  Q 548.78 621.01 574.25 617.45
  Q 624.54 610.43 670.95 585.70
  Q 690.11 575.49 705.23 563.50
  C 735.26 539.67 755.97 507.96 766.70 470.73
  Q 774.22 444.66 774.95 419.51
  Q 775.01 417.33 774.90 414.58
  A 0.42 0.42 0.0 0 0 774.09 414.43
  Q 771.68 420.23 770.13 423.87
  C 765.20 435.45 758.34 445.93 749.71 455.24
  C 724.18 482.80 689.68 496.74 652.17 494.73
  C 613.70 492.67 579.13 474.23 557.25 443.86
  C 542.96 424.02 533.55 401.41 533.77 377.16
  A 2.35 2.34 -73.2 0 0 532.71 375.18
  C 520.60 367.22 503.72 367.50 491.41 375.48
  A 2.07 2.06 -16.2 0 0 490.47 377.17
  C 489.77 413.39 469.67 449.33 440.87 470.70
  Q 407.52 495.45 363.71 494.95
  Q 327.43 494.54 296.52 474.44
  Q 266.41 454.85 251.95 422.06
  A 0.21 0.21 0.0 0 0 251.54 422.16
  Z
  M 233.7873 520.4932
  A 94.87 93.89 -92.4 0 0 143.9524 619.2117
  A 94.87 93.89 -92.4 0 0 241.7327 710.0668
  A 94.87 93.89 -92.4 0 0 331.5676 611.3483
  A 94.87 93.89 -92.4 0 0 233.7873 520.4932
  Z
  M 766.98 764.12
  L 767.61 882.40
  A 0.27 0.27 0.0 0 0 768.07 882.60
  C 774.92 876.00 782.10 868.86 787.51 862.33
  Q 817.12 826.60 825.50 781.28
  C 832.31 744.45 827.07 706.09 812.21 671.78
  C 797.43 637.65 768.43 607.38 734.39 592.00
  Q 726.12 588.26 716.01 584.24
  A 0.66 0.65 21.5 0 0 715.17 584.60
  Q 700.32 621.40 684.30 654.33
  Q 676.12 671.14 674.91 673.70
  Q 674.06 675.48 673.91 676.89
  A 0.94 0.94 0.0 0 0 674.85 677.93
  Q 706.32 677.85 712.27 677.92
  C 718.57 678.00 723.52 681.18 721.53 688.33
  Q 721.27 689.27 720.20 691.73
  Q 711.25 712.29 701.11 733.16
  Q 678.68 779.29 644.66 820.85
  C 619.06 852.12 589.08 881.54 556.58 907.13
  A 0.40 0.40 0.0 0 0 556.70 907.83
  Q 557.13 907.97 558.00 907.97
  Q 612.21 907.82 693.26 908.10
  C 704.37 908.14 716.55 909.00 728.20 908.96
  A 1.45 1.45 0.0 0 0 729.61 907.85
  Q 747.57 833.27 766.32 764.03
  A 0.34 0.34 0.0 0 1 766.98 764.12
  Z
  M 539.34 643.05
  A 0.22 0.22 0.0 0 0 539.21 643.43
  L 617.41 716.17
  A 0.55 0.55 0.0 0 0 618.27 716.02
  L 672.54 609.83
  A 0.60 0.60 0.0 0 0 671.74 609.02
  Q 636.50 626.34 597.61 634.84
  Q 569.41 641.01 539.34 643.05
  Z
  M 486.48 643.10
  C 444.99 638.31 405.67 630.24 368.14 613.39
  A 0.48 0.47 89.4 0 0 367.52 614.03
  L 412.87 710.49
  A 0.66 0.65 -34.0 0 0 413.91 710.69
  L 486.65 643.59
  A 0.29 0.28 26.4 0 0 486.48 643.10
  Z
  M 512.57 702.66
  Q 526.41 702.65 526.43 702.65
  A 2.87 2.84 15.8 0 0 528.70 701.39
  L 543.37 679.60
  A 0.94 0.93 38.5 0 0 543.23 678.41
  Q 532.05 667.78 512.93 649.94
  Q 512.84 649.87 512.76 649.84
  Q 512.65 649.82 512.55 649.82
  Q 512.44 649.82 512.33 649.84
  Q 512.25 649.87 512.16 649.94
  Q 493.06 667.80 481.88 678.44
  A 0.94 0.93 -38.6 0 0 481.75 679.63
  L 496.43 701.40
  A 2.87 2.84 -15.8 0 0 498.71 702.66
  Q 498.73 702.66 512.57 702.66
  Z
  M 357.34 714.56
  A 0.52 0.52 0.0 0 0 357.69 713.82
  Q 348.73 696.24 336.47 681.70
  A 0.54 0.54 0.0 0 0 335.64 681.71
  Q 324.48 695.47 310.60 706.65
  A 1.45 1.44 -34.5 0 0 310.25 708.50
  L 321.17 727.41
  A 1.26 1.26 0.0 0 0 322.89 727.87
  Q 339.32 718.49 357.34 714.56
  Z
  M 423.17 732.10
  A 0.35 0.35 0.0 0 0 423.09 732.50
  L 458.49 807.79
  A 0.35 0.35 0.0 0 0 459.15 807.72
  L 478.75 716.47
  A 0.35 0.35 0.0 0 0 478.72 716.24
  L 466.11 692.31
  A 0.35 0.35 0.0 0 0 465.56 692.22
  L 423.17 732.10
  Z
  M 547.59 715.99
  A 0.52 0.52 0.0 0 0 547.55 716.33
  L 567.82 813.06
  A 0.52 0.52 0.0 0 0 568.79 813.19
  L 607.54 737.36
  A 0.52 0.52 0.0 0 0 607.43 736.74
  L 560.18 692.80
  A 0.52 0.52 0.0 0 0 559.37 692.94
  L 547.59 715.99
  Z
  M 384.51 777.81
  Q 358.05 800.39 329.22 817.20
  Q 324.30 820.07 320.29 818.76
  C 312.63 816.25 309.14 806.27 315.94 800.42
  Q 318.43 798.28 319.09 797.84
  C 334.61 787.46 347.36 779.08 360.71 767.96
  Q 366.71 762.96 371.54 757.55
  Q 376.04 752.52 377.53 748.78
  C 380.42 741.53 372.97 736.93 366.71 736.70
  C 358.33 736.39 348.52 740.28 340.71 743.73
  Q 319.58 753.10 297.79 768.53
  C 292.12 772.54 285.88 775.87 279.68 771.05
  C 273.64 766.35 274.30 757.74 280.33 753.29
  Q 285.95 749.15 293.12 744.59
  A 0.76 0.74 59.0 0 0 293.36 743.58
  L 282.37 724.55
  A 1.08 1.08 0.0 0 0 280.97 724.11
  L 269.94 729.29
  A 4.23 4.21 -88.3 0 0 268.03 731.10
  C 258.74 748.36 255.47 767.52 255.82 787.01
  C 256.08 801.60 258.52 814.92 264.16 828.51
  Q 272.46 848.53 286.75 867.01
  Q 288.18 868.86 290.72 871.14
  A 2.90 2.87 64.1 0 0 292.85 871.89
  C 316.94 870.37 340.03 859.39 356.35 842.78
  C 373.00 825.85 385.13 801.94 384.94 778.01
  A 0.26 0.26 0.0 0 0 384.51 777.81
  Z
  M 512.63 888.79
  Q 512.71 888.79 512.74 888.78
  A 0.29 0.12 -67.8 0 0 512.88 888.64
  Q 527.76 863.09 547.18 827.65
  Q 548.08 826.00 547.61 823.77
  Q 540.94 791.97 527.11 724.96
  A 1.18 1.18 0.0 0 0 525.96 724.03
  Q 521.77 724.00 513.43 723.96
  Q 505.09 723.92 500.89 723.90
  A 1.18 1.18 0.0 0 0 499.74 724.83
  Q 485.26 791.70 478.28 823.43
  Q 477.79 825.66 478.67 827.32
  Q 497.74 862.94 512.37 888.64
  A 0.29 0.12 68.4 0 0 512.51 888.78
  Q 512.54 888.79 512.63 888.79
  Z
  M 468.63 907.35
  Q 466.08 905.23 454.04 895.44
  Q 421.44 868.90 392.92 838.00
  A 0.45 0.45 0.0 0 0 392.21 838.06
  L 384.17 849.99
  A 0.80 0.79 45.8 0 0 384.16 850.86
  Q 387.30 855.87 388.49 858.01
  C 393.38 866.76 395.24 876.84 386.70 883.94
  C 378.77 890.53 368.77 886.87 363.28 879.48
  Q 360.77 876.09 358.47 872.40
  A 0.73 0.73 0.0 0 0 357.43 872.18
  C 344.84 880.88 331.40 886.23 316.58 890.01
  A 0.43 0.43 0.0 0 0 316.31 890.64
  L 325.32 906.23
  A 3.09 3.09 0.0 0 0 328.00 907.78
  L 468.47 907.78
  A 0.25 0.24 -24.9 0 0 468.63 907.35
  Z"
/>
<path fill="#ffc62d" d="
  M 234.35 156.62
  A 0.17 0.17 0.0 0 1 234.61 156.46
  C 267.55 179.39 306.69 195.13 346.72 198.82
  C 352.26 199.33 358.46 200.10 363.12 197.11
  C 365.45 195.63 368.93 192.98 371.68 191.34
  Q 410.55 168.15 455.77 159.56
  Q 482.52 154.47 508.26 154.18
  Q 520.50 154.05 535.29 155.13
  C 580.44 158.42 623.78 171.84 660.90 197.33
  C 664.78 199.99 672.53 199.36 677.00 198.94
  C 694.20 197.31 709.10 194.61 724.58 189.40
  Q 759.43 177.67 789.97 156.66
  A 0.17 0.17 0.0 0 1 790.23 156.82
  C 786.68 190.01 772.50 218.57 744.56 237.37
  C 738.69 241.32 732.37 243.88 725.29 247.28
  A 0.81 0.81 0.0 0 0 725.21 248.69
  C 731.75 252.79 737.17 260.89 741.93 268.85
  Q 748.82 280.34 754.63 293.46
  A 0.39 0.39 0.0 0 1 753.98 293.88
  C 746.41 285.27 737.64 276.61 728.23 269.98
  Q 707.07 255.06 681.89 250.74
  Q 655.11 246.14 626.79 252.86
  Q 577.98 264.45 551.35 307.60
  Q 539.41 326.96 535.82 349.55
  A 0.80 0.78 14.4 0 1 534.77 350.16
  Q 512.03 342.08 489.54 349.79
  A 0.50 0.49 -13.1 0 1 488.89 349.39
  C 485.44 324.43 472.26 300.55 454.53 283.21
  Q 427.88 257.15 390.88 251.18
  Q 370.98 247.97 353.00 249.30
  Q 337.91 250.40 322.78 256.02
  Q 291.18 267.74 270.73 293.69
  Q 270.15 294.42 269.64 294.62
  A 0.24 0.24 0.0 0 1 269.33 294.29
  Q 273.46 285.06 278.89 275.27
  C 284.94 264.38 290.35 255.32 299.50 248.62
  A 0.53 0.53 0.0 0 0 299.42 247.72
  Q 294.01 245.18 287.35 241.64
  C 266.77 230.72 250.81 211.29 242.47 189.53
  Q 236.36 173.58 234.35 156.62
  Z"
/>
<path fill="#fff9e2" d="
  M 465.4649 341.5347
  A 103.79 102.21 -17.0 0 1 396.0933 469.6239
  A 103.79 102.21 -17.0 0 1 266.9551 402.2253
  A 103.79 102.21 -17.0 0 1 336.3267 274.1361
  A 103.79 102.21 -17.0 0 1 465.4649 341.5347
  Z
  M 339.4146 364.7477
  A 50.51 49.90 -167.0 0 0 377.4049 424.7311
  A 50.51 49.90 -167.0 0 0 437.8454 387.4723
  A 50.51 49.90 -167.0 0 0 399.8551 327.4889
  A 50.51 49.90 -167.0 0 0 339.4146 364.7477
  Z"
/>
<path fill="#fff9e2" d="
  M 760.46 359.25
  C 765.97 409.76 735.93 456.41 686.54 470.44
  Q 670.80 474.91 652.75 473.85
  Q 619.48 471.89 592.33 450.86
  C 580.84 441.97 573.11 431.25 566.15 418.13
  C 537.92 364.89 561.42 301.39 616.64 278.18
  Q 636.81 269.70 661.46 269.95
  Q 692.67 270.25 717.44 288.09
  C 740.90 304.98 757.30 330.29 760.46 359.25
  Z
  M 685.56 375.94
  A 50.06 50.06 0.0 0 0 635.50 325.88
  A 50.06 50.06 0.0 0 0 585.44 375.94
  A 50.06 50.06 0.0 0 0 635.50 426.00
  A 50.06 50.06 0.0 0 0 685.56 375.94
  Z"
/>
<path fill="#171816" d="
  M 685.56 375.94
  A 50.06 50.06 0.0 0 1 635.50 426.00
  A 50.06 50.06 0.0 0 1 585.44 375.94
  A 50.06 50.06 0.0 0 1 635.50 325.88
  A 50.06 50.06 0.0 0 1 685.56 375.94
  Z
  M 609.9326 362.6931
  A 11.74 11.45 -157.9 0 0 616.5022 377.7188
  A 11.74 11.45 -157.9 0 0 631.6874 371.5269
  A 11.74 11.45 -157.9 0 0 625.1178 356.5012
  A 11.74 11.45 -157.9 0 0 609.9326 362.6931
  Z"
/>
<path fill="#171816" d="
  M 339.4146 364.7477
  A 50.51 49.90 -167.0 0 1 399.8551 327.4889
  A 50.51 49.90 -167.0 0 1 437.8454 387.4723
  A 50.51 49.90 -167.0 0 1 377.4049 424.7311
  A 50.51 49.90 -167.0 0 1 339.4146 364.7477
  Z
  M 408.4056 355.8014
  A 11.88 11.60 -70.5 0 0 393.5054 363.1278
  A 11.88 11.60 -70.5 0 0 400.4744 378.1986
  A 11.88 11.60 -70.5 0 0 415.3746 370.8722
  A 11.88 11.60 -70.5 0 0 408.4056 355.8014
  Z"
/>
<ellipse fill="#fff9e2" cx="0.00" cy="0.00" transform="translate(404.44,367.00) rotate(-70.5)" rx="11.88" ry="11.60"/>
<ellipse fill="#fff9e2" cx="0.00" cy="0.00" transform="translate(620.81,367.11) rotate(-157.9)" rx="11.74" ry="11.45"/>
<path fill="#ffc62d" d="
  M 251.54 422.16
  A 0.21 0.21 0.0 0 1 251.95 422.06
  Q 266.41 454.85 296.52 474.44
  Q 327.43 494.54 363.71 494.95
  Q 407.52 495.45 440.87 470.70
  C 469.67 449.33 489.77 413.39 490.47 377.17
  A 2.07 2.06 -16.2 0 1 491.41 375.48
  C 503.72 367.50 520.60 367.22 532.71 375.18
  A 2.35 2.34 -73.2 0 1 533.77 377.16
  C 533.55 401.41 542.96 424.02 557.25 443.86
  C 579.13 474.23 613.70 492.67 652.17 494.73
  C 689.68 496.74 724.18 482.80 749.71 455.24
  C 758.34 445.93 765.20 435.45 770.13 423.87
  Q 771.68 420.23 774.09 414.43
  A 0.42 0.42 0.0 0 1 774.90 414.58
  Q 775.01 417.33 774.95 419.51
  Q 774.22 444.66 766.70 470.73
  C 755.97 507.96 735.26 539.67 705.23 563.50
  Q 690.11 575.49 670.95 585.70
  Q 624.54 610.43 574.25 617.45
  Q 548.78 621.01 526.00 622.52
  C 519.48 622.96 510.60 623.15 502.99 622.64
  Q 471.70 620.55 449.31 616.13
  C 415.06 609.38 381.38 596.86 351.44 578.07
  C 348.38 576.15 347.08 574.76 345.72 571.30
  Q 340.81 558.81 331.23 546.28
  Q 309.14 517.37 276.02 505.27
  C 272.60 504.02 270.70 499.46 269.04 495.73
  Q 253.40 460.61 251.54 422.16
  Z
  M 512.46 551.18
  Q 517.59 551.16 521.41 546.65
  Q 535.88 529.59 547.06 509.10
  C 554.66 495.16 561.09 477.40 557.25 462.42
  Q 550.30 435.32 525.25 421.53
  C 521.52 419.47 516.28 417.81 511.92 417.82
  C 507.56 417.84 502.34 419.55 498.62 421.64
  Q 473.69 435.63 466.96 462.79
  C 463.24 477.80 469.81 495.50 477.52 509.38
  Q 488.87 529.78 503.48 546.73
  Q 507.34 551.20 512.46 551.18
  Z"
/>
<path fill="#171816" d="
  M 511.92 417.82
  C 516.28 417.81 521.52 419.47 525.25 421.53
  Q 550.30 435.32 557.25 462.42
  C 561.09 477.40 554.66 495.16 547.06 509.10
  Q 535.88 529.59 521.41 546.65
  Q 517.59 551.16 512.46 551.18
  Q 507.34 551.20 503.48 546.73
  Q 488.87 529.78 477.52 509.38
  C 469.81 495.50 463.24 477.80 466.96 462.79
  Q 473.69 435.63 498.62 421.64
  C 502.34 419.55 507.56 417.84 511.92 417.82
  Z
  M 512.52 524.78
  Q 512.90 524.77 513.00 524.65
  Q 522.02 513.00 528.19 499.02
  C 531.23 492.12 533.56 486.39 534.73 480.24
  Q 538.44 460.76 524.72 446.03
  C 521.61 442.68 516.78 438.56 511.99 438.59
  C 507.21 438.62 502.44 442.80 499.36 446.18
  Q 485.82 461.08 489.77 480.52
  C 491.02 486.65 493.42 492.35 496.54 499.21
  Q 502.88 513.12 512.05 524.65
  Q 512.15 524.78 512.52 524.78
  Z"
/>
<path fill="#fff9e2" d="
  M 511.99 438.59
  C 516.78 438.56 521.61 442.68 524.72 446.03
  Q 538.44 460.76 534.73 480.24
  C 533.56 486.39 531.23 492.12 528.19 499.02
  Q 522.02 513.00 513.00 524.65
  Q 512.90 524.77 512.52 524.78
  Q 512.15 524.78 512.05 524.65
  Q 502.88 513.12 496.54 499.21
  C 493.42 492.35 491.02 486.65 489.77 480.52
  Q 485.82 461.08 499.36 446.18
  C 502.44 442.80 507.21 438.62 511.99 438.59
  Z"
/>
<path fill="#fff9e2" d="
  M 233.7873 520.4932
  A 94.87 93.89 -92.4 0 1 331.5676 611.3483
  A 94.87 93.89 -92.4 0 1 241.7327 710.0668
  A 94.87 93.89 -92.4 0 1 143.9524 619.2117
  A 94.87 93.89 -92.4 0 1 233.7873 520.4932
  Z
  M 178.65 566.05
  C 166.02 580.95 159.02 601.21 161.19 620.74
  C 162.14 629.31 173.04 632.00 177.53 624.80
  Q 179.01 622.43 178.96 618.00
  C 178.78 602.55 182.95 589.61 192.78 578.02
  C 202.60 566.42 214.68 560.19 229.95 557.83
  Q 234.34 557.16 236.43 555.31
  C 242.80 549.70 238.36 539.39 229.74 539.85
  C 210.13 540.91 191.29 551.14 178.65 566.05
  Z"
/>
<path fill="#171816" d="
  M 192.78 578.02
  C 182.95 589.61 178.78 602.55 178.96 618.00
  Q 179.01 622.43 177.53 624.80
  C 173.04 632.00 162.14 629.31 161.19 620.74
  C 159.02 601.21 166.02 580.95 178.65 566.05
  C 191.29 551.14 210.13 540.91 229.74 539.85
  C 238.36 539.39 242.80 549.70 236.43 555.31
  Q 234.34 557.16 229.95 557.83
  C 214.68 560.19 202.60 566.42 192.78 578.02
  Z"
/>
<path fill="#ffc62d" d="
  M 766.98 764.12
  A 0.34 0.34 0.0 0 0 766.32 764.03
  Q 747.57 833.27 729.61 907.85
  A 1.45 1.45 0.0 0 1 728.20 908.96
  C 716.55 909.00 704.37 908.14 693.26 908.10
  Q 612.21 907.82 558.00 907.97
  Q 557.13 907.97 556.70 907.83
  A 0.40 0.40 0.0 0 1 556.58 907.13
  C 589.08 881.54 619.06 852.12 644.66 820.85
  Q 678.68 779.29 701.11 733.16
  Q 711.25 712.29 720.20 691.73
  Q 721.27 689.27 721.53 688.33
  C 723.52 681.18 718.57 678.00 712.27 677.92
  Q 706.32 677.85 674.85 677.93
  A 0.94 0.94 0.0 0 1 673.91 676.89
  Q 674.06 675.48 674.91 673.70
  Q 676.12 671.14 684.30 654.33
  Q 700.32 621.40 715.17 584.60
  A 0.66 0.65 21.5 0 1 716.01 584.24
  Q 726.12 588.26 734.39 592.00
  C 768.43 607.38 797.43 637.65 812.21 671.78
  C 827.07 706.09 832.31 744.45 825.50 781.28
  Q 817.12 826.60 787.51 862.33
  C 782.10 868.86 774.92 876.00 768.07 882.60
  A 0.27 0.27 0.0 0 1 767.61 882.40
  L 766.98 764.12
  Z"
/>
<path fill="#fff9e2" d="
  M 539.34 643.05
  Q 569.41 641.01 597.61 634.84
  Q 636.50 626.34 671.74 609.02
  A 0.60 0.60 0.0 0 1 672.54 609.83
  L 618.27 716.02
  A 0.55 0.55 0.0 0 1 617.41 716.17
  L 539.21 643.43
  A 0.22 0.22 0.0 0 1 539.34 643.05
  Z"
/>
<path fill="#fff9e2" d="
  M 486.48 643.10
  A 0.29 0.28 26.4 0 1 486.65 643.59
  L 413.91 710.69
  A 0.66 0.65 -34.0 0 1 412.87 710.49
  L 367.52 614.03
  A 0.48 0.47 89.4 0 1 368.14 613.39
  C 405.67 630.24 444.99 638.31 486.48 643.10
  Z"
/>
<path fill="#ffc62d" d="
  M 512.55 649.82
  Q 512.65 649.82 512.76 649.84
  Q 512.84 649.87 512.93 649.94
  Q 532.05 667.78 543.23 678.41
  A 0.94 0.93 38.5 0 1 543.37 679.60
  L 528.70 701.39
  A 2.87 2.84 15.8 0 1 526.43 702.65
  Q 526.41 702.65 512.57 702.66
  Q 498.73 702.66 498.71 702.66
  A 2.87 2.84 -15.8 0 1 496.43 701.40
  L 481.75 679.63
  A 0.94 0.93 -38.6 0 1 481.88 678.44
  Q 493.06 667.80 512.16 649.94
  Q 512.25 649.87 512.33 649.84
  Q 512.44 649.82 512.55 649.82
  Z"
/>
<path fill="#ffc62d" d="
  M 357.34 714.56
  Q 339.32 718.49 322.89 727.87
  A 1.26 1.26 0.0 0 1 321.17 727.41
  L 310.25 708.50
  A 1.45 1.44 -34.5 0 1 310.60 706.65
  Q 324.48 695.47 335.64 681.71
  A 0.54 0.54 0.0 0 1 336.47 681.70
  Q 348.73 696.24 357.69 713.82
  A 0.52 0.52 0.0 0 1 357.34 714.56
  Z"
/>
<path fill="#fff9e2" d="
  M 423.17 732.10
  L 465.56 692.22
  A 0.35 0.35 0.0 0 1 466.11 692.31
  L 478.72 716.24
  A 0.35 0.35 0.0 0 1 478.75 716.47
  L 459.15 807.72
  A 0.35 0.35 0.0 0 1 458.49 807.79
  L 423.09 732.50
  A 0.35 0.35 0.0 0 1 423.17 732.10
  Z"
/>
<path fill="#fff9e2" d="
  M 547.59 715.99
  L 559.37 692.94
  A 0.52 0.52 0.0 0 1 560.18 692.80
  L 607.43 736.74
  A 0.52 0.52 0.0 0 1 607.54 737.36
  L 568.79 813.19
  A 0.52 0.52 0.0 0 1 567.82 813.06
  L 547.55 716.33
  A 0.52 0.52 0.0 0 1 547.59 715.99
  Z"
/>
<path fill="#ffc62d" d="
  M 384.51 777.81
  A 0.26 0.26 0.0 0 1 384.94 778.01
  C 385.13 801.94 373.00 825.85 356.35 842.78
  C 340.03 859.39 316.94 870.37 292.85 871.89
  A 2.90 2.87 64.1 0 1 290.72 871.14
  Q 288.18 868.86 286.75 867.01
  Q 272.46 848.53 264.16 828.51
  C 258.52 814.92 256.08 801.60 255.82 787.01
  C 255.47 767.52 258.74 748.36 268.03 731.10
  A 4.23 4.21 -88.3 0 1 269.94 729.29
  L 280.97 724.11
  A 1.08 1.08 0.0 0 1 282.37 724.55
  L 293.36 743.58
  A 0.76 0.74 59.0 0 1 293.12 744.59
  Q 285.95 749.15 280.33 753.29
  C 274.30 757.74 273.64 766.35 279.68 771.05
  C 285.88 775.87 292.12 772.54 297.79 768.53
  Q 319.58 753.10 340.71 743.73
  C 348.52 740.28 358.33 736.39 366.71 736.70
  C 372.97 736.93 380.42 741.53 377.53 748.78
  Q 376.04 752.52 371.54 757.55
  Q 366.71 762.96 360.71 767.96
  C 347.36 779.08 334.61 787.46 319.09 797.84
  Q 318.43 798.28 315.94 800.42
  C 309.14 806.27 312.63 816.25 320.29 818.76
  Q 324.30 820.07 329.22 817.20
  Q 358.05 800.39 384.51 777.81
  Z"
/>
<path fill="#ffc62d" d="
  M 513.43 723.96
  Q 521.77 724.00 525.96 724.03
  A 1.18 1.18 0.0 0 1 527.11 724.96
  Q 540.94 791.97 547.61 823.77
  Q 548.08 826.00 547.18 827.65
  Q 527.76 863.09 512.88 888.64
  A 0.29 0.12 -67.8 0 1 512.74 888.78
  Q 512.71 888.79 512.63 888.79
  Q 512.54 888.79 512.51 888.78
  A 0.29 0.12 68.4 0 1 512.37 888.64
  Q 497.74 862.94 478.67 827.32
  Q 477.79 825.66 478.28 823.43
  Q 485.26 791.70 499.74 724.83
  A 1.18 1.18 0.0 0 1 500.89 723.90
  Q 505.09 723.92 513.43 723.96
  Z"
/>
<path fill="#ffc62d" d="
  M 468.63 907.35
  A 0.25 0.24 -24.9 0 1 468.47 907.78
  L 328.00 907.78
  A 3.09 3.09 0.0 0 1 325.32 906.23
  L 316.31 890.64
  A 0.43 0.43 0.0 0 1 316.58 890.01
  C 331.40 886.23 344.84 880.88 357.43 872.18
  A 0.73 0.73 0.0 0 1 358.47 872.40
  Q 360.77 876.09 363.28 879.48
  C 368.77 886.87 378.77 890.53 386.70 883.94
  C 395.24 876.84 393.38 866.76 388.49 858.01
  Q 387.30 855.87 384.16 850.86
  A 0.80 0.79 45.8 0 1 384.17 849.99
  L 392.21 838.06
  A 0.45 0.45 0.0 0 1 392.92 838.00
  Q 421.44 868.90 454.04 895.44
  Q 466.08 905.23 468.63 907.35
  Z"
/>
</svg>
