<?xml version="1.0" encoding="UTF-8" standalone="no"?>
<!DOCTYPE svg PUBLIC "-//W3C//DTD SVG 1.1//EN" "http://www.w3.org/Graphics/SVG/1.1/DTD/svg11.dtd">
<svg xmlns="http://www.w3.org/2000/svg" version="1.1" viewBox="0.00 0.00 1024.00 1024.00">
<g stroke-width="2.00" fill="none" stroke-linecap="butt">
<path stroke="#838586" vector-effect="non-scaling-stroke" d="
  M 419.90 808.34
  C 409.27 818.30 391.05 827.73 379.19 840.19
  C 374.84 844.75 372.05 849.22 372.70 855.54
  Q 373.20 860.31 375.81 863.70
  C 382.47 872.35 394.04 869.40 401.62 863.36
  C 412.27 854.87 420.28 848.24 430.17 841.56
  C 436.59 837.23 444.79 832.89 451.34 828.37
  A 0.57 0.57 0.0 0 1 451.87 828.31
  L 465.55 833.85
  A 0.63 0.62 24.9 0 1 465.87 834.72
  Q 452.60 860.63 444.13 888.41
  Q 441.72 896.30 445.45 901.61
  Q 449.34 907.17 456.88 908.69
  C 469.04 911.13 475.49 899.21 479.90 889.39
  Q 490.58 865.64 497.84 840.71
  A 0.62 0.62 0.0 0 1 498.42 840.27
  L 525.16 839.31
  A 1.37 1.36 80.2 0 1 526.51 840.27
  C 532.47 859.30 537.71 875.95 546.05 893.46
  C 549.05 899.73 555.45 909.01 563.06 908.94
  C 570.98 908.85 579.23 903.76 580.77 895.65
  Q 581.66 890.98 580.70 887.25
  Q 573.60 859.45 559.11 834.29
  A 0.77 0.76 63.1 0 1 559.45 833.22
  L 569.93 828.45
  A 2.11 2.11 0.0 0 1 571.83 828.53
  Q 576.96 831.45 586.39 836.86
  C 599.72 844.51 616.20 859.39 625.34 865.80
  C 631.45 870.09 636.96 872.16 643.48 867.73
  C 651.51 862.27 655.37 852.46 648.72 844.02
  Q 639.26 832.01 626.23 823.52
  C 618.59 818.54 610.21 813.97 603.42 808.07
  A 0.39 0.38 60.9 0 1 603.61 807.40
  Q 606.21 807.00 609.11 806.09
  C 658.28 790.71 701.71 760.29 735.19 721.46
  Q 762.27 690.05 778.09 651.60
  Q 797.48 604.49 793.75 552.97
  Q 790.68 510.70 774.68 476.50
  C 768.72 463.75 762.98 452.46 754.36 441.83
  A 1.30 1.29 -47.3 0 1 754.30 440.28
  C 772.68 413.09 780.16 379.41 774.45 346.76
  C 771.61 330.50 767.08 314.20 759.48 298.93
  Q 746.03 271.90 724.65 251.08
  A 0.33 0.33 0.0 0 1 724.66 250.61
  C 731.43 244.46 739.83 237.13 746.29 228.57
  C 761.26 208.74 770.64 183.74 771.02 158.53
  C 771.19 147.21 770.99 137.80 768.08 127.76
  C 765.47 118.78 757.59 113.19 748.61 117.13
  Q 746.08 118.24 740.47 125.52
  Q 735.67 131.73 731.66 135.66
  C 707.32 159.46 674.79 176.96 642.21 185.54
  Q 639.17 186.34 637.38 185.40
  Q 623.45 178.06 614.36 173.93
  Q 595.49 165.35 576.16 160.92
  Q 553.50 155.73 545.49 154.70
  Q 513.65 150.61 481.74 154.75
  Q 461.23 157.41 450.76 159.80
  Q 418.46 167.14 385.76 184.97
  C 382.03 187.01 375.90 184.30 371.21 182.55
  Q 351.21 175.09 334.84 166.22
  Q 307.58 151.44 287.31 128.51
  Q 281.54 121.99 279.80 120.05
  C 272.83 112.30 262.23 115.68 258.69 124.74
  Q 256.63 130.04 255.62 136.12
  Q 252.83 153.06 253.80 169.02
  Q 255.84 202.75 277.50 228.28
  Q 287.57 240.15 299.54 250.35
  A 0.94 0.94 0.0 0 1 299.62 251.70
  C 287.04 265.35 275.97 281.10 267.31 296.57
  Q 261.03 307.76 255.90 322.38
  Q 243.76 356.93 250.29 393.15
  C 253.21 409.31 259.88 425.23 269.44 439.45
  A 2.67 2.66 -43.1 0 1 269.33 442.58
  Q 260.99 453.29 255.35 464.61
  Q 253.05 469.23 246.94 483.50
  C 235.86 509.35 229.91 536.91 229.16 564.52
  C 227.48 626.26 254.66 685.10 296.80 730.18
  Q 312.07 746.51 332.78 762.70
  Q 371.99 793.34 419.77 807.79
  A 0.33 0.33 0.0 0 1 419.90 808.34"
/>
<path stroke="#856d26" vector-effect="non-scaling-stroke" d="
  M 287.10 173.63
  A 0.26 0.25 11.0 0 0 286.71 173.89
  C 290.43 193.59 302.04 208.84 318.73 220.16
  C 334.12 230.60 348.50 236.94 365.47 241.22
  C 381.92 245.37 398.60 249.96 413.88 255.87
  C 440.63 266.22 462.59 286.01 478.25 309.80
  C 489.74 327.25 496.74 342.96 496.79 363.19
  A 0.51 0.51 0.0 0 0 497.42 363.68
  C 498.21 363.48 499.08 362.98 499.84 362.86
  Q 513.49 360.72 527.05 363.38
  A 0.47 0.47 0.0 0 0 527.61 362.95
  C 529.44 331.47 546.24 301.97 569.28 281.13
  C 578.90 272.42 589.46 264.62 600.99 259.49
  C 621.69 250.30 643.94 244.29 666.72 238.47
  Q 682.56 234.42 700.50 223.26
  Q 708.62 218.21 713.57 214.30
  C 725.91 204.55 732.55 190.25 737.05 175.53
  A 0.20 0.20 0.0 0 0 736.72 175.32
  Q 725.58 185.99 712.16 193.43
  C 688.61 206.50 665.36 213.93 637.82 220.63
  C 635.14 221.28 633.98 220.91 631.80 219.48
  Q 612.38 206.81 591.35 197.88
  Q 574.32 190.64 554.03 186.96
  Q 518.68 180.54 484.04 185.05
  C 451.70 189.27 421.20 202.25 392.86 219.33
  Q 390.14 220.97 387.75 220.73
  C 373.82 219.33 361.52 215.72 348.74 211.31
  C 327.59 204.01 306.10 191.33 289.67 176.48
  C 288.76 175.66 288.05 174.25 287.10 173.63"
/>
<path stroke="#856d26" vector-effect="non-scaling-stroke" d="
  M 413.04 448.54
  C 439.76 434.89 465.30 407.10 465.99 375.51
  Q 466.25 363.55 465.55 358.29
  Q 462.62 336.27 450.22 321.89
  Q 428.77 297.04 395.88 281.77
  Q 386.21 277.29 379.14 275.83
  C 368.95 273.72 357.37 273.43 346.75 274.77
  Q 333.14 276.50 321.98 283.62
  Q 296.31 299.98 286.64 328.04
  Q 280.23 346.64 280.15 363.95
  Q 279.96 409.89 315.81 437.03
  Q 349.09 462.22 392.07 455.43
  Q 396.38 454.75 402.79 452.69
  Q 408.53 450.84 413.04 448.54"
/>
<path stroke="#856d26" vector-effect="non-scaling-stroke" d="
  M 728.38 415.91
  Q 742.77 396.38 744.69 372.27
  Q 745.56 361.35 744.21 348.54
  C 740.60 314.39 712.86 281.72 678.89 275.29
  Q 662.35 272.16 641.84 276.92
  C 599.73 286.69 562.73 317.69 558.40 363.02
  C 555.66 391.57 567.51 418.08 590.09 435.79
  C 609.09 450.70 632.84 458.53 656.95 456.43
  C 668.30 455.45 678.73 453.35 689.14 448.36
  Q 712.83 437.02 728.38 415.91"
/>
<path stroke="#856d26" vector-effect="non-scaling-stroke" d="
  M 671.13 488.31
  Q 668.22 489.13 663.93 489.18
  Q 640.80 489.42 621.08 485.85
  C 606.87 483.28 593.01 475.91 581.40 467.10
  C 569.11 457.78 557.09 447.74 547.09 436.18
  A 0.38 0.37 -56.2 0 0 546.45 436.31
  C 546.01 437.68 545.72 439.23 545.10 440.47
  Q 537.00 456.73 525.84 472.33
  C 519.71 480.92 511.07 486.59 502.38 476.86
  Q 499.50 473.65 498.43 472.09
  Q 487.92 456.84 479.93 440.32
  Q 479.03 438.46 477.91 433.64
  A 0.25 0.25 0.0 0 0 477.46 433.55
  Q 456.03 463.31 422.37 479.37
  Q 407.92 486.26 392.21 488.18
  Q 371.95 490.65 352.76 488.95
  A 0.64 0.64 0.0 0 0 352.07 489.49
  Q 343.96 541.67 346.52 593.49
  Q 347.60 615.32 352.76 641.43
  C 356.91 662.37 364.23 682.75 372.83 700.69
  Q 382.54 720.95 397.01 740.02
  C 407.59 753.95 422.39 767.14 436.40 777.77
  C 447.02 785.83 458.32 793.59 470.29 798.43
  C 487.67 805.47 504.72 806.90 523.23 805.48
  C 539.99 804.20 557.33 796.77 571.51 787.75
  Q 589.10 776.57 604.57 761.72
  C 615.22 751.49 625.21 741.30 633.46 729.23
  C 642.28 716.33 651.01 701.35 656.52 687.53
  Q 665.42 665.25 670.71 637.74
  Q 675.88 610.93 676.63 584.74
  Q 677.42 557.00 676.65 542.49
  Q 675.24 515.82 671.95 488.85
  A 0.65 0.64 -11.2 0 0 671.13 488.31"
/>
<path stroke="#856d26" vector-effect="non-scaling-stroke" d="
  M 355.70 735.68
  Q 354.91 731.72 352.40 727.57
  C 347.20 719.01 341.93 709.99 337.73 700.22
  C 322.15 663.97 314.26 625.00 313.95 585.25
  Q 313.75 560.23 315.22 544.74
  Q 317.98 515.77 319.67 495.75
  C 320.08 490.92 320.05 483.14 317.18 479.80
  Q 309.69 471.07 298.23 466.54
  A 1.83 1.83 0.0 0 0 296.09 467.16
  C 288.58 477.43 282.72 489.10 277.52 500.27
  C 270.88 514.57 267.67 528.30 265.02 544.23
  Q 262.79 557.61 263.35 572.38
  Q 264.85 611.76 281.73 647.24
  Q 291.00 666.72 303.15 683.85
  C 311.95 696.25 322.36 706.09 333.69 717.21
  C 340.33 723.74 347.95 730.09 355.34 735.90
  A 0.23 0.22 -76.3 0 0 355.70 735.68"
/>
<path stroke="#856d26" vector-effect="non-scaling-stroke" d="
  M 667.14 736.58
  Q 676.34 730.30 685.07 722.05
  C 699.23 708.65 712.67 694.84 724.38 678.65
  Q 744.57 650.74 753.29 618.23
  C 760.52 591.27 760.81 562.13 756.92 534.20
  C 756.05 527.93 753.97 519.96 752.13 514.63
  Q 748.47 504.01 743.75 493.53
  C 739.11 483.21 735.96 475.65 729.67 468.43
  A 1.26 1.25 54.5 0 0 728.10 468.16
  Q 720.92 472.31 715.38 475.88
  C 709.79 479.47 707.83 481.52 706.52 487.79
  Q 704.82 495.93 705.47 504.00
  Q 706.10 511.95 707.81 528.93
  C 709.03 541.02 709.43 554.33 709.69 565.00
  Q 710.54 599.37 705.03 632.55
  Q 699.77 664.27 686.19 695.51
  C 680.98 707.51 673.65 722.73 666.78 736.26
  A 0.25 0.25 0.0 0 0 667.14 736.58"
/>
<path stroke="#856d26" vector-effect="non-scaling-stroke" d="
  M 395.4221 318.0623
  A 46.36 44.00 -93.2 0 0 354.0786 366.8061
  A 46.36 44.00 -93.2 0 0 400.5979 410.6377
  A 46.36 44.00 -93.2 0 0 441.9414 361.8939
  A 46.36 44.00 -93.2 0 0 395.4221 318.0623"
/>
<path stroke="#856d26" vector-effect="non-scaling-stroke" d="
  M 630.6946 316.9236
  A 46.58 44.73 -85.5 0 0 582.4479 359.8505
  A 46.58 44.73 -85.5 0 0 623.3854 409.7964
  A 46.58 44.73 -85.5 0 0 671.6321 366.8695
  A 46.58 44.73 -85.5 0 0 630.6946 316.9236"
/>
</g>
<path fill="none" d="
  M 1024.00 0.00
  L 1024.00 1024.00
  L 0.00 1024.00
  L 0.00 0.00
  L 1024.00 0.00
  Z
  M 419.90 808.34
  C 409.27 818.30 391.05 827.73 379.19 840.19
  C 374.84 844.75 372.05 849.22 372.70 855.54
  Q 373.20 860.31 375.81 863.70
  C 382.47 872.35 394.04 869.40 401.62 863.36
  C 412.27 854.87 420.28 848.24 430.17 841.56
  C 436.59 837.23 444.79 832.89 451.34 828.37
  A 0.57 0.57 0.0 0 1 451.87 828.31
  L 465.55 833.85
  A 0.63 0.62 24.9 0 1 465.87 834.72
  Q 452.60 860.63 444.13 888.41
  Q 441.72 896.30 445.45 901.61
  Q 449.34 907.17 456.88 908.69
  C 469.04 911.13 475.49 899.21 479.90 889.39
  Q 490.58 865.64 497.84 840.71
  A 0.62 0.62 0.0 0 1 498.42 840.27
  L 525.16 839.31
  A 1.37 1.36 80.2 0 1 526.51 840.27
  C 532.47 859.30 537.71 875.95 546.05 893.46
  C 549.05 899.73 555.45 909.01 563.06 908.94
  C 570.98 908.85 579.23 903.76 580.77 895.65
  Q 581.66 890.98 580.70 887.25
  Q 573.60 859.45 559.11 834.29
  A 0.77 0.76 63.1 0 1 559.45 833.22
  L 569.93 828.45
  A 2.11 2.11 0.0 0 1 571.83 828.53
  Q 576.96 831.45 586.39 836.86
  C 599.72 844.51 616.20 859.39 625.34 865.80
  C 631.45 870.09 636.96 872.16 643.48 867.73
  C 651.51 862.27 655.37 852.46 648.72 844.02
  Q 639.26 832.01 626.23 823.52
  C 618.59 818.54 610.21 813.97 603.42 808.07
  A 0.39 0.38 60.9 0 1 603.61 807.40
  Q 606.21 807.00 609.11 806.09
  C 658.28 790.71 701.71 760.29 735.19 721.46
  Q 762.27 690.05 778.09 651.60
  Q 797.48 604.49 793.75 552.97
  Q 790.68 510.70 774.68 476.50
  C 768.72 463.75 762.98 452.46 754.36 441.83
  A 1.30 1.29 -47.3 0 1 754.30 440.28
  C 772.68 413.09 780.16 379.41 774.45 346.76
  C 771.61 330.50 767.08 314.20 759.48 298.93
  Q 746.03 271.90 724.65 251.08
  A 0.33 0.33 0.0 0 1 724.66 250.61
  C 731.43 244.46 739.83 237.13 746.29 228.57
  C 761.26 208.74 770.64 183.74 771.02 158.53
  C 771.19 147.21 770.99 137.80 768.08 127.76
  C 765.47 118.78 757.59 113.19 748.61 117.13
  Q 746.08 118.24 740.47 125.52
  Q 735.67 131.73 731.66 135.66
  C 707.32 159.46 674.79 176.96 642.21 185.54
  Q 639.17 186.34 637.38 185.40
  Q 623.45 178.06 614.36 173.93
  Q 595.49 165.35 576.16 160.92
  Q 553.50 155.73 545.49 154.70
  Q 513.65 150.61 481.74 154.75
  Q 461.23 157.41 450.76 159.80
  Q 418.46 167.14 385.76 184.97
  C 382.03 187.01 375.90 184.30 371.21 182.55
  Q 351.21 175.09 334.84 166.22
  Q 307.58 151.44 287.31 128.51
  Q 281.54 121.99 279.80 120.05
  C 272.83 112.30 262.23 115.68 258.69 124.74
  Q 256.63 130.04 255.62 136.12
  Q 252.83 153.06 253.80 169.02
  Q 255.84 202.75 277.50 228.28
  Q 287.57 240.15 299.54 250.35
  A 0.94 0.94 0.0 0 1 299.62 251.70
  C 287.04 265.35 275.97 281.10 267.31 296.57
  Q 261.03 307.76 255.90 322.38
  Q 243.76 356.93 250.29 393.15
  C 253.21 409.31 259.88 425.23 269.44 439.45
  A 2.67 2.66 -43.1 0 1 269.33 442.58
  Q 260.99 453.29 255.35 464.61
  Q 253.05 469.23 246.94 483.50
  C 235.86 509.35 229.91 536.91 229.16 564.52
  C 227.48 626.26 254.66 685.10 296.80 730.18
  Q 312.07 746.51 332.78 762.70
  Q 371.99 793.34 419.77 807.79
  A 0.33 0.33 0.0 0 1 419.90 808.34
  Z"
/>
<path fill="#0b1118" d="
  M 419.90 808.34
  A 0.33 0.33 0.0 0 0 419.77 807.79
  Q 371.99 793.34 332.78 762.70
  Q 312.07 746.51 296.80 730.18
  C 254.66 685.10 227.48 626.26 229.16 564.52
  C 229.91 536.91 235.86 509.35 246.94 483.50
  Q 253.05 469.23 255.35 464.61
  Q 260.99 453.29 269.33 442.58
  A 2.67 2.66 -43.1 0 0 269.44 439.45
  C 259.88 425.23 253.21 409.31 250.29 393.15
  Q 243.76 356.93 255.90 322.38
  Q 261.03 307.76 267.31 296.57
  C 275.97 281.10 287.04 265.35 299.62 251.70
  A 0.94 0.94 0.0 0 0 299.54 250.35
  Q 287.57 240.15 277.50 228.28
  Q 255.84 202.75 253.80 169.02
  Q 252.83 153.06 255.62 136.12
  Q 256.63 130.04 258.69 124.74
  C 262.23 115.68 272.83 112.30 279.80 120.05
  Q 281.54 121.99 287.31 128.51
  Q 307.58 151.44 334.84 166.22
  Q 351.21 175.09 371.21 182.55
  C 375.90 184.30 382.03 187.01 385.76 184.97
  Q 418.46 167.14 450.76 159.80
  Q 461.23 157.41 481.74 154.75
  Q 513.65 150.61 545.49 154.70
  Q 553.50 155.73 576.16 160.92
  Q 595.49 165.35 614.36 173.93
  Q 623.45 178.06 637.38 185.40
  Q 639.17 186.34 642.21 185.54
  C 674.79 176.96 707.32 159.46 731.66 135.66
  Q 735.67 131.73 740.47 125.52
  Q 746.08 118.24 748.61 117.13
  C 757.59 113.19 765.47 118.78 768.08 127.76
  C 770.99 137.80 771.19 147.21 771.02 158.53
  C 770.64 183.74 761.26 208.74 746.29 228.57
  C 739.83 237.13 731.43 244.46 724.66 250.61
  A 0.33 0.33 0.0 0 0 724.65 251.08
  Q 746.03 271.90 759.48 298.93
  C 767.08 314.20 771.61 330.50 774.45 346.76
  C 780.16 379.41 772.68 413.09 754.30 440.28
  A 1.30 1.29 -47.3 0 0 754.36 441.83
  C 762.98 452.46 768.72 463.75 774.68 476.50
  Q 790.68 510.70 793.75 552.97
  Q 797.48 604.49 778.09 651.60
  Q 762.27 690.05 735.19 721.46
  C 701.71 760.29 658.28 790.71 609.11 806.09
  Q 606.21 807.00 603.61 807.40
  A 0.39 0.38 60.9 0 0 603.42 808.07
  C 610.21 813.97 618.59 818.54 626.23 823.52
  Q 639.26 832.01 648.72 844.02
  C 655.37 852.46 651.51 862.27 643.48 867.73
  C 636.96 872.16 631.45 870.09 625.34 865.80
  C 616.20 859.39 599.72 844.51 586.39 836.86
  Q 576.96 831.45 571.83 828.53
  A 2.11 2.11 0.0 0 0 569.93 828.45
  L 559.45 833.22
  A 0.77 0.76 63.1 0 0 559.11 834.29
  Q 573.60 859.45 580.70 887.25
  Q 581.66 890.98 580.77 895.65
  C 579.23 903.76 570.98 908.85 563.06 908.94
  C 555.45 909.01 549.05 899.73 546.05 893.46
  C 537.71 875.95 532.47 859.30 526.51 840.27
  A 1.37 1.36 80.2 0 0 525.16 839.31
  L 498.42 840.27
  A 0.62 0.62 0.0 0 0 497.84 840.71
  Q 490.58 865.64 479.90 889.39
  C 475.49 899.21 469.04 911.13 456.88 908.69
  Q 449.34 907.17 445.45 901.61
  Q 441.72 896.30 444.13 888.41
  Q 452.60 860.63 465.87 834.72
  A 0.63 0.62 24.9 0 0 465.55 833.85
  L 451.87 828.31
  A 0.57 0.57 0.0 0 0 451.34 828.37
  C 444.79 832.89 436.59 837.23 430.17 841.56
  C 420.28 848.24 412.27 854.87 401.62 863.36
  C 394.04 869.40 382.47 872.35 375.81 863.70
  Q 373.20 860.31 372.70 855.54
  C 372.05 849.22 374.84 844.75 379.19 840.19
  C 391.05 827.73 409.27 818.30 419.90 808.34
  Z
  M 287.10 173.63
  A 0.26 0.25 11.0 0 0 286.71 173.89
  C 290.43 193.59 302.04 208.84 318.73 220.16
  C 334.12 230.60 348.50 236.94 365.47 241.22
  C 381.92 245.37 398.60 249.96 413.88 255.87
  C 440.63 266.22 462.59 286.01 478.25 309.80
  C 489.74 327.25 496.74 342.96 496.79 363.19
  A 0.51 0.51 0.0 0 0 497.42 363.68
  C 498.21 363.48 499.08 362.98 499.84 362.86
  Q 513.49 360.72 527.05 363.38
  A 0.47 0.47 0.0 0 0 527.61 362.95
  C 529.44 331.47 546.24 301.97 569.28 281.13
  C 578.90 272.42 589.46 264.62 600.99 259.49
  C 621.69 250.30 643.94 244.29 666.72 238.47
  Q 682.56 234.42 700.50 223.26
  Q 708.62 218.21 713.57 214.30
  C 725.91 204.55 732.55 190.25 737.05 175.53
  A 0.20 0.20 0.0 0 0 736.72 175.32
  Q 725.58 185.99 712.16 193.43
  C 688.61 206.50 665.36 213.93 637.82 220.63
  C 635.14 221.28 633.98 220.91 631.80 219.48
  Q 612.38 206.81 591.35 197.88
  Q 574.32 190.64 554.03 186.96
  Q 518.68 180.54 484.04 185.05
  C 451.70 189.27 421.20 202.25 392.86 219.33
  Q 390.14 220.97 387.75 220.73
  C 373.82 219.33 361.52 215.72 348.74 211.31
  C 327.59 204.01 306.10 191.33 289.67 176.48
  C 288.76 175.66 288.05 174.25 287.10 173.63
  Z
  M 413.04 448.54
  C 439.76 434.89 465.30 407.10 465.99 375.51
  Q 466.25 363.55 465.55 358.29
  Q 462.62 336.27 450.22 321.89
  Q 428.77 297.04 395.88 281.77
  Q 386.21 277.29 379.14 275.83
  C 368.95 273.72 357.37 273.43 346.75 274.77
  Q 333.14 276.50 321.98 283.62
  Q 296.31 299.98 286.64 328.04
  Q 280.23 346.64 280.15 363.95
  Q 279.96 409.89 315.81 437.03
  Q 349.09 462.22 392.07 455.43
  Q 396.38 454.75 402.79 452.69
  Q 408.53 450.84 413.04 448.54
  Z
  M 728.38 415.91
  Q 742.77 396.38 744.69 372.27
  Q 745.56 361.35 744.21 348.54
  C 740.60 314.39 712.86 281.72 678.89 275.29
  Q 662.35 272.16 641.84 276.92
  C 599.73 286.69 562.73 317.69 558.40 363.02
  C 555.66 391.57 567.51 418.08 590.09 435.79
  C 609.09 450.70 632.84 458.53 656.95 456.43
  C 668.30 455.45 678.73 453.35 689.14 448.36
  Q 712.83 437.02 728.38 415.91
  Z
  M 671.13 488.31
  Q 668.22 489.13 663.93 489.18
  Q 640.80 489.42 621.08 485.85
  C 606.87 483.28 593.01 475.91 581.40 467.10
  C 569.11 457.78 557.09 447.74 547.09 436.18
  A 0.38 0.37 -56.2 0 0 546.45 436.31
  C 546.01 437.68 545.72 439.23 545.10 440.47
  Q 537.00 456.73 525.84 472.33
  C 519.71 480.92 511.07 486.59 502.38 476.86
  Q 499.50 473.65 498.43 472.09
  Q 487.92 456.84 479.93 440.32
  Q 479.03 438.46 477.91 433.64
  A 0.25 0.25 0.0 0 0 477.46 433.55
  Q 456.03 463.31 422.37 479.37
  Q 407.92 486.26 392.21 488.18
  Q 371.95 490.65 352.76 488.95
  A 0.64 0.64 0.0 0 0 352.07 489.49
  Q 343.96 541.67 346.52 593.49
  Q 347.60 615.32 352.76 641.43
  C 356.91 662.37 364.23 682.75 372.83 700.69
  Q 382.54 720.95 397.01 740.02
  C 407.59 753.95 422.39 767.14 436.40 777.77
  C 447.02 785.83 458.32 793.59 470.29 798.43
  C 487.67 805.47 504.72 806.90 523.23 805.48
  C 539.99 804.20 557.33 796.77 571.51 787.75
  Q 589.10 776.57 604.57 761.72
  C 615.22 751.49 625.21 741.30 633.46 729.23
  C 642.28 716.33 651.01 701.35 656.52 687.53
  Q 665.42 665.25 670.71 637.74
  Q 675.88 610.93 676.63 584.74
  Q 677.42 557.00 676.65 542.49
  Q 675.24 515.82 671.95 488.85
  A 0.65 0.64 -11.2 0 0 671.13 488.31
  Z
  M 355.70 735.68
  Q 354.91 731.72 352.40 727.57
  C 347.20 719.01 341.93 709.99 337.73 700.22
  C 322.15 663.97 314.26 625.00 313.95 585.25
  Q 313.75 560.23 315.22 544.74
  Q 317.98 515.77 319.67 495.75
  C 320.08 490.92 320.05 483.14 317.18 479.80
  Q 309.69 471.07 298.23 466.54
  A 1.83 1.83 0.0 0 0 296.09 467.16
  C 288.58 477.43 282.72 489.10 277.52 500.27
  C 270.88 514.57 267.67 528.30 265.02 544.23
  Q 262.79 557.61 263.35 572.38
  Q 264.85 611.76 281.73 647.24
  Q 291.00 666.72 303.15 683.85
  C 311.95 696.25 322.36 706.09 333.69 717.21
  C 340.33 723.74 347.95 730.09 355.34 735.90
  A 0.23 0.22 -76.3 0 0 355.70 735.68
  Z
  M 667.14 736.58
  Q 676.34 730.30 685.07 722.05
  C 699.23 708.65 712.67 694.84 724.38 678.65
  Q 744.57 650.74 753.29 618.23
  C 760.52 591.27 760.81 562.13 756.92 534.20
  C 756.05 527.93 753.97 519.96 752.13 514.63
  Q 748.47 504.01 743.75 493.53
  C 739.11 483.21 735.96 475.65 729.67 468.43
  A 1.26 1.25 54.5 0 0 728.10 468.16
  Q 720.92 472.31 715.38 475.88
  C 709.79 479.47 707.83 481.52 706.52 487.79
  Q 704.82 495.93 705.47 504.00
  Q 706.10 511.95 707.81 528.93
  C 709.03 541.02 709.43 554.33 709.69 565.00
  Q 710.54 599.37 705.03 632.55
  Q 699.77 664.27 686.19 695.51
  C 680.98 707.51 673.65 722.73 666.78 736.26
  A 0.25 0.25 0.0 0 0 667.14 736.58
  Z"
/>
<path fill="#ffc834" d="
  M 287.10 173.63
  C 288.05 174.25 288.76 175.66 289.67 176.48
  C 306.10 191.33 327.59 204.01 348.74 211.31
  C 361.52 215.72 373.82 219.33 387.75 220.73
  Q 390.14 220.97 392.86 219.33
  C 421.20 202.25 451.70 189.27 484.04 185.05
  Q 518.68 180.54 554.03 186.96
  Q 574.32 190.64 591.35 197.88
  Q 612.38 206.81 631.80 219.48
  C 633.98 220.91 635.14 221.28 637.82 220.63
  C 665.36 213.93 688.61 206.50 712.16 193.43
  Q 725.58 185.99 736.72 175.32
  A 0.20 0.20 0.0 0 1 737.05 175.53
  C 732.55 190.25 725.91 204.55 713.57 214.30
  Q 708.62 218.21 700.50 223.26
  Q 682.56 234.42 666.72 238.47
  C 643.94 244.29 621.69 250.30 600.99 259.49
  C 589.46 264.62 578.90 272.42 569.28 281.13
  C 546.24 301.97 529.44 331.47 527.61 362.95
  A 0.47 0.47 0.0 0 1 527.05 363.38
  Q 513.49 360.72 499.84 362.86
  C 499.08 362.98 498.21 363.48 497.42 363.68
  A 0.51 0.51 0.0 0 1 496.79 363.19
  C 496.74 342.96 489.74 327.25 478.25 309.80
  C 462.59 286.01 440.63 266.22 413.88 255.87
  C 398.60 249.96 381.92 245.37 365.47 241.22
  C 348.50 236.94 334.12 230.60 318.73 220.16
  C 302.04 208.84 290.43 193.59 286.71 173.89
  A 0.26 0.25 11.0 0 1 287.10 173.63
  Z"
/>
<path fill="#ffc834" d="
  M 465.99 375.51
  C 465.30 407.10 439.76 434.89 413.04 448.54
  Q 408.53 450.84 402.79 452.69
  Q 396.38 454.75 392.07 455.43
  Q 349.09 462.22 315.81 437.03
  Q 279.96 409.89 280.15 363.95
  Q 280.23 346.64 286.64 328.04
  Q 296.31 299.98 321.98 283.62
  Q 333.14 276.50 346.75 274.77
  C 357.37 273.43 368.95 273.72 379.14 275.83
  Q 386.21 277.29 395.88 281.77
  Q 428.77 297.04 450.22 321.89
  Q 462.62 336.27 465.55 358.29
  Q 466.25 363.55 465.99 375.51
  Z
  M 395.4221 318.0623
  A 46.36 44.00 -93.2 0 0 354.0786 366.8061
  A 46.36 44.00 -93.2 0 0 400.5979 410.6377
  A 46.36 44.00 -93.2 0 0 441.9414 361.8939
  A 46.36 44.00 -93.2 0 0 395.4221 318.0623
  Z"
/>
<path fill="#ffc834" d="
  M 728.38 415.91
  Q 712.83 437.02 689.14 448.36
  C 678.73 453.35 668.30 455.45 656.95 456.43
  C 632.84 458.53 609.09 450.70 590.09 435.79
  C 567.51 418.08 555.66 391.57 558.40 363.02
  C 562.73 317.69 599.73 286.69 641.84 276.92
  Q 662.35 272.16 678.89 275.29
  C 712.86 281.72 740.60 314.39 744.21 348.54
  Q 745.56 361.35 744.69 372.27
  Q 742.77 396.38 728.38 415.91
  Z
  M 630.6946 316.9236
  A 46.58 44.73 -85.5 0 0 582.4479 359.8505
  A 46.58 44.73 -85.5 0 0 623.3854 409.7964
  A 46.58 44.73 -85.5 0 0 671.6321 366.8695
  A 46.58 44.73 -85.5 0 0 630.6946 316.9236
  Z"
/>
<ellipse fill="#0b1118" cx="0.00" cy="0.00" transform="translate(627.04,363.36) rotate(-85.5)" rx="46.58" ry="44.73"/>
<ellipse fill="#0b1118" cx="0.00" cy="0.00" transform="translate(398.01,364.35) rotate(-93.2)" rx="46.36" ry="44.00"/>
<path fill="#ffc834" d="
  M 671.13 488.31
  A 0.65 0.64 -11.2 0 1 671.95 488.85
  Q 675.24 515.82 676.65 542.49
  Q 677.42 557.00 676.63 584.74
  Q 675.88 610.93 670.71 637.74
  Q 665.42 665.25 656.52 687.53
  C 651.01 701.35 642.28 716.33 633.46 729.23
  C 625.21 741.30 615.22 751.49 604.57 761.72
  Q 589.10 776.57 571.51 787.75
  C 557.33 796.77 539.99 804.20 523.23 805.48
  C 504.72 806.90 487.67 805.47 470.29 798.43
  C 458.32 793.59 447.02 785.83 436.40 777.77
  C 422.39 767.14 407.59 753.95 397.01 740.02
  Q 382.54 720.95 372.83 700.69
  C 364.23 682.75 356.91 662.37 352.76 641.43
  Q 347.60 615.32 346.52 593.49
  Q 343.96 541.67 352.07 489.49
  A 0.64 0.64 0.0 0 1 352.76 488.95
  Q 371.95 490.65 392.21 488.18
  Q 407.92 486.26 422.37 479.37
  Q 456.03 463.31 477.46 433.55
  A 0.25 0.25 0.0 0 1 477.91 433.64
  Q 479.03 438.46 479.93 440.32
  Q 487.92 456.84 498.43 472.09
  Q 499.50 473.65 502.38 476.86
  C 511.07 486.59 519.71 480.92 525.84 472.33
  Q 537.00 456.73 545.10 440.47
  C 545.72 439.23 546.01 437.68 546.45 436.31
  A 0.38 0.37 -56.2 0 1 547.09 436.18
  C 557.09 447.74 569.11 457.78 581.40 467.10
  C 593.01 475.91 606.87 483.28 621.08 485.85
  Q 640.80 489.42 663.93 489.18
  Q 668.22 489.13 671.13 488.31
  Z"
/>
<path fill="#ffc834" d="
  M 355.70 735.68
  A 0.23 0.22 -76.3 0 1 355.34 735.90
  C 347.95 730.09 340.33 723.74 333.69 717.21
  C 322.36 706.09 311.95 696.25 303.15 683.85
  Q 291.00 666.72 281.73 647.24
  Q 264.85 611.76 263.35 572.38
  Q 262.79 557.61 265.02 544.23
  C 267.67 528.30 270.88 514.57 277.52 500.27
  C 282.72 489.10 288.58 477.43 296.09 467.16
  A 1.83 1.83 0.0 0 1 298.23 466.54
  Q 309.69 471.07 317.18 479.80
  C 320.05 483.14 320.08 490.92 319.67 495.75
  Q 317.98 515.77 315.22 544.74
  Q 313.75 560.23 313.95 585.25
  C 314.26 625.00 322.15 663.97 337.73 700.22
  C 341.93 709.99 347.20 719.01 352.40 727.57
  Q 354.91 731.72 355.70 735.68
  Z"
/>
<path fill="#ffc834" d="
  M 667.14 736.58
  A 0.25 0.25 0.0 0 1 666.78 736.26
  C 673.65 722.73 680.98 707.51 686.19 695.51
  Q 699.77 664.27 705.03 632.55
  Q 710.54 599.37 709.69 565.00
  C 709.43 554.33 709.03 541.02 707.81 528.93
  Q 706.10 511.95 705.47 504.00
  Q 704.82 495.93 706.52 487.79
  C 707.83 481.52 709.79 479.47 715.38 475.88
  Q 720.92 472.31 728.10 468.16
  A 1.26 1.25 54.5 0 1 729.67 468.43
  C 735.96 475.65 739.11 483.21 743.75 493.53
  Q 748.47 504.01 752.13 514.63
  C 753.97 519.96 756.05 527.93 756.92 534.20
  C 760.81 562.13 760.52 591.27 753.29 618.23
  Q 744.57 650.74 724.38 678.65
  C 712.67 694.84 699.23 708.65 685.07 722.05
  Q 676.34 730.30 667.14 736.58
  Z"
/>
</svg>
