<?xml version="1.0" encoding="UTF-8" standalone="no"?>
<!DOCTYPE svg PUBLIC "-//W3C//DTD SVG 1.1//EN" "http://www.w3.org/Graphics/SVG/1.1/DTD/svg11.dtd">
<svg width="100%" height="100%" viewBox="0 0 1080 1080" version="1.1" xmlns="http://www.w3.org/2000/svg" xmlns:xlink="http://www.w3.org/1999/xlink" xml:space="preserve" xmlns:serif="http://www.serif.com/" style="fill-rule:evenodd;clip-rule:evenodd;">
    <g>
        <path d="M852.337,502.043c-4.267,-6.077 -8.008,-10.694 -11.223,-13.852c-3.239,-3.181 -5.573,-5.598 -7,-7.25c-0.302,-0.339 -0.375,-0.824 -0.188,-1.239l2.647,-5.942" style="fill:none;fill-rule:nonzero;stroke:#9e876d;stroke-width:2.33px;"/>
        <path d="M836.573,473.76c13.47,-28.722 19.47,-62.53 17.858,-93.858c-2.753,-53.67 -20.211,-106.054 -47.716,-152.057c-0.124,-0.192 -0.084,-0.449 0.094,-0.602c14.054,-12.37 24.595,-27.136 31.623,-44.3c9.293,-22.693 13.595,-46.219 12.905,-70.58c-0.235,-8.072 -0.306,-15.299 -4.282,-21.183c-7.047,-10.423 -21.329,-13.052 -30.094,-3.196c-6.509,7.327 -12.085,13.122 -16.729,17.384c-21.05,19.326 -45.336,32.39 -72.856,39.193c-5.161,1.281 -10.624,2.463 -16.388,3.544c-2.416,0.455 -4.13,0.42 -5.141,-0.105c-19.215,-9.991 -39.18,-17.955 -59.893,-23.893c-40.552,-11.616 -83.221,-17.152 -125.373,-14.743c-50.611,2.895 -100.315,16.399 -146.302,38.486c-1.381,0.656 -2.918,0.795 -4.612,0.417c-11.611,-2.595 -24.599,-5.363 -35.881,-9.555c-23.764,-8.833 -44.042,-22.168 -60.834,-40.004c-1.357,-1.443 -4.753,-5.242 -10.188,-11.396c-3.38,-3.822 -7.702,-5.636 -12.964,-5.443c-13.729,0.498 -18.8,10.307 -19.706,22.399c-1.796,23.966 0.922,46.894 8.153,68.784c6.953,21.055 18.317,38.995 34.67,53.971c0.547,0.498 0.665,1.311 0.282,1.934c-15.082,24.588 -26.576,52.106 -34.634,79.184c-16.553,55.616 -18,117.335 7.317,170.75c0.333,0.709 0.188,1.553 -0.365,2.119c-22.062,22.539 -38.799,48.625 -50.21,78.258c-7.804,20.253 -13.102,40.092 -15.894,59.519c-5.129,35.664 -1.67,70.587 10.376,104.768c3.467,9.853 6.737,18.292 9.812,25.318c9.529,21.797 21.548,41.552 36.058,59.264c11.552,14.091 26.109,28.866 43.669,44.323c21.011,18.496 45.787,35.846 71.281,50.995c0.358,0.214 0.577,0.597 0.577,1.01c0,0.279 -0.1,0.549 -0.283,0.762c-12.172,14.16 -17.451,30.348 -15.835,48.562c0.761,8.586 3.302,16.458 7.623,23.615c7.2,11.929 17.106,19.875 31.776,19.099c7.443,-0.394 14.345,-2.668 20.705,-6.822c0.662,-0.429 1.547,-0.357 2.141,0.174c4.4,3.961 8.424,7.285 14.177,7.702c9.96,0.71 18.968,-2.081 27.022,-8.374c0.598,-0.472 1.447,-0.495 2.071,-0.058c13.635,9.462 29.587,10.539 44.011,2.56c14.917,-8.258 23.811,-22.492 27.587,-38.683c0.11,-0.493 0.558,-0.847 1.071,-0.846l54.904,0c0.394,0.002 0.742,0.263 0.847,0.637c1.02,3.698 1.765,6.312 2.235,7.841c3.914,12.655 10.949,22.268 21.106,28.838c15.105,9.764 32.352,10.355 47.951,1.078c0.56,-0.336 1.273,-0.299 1.789,0.092c5.803,4.394 12.376,6.721 19.717,6.984c8.235,0.301 14.023,-2.096 19.893,-7.737c0.53,-0.507 1.349,-0.59 1.965,-0.197c11.976,7.61 28.435,9.926 40.905,2.687c12.87,-7.47 20.94,-26.29 21.788,-40.605c0.541,-9.219 -0.397,-17.076 -2.812,-23.569c-3.067,-8.238 -7.388,-16.021 -12.965,-23.349c-0.01,-0.014 -0.02,-0.028 -0.03,-0.043c-0.364,-0.539 -0.217,-1.276 0.326,-1.631c0.015,-0.01 0.03,-0.019 0.046,-0.028c32.744,-19.566 62.818,-42.548 90.221,-68.946c18.117,-17.466 34.952,-38.359 46.94,-60.04c9.921,-17.952 18.086,-36.823 24.493,-56.612c10.204,-31.51 13.067,-63.757 8.588,-96.742c-4.549,-33.433 -15.337,-65.016 -32.364,-94.751c-4.933,-8.624 -10.419,-16.631 -16.458,-24.02" style="fill:none;fill-rule:nonzero;stroke:#bda472;stroke-width:2.33px;"/>
        <path d="M836.573,473.76c-0.032,-0.131 -0.055,-0.235 -0.071,-0.312c-0.028,-0.101 -0.121,-0.171 -0.227,-0.171c-0.087,0 -0.168,0.048 -0.208,0.124l-2.953,5.015c-0.593,1.018 -0.45,2.306 0.353,3.174l18.87,20.453" style="fill:none;fill-rule:nonzero;stroke:#643c05;stroke-width:2.33px;"/>
        <path d="M732.881,178.808c-11.513,1.621 -19.548,2.498 -24.105,2.629c-5.882,0.17 -11.415,-0.911 -16.6,-3.243c-7.529,-3.393 -17.905,-9.335 -26.587,-12.983c-27.05,-11.366 -55.257,-18.99 -84.621,-22.874c-9.2,-1.212 -16.596,-1.946 -22.188,-2.201c-13.212,-0.602 -29.458,-0.972 -44.67,0.522c-5.105,0.501 -8.791,0.888 -11.058,1.158c-16.76,2.007 -33.501,5.316 -50.222,9.925c-4.941,1.359 -8.557,2.714 -10.847,4.065" style="fill:none;fill-rule:nonzero;stroke:#643c05;stroke-width:2.33px;"/>
        <path d="M441.983,155.806l-22.858,8.444" style="fill:none;fill-rule:nonzero;stroke:#bd8e26;stroke-width:2.33px;"/>
        <path d="M419.125,164.25c-0.902,-0.232 -1.973,-0.097 -3.212,0.405c-8.953,3.637 -18.047,8.628 -23.694,11.698c-8.093,4.389 -15.105,5.964 -23.152,5.316c-21.988,-1.749 -42.493,-8.629 -63.292,-17.964c-13.678,-6.138 -26.121,-13.832 -37.329,-23.082c-0.431,-0.348 -0.702,-0.386 -0.812,-0.116" style="fill:none;fill-rule:nonzero;stroke:#643c05;stroke-width:2.33px;"/>
        <path d="M267.634,140.507l-0.776,-0.475c-0.095,-0.058 -0.205,-0.089 -0.318,-0.089c-0.329,0 -0.6,0.266 -0.6,0.59l0,0.298" style="fill:none;fill-rule:nonzero;stroke:#bd8e26;stroke-width:2.33px;"/>
        <path d="M265.94,140.831c-0.494,0.17 -0.651,0.73 -0.47,1.68c2.87,15.187 7.815,28.502 14.835,39.945c6.266,10.2 13.611,18.612 22.034,25.237c1.287,1.011 2.349,1.965 3.189,2.86c0.216,0.228 0.487,0.4 0.788,0.498l0.529,0.163c0.234,0.076 0.453,0.19 0.647,0.335c6.722,5.228 13.941,9.393 21.659,12.497c0.397,0.154 0.814,0.24 1.235,0.255c2.274,0.077 3.851,-0.015 4.729,-0.278c19.709,-5.86 39.654,-8.335 59.834,-7.424c10.752,0.479 20.96,2.301 30.623,5.467c8.909,2.926 15.203,5.223 18.881,6.891c6.236,2.833 13.157,6.833 20.765,11.999c5.435,3.683 10.85,8.257 16.246,13.724c6.353,6.424 11.086,11.67 14.2,15.739c6.298,8.216 10.835,15.215 13.611,20.998c3.992,8.316 7.812,18.867 11.459,31.653" style="fill:none;fill-rule:nonzero;stroke:#643c05;stroke-width:2.33px;"/>
        <path d="M520.734,323.07l4.211,18.959c0.29,1.298 1.445,2.243 2.789,2.282c6.878,0.185 14.976,0.158 24.293,-0.081c1.522,-0.039 2.729,-0.259 3.624,-0.66c0.367,-0.166 0.624,-0.507 0.682,-0.904c0.753,-5.103 2.517,-13.284 5.294,-24.541c12.964,-52.466 55.928,-92.654 110.362,-101.039c16.25,-2.502 32.379,-2.309 48.387,0.579" style="fill:none;fill-rule:nonzero;stroke:#bd8e26;stroke-width:2.33px;"/>
        <path d="M720.376,217.665c3.043,1.104 7.415,2.162 13.117,3.173c0.996,0.17 5.882,1.448 14.658,3.834c1.993,0.54 3.765,0.413 5.318,-0.383c5.035,-2.559 12.847,-6.694 18.317,-10.991c8.949,-7.034 15.808,-13.527 20.576,-19.48c11.561,-14.47 19.051,-30.916 22.47,-49.338c0.157,-0.858 -0.129,-1.348 -0.859,-1.471" style="fill:none;fill-rule:nonzero;stroke:#643c05;stroke-width:2.33px;"/>
        <path d="M813.973,143.009l0.471,-2.792c0.006,-0.033 0.009,-0.067 0.009,-0.1c-0,-0.312 -0.26,-0.568 -0.576,-0.568c-0.137,-0 -0.27,0.048 -0.374,0.136c-9.663,8.192 -20.239,15.222 -31.729,21.09c-15.796,8.076 -32.093,14.087 -48.893,18.033" style="fill:none;fill-rule:nonzero;stroke:#bd8e26;stroke-width:2.33px;"/>
        <path d="M813.973,143.009c-3.917,22.654 -13.893,43.802 -30.869,59.623c-8.816,8.215 -18.647,15.033 -29.494,20.453c-1.749,0.88 -3.341,1.123 -4.776,0.73c-10.141,-2.749 -19.627,-4.799 -28.458,-6.15" style="fill:none;fill-rule:nonzero;stroke:#9d7121;stroke-width:2.33px;"/>
        <path d="M520.734,323.07c-3.404,-17.172 -9.322,-31.83 -17.753,-43.976c-13.411,-19.307 -31.669,-37.849 -52.787,-48.504c-22.211,-11.211 -47.587,-16.458 -72.786,-14.86c-15.152,0.962 -27.987,3.776 -43.693,7.725c-1.835,0.456 -3.502,0.321 -5,-0.405c-19.893,-9.659 -37.222,-23.024 -48.304,-41.648c-6.91,-11.605 -11.733,-25.128 -14.471,-40.571" style="fill:none;fill-rule:nonzero;stroke:#9d7121;stroke-width:2.33px;"/>
        <path d="M267.634,140.507c0.667,0.764 1.396,1.463 2.189,2.096c10.242,8.185 21.642,15.199 34.199,21.044c14.964,6.973 30.25,12.3 45.857,15.983c9.824,2.317 22.141,3.845 32.129,1.795c2.235,-0.455 6.09,-2.119 11.564,-4.991c8.369,-4.378 16.886,-8.44 25.553,-12.184" style="fill:none;fill-rule:nonzero;stroke:#9d7121;stroke-width:2.33px;"/>
        <path d="M441.983,155.806c35.756,-11.411 71.845,-16.503 108.268,-15.276c38.971,1.313 76.794,9.509 113.467,24.588c9.835,4.042 18.741,9.092 28.8,13.91c3.945,1.884 8.097,2.888 12.458,3.011c8.988,0.255 18.29,-0.822 27.905,-3.231" style="fill:none;fill-rule:nonzero;stroke:#9d7121;stroke-width:2.33px;"/>
        <path d="M329.139,261.872c-10.949,6.316 -20.172,13.431 -27.67,21.345c-4.118,4.355 -8.608,10.084 -13.47,17.188" style="fill:none;fill-rule:nonzero;stroke:#bd8e26;stroke-width:2.33px;"/>
        <path d="M287.999,300.405c-3.741,4.563 -6.294,9.67 -7.659,15.322" style="fill:none;fill-rule:nonzero;stroke:#643c05;stroke-width:2.33px;"/>
        <path d="M280.34,315.727c-4.423,11.914 -6.98,23.654 -7.67,35.22c-0.549,9.227 0.345,18.967 2.682,29.221" style="fill:none;fill-rule:nonzero;stroke:#bd8e26;stroke-width:2.33px;"/>
        <path d="M275.352,380.168c0.016,3.382 1.07,7.428 3.165,12.138c6.744,15.195 15.787,28.101 27.128,38.718c15.917,14.917 36.588,26.001 58.622,29.047c5.326,0.741 9.573,1.185 12.741,1.332c21.615,0.98 41.081,-3.158 58.399,-12.416c30.399,-16.249 51.139,-45.134 57.245,-78.663c1.13,-6.17 1.377,-13.084 0.741,-20.743c-0.996,-12.045 -3.588,-23.503 -7.776,-34.375c-8.557,-22.221 -23.195,-39.833 -43.916,-52.836c-9.93,-6.223 -20.729,-10.628 -32.4,-13.215c-6.423,-1.42 -11.015,-2.219 -13.776,-2.397c-3.678,-0.239 -8.619,-0.347 -14.823,-0.324c-5.827,0.015 -10.753,0.409 -14.776,1.181c-12.666,2.44 -24.133,6.374 -34.399,11.802c-1.631,0.857 -2.427,1.675 -2.388,2.455" style="fill:none;fill-rule:nonzero;stroke:#643c05;stroke-width:2.33px;"/>
        <path d="M275.352,380.168c7.306,29.128 29.74,54.122 56.257,68.425c19.823,10.69 43.576,13.91 66.281,11.165c37.552,-4.54 70.139,-28.665 85.468,-62.565c5.286,-11.69 8.318,-22.669 9.094,-32.938c1.153,-15.419 -1.043,-30.869 -6.588,-46.35c-12.905,-36.02 -43.858,-62.252 -81.915,-69.167c-26.102,-4.748 -51.038,-0.37 -74.81,13.134" style="fill:none;fill-rule:nonzero;stroke:#9d7121;stroke-width:2.33px;"/>
        <path d="M280.34,315.727l7.659,-15.322" style="fill:none;fill-rule:nonzero;stroke:#9d7121;stroke-width:2.33px;"/>
        <path d="M705.317,247.302c-31.113,-1.837 -57.653,7.088 -79.621,26.777c-7.035,6.309 -13.89,14.806 -20.564,25.492" style="fill:none;fill-rule:nonzero;stroke:#bd8e26;stroke-width:2.33px;"/>
        <path d="M605.132,299.571c-7.177,10.068 -12.094,21.04 -14.753,32.915c-2.235,10.014 -2.894,20.43 -1.976,31.248c0.855,10.153 3.466,20.241 7.835,30.263c3.074,7.057 6.439,13.477 10.094,19.26c3.898,6.169 8.435,11.744 13.611,16.724c19.796,19.033 43.583,29.464 71.363,31.294c18.697,1.236 36.179,-1.961 52.446,-9.59c15.458,-7.242 28.52,-16.975 39.187,-29.197c11.113,-12.732 18.713,-27.611 22.799,-44.636c2.181,-9.057 3.239,-16.755 3.177,-23.094c-0.236,-25.156 -8.545,-47.458 -24.929,-66.908c-18.764,-22.283 -45.681,-37.617 -75.21,-41.173c-1.772,-0.209 -3.341,-0.228 -4.706,-0.058c-0.172,0.023 -0.27,0.1 -0.294,0.232c-0.002,0.008 -0.002,0.016 -0.002,0.024c0,0.063 0.053,0.115 0.117,0.115l0.015,0c0.517,-0.031 0.988,0.073 1.411,0.312" style="fill:none;fill-rule:nonzero;stroke:#643c05;stroke-width:2.33px;"/>
        <path d="M605.132,299.571c-6.69,11.111 -11.318,22.905 -13.882,35.382c-1.02,4.949 -1.596,9.86 -1.73,14.732c-0.294,10.227 -0.094,19.758 2.93,30.367c2.454,8.602 5.533,16.489 9.235,23.662c20.54,39.829 65.01,61.07 109.267,56.252c22.439,-2.447 42.866,-11.697 61.281,-27.749c18.082,-15.763 29.117,-35.881 33.729,-59.496c5.106,-26.163 -0.565,-53.693 -15.412,-75.061c-19.058,-27.472 -50.622,-48.146 -85.233,-50.358" style="fill:none;fill-rule:nonzero;stroke:#9d7121;stroke-width:2.33px;"/>
        <path d="M527.628,378.998c-2.126,1.081 -3.647,2.799 -4.565,5.154c-1.561,4.031 -4.192,11.277 -7.894,21.739c-1.176,3.343 -4.855,11.088 -11.035,23.233c-0.162,0.328 -0.251,0.688 -0.259,1.054c-0.039,2.34 0.479,4.513 1.553,6.521c5.898,11.041 13.224,21.688 21.976,31.942c3.024,3.533 6.812,6.243 10.435,9.764c0.969,0.925 2.512,0.976 3.541,0.115c4.079,-3.42 8.839,-7.995 14.282,-13.724c3.843,-4.054 7.373,-8.401 10.588,-13.041c3.671,-5.297 6.718,-9.991 9.141,-14.083c2.345,-3.961 2.71,-7.594 1.094,-10.899c-4.721,-9.659 -8.76,-19.106 -12.117,-28.34c-2.722,-7.482 -4.325,-11.694 -4.812,-12.636c-1.2,-2.309 -2.404,-4.034 -3.611,-5.177c-1.277,-1.204 -2.944,-1.927 -4.706,-2.039c-3.231,-0.2 -9.819,-0.324 -19.764,-0.37c-1.506,-0.008 -2.788,0.255 -3.847,0.787" style="fill:none;fill-rule:nonzero;stroke:#643c05;stroke-width:2.33px;"/>
        <path d="M814.62,434.452c-4.925,5.783 -8.192,9.47 -9.799,11.06c-3.31,3.29 -8.302,7.722 -14.976,13.296c-6.063,5.058 -11.432,9.03 -16.106,11.918c-10.251,6.331 -20.764,11.257 -31.54,14.778c-10.62,3.459 -21.706,5.563 -33.258,6.312c-11.31,0.734 -22.623,0.313 -33.941,-1.262c-13.85,-1.938 -27.328,-6.185 -40.434,-12.74c-8.18,-4.085 -13.419,-6.914 -15.717,-8.49c-5.404,-3.706 -10.953,-7.157 -16.647,-10.354" style="fill:none;fill-rule:nonzero;stroke:#643c05;stroke-width:2.33px;"/>
        <path d="M602.202,458.97c-0.964,0.217 -1.89,0.035 -2.776,-0.544c-0.01,-0.006 -0.019,-0.012 -0.029,-0.018c-0.779,-0.487 -1.83,-0.252 -2.328,0.52c-0.007,0.01 -0.013,0.021 -0.02,0.031c-11.94,19.422 -27.587,37.189 -46.398,49.894c-4.412,2.988 -9.835,6.659 -14.541,3.903" style="fill:none;fill-rule:nonzero;stroke:#bd8e26;stroke-width:2.33px;"/>
        <path d="M536.11,512.756c-8.784,-4.957 -16.584,-10.96 -23.4,-18.01c-3.443,-3.567 -5.607,-5.875 -6.493,-6.925c-8.102,-9.59 -15.769,-19.585 -23,-29.986" style="fill:none;fill-rule:nonzero;stroke:#643c05;stroke-width:2.33px;"/>
        <path d="M483.217,457.835c-1.365,0.139 -2.349,0.417 -2.953,0.834c-5.247,3.645 -10.545,7.212 -15.893,10.702c-18.855,12.3 -39.427,19.839 -61.717,22.619" style="fill:none;fill-rule:nonzero;stroke:#bd8e26;stroke-width:2.33px;"/>
        <path d="M402.654,491.99l0.483,-0.336c0.086,-0.063 0.137,-0.163 0.137,-0.269c0,-0.184 -0.154,-0.336 -0.341,-0.336c-0.015,0 -0.029,0.001 -0.043,0.003l-6.188,0.915c-0.047,0.007 -0.091,0.011 -0.13,0.011c-7.058,0 -12.67,0.027 -16.835,0.081c-5.717,0.085 -11.246,-0.231 -16.587,-0.949c-21.521,-2.888 -41.117,-10.331 -58.787,-22.33c-9.427,-6.408 -18.474,-13.937 -27.141,-22.584c-1.411,-1.406 -3.196,-3.425 -5.352,-6.058c-1.71,-2.077 -3.487,-4.107 -5.33,-6.092" style="fill:none;fill-rule:nonzero;stroke:#643c05;stroke-width:2.33px;"/>
        <path d="M266.54,434.046l-1.094,-0.822c-0.082,-0.062 -0.182,-0.095 -0.285,-0.095c-0.237,0 -0.439,0.176 -0.468,0.408c-0.031,0.324 0.008,0.652 0.118,0.984" style="fill:none;fill-rule:nonzero;stroke:#bd8e26;stroke-width:2.33px;"/>
        <path d="M264.811,434.521c-0.275,0.278 -0.357,0.56 -0.247,0.846c3.741,9.968 8.31,19.87 13.705,29.707c5.036,9.161 11.612,18.172 18.824,25.943c8.909,9.597 17.87,18.087 26.881,25.468c0.827,0.679 1.005,1.877 0.412,2.768c-1.247,1.911 -4.271,1.865 -7.47,2.317c-1.506,0.216 -3.2,0.27 -5.083,0.162c-15.623,-0.934 -29.705,-6.104 -42.246,-15.508c-0.447,-0.34 -0.862,-0.386 -1.247,-0.139" style="fill:none;fill-rule:nonzero;stroke:#643c05;stroke-width:2.33px;"/>
        <path d="M268.34,506.085c-0.745,0.1 -1.282,0.313 -1.611,0.637c-17.623,18.013 -30.894,38.915 -39.811,62.704" style="fill:none;fill-rule:nonzero;stroke:#bd8e26;stroke-width:2.33px;"/>
        <path d="M226.918,569.426c-0.228,-0.734 -0.522,-0.634 -0.882,0.301c-5.083,13.141 -8.812,25.642 -11.188,37.501c-1.24,6.231 -2.126,10.957 -2.659,14.176c-0.839,5.073 -1.486,12.076 -1.941,21.01c-0.283,5.489 0.329,9.972 0.4,15.438c0.039,2.664 0.392,6.509 1.058,11.536c1.726,13.041 3.824,24.248 6.294,33.621c8.318,31.491 24.588,60.793 45.164,86.898c0.1,0.122 0.23,0.218 0.376,0.278c0.369,0.155 0.612,0.112 0.73,-0.127" style="fill:none;fill-rule:nonzero;stroke:#643c05;stroke-width:2.33px;"/>
        <path d="M264.27,790.058c0.274,-0.093 0.549,-0.116 0.823,-0.07" style="fill:none;fill-rule:nonzero;stroke:#bd8e26;stroke-width:2.33px;"/>
        <path d="M265.093,789.988c0.322,0.186 0.694,-0.027 1.118,-0.637c2.67,-3.891 5.176,-8.836 6.882,-13.793c7.725,-22.322 12.172,-35.499 13.341,-39.529c13.294,-45.787 23.211,-92.886 29.752,-141.297c0.039,-0.278 -0.176,-0.363 -0.647,-0.255" style="fill:none;fill-rule:nonzero;stroke:#643c05;stroke-width:2.33px;"/>
        <path d="M315.539,594.477c1.4,-12.068 6.553,-28.491 19.258,-33.251c0.131,-0.049 0.269,-0.074 0.408,-0.074c0.481,0 0.913,0.299 1.075,0.745c0.87,2.375 1.035,5.629 1.329,7.714c1.333,9.443 1.918,18.843 1.753,28.201" style="fill:none;fill-rule:nonzero;stroke:#bd8e26;stroke-width:2.33px;"/>
        <path d="M339.362,597.812c-0.447,4.533 -0.659,9.042 -0.635,13.528c0.002,0.058 0.013,0.122 0.033,0.185c0.06,0.188 0.18,0.321 0.266,0.294c0.028,-0.009 0.051,-0.034 0.065,-0.074c0.071,-0.239 0.13,-0.621 0.177,-1.146" style="fill:none;fill-rule:nonzero;stroke:#643c05;stroke-width:2.33px;"/>
        <path d="M339.268,610.599c0.29,8.987 0.031,18.758 -0.777,29.313c-2.58,33.734 -8.309,66.472 -17.187,98.213" style="fill:none;fill-rule:nonzero;stroke:#bd8e26;stroke-width:2.33px;"/>
        <path d="M321.304,738.125l-0.036,-0.637c-0.012,-0.123 -0.119,-0.219 -0.245,-0.219c-0.109,0 -0.206,0.071 -0.237,0.173c-6.153,22.167 -12.906,40.93 -21.494,63.433c-0.894,2.332 -1.305,4.753 -1.235,7.262" style="fill:none;fill-rule:nonzero;stroke:#643c05;stroke-width:2.33px;"/>
        <path d="M298.057,808.137c0.471,2.795 1.122,4.907 1.953,6.335c2.761,4.718 6.106,9.351 10.035,13.898c8.667,10.022 17.98,18.732 27.941,26.129c11.729,8.721 24.399,15.577 36.81,21.704c2.565,1.266 5.698,1.733 9.4,1.401c10.737,-0.98 23.615,-1.521 38.634,-1.621c16.953,-0.104 31.647,2.664 46.27,8.86c16.435,6.972 28.599,18.751 38.069,33.992c0.593,0.95 1.645,1.534 2.777,1.541c22.352,0.139 42.116,0.112 59.292,-0.081c2.118,-0.024 4.342,-0.012 5.624,-1.657c3.294,-4.181 6.411,-9.763 9.541,-13.446c12.646,-14.964 30.658,-24.113 49.998,-27.553c7.687,-1.359 14.443,-2.031 20.271,-2.015c7.701,0.031 21.226,0.66 40.575,1.888c3.569,0.224 7.333,-0.564 11.294,-2.363c8.909,-4.061 17.733,-9.026 26.47,-14.894c19.105,-12.844 34.869,-27.055 47.081,-45.933" style="fill:none;fill-rule:nonzero;stroke:#bd8e26;stroke-width:2.33px;"/>
        <path d="M780.092,814.322c3.412,-2.749 4.164,-6.741 2.259,-11.976c-5.247,-14.377 -9.11,-24.874 -11.588,-31.491c-0.996,-2.64 -3.616,-11.037 -7.859,-25.19c-2.863,-9.543 -5.153,-18.033 -6.87,-25.468c-6.204,-26.77 -10.306,-53.145 -12.306,-79.127c-0.58,-7.559 -0.961,-13.929 -1.141,-19.11c-0.698,-20.399 0.423,-39.949 3.365,-58.65c0.076,-0.489 0.508,-0.854 1.011,-0.854c0.146,0 0.291,0.03 0.424,0.09c5.184,2.347 8.996,6.131 11.435,11.35c2.251,4.826 3.674,8.933 4.27,12.323c2.29,13.118 4.632,27.414 7.024,42.887c1.96,12.702 5.709,31.198 11.246,55.488c3.302,14.462 7.2,29.148 11.694,44.057c4.016,13.327 8.604,27.812 13.765,43.455c1.976,5.984 4.392,11.501 7.246,16.55c0.157,0.286 0.438,0.486 0.765,0.545c0.282,0.062 0.369,0.023 0.259,-0.116" style="fill:none;fill-rule:nonzero;stroke:#643c05;stroke-width:2.33px;"/>
        <path d="M815.091,789.085c0.572,0.147 1.118,0.197 1.635,0.151" style="fill:none;fill-rule:nonzero;stroke:#bd8e26;stroke-width:2.33px;"/>
        <path d="M816.726,789.236c0.886,-0.147 1.651,-0.626 2.294,-1.437c7.318,-9.195 14.031,-19.052 20.141,-29.568c6.525,-11.226 12.521,-24.345 17.988,-39.355c5.764,-15.809 8.941,-32.649 11.199,-49.141c1.342,-9.821 1.769,-19.673 1.283,-29.557c-0.338,-6.879 -0.651,-11.493 -0.941,-13.84c-1.349,-10.856 -3.969,-23.229 -7.859,-37.119c-6.745,-24.036 -17.388,-45.613 -31.929,-64.731c-5.019,-6.601 -8.827,-11.23 -11.423,-13.886c-1.733,-1.776 -3.07,-3.058 -4.012,-3.845c-0.889,-0.731 -2.179,-0.77 -3.105,-0.093c-12.353,8.995 -26.027,13.995 -41.023,14.998c-3.27,0.22 -7.411,-0.196 -10.458,-1.227c-1.21,-0.404 -1.941,-1.631 -1.706,-2.861c0.094,-0.51 0.604,-1.154 1.529,-1.934c14.863,-12.555 27.294,-25.418 37.293,-38.591c8.675,-11.435 15.545,-25.495 20.612,-42.18" style="fill:none;fill-rule:nonzero;stroke:#643c05;stroke-width:2.33px;"/>
        <path d="M816.609,434.869l-0.189,-1.552c-0.01,-0.126 -0.118,-0.225 -0.246,-0.225c-0.067,0 -0.131,0.027 -0.177,0.074l-1.377,1.286" style="fill:none;fill-rule:nonzero;stroke:#bd8e26;stroke-width:2.33px;"/>
        <path d="M816.609,434.869c-2.267,5.258 -4.506,10.493 -6.718,15.705c-3.647,8.605 -7.659,16.538 -12.47,23.267c-10.063,14.091 -22.956,27.646 -38.682,40.664c-1.49,1.235 -2.298,2.467 -2.423,3.694c-0.133,1.228 0.817,2.48 2.294,3.023c2.792,1.027 5.906,1.448 9.341,1.263c16.282,-0.904 30.736,-6.177 43.364,-15.821c0.359,-0.277 0.879,-0.247 1.211,0.07c32.035,31.398 48.999,74.1 55.022,117.288c1.961,14.022 1.934,28.73 -0.082,44.126c-1.592,12.192 -3.329,22.168 -5.212,29.928c-7.38,30.552 -20.521,58.522 -39.422,83.909c-1.898,2.541 -3.933,4.957 -6.106,7.251" style="fill:none;fill-rule:nonzero;stroke:#9d7121;stroke-width:2.33px;"/>
        <path d="M815.091,789.085c-2.863,-4.988 -5.765,-11.921 -8.706,-20.801c-5.051,-15.265 -9.09,-27.993 -12.117,-38.185c-9.357,-31.448 -17.015,-64.533 -22.976,-99.255c-1.184,-6.903 -3.431,-20.739 -6.741,-41.509c-1.788,-11.269 -6,-23.129 -17.399,-28.156c-0.05,-0.021 -0.101,-0.04 -0.152,-0.056c-0.787,-0.248 -1.64,0.182 -1.889,0.95c-0.017,0.053 -0.031,0.106 -0.042,0.16c-1.364,6.687 -2.247,13.373 -2.647,20.06c-2.039,34.714 -0.157,69.004 5.647,102.869c4.957,28.923 12.078,56.874 21.364,83.852c3.036,8.817 7.208,20.16 12.518,34.027c1.372,3.567 0.753,7.327 -1.859,11.281" style="fill:none;fill-rule:nonzero;stroke:#9d7121;stroke-width:2.33px;"/>
        <path d="M298.057,808.137c1.388,-5.328 2.596,-9.3 3.624,-11.918c7.505,-19.063 14.046,-38.428 19.623,-58.094" style="fill:none;fill-rule:nonzero;stroke:#9d7121;stroke-width:2.33px;"/>
        <path d="M339.268,610.599l0.094,-12.787" style="fill:none;fill-rule:nonzero;stroke:#9d7121;stroke-width:2.33px;"/>
        <path d="M315.539,594.477c-5.059,34.691 -11.627,69.093 -19.705,103.205c-2.377,10.041 -5.777,21.924 -8.753,32.823c-3.565,13.075 -8.412,25.919 -12.506,38.903c-2.298,7.273 -5.458,14.133 -9.482,20.58" style="fill:none;fill-rule:nonzero;stroke:#9d7121;stroke-width:2.33px;"/>
        <path d="M264.27,790.058c-15.929,-19.859 -28.219,-40.301 -36.87,-61.325c-10.031,-24.384 -15.47,-50.821 -16.317,-79.312c-0.188,-6.17 0.145,-12.906 1,-20.21c2.447,-20.956 7.392,-40.884 14.835,-59.785" style="fill:none;fill-rule:nonzero;stroke:#9d7121;stroke-width:2.33px;"/>
        <path d="M268.34,506.085c12.133,9.343 25.847,14.736 41.14,16.18c3.918,0.37 13.412,0.787 15.776,-3.127c0.582,-0.963 0.367,-2.211 -0.505,-2.931c-14.235,-11.801 -29.847,-26.568 -40.246,-42.366c-8.424,-12.786 -14.141,-25.873 -19.694,-39.32" style="fill:none;fill-rule:nonzero;stroke:#9d7121;stroke-width:2.33px;"/>
        <path d="M266.54,434.046c2.236,3.653 4.6,6.791 7.094,9.416c22.176,23.314 48.846,40.629 81.845,47.138c13.702,2.695 29.427,3.158 47.175,1.39" style="fill:none;fill-rule:nonzero;stroke:#9d7121;stroke-width:2.33px;"/>
        <path d="M483.217,457.835c3.624,6.023 7.541,11.794 11.753,17.315c5.529,7.25 11.501,14.107 17.917,20.569c7.443,7.49 15.184,13.169 23.223,17.037" style="fill:none;fill-rule:nonzero;stroke:#9d7121;stroke-width:2.33px;"/>
        <path d="M602.202,458.97c5.483,3.907 11.047,7.625 16.694,11.154c30.838,19.279 64.324,26.375 100.456,21.287c24.204,-3.413 45.905,-12.562 65.104,-27.449c7.067,-5.482 13.69,-11.122 19.871,-16.921c4.195,-3.938 7.627,-8.134 10.293,-12.589" style="fill:none;fill-rule:nonzero;stroke:#9d7121;stroke-width:2.33px;"/>
        <path d="M659.389,904.972c-13.419,-0.27 -25.317,2.266 -35.693,7.609c-13.106,6.741 -20.584,17.979 -22.435,33.715c-1.192,10.145 3.275,17.21 13.4,21.194c1.208,0.471 3.674,0.514 7.4,0.128c0.406,-0.036 0.769,-0.26 0.976,-0.603c2.835,-4.551 2.612,-10.91 7.388,-14.627c5.553,-4.343 13.541,-6.81 19.223,-1.402c0.831,0.788 1.933,3.031 3.306,6.729c1.706,4.575 4.765,11.628 11.153,9.706c1.184,-0.355 2.09,-1.097 2.717,-2.224c3.012,-5.49 4.812,-9.902 9.753,-12.045c4.682,-2.027 11.647,0.313 15.211,3.567c3.514,3.205 6.016,5.363 7.506,6.474c3.788,2.826 7.235,5.838 10.694,1.946c4.8,-5.405 7.196,-12.373 7.188,-20.905" style="fill:none;fill-rule:nonzero;stroke:#bd8e26;stroke-width:2.33px;"/>
        <path d="M717.176,944.234c-2.141,-8.377 -6.043,-15.905 -11.706,-22.584c-0.25,-0.293 -0.526,-0.557 -0.823,-0.788c-6.11,-4.725 -12.62,-8.381 -19.529,-10.968c-8.243,-3.088 -16.819,-4.729 -25.729,-4.922" style="fill:none;fill-rule:nonzero;stroke:#643c05;stroke-width:2.33px;"/>
        <path d="M717.176,944.234c-2.777,-7.474 -6.392,-14.323 -10.847,-20.546c-0.391,-0.546 -0.841,-1.04 -1.341,-1.471c-5.38,-4.64 -11.055,-8.146 -17.023,-10.516c-8.643,-3.428 -18.168,-5.671 -28.576,-6.729" style="fill:none;fill-rule:nonzero;stroke:#9d7121;stroke-width:2.33px;"/>
        <path d="M480.229,939.648c-1.529,-9.459 -6.306,-16.782 -14.329,-21.971" style="fill:none;fill-rule:nonzero;stroke:#643c05;stroke-width:2.33px;"/>
        <path d="M465.9,917.677c-6.918,-4.378 -13.96,-7.524 -21.129,-9.439c-6.525,-1.737 -13.721,-2.675 -21.588,-2.814c-13.999,-0.232 -28.999,4.447 -40.034,11.79c-3.906,2.606 -8.176,6.3 -10.635,10.412c-2.765,4.609 -6.435,11.512 -7.447,16.272c-1.09,5.135 -0.302,10.451 2.365,15.948c1.894,3.903 5.906,10.806 11.035,5.409c0.737,-0.772 3.078,-2.973 7.023,-6.602c4.177,-3.833 7.682,-4.192 13.294,-5.13c1.827,-0.309 3.455,-0.166 4.882,0.428c0.332,0.144 0.616,0.368 0.824,0.649c3.615,4.88 6.533,8.285 8.752,10.215c2.769,2.409 5.867,2.741 9.294,0.996c4.659,-2.374 6.035,-6.648 7.506,-11.86c0.094,-0.338 0.236,-0.662 0.424,-0.961c4.929,-7.934 13.799,-5.849 19.387,-0.232c3.518,3.556 4.483,8.64 7.812,12.439c2.094,2.398 5.164,4.309 7.917,3.092c5.765,-2.532 10.078,-6.308 12.941,-11.327c1.326,-2.324 2.039,-5.142 2.141,-8.454c0.087,-2.911 -0.059,-5.864 -0.435,-8.86" style="fill:none;fill-rule:nonzero;stroke:#bd8e26;stroke-width:2.33px;"/>
        <path d="M465.9,917.677c7.051,5.837 11.827,13.161 14.329,21.971" style="fill:none;fill-rule:nonzero;stroke:#9d7121;stroke-width:2.33px;"/>
        <path d="M400.055,400.216c8.784,-0.749 16.642,-3.223 23.575,-7.424c6.439,-3.914 11.341,-9.416 14.706,-16.504c2.494,-5.273 3.839,-10.277 4.035,-15.01" style="fill:none;fill-rule:nonzero;stroke:#bd8e26;stroke-width:2.33px;"/>
        <path d="M442.371,361.278c1.702,-9.697 0.78,-18.716 -2.765,-27.055c-3.795,-8.933 -9.737,-15.759 -17.823,-20.476c-18.117,-10.563 -44.598,-8.27 -58.01,8.385c-7.827,9.729 -11.729,20.419 -11.705,32.07c0.023,11.504 3.498,21.449 10.423,29.834c8.847,10.737 22.74,17.697 37.564,16.18" style="fill:none;fill-rule:nonzero;stroke:#9d7121;stroke-width:2.33px;"/>
        <path d="M442.371,361.278c1.004,-10.925 -0.831,-21.009 -5.506,-30.251c-2.894,-5.737 -6.807,-10.323 -11.74,-13.759c-12.839,-8.949 -26.819,-11.227 -41.941,-6.834c-7.733,2.247 -13.587,5.826 -17.564,10.737c-7.168,8.856 -11.286,18.337 -12.352,28.445c-2.589,24.414 12.282,44.311 36.763,49.755c0.39,0.092 0.791,0.119 1.188,0.081c3.051,-0.301 5.996,-0.047 8.836,0.764" style="fill:none;fill-rule:nonzero;stroke:#643c05;stroke-width:2.33px;"/>
        <path d="M679.765,307.041c-16.647,1.39 -32.293,11.987 -38.105,27.669c-2.808,7.574 -3.878,15.238 -3.212,22.99c0.667,7.752 3.032,15.129 7.094,22.132c8.412,14.489 25.647,22.341 42.293,20.963c16.635,-1.39 32.282,-11.987 38.105,-27.669c2.808,-7.574 3.879,-15.237 3.212,-22.989c-0.675,-7.752 -3.039,-15.13 -7.094,-22.133c-8.412,-14.5 -25.646,-22.353 -42.293,-20.963" style="fill:none;fill-rule:nonzero;stroke:#9d7121;stroke-width:2.33px;"/>
        <path d="M679.836,308.118c-16.318,1.367 -31.67,11.756 -37.364,27.125c-2.753,7.427 -3.804,14.944 -3.153,22.549c0.659,7.598 2.976,14.829 6.953,21.693c8.247,14.222 25.152,21.924 41.469,20.557c16.318,-1.355 31.658,-11.743 37.364,-27.124c2.753,-7.428 3.804,-14.94 3.153,-22.538c-0.659,-7.605 -2.977,-14.84 -6.953,-21.704c-8.247,-14.211 -25.152,-21.913 -41.469,-20.558" style="fill:none;fill-rule:nonzero;stroke:#643c05;stroke-width:2.33px;"/>
        <path d="M540.31,478.544c13.607,-11.405 25.093,-25.144 34.458,-41.22c2.788,-4.806 2.341,-7.783 -0.141,-12.902c-4.385,-9.065 -7.557,-16.307 -9.518,-21.727c-3.921,-10.833 -6.062,-16.616 -6.423,-17.35c-1.145,-2.347 -2.773,-4.181 -4.882,-5.501c-1.067,-0.664 -3.471,-1.004 -7.212,-1.019c-9.443,-0.031 -14.604,-0.004 -15.482,0.081c-4.67,0.475 -5.882,2.432 -7.788,6.613c-0.463,1.011 -3.078,8.181 -7.847,21.507c-0.996,2.795 -4.255,9.602 -9.776,20.419c-1.447,2.837 -1.565,5.026 -0.13,7.736c6.487,12.231 14.255,23.585 23.306,34.062c1.866,2.162 5.321,5.266 10.364,9.312c0.315,0.253 0.77,0.248 1.071,-0.011" style="fill:none;fill-rule:nonzero;stroke:#9d7121;stroke-width:2.33px;"/>
        <path d="M437.277,634.121c-14.47,1.753 -28.407,-0.019 -41.811,-5.316" style="fill:none;fill-rule:nonzero;stroke:#9d7121;stroke-width:2.33px;"/>
        <path d="M395.466,628.805c-5.49,-2.494 -10.917,-5.482 -16.281,-8.964c-1.255,-0.811 -2.408,-1.224 -3.459,-1.239c-0.016,-0.001 -0.032,-0.001 -0.048,-0.001c-1.303,-0 -2.376,1.109 -2.376,2.455l0,0.047c0.153,8.478 10.8,19.701 17.2,24.53" style="fill:none;fill-rule:nonzero;stroke:#bd8e26;stroke-width:2.33px;"/>
        <path d="M390.502,645.633c18.337,15.196 39.05,18.192 62.139,8.988c10.196,-4.069 19.471,-9.208 27.823,-15.415c0.486,-0.362 1.162,-0.362 1.647,0c6.933,5.126 14.404,9.547 22.411,13.261c18.008,8.346 36.835,10.466 56.481,6.358" style="fill:none;fill-rule:nonzero;stroke:#9d7121;stroke-width:2.33px;"/>
        <path d="M561.003,658.825c14.133,-2.733 26.553,-8.883 37.258,-18.45c0.507,-0.444 1.267,-0.482 1.824,-0.092c7.858,5.574 16.309,10.203 25.352,13.886c7.059,2.88 13.521,4.56 19.388,5.038" style="fill:none;fill-rule:nonzero;stroke:#bd8e26;stroke-width:2.33px;"/>
        <path d="M644.825,659.207c11.725,1.877 22.909,0.433 33.552,-4.331" style="fill:none;fill-rule:nonzero;stroke:#9d7121;stroke-width:2.33px;"/>
        <path d="M678.377,654.876c14.909,-5.93 24.783,-16.497 29.623,-31.7c0.266,-0.833 0.149,-2.285 -0.353,-4.354c-0.108,-0.471 -0.488,-0.836 -0.965,-0.927c-1.584,-0.309 -3.078,-0.058 -4.482,0.753c-4.761,2.772 -9.337,5.293 -13.729,7.563c-6.463,3.335 -12.875,5.895 -19.235,7.679" style="fill:none;fill-rule:nonzero;stroke:#bd8e26;stroke-width:2.33px;"/>
        <path d="M669.236,633.89c-10.69,1.606 -21.168,1.111 -31.435,-1.483" style="fill:none;fill-rule:nonzero;stroke:#9d7121;stroke-width:2.33px;"/>
        <path d="M637.801,632.407c-8.29,-3.305 -16.242,-7.717 -23.858,-13.238c-3.866,-2.81 -7.949,-5.941 -12.247,-9.393c-2.882,-2.316 -5.046,-3.428 -7.988,-0.648c-7.741,7.319 -16.258,13.612 -25.552,18.878c-10.156,5.745 -21.156,8.416 -32.999,8.015" style="fill:none;fill-rule:nonzero;stroke:#bd8e26;stroke-width:2.33px;"/>
        <path d="M535.157,636.021c-7.968,-1.151 -15.56,-3.537 -22.776,-7.158" style="fill:none;fill-rule:nonzero;stroke:#9d7121;stroke-width:2.33px;"/>
        <path d="M512.381,628.863c-9.537,-6.03 -18.05,-13.13 -25.54,-21.299c-1.167,-1.267 -3.029,-1.673 -4.624,-1.007c-2.243,0.934 -4.196,2.088 -5.859,3.463c-5.599,4.64 -11.019,9.049 -16.258,13.226c-4.925,3.93 -10.066,6.69 -15.423,8.281c-3.6,1.065 -6.067,1.93 -7.4,2.594" style="fill:none;fill-rule:nonzero;stroke:#bd8e26;stroke-width:2.33px;"/>
        <path d="M512.381,628.863c6.863,4.749 14.455,7.134 22.776,7.158" style="fill:none;fill-rule:nonzero;stroke:#643c05;stroke-width:2.33px;"/>
        <path d="M637.801,632.407c10.361,3.783 20.839,4.278 31.435,1.483" style="fill:none;fill-rule:nonzero;stroke:#643c05;stroke-width:2.33px;"/>
        <path d="M678.377,654.876c-10.855,3.598 -22.039,5.042 -33.552,4.331" style="fill:none;fill-rule:nonzero;stroke:#643c05;stroke-width:2.33px;"/>
        <path d="M561.003,658.825c-10.478,1.135 -18.964,1.51 -25.458,1.123c-8.305,-0.501 -16.972,-2.54 -25.999,-6.115c-9.969,-3.945 -18.788,-8.898 -26.458,-14.859c-0.931,-0.723 -2.244,-0.752 -3.2,-0.07c-8.314,5.907 -17.11,10.806 -26.388,14.698c-5.772,2.416 -11.148,3.965 -16.129,4.644c-6.478,0.896 -12.082,1.027 -16.811,0.394c-10.368,-1.382 -20.388,-5.718 -30.058,-13.007" style="fill:none;fill-rule:nonzero;stroke:#643c05;stroke-width:2.33px;"/>
        <path d="M395.466,628.805c13.318,6.455 27.255,8.227 41.811,5.316" style="fill:none;fill-rule:nonzero;stroke:#643c05;stroke-width:2.33px;"/>
        <path d="M424.654,724.1c1.212,3.926 3.553,6.984 6.588,11.269c10.423,14.686 26.858,24.032 44.364,27.553c21.411,4.297 44.857,-4.424 63.316,-14.987c0.871,-0.501 1.952,-0.501 2.823,0c12.706,7.304 26.344,12.196 40.917,14.674c21.834,3.718 44.293,-4.922 60.763,-18.797c5.396,-4.556 9.38,-9.709 11.952,-15.462c1.294,-2.895 0.506,-7.748 -4.294,-5.976c-0.604,0.224 -5.199,2.166 -13.787,5.826c-13.953,5.941 -28.235,11.037 -43.117,10.863c-16.988,-0.208 -32.729,-7.03 -46.187,-17.546c-4.718,-3.671 -7.659,-5.849 -12.835,-2.108c-10.439,7.551 -21.776,13.184 -34.011,16.898c-8.729,2.648 -18.701,3.312 -29.917,1.992c-8.411,-0.984 -19.399,-5.467 -27.117,-9.231c-5.905,-2.883 -14.741,-7.632 -18.423,-6.752c-0.01,0.003 -0.019,0.005 -0.029,0.008c-0.766,0.206 -1.225,0.991 -1.017,1.739c0.003,0.012 0.007,0.024 0.011,0.037" style="fill:none;fill-rule:nonzero;stroke:#9d7121;stroke-width:2.33px;"/>
        <path d="M540.357,718.772c-0.827,-0.221 -1.715,-0.1 -2.459,0.336c-2.18,1.274 -5.223,3.135 -9.129,5.582c-6.62,4.139 -13.47,7.536 -20.553,10.192c-7.482,2.795 -14.936,4.436 -22.364,4.923c-10.878,0.71 -22.136,-1.317 -33.775,-6.081c-5.796,-2.362 -9.247,-3.86 -10.353,-4.493c-3.494,-2.004 -10.694,-4.946 -14.011,-5.965c-0.125,-0.038 -0.255,-0.057 -0.386,-0.057c-0.723,0 -1.318,0.586 -1.318,1.297c0,0.078 0.007,0.155 0.021,0.231c0.353,1.98 1.612,3.625 2.718,5.281c4.855,7.204 8.651,12.041 11.388,14.512c8.204,7.389 17.909,12.763 29.117,16.122c6.823,2.038 13.458,2.884 19.905,2.536c7.694,-0.424 14.314,-1.478 19.858,-3.162c9.655,-2.918 19.494,-7.142 29.517,-12.67c1.163,-0.637 2.588,-0.615 3.73,0.058c8.223,4.864 17.07,8.072 27.693,11.443c3.224,1.027 6.772,1.864 10.647,2.513c6.345,1.073 9.964,1.602 10.858,1.587c14.706,-0.263 28.349,-4.278 40.929,-12.045c6.949,-4.286 13.074,-9.845 18.376,-16.678c1.553,-2.004 5.317,-7.795 3.529,-10.505c-0.432,-0.658 -1.293,-0.914 -2.023,-0.602c-13.565,5.86 -28.729,11.975 -44.235,15.554c-3.388,0.78 -6.705,1.197 -9.952,1.251c-6.039,0.093 -9.392,0.089 -10.059,-0.012c-15.795,-2.401 -30.411,-8.948 -43.846,-19.642c-0.596,-0.479 -1.87,-0.981 -3.823,-1.506" style="fill:none;fill-rule:nonzero;stroke:#643c05;stroke-width:2.33px;"/>
    </g>
    <path d="M836.573,473.76c-0.032,-0.131 -0.055,-0.235 -0.071,-0.312c-0.028,-0.101 -0.121,-0.171 -0.227,-0.171c-0.087,0 -0.168,0.048 -0.208,0.124l-2.953,5.015c-0.593,1.018 -0.45,2.306 0.353,3.174l18.87,20.453c6.039,7.389 11.525,15.396 16.458,24.02c17.027,29.735 27.815,61.318 32.364,94.751c4.479,32.985 1.616,65.232 -8.588,96.742c-6.407,19.789 -14.572,38.66 -24.493,56.612c-11.988,21.681 -28.823,42.574 -46.94,60.04c-27.403,26.398 -57.477,49.38 -90.221,68.946c-0.016,0.009 -0.031,0.018 -0.046,0.028c-0.543,0.355 -0.69,1.092 -0.326,1.631c0.01,0.015 0.02,0.029 0.03,0.043c5.577,7.328 9.898,15.111 12.965,23.349c2.415,6.493 3.353,14.35 2.812,23.569c-0.848,14.315 -8.918,33.135 -21.788,40.605c-12.47,7.239 -28.929,4.923 -40.905,-2.687c-0.616,-0.393 -1.435,-0.31 -1.965,0.197c-5.87,5.641 -11.658,8.038 -19.893,7.737c-7.341,-0.263 -13.914,-2.59 -19.717,-6.984c-0.516,-0.391 -1.229,-0.428 -1.789,-0.092c-15.599,9.277 -32.846,8.686 -47.951,-1.078c-10.157,-6.57 -17.192,-16.183 -21.106,-28.838c-0.47,-1.529 -1.215,-4.143 -2.235,-7.841c-0.105,-0.374 -0.453,-0.635 -0.847,-0.637l-54.904,0c-0.513,-0.001 -0.961,0.353 -1.071,0.846c-3.776,16.191 -12.67,30.425 -27.587,38.683c-14.424,7.979 -30.376,6.902 -44.011,-2.56c-0.624,-0.437 -1.473,-0.414 -2.071,0.058c-8.054,6.293 -17.062,9.084 -27.022,8.374c-5.753,-0.417 -9.777,-3.741 -14.177,-7.702c-0.594,-0.531 -1.479,-0.603 -2.141,-0.174c-6.36,4.154 -13.262,6.428 -20.705,6.822c-14.67,0.776 -24.576,-7.17 -31.776,-19.099c-4.321,-7.157 -6.862,-15.029 -7.623,-23.615c-1.616,-18.214 3.663,-34.402 15.835,-48.562c0.183,-0.213 0.283,-0.483 0.283,-0.762c0,-0.413 -0.219,-0.796 -0.577,-1.01c-25.494,-15.149 -50.27,-32.499 -71.281,-50.995c-17.56,-15.457 -32.117,-30.232 -43.669,-44.323c-14.51,-17.712 -26.529,-37.467 -36.058,-59.264c-3.075,-7.026 -6.345,-15.465 -9.812,-25.318c-12.046,-34.181 -15.505,-69.104 -10.376,-104.768c2.792,-19.427 8.09,-39.266 15.894,-59.519c11.411,-29.633 28.148,-55.719 50.21,-78.258c0.553,-0.566 0.698,-1.41 0.365,-2.119c-25.317,-53.415 -23.87,-115.134 -7.317,-170.75c8.058,-27.078 19.552,-54.596 34.634,-79.184c0.383,-0.623 0.265,-1.436 -0.282,-1.934c-16.353,-14.976 -27.717,-32.916 -34.67,-53.971c-7.231,-21.89 -9.949,-44.818 -8.153,-68.784c0.906,-12.092 5.977,-21.901 19.706,-22.399c5.262,-0.193 9.584,1.621 12.964,5.443c5.435,6.154 8.831,9.953 10.188,11.396c16.792,17.836 37.07,31.171 60.834,40.004c11.282,4.192 24.27,6.96 35.881,9.555c1.694,0.378 3.231,0.239 4.612,-0.417c45.987,-22.087 95.691,-35.591 146.302,-38.486c42.152,-2.409 84.821,3.127 125.373,14.743c20.713,5.938 40.678,13.902 59.893,23.893c1.011,0.525 2.725,0.56 5.141,0.105c5.764,-1.081 11.227,-2.263 16.388,-3.544c27.52,-6.803 51.806,-19.867 72.856,-39.193c4.644,-4.262 10.22,-10.057 16.729,-17.384c8.765,-9.856 23.047,-7.227 30.094,3.196c3.976,5.884 4.047,13.111 4.282,21.183c0.69,24.361 -3.612,47.887 -12.905,70.58c-7.028,17.164 -17.569,31.93 -31.623,44.3c-0.178,0.153 -0.218,0.41 -0.094,0.602c27.505,46.003 44.963,98.387 47.716,152.057c1.612,31.328 -4.388,65.136 -17.858,93.858Zm-103.692,-294.952c-11.513,1.621 -19.548,2.498 -24.105,2.629c-5.882,0.17 -11.415,-0.911 -16.6,-3.243c-7.529,-3.393 -17.905,-9.335 -26.587,-12.983c-27.05,-11.366 -55.257,-18.99 -84.621,-22.874c-9.2,-1.212 -16.596,-1.946 -22.188,-2.201c-13.212,-0.602 -29.458,-0.972 -44.67,0.522c-5.105,0.501 -8.791,0.888 -11.058,1.158c-16.76,2.007 -33.501,5.316 -50.222,9.925c-4.941,1.359 -8.557,2.714 -10.847,4.065l-22.858,8.444c-0.902,-0.232 -1.973,-0.097 -3.212,0.405c-8.953,3.637 -18.047,8.628 -23.694,11.698c-8.093,4.389 -15.105,5.964 -23.152,5.316c-21.988,-1.749 -42.493,-8.629 -63.292,-17.964c-13.678,-6.138 -26.121,-13.832 -37.329,-23.082c-0.431,-0.348 -0.702,-0.386 -0.812,-0.116l-0.776,-0.475c-0.095,-0.058 -0.205,-0.089 -0.318,-0.089c-0.329,-0 -0.6,0.266 -0.6,0.59l0,0.298c-0.494,0.17 -0.651,0.73 -0.47,1.68c2.87,15.187 7.815,28.502 14.835,39.945c6.266,10.2 13.611,18.612 22.034,25.237c1.287,1.011 2.349,1.965 3.189,2.86c0.216,0.228 0.487,0.4 0.788,0.498l0.529,0.163c0.234,0.076 0.453,0.19 0.647,0.335c6.722,5.228 13.941,9.393 21.659,12.497c0.397,0.154 0.814,0.24 1.235,0.255c2.274,0.077 3.851,-0.015 4.729,-0.278c19.709,-5.86 39.654,-8.335 59.834,-7.424c10.752,0.479 20.96,2.301 30.623,5.467c8.909,2.926 15.203,5.223 18.881,6.891c6.236,2.833 13.157,6.833 20.765,11.999c5.435,3.683 10.85,8.257 16.246,13.724c6.353,6.424 11.086,11.67 14.2,15.739c6.298,8.216 10.835,15.215 13.611,20.998c3.992,8.316 7.812,18.867 11.459,31.653l4.211,18.959c0.29,1.298 1.445,2.243 2.789,2.282c6.878,0.185 14.976,0.158 24.293,-0.081c1.522,-0.039 2.729,-0.259 3.624,-0.66c0.367,-0.166 0.624,-0.507 0.682,-0.904c0.753,-5.103 2.517,-13.284 5.294,-24.541c12.964,-52.466 55.928,-92.654 110.362,-101.039c16.25,-2.502 32.379,-2.309 48.387,0.579c3.043,1.104 7.415,2.162 13.117,3.173c0.996,0.17 5.882,1.448 14.658,3.834c1.993,0.54 3.765,0.413 5.318,-0.383c5.035,-2.559 12.847,-6.694 18.317,-10.991c8.949,-7.034 15.808,-13.527 20.576,-19.48c11.561,-14.47 19.051,-30.916 22.47,-49.338c0.157,-0.858 -0.129,-1.348 -0.859,-1.471l0.471,-2.792c0.006,-0.033 0.009,-0.067 0.009,-0.1c0,-0.312 -0.26,-0.568 -0.576,-0.568c-0.137,-0 -0.27,0.048 -0.374,0.136c-9.663,8.192 -20.239,15.222 -31.729,21.09c-15.796,8.076 -32.093,14.087 -48.893,18.033Zm-403.742,83.064c-10.949,6.316 -20.172,13.431 -27.67,21.345c-4.118,4.355 -8.608,10.084 -13.47,17.188c-3.741,4.563 -6.294,9.67 -7.659,15.322c-4.423,11.914 -6.98,23.654 -7.67,35.22c-0.549,9.227 0.345,18.967 2.682,29.221c0.016,3.382 1.07,7.428 3.165,12.138c6.744,15.195 15.787,28.101 27.128,38.718c15.917,14.917 36.588,26.001 58.622,29.047c5.326,0.741 9.573,1.185 12.741,1.332c21.615,0.98 41.081,-3.158 58.399,-12.416c30.399,-16.249 51.139,-45.134 57.245,-78.663c1.13,-6.17 1.377,-13.084 0.741,-20.743c-0.996,-12.045 -3.588,-23.503 -7.776,-34.375c-8.557,-22.221 -23.195,-39.833 -43.916,-52.836c-9.93,-6.223 -20.729,-10.628 -32.4,-13.215c-6.423,-1.42 -11.015,-2.219 -13.776,-2.397c-3.678,-0.239 -8.619,-0.347 -14.823,-0.324c-5.827,0.015 -10.753,0.409 -14.776,1.181c-12.666,2.44 -24.133,6.374 -34.399,11.802c-1.631,0.857 -2.427,1.675 -2.388,2.455Zm376.178,-14.57c-31.113,-1.837 -57.653,7.088 -79.621,26.777c-7.035,6.309 -13.89,14.806 -20.564,25.492c-7.177,10.068 -12.094,21.04 -14.753,32.915c-2.235,10.014 -2.894,20.43 -1.976,31.248c0.855,10.153 3.466,20.241 7.835,30.263c3.074,7.057 6.439,13.477 10.094,19.26c3.898,6.169 8.435,11.744 13.611,16.724c19.796,19.033 43.583,29.464 71.363,31.294c18.697,1.236 36.179,-1.961 52.446,-9.59c15.458,-7.242 28.52,-16.975 39.187,-29.197c11.113,-12.732 18.713,-27.611 22.799,-44.636c2.181,-9.057 3.239,-16.755 3.177,-23.094c-0.236,-25.156 -8.545,-47.458 -24.929,-66.908c-18.764,-22.283 -45.681,-37.617 -75.21,-41.173c-1.772,-0.209 -3.341,-0.228 -4.706,-0.058c-0.172,0.023 -0.27,0.1 -0.294,0.232c-0.002,0.008 -0.002,0.016 -0.002,0.024c0,0.063 0.053,0.115 0.117,0.115l0.015,-0c0.517,-0.031 0.988,0.073 1.411,0.312Zm-177.689,131.696c-2.126,1.081 -3.647,2.799 -4.565,5.154c-1.561,4.031 -4.192,11.277 -7.894,21.739c-1.176,3.343 -4.855,11.088 -11.035,23.233c-0.162,0.328 -0.251,0.688 -0.259,1.054c-0.039,2.34 0.479,4.513 1.553,6.521c5.898,11.041 13.224,21.688 21.976,31.942c3.024,3.533 6.812,6.243 10.435,9.764c0.969,0.925 2.512,0.976 3.541,0.115c4.079,-3.42 8.839,-7.995 14.282,-13.724c3.843,-4.054 7.373,-8.401 10.588,-13.041c3.671,-5.297 6.718,-9.991 9.141,-14.083c2.345,-3.961 2.71,-7.594 1.094,-10.899c-4.721,-9.659 -8.76,-19.106 -12.117,-28.34c-2.722,-7.482 -4.325,-11.694 -4.812,-12.636c-1.2,-2.309 -2.404,-4.034 -3.611,-5.177c-1.277,-1.204 -2.944,-1.927 -4.706,-2.039c-3.231,-0.2 -9.819,-0.324 -19.764,-0.37c-1.506,-0.008 -2.788,0.255 -3.847,0.787Zm286.992,55.454c-4.925,5.783 -8.192,9.47 -9.799,11.06c-3.31,3.29 -8.302,7.722 -14.976,13.296c-6.063,5.058 -11.432,9.03 -16.106,11.918c-10.251,6.331 -20.764,11.257 -31.54,14.778c-10.62,3.459 -21.706,5.563 -33.258,6.312c-11.31,0.734 -22.623,0.313 -33.941,-1.262c-13.85,-1.938 -27.328,-6.185 -40.434,-12.74c-8.18,-4.085 -13.419,-6.914 -15.717,-8.49c-5.404,-3.706 -10.953,-7.157 -16.647,-10.354c-0.964,0.217 -1.89,0.035 -2.776,-0.544c-0.01,-0.006 -0.019,-0.012 -0.029,-0.018c-0.779,-0.487 -1.83,-0.252 -2.328,0.52c-0.007,0.01 -0.013,0.021 -0.02,0.031c-11.94,19.422 -27.587,37.189 -46.398,49.894c-4.412,2.988 -9.835,6.659 -14.541,3.903c-8.784,-4.957 -16.584,-10.96 -23.4,-18.01c-3.443,-3.567 -5.607,-5.875 -6.493,-6.925c-8.102,-9.59 -15.769,-19.585 -23,-29.986c-1.365,0.139 -2.349,0.417 -2.953,0.834c-5.247,3.645 -10.545,7.212 -15.893,10.702c-18.855,12.3 -39.427,19.839 -61.717,22.619l0.483,-0.336c0.086,-0.063 0.137,-0.163 0.137,-0.269c0,-0.184 -0.154,-0.336 -0.341,-0.336c-0.015,0 -0.029,0.001 -0.043,0.003l-6.188,0.915c-0.047,0.007 -0.091,0.011 -0.13,0.011c-7.058,0 -12.67,0.027 -16.835,0.081c-5.717,0.085 -11.246,-0.231 -16.587,-0.949c-21.521,-2.888 -41.117,-10.331 -58.787,-22.33c-9.427,-6.408 -18.474,-13.937 -27.141,-22.584c-1.411,-1.406 -3.196,-3.425 -5.352,-6.058c-1.71,-2.077 -3.487,-4.107 -5.33,-6.092l-1.094,-0.822c-0.082,-0.062 -0.182,-0.095 -0.285,-0.095c-0.237,0 -0.439,0.176 -0.468,0.408c-0.031,0.324 0.008,0.652 0.118,0.984c-0.275,0.278 -0.357,0.56 -0.247,0.846c3.741,9.968 8.31,19.87 13.705,29.707c5.036,9.161 11.612,18.172 18.824,25.943c8.909,9.597 17.87,18.087 26.881,25.468c0.827,0.679 1.005,1.877 0.412,2.768c-1.247,1.911 -4.271,1.865 -7.47,2.317c-1.506,0.216 -3.2,0.27 -5.083,0.162c-15.623,-0.934 -29.705,-6.104 -42.246,-15.508c-0.447,-0.34 -0.862,-0.386 -1.247,-0.139c-0.745,0.1 -1.282,0.313 -1.611,0.637c-17.623,18.013 -30.894,38.915 -39.811,62.704c-0.228,-0.734 -0.522,-0.634 -0.882,0.301c-5.083,13.141 -8.812,25.642 -11.188,37.501c-1.24,6.231 -2.126,10.957 -2.659,14.176c-0.839,5.073 -1.486,12.076 -1.941,21.01c-0.283,5.489 0.329,9.972 0.4,15.438c0.039,2.664 0.392,6.509 1.058,11.536c1.726,13.041 3.824,24.248 6.294,33.621c8.318,31.491 24.588,60.793 45.164,86.898c0.1,0.122 0.23,0.218 0.376,0.278c0.369,0.155 0.612,0.112 0.73,-0.127c0.274,-0.093 0.549,-0.116 0.823,-0.07c0.322,0.186 0.694,-0.027 1.118,-0.637c2.67,-3.891 5.176,-8.836 6.882,-13.793c7.725,-22.322 12.172,-35.499 13.341,-39.529c13.294,-45.787 23.211,-92.886 29.752,-141.297c0.039,-0.278 -0.176,-0.363 -0.647,-0.255c1.4,-12.068 6.553,-28.491 19.258,-33.251c0.131,-0.049 0.269,-0.074 0.408,-0.074c0.481,0 0.913,0.299 1.075,0.745c0.87,2.375 1.035,5.629 1.329,7.714c1.333,9.443 1.918,18.843 1.753,28.201c-0.447,4.533 -0.659,9.042 -0.635,13.528c0.002,0.058 0.013,0.122 0.033,0.185c0.06,0.188 0.18,0.321 0.266,0.294c0.028,-0.009 0.051,-0.034 0.065,-0.074c0.071,-0.239 0.13,-0.621 0.177,-1.146c0.29,8.987 0.031,18.758 -0.777,29.313c-2.58,33.734 -8.309,66.472 -17.187,98.213l-0.036,-0.637c-0.012,-0.123 -0.119,-0.219 -0.245,-0.219c-0.109,0 -0.206,0.071 -0.237,0.173c-6.153,22.167 -12.906,40.93 -21.494,63.433c-0.894,2.332 -1.305,4.753 -1.235,7.262c0.471,2.795 1.122,4.907 1.953,6.335c2.761,4.718 6.106,9.351 10.035,13.898c8.667,10.022 17.98,18.732 27.941,26.129c11.729,8.721 24.399,15.577 36.81,21.704c2.565,1.266 5.698,1.733 9.4,1.401c10.737,-0.98 23.615,-1.521 38.634,-1.621c16.953,-0.104 31.647,2.664 46.27,8.86c16.435,6.972 28.599,18.751 38.069,33.992c0.593,0.95 1.645,1.534 2.777,1.541c22.352,0.139 42.116,0.112 59.292,-0.081c2.118,-0.024 4.342,-0.012 5.624,-1.657c3.294,-4.181 6.411,-9.763 9.541,-13.446c12.646,-14.964 30.658,-24.113 49.998,-27.553c7.687,-1.359 14.443,-2.031 20.271,-2.015c7.701,0.031 21.226,0.66 40.575,1.888c3.569,0.224 7.333,-0.564 11.294,-2.363c8.909,-4.061 17.733,-9.026 26.47,-14.894c19.105,-12.844 34.869,-27.055 47.081,-45.933c3.412,-2.749 4.164,-6.741 2.259,-11.976c-5.247,-14.377 -9.11,-24.874 -11.588,-31.491c-0.996,-2.64 -3.616,-11.037 -7.859,-25.19c-2.863,-9.543 -5.153,-18.033 -6.87,-25.468c-6.204,-26.77 -10.306,-53.145 -12.306,-79.127c-0.58,-7.559 -0.961,-13.929 -1.141,-19.11c-0.698,-20.399 0.423,-39.949 3.365,-58.65c0.076,-0.489 0.508,-0.854 1.011,-0.854c0.146,0 0.291,0.03 0.424,0.09c5.184,2.347 8.996,6.131 11.435,11.35c2.251,4.826 3.674,8.933 4.27,12.323c2.29,13.118 4.632,27.414 7.024,42.887c1.96,12.702 5.709,31.198 11.246,55.488c3.302,14.462 7.2,29.148 11.694,44.057c4.016,13.327 8.604,27.812 13.765,43.455c1.976,5.984 4.392,11.501 7.246,16.55c0.157,0.286 0.438,0.486 0.765,0.545c0.282,0.062 0.369,0.023 0.259,-0.116c0.572,0.147 1.118,0.197 1.635,0.151c0.886,-0.147 1.651,-0.626 2.294,-1.437c7.318,-9.195 14.031,-19.052 20.141,-29.568c6.525,-11.226 12.521,-24.345 17.988,-39.355c5.764,-15.809 8.941,-32.649 11.199,-49.141c1.342,-9.821 1.769,-19.673 1.283,-29.557c-0.338,-6.879 -0.651,-11.493 -0.941,-13.84c-1.349,-10.856 -3.969,-23.229 -7.859,-37.119c-6.745,-24.036 -17.388,-45.613 -31.929,-64.731c-5.019,-6.601 -8.827,-11.23 -11.423,-13.886c-1.733,-1.776 -3.07,-3.058 -4.012,-3.845c-0.889,-0.731 -2.179,-0.77 -3.105,-0.093c-12.353,8.995 -26.027,13.995 -41.023,14.998c-3.27,0.22 -7.411,-0.196 -10.458,-1.227c-1.21,-0.404 -1.941,-1.631 -1.706,-2.861c0.094,-0.51 0.604,-1.154 1.529,-1.934c14.863,-12.555 27.294,-25.418 37.293,-38.591c8.675,-11.435 15.545,-25.495 20.612,-42.18l-0.189,-1.552c-0.01,-0.126 -0.118,-0.225 -0.246,-0.225c-0.067,0 -0.131,0.027 -0.177,0.074l-1.377,1.286Zm-155.231,470.52c-13.419,-0.27 -25.317,2.266 -35.693,7.609c-13.106,6.741 -20.584,17.979 -22.435,33.715c-1.192,10.145 3.275,17.21 13.4,21.194c1.208,0.471 3.674,0.514 7.4,0.128c0.406,-0.036 0.769,-0.26 0.976,-0.603c2.835,-4.551 2.612,-10.91 7.388,-14.627c5.553,-4.343 13.541,-6.81 19.223,-1.402c0.831,0.788 1.933,3.031 3.306,6.729c1.706,4.575 4.765,11.628 11.153,9.706c1.184,-0.355 2.09,-1.097 2.717,-2.224c3.012,-5.49 4.812,-9.902 9.753,-12.045c4.682,-2.027 11.647,0.313 15.211,3.567c3.514,3.205 6.016,5.363 7.506,6.474c3.788,2.826 7.235,5.838 10.694,1.946c4.8,-5.405 7.196,-12.373 7.188,-20.905c-2.141,-8.377 -6.043,-15.905 -11.706,-22.584c-0.25,-0.293 -0.526,-0.557 -0.823,-0.788c-6.11,-4.725 -12.62,-8.381 -19.529,-10.968c-8.243,-3.088 -16.819,-4.729 -25.729,-4.922Zm-179.16,34.676c-1.529,-9.459 -6.306,-16.782 -14.329,-21.971c-6.918,-4.378 -13.96,-7.524 -21.129,-9.439c-6.525,-1.737 -13.721,-2.675 -21.588,-2.814c-13.999,-0.232 -28.999,4.447 -40.034,11.79c-3.906,2.606 -8.176,6.3 -10.635,10.412c-2.765,4.609 -6.435,11.512 -7.447,16.272c-1.09,5.135 -0.302,10.451 2.365,15.948c1.894,3.903 5.906,10.806 11.035,5.409c0.737,-0.772 3.078,-2.973 7.023,-6.602c4.177,-3.833 7.682,-4.192 13.294,-5.13c1.827,-0.309 3.455,-0.166 4.882,0.428c0.332,0.144 0.616,0.368 0.824,0.649c3.615,4.88 6.533,8.285 8.752,10.215c2.769,2.409 5.867,2.741 9.294,0.996c4.659,-2.374 6.035,-6.648 7.506,-11.86c0.094,-0.338 0.236,-0.662 0.424,-0.961c4.929,-7.934 13.799,-5.849 19.387,-0.232c3.518,3.556 4.483,8.64 7.812,12.439c2.094,2.398 5.164,4.309 7.917,3.092c5.765,-2.532 10.078,-6.308 12.941,-11.327c1.326,-2.324 2.039,-5.142 2.141,-8.454c0.087,-2.911 -0.059,-5.864 -0.435,-8.86Z" style="fill-rule:nonzero;"/>
    <path d="M813.973,143.009c-3.917,22.654 -13.893,43.802 -30.869,59.623c-8.816,8.215 -18.647,15.033 -29.494,20.453c-1.749,0.88 -3.341,1.123 -4.776,0.73c-10.141,-2.749 -19.627,-4.799 -28.458,-6.15c-16.008,-2.888 -32.137,-3.081 -48.387,-0.579c-54.434,8.385 -97.398,48.573 -110.362,101.039c-2.777,11.257 -4.541,19.438 -5.294,24.541c-0.058,0.397 -0.315,0.738 -0.682,0.904c-0.895,0.401 -2.102,0.621 -3.624,0.66c-9.317,0.239 -17.415,0.266 -24.293,0.081c-1.344,-0.039 -2.499,-0.984 -2.789,-2.282l-4.211,-18.959c-3.404,-17.172 -9.322,-31.83 -17.753,-43.976c-13.411,-19.307 -31.669,-37.849 -52.787,-48.504c-22.211,-11.211 -47.587,-16.458 -72.786,-14.86c-15.152,0.962 -27.987,3.776 -43.693,7.725c-1.835,0.456 -3.502,0.321 -5,-0.405c-19.893,-9.659 -37.222,-23.024 -48.304,-41.648c-6.91,-11.605 -11.733,-25.128 -14.471,-40.571l0,-0.298c0,-0.324 0.271,-0.59 0.6,-0.59c0.113,-0 0.223,0.031 0.318,0.089l0.776,0.475c0.667,0.764 1.396,1.463 2.189,2.096c10.242,8.185 21.642,15.199 34.199,21.044c14.964,6.973 30.25,12.3 45.857,15.983c9.824,2.317 22.141,3.845 32.129,1.795c2.235,-0.455 6.09,-2.119 11.564,-4.991c8.369,-4.378 16.886,-8.44 25.553,-12.184l22.858,-8.444c35.756,-11.411 71.845,-16.503 108.268,-15.276c38.971,1.313 76.794,9.509 113.467,24.588c9.835,4.042 18.741,9.092 28.8,13.91c3.945,1.884 8.097,2.888 12.458,3.011c8.988,0.255 18.29,-0.822 27.905,-3.231c16.8,-3.946 33.097,-9.957 48.893,-18.033c11.49,-5.868 22.066,-12.898 31.729,-21.09c0.104,-0.088 0.237,-0.136 0.374,-0.136c0.316,0 0.576,0.256 0.576,0.568c0,0.033 -0.003,0.067 -0.009,0.1l-0.471,2.792Z" style="fill:#ffdf00;fill-rule:nonzero;"/>
    <path d="M732.881,178.808c-9.615,2.409 -18.917,3.486 -27.905,3.231c-4.361,-0.123 -8.513,-1.127 -12.458,-3.011c-10.059,-4.818 -18.965,-9.868 -28.8,-13.91c-36.673,-15.079 -74.496,-23.275 -113.467,-24.588c-36.423,-1.227 -72.512,3.865 -108.268,15.276c2.29,-1.351 5.906,-2.706 10.847,-4.065c16.721,-4.609 33.462,-7.918 50.222,-9.925c2.267,-0.27 5.953,-0.657 11.058,-1.158c15.212,-1.494 31.458,-1.124 44.67,-0.522c5.592,0.255 12.988,0.989 22.188,2.201c29.364,3.884 57.571,11.508 84.621,22.874c8.682,3.648 19.058,9.59 26.587,12.983c5.185,2.332 10.718,3.413 16.6,3.243c4.557,-0.131 12.592,-1.008 24.105,-2.629Z" style="fill:#441f00;fill-rule:nonzero;"/>
    <path d="M419.125,164.25c-8.667,3.744 -17.184,7.806 -25.553,12.184c-5.474,2.872 -9.329,4.536 -11.564,4.991c-9.988,2.05 -22.305,0.522 -32.129,-1.795c-15.607,-3.683 -30.893,-9.01 -45.857,-15.983c-12.557,-5.845 -23.957,-12.859 -34.199,-21.044c-0.793,-0.633 -1.522,-1.332 -2.189,-2.096c0.11,-0.27 0.381,-0.232 0.812,0.116c11.208,9.25 23.651,16.944 37.329,23.082c20.799,9.335 41.304,16.215 63.292,17.964c8.047,0.648 15.059,-0.927 23.152,-5.316c5.647,-3.07 14.741,-8.061 23.694,-11.698c1.239,-0.502 2.31,-0.637 3.212,-0.405Z" style="fill:#441f00;fill-rule:nonzero;"/>
    <path d="M265.94,140.831c2.738,15.443 7.561,28.966 14.471,40.571c11.082,18.624 28.411,31.989 48.304,41.648c1.498,0.726 3.165,0.861 5,0.405c15.706,-3.949 28.541,-6.763 43.693,-7.725c25.199,-1.598 50.575,3.649 72.786,14.86c21.118,10.655 39.376,29.197 52.787,48.504c8.431,12.146 14.349,26.804 17.753,43.976c-3.647,-12.786 -7.467,-23.337 -11.459,-31.653c-2.776,-5.783 -7.313,-12.782 -13.611,-20.998c-3.114,-4.069 -7.847,-9.315 -14.2,-15.739c-5.396,-5.467 -10.811,-10.041 -16.246,-13.724c-7.608,-5.166 -14.529,-9.166 -20.765,-11.999c-3.678,-1.668 -9.972,-3.965 -18.881,-6.891c-9.663,-3.166 -19.871,-4.988 -30.623,-5.467c-20.18,-0.911 -40.125,1.564 -59.834,7.424c-0.878,0.263 -2.455,0.355 -4.729,0.278c-0.421,-0.015 -0.838,-0.101 -1.235,-0.255c-7.718,-3.104 -14.937,-7.269 -21.659,-12.497c-0.194,-0.145 -0.413,-0.259 -0.647,-0.335l-0.529,-0.163c-0.301,-0.098 -0.572,-0.27 -0.788,-0.498c-0.84,-0.895 -1.902,-1.849 -3.189,-2.86c-8.423,-6.625 -15.768,-15.037 -22.034,-25.237c-7.02,-11.443 -11.965,-24.758 -14.835,-39.945c-0.181,-0.95 -0.024,-1.51 0.47,-1.68Z" style="fill:#441f00;fill-rule:nonzero;"/>
    <path d="M720.376,217.665c8.831,1.351 18.317,3.401 28.458,6.15c1.435,0.393 3.027,0.15 4.776,-0.73c10.847,-5.42 20.678,-12.238 29.494,-20.453c16.976,-15.821 26.952,-36.969 30.869,-59.623c0.73,0.123 1.016,0.613 0.859,1.471c-3.419,18.422 -10.909,34.868 -22.47,49.338c-4.768,5.953 -11.627,12.446 -20.576,19.48c-5.47,4.297 -13.282,8.432 -18.317,10.991c-1.553,0.796 -3.325,0.923 -5.318,0.383c-8.776,-2.386 -13.662,-3.664 -14.658,-3.834c-5.702,-1.011 -10.074,-2.069 -13.117,-3.173Z" style="fill:#441f00;fill-rule:nonzero;"/>
    <path d="M275.352,380.168c7.306,29.128 29.74,54.122 56.257,68.425c19.823,10.69 43.576,13.91 66.281,11.165c37.552,-4.54 70.139,-28.665 85.468,-62.565c5.286,-11.69 8.318,-22.669 9.094,-32.938c1.153,-15.419 -1.043,-30.869 -6.588,-46.35c-12.905,-36.02 -43.858,-62.252 -81.915,-69.167c-26.102,-4.748 -51.038,-0.37 -74.81,13.134c-0.039,-0.78 0.757,-1.598 2.388,-2.455c10.266,-5.428 21.733,-9.362 34.399,-11.802c4.023,-0.772 8.949,-1.166 14.776,-1.181c6.204,-0.023 11.145,0.085 14.823,0.324c2.761,0.178 7.353,0.977 13.776,2.397c11.671,2.587 22.47,6.992 32.4,13.215c20.721,13.003 35.359,30.615 43.916,52.836c4.188,10.872 6.78,22.33 7.776,34.375c0.636,7.659 0.389,14.573 -0.741,20.743c-6.106,33.529 -26.846,62.414 -57.245,78.663c-17.318,9.258 -36.784,13.396 -58.399,12.416c-3.168,-0.147 -7.415,-0.591 -12.741,-1.332c-22.034,-3.046 -42.705,-14.13 -58.622,-29.047c-11.341,-10.617 -20.384,-23.523 -27.128,-38.718c-2.095,-4.71 -3.149,-8.756 -3.165,-12.138Z" style="fill:#441f00;fill-rule:nonzero;"/>
    <path d="M605.132,299.571c-6.69,11.111 -11.318,22.905 -13.882,35.382c-1.02,4.949 -1.596,9.86 -1.73,14.732c-0.294,10.227 -0.094,19.758 2.93,30.367c2.454,8.602 5.533,16.489 9.235,23.662c20.54,39.829 65.01,61.07 109.267,56.252c22.439,-2.447 42.866,-11.697 61.281,-27.749c18.082,-15.763 29.117,-35.881 33.729,-59.496c5.106,-26.163 -0.565,-53.693 -15.412,-75.061c-19.058,-27.472 -50.622,-48.146 -85.233,-50.358c-0.423,-0.239 -0.894,-0.343 -1.411,-0.312l-0.015,0c-0.064,0 -0.117,-0.052 -0.117,-0.115c0,-0.008 0,-0.016 0.002,-0.024c0.024,-0.132 0.122,-0.209 0.294,-0.232c1.365,-0.17 2.934,-0.151 4.706,0.058c29.529,3.556 56.446,18.89 75.21,41.173c16.384,19.45 24.693,41.752 24.929,66.908c0.062,6.339 -0.996,14.037 -3.177,23.094c-4.086,17.025 -11.686,31.904 -22.799,44.636c-10.667,12.222 -23.729,21.955 -39.187,29.197c-16.267,7.629 -33.749,10.826 -52.446,9.59c-27.78,-1.83 -51.567,-12.261 -71.363,-31.294c-5.176,-4.98 -9.713,-10.555 -13.611,-16.724c-3.655,-5.783 -7.02,-12.203 -10.094,-19.26c-4.369,-10.022 -6.98,-20.11 -7.835,-30.263c-0.918,-10.818 -0.259,-21.234 1.976,-31.248c2.659,-11.875 7.576,-22.847 14.753,-32.915Z" style="fill:#441f00;fill-rule:nonzero;"/>
    <path d="M275.352,380.168c-2.337,-10.254 -3.231,-19.994 -2.682,-29.221c0.69,-11.566 3.247,-23.306 7.67,-35.22l7.659,-15.322c4.862,-7.104 9.352,-12.833 13.47,-17.188c7.498,-7.914 16.721,-15.029 27.67,-21.345c23.772,-13.504 48.708,-17.882 74.81,-13.134c38.057,6.915 69.01,33.147 81.915,69.167c5.545,15.481 7.741,30.931 6.588,46.35c-0.776,10.269 -3.808,21.248 -9.094,32.938c-15.329,33.9 -47.916,58.025 -85.468,62.565c-22.705,2.745 -46.458,-0.475 -66.281,-11.165c-26.517,-14.303 -48.951,-39.297 -56.257,-68.425Zm124.703,20.048c8.784,-0.749 16.642,-3.223 23.575,-7.424c6.439,-3.914 11.341,-9.416 14.706,-16.504c2.494,-5.273 3.839,-10.277 4.035,-15.01c1.702,-9.697 0.78,-18.716 -2.765,-27.055c-3.795,-8.933 -9.737,-15.759 -17.823,-20.476c-18.117,-10.563 -44.598,-8.27 -58.01,8.385c-7.827,9.729 -11.729,20.419 -11.705,32.07c0.023,11.504 3.498,21.449 10.423,29.834c8.847,10.737 22.74,17.697 37.564,16.18Z" style="fill:#fff;fill-rule:nonzero;"/>
    <path d="M705.317,247.302c34.611,2.212 66.175,22.886 85.233,50.358c14.847,21.368 20.518,48.898 15.412,75.061c-4.612,23.615 -15.647,43.733 -33.729,59.496c-18.415,16.052 -38.842,25.302 -61.281,27.749c-44.257,4.818 -88.727,-16.423 -109.267,-56.252c-3.702,-7.173 -6.781,-15.06 -9.235,-23.662c-3.024,-10.609 -3.224,-20.14 -2.93,-30.367c0.134,-4.872 0.71,-9.783 1.73,-14.732c2.564,-12.477 7.192,-24.271 13.882,-35.382c6.674,-10.686 13.529,-19.183 20.564,-25.492c21.968,-19.689 48.508,-28.614 79.621,-26.777Zm-25.552,59.739c-16.647,1.39 -32.293,11.987 -38.105,27.669c-2.808,7.574 -3.878,15.238 -3.212,22.99c0.667,7.752 3.032,15.129 7.094,22.132c8.412,14.489 25.647,22.341 42.293,20.963c16.635,-1.39 32.282,-11.987 38.105,-27.669c2.808,-7.574 3.879,-15.237 3.212,-22.989c-0.675,-7.752 -3.039,-15.13 -7.094,-22.133c-8.412,-14.5 -25.646,-22.353 -42.293,-20.963Z" style="fill:#fff;fill-rule:nonzero;"/>
    <path d="M287.999,300.405l-7.659,15.322c1.365,-5.652 3.918,-10.759 7.659,-15.322Z" style="fill:#441f00;fill-rule:nonzero;"/>
    <path d="M729.152,350.137c0.667,7.752 -0.404,15.415 -3.212,22.989c-5.823,15.682 -21.47,26.279 -38.105,27.669c-16.646,1.378 -33.881,-6.474 -42.293,-20.963c-4.062,-7.003 -6.427,-14.38 -7.094,-22.132c-0.666,-7.752 0.404,-15.416 3.212,-22.99c5.812,-15.682 21.458,-26.279 38.105,-27.669c16.647,-1.39 33.881,6.463 42.293,20.963c4.055,7.003 6.419,14.381 7.094,22.133Zm-49.316,-42.019c-16.318,1.367 -31.67,11.756 -37.364,27.125c-2.753,7.427 -3.804,14.944 -3.153,22.549c0.659,7.598 2.976,14.829 6.953,21.693c8.247,14.222 25.152,21.924 41.469,20.557c16.318,-1.355 31.658,-11.743 37.364,-27.124c2.753,-7.428 3.804,-14.94 3.153,-22.538c-0.659,-7.605 -2.977,-14.84 -6.953,-21.704c-8.247,-14.211 -25.152,-21.913 -41.469,-20.558Z" style="fill:#441f00;fill-rule:nonzero;"/>
    <path d="M442.371,361.278c1.004,-10.925 -0.831,-21.009 -5.506,-30.251c-2.894,-5.737 -6.807,-10.323 -11.74,-13.759c-12.839,-8.949 -26.819,-11.227 -41.941,-6.834c-7.733,2.247 -13.587,5.826 -17.564,10.737c-7.168,8.856 -11.286,18.337 -12.352,28.445c-2.589,24.414 12.282,44.311 36.763,49.755c0.39,0.092 0.791,0.119 1.188,0.081c3.051,-0.301 5.996,-0.047 8.836,0.764c-14.824,1.517 -28.717,-5.443 -37.564,-16.18c-6.925,-8.385 -10.4,-18.33 -10.423,-29.834c-0.024,-11.651 3.878,-22.341 11.705,-32.07c13.412,-16.655 39.893,-18.948 58.01,-8.385c8.086,4.717 14.028,11.543 17.823,20.476c3.545,8.339 4.467,17.358 2.765,27.055Z" style="fill:#441f00;fill-rule:nonzero;"/>
    <path d="M679.836,308.118c16.317,-1.355 33.222,6.347 41.469,20.558c3.976,6.864 6.294,14.099 6.953,21.704c0.651,7.598 -0.4,15.11 -3.153,22.538c-5.706,15.381 -21.046,25.769 -37.364,27.124c-16.317,1.367 -33.222,-6.335 -41.469,-20.557c-3.977,-6.864 -6.294,-14.095 -6.953,-21.693c-0.651,-7.605 0.4,-15.122 3.153,-22.549c5.694,-15.369 21.046,-25.758 37.364,-27.125Z" style="fill-rule:nonzero;"/>
    <path d="M442.371,361.278c-0.196,4.733 -1.541,9.737 -4.035,15.01c-3.365,7.088 -8.267,12.59 -14.706,16.504c-6.933,4.201 -14.791,6.675 -23.575,7.424c-2.84,-0.811 -5.785,-1.065 -8.836,-0.764c-0.397,0.038 -0.798,0.011 -1.188,-0.081c-24.481,-5.444 -39.352,-25.341 -36.763,-49.755c1.066,-10.108 5.184,-19.589 12.352,-28.445c3.977,-4.911 9.831,-8.49 17.564,-10.737c15.122,-4.393 29.102,-2.115 41.941,6.834c4.933,3.436 8.846,8.022 11.74,13.759c4.675,9.242 6.51,19.326 5.506,30.251Z" style="fill-rule:nonzero;"/>
    <path d="M527.628,378.998c1.059,-0.532 2.341,-0.795 3.847,-0.787c9.945,0.046 16.533,0.17 19.764,0.37c1.762,0.112 3.429,0.835 4.706,2.039c1.207,1.143 2.411,2.868 3.611,5.177c0.487,0.942 2.09,5.154 4.812,12.636c3.357,9.234 7.396,18.681 12.117,28.34c1.616,3.305 1.251,6.938 -1.094,10.899c-2.423,4.092 -5.47,8.786 -9.141,14.083c-3.215,4.64 -6.745,8.987 -10.588,13.041c-5.443,5.729 -10.203,10.304 -14.282,13.724c-1.029,0.861 -2.572,0.81 -3.541,-0.115c-3.623,-3.521 -7.411,-6.231 -10.435,-9.764c-8.752,-10.254 -16.078,-20.901 -21.976,-31.942c-1.074,-2.008 -1.592,-4.181 -1.553,-6.521c0.008,-0.366 0.097,-0.726 0.259,-1.054c6.18,-12.145 9.859,-19.89 11.035,-23.233c3.702,-10.462 6.333,-17.708 7.894,-21.739c0.918,-2.355 2.439,-4.073 4.565,-5.154Zm12.682,99.546c13.607,-11.405 25.093,-25.144 34.458,-41.22c2.788,-4.806 2.341,-7.783 -0.141,-12.902c-4.385,-9.065 -7.557,-16.307 -9.518,-21.727c-3.921,-10.833 -6.062,-16.616 -6.423,-17.35c-1.145,-2.347 -2.773,-4.181 -4.882,-5.501c-1.067,-0.664 -3.471,-1.004 -7.212,-1.019c-9.443,-0.031 -14.604,-0.004 -15.482,0.081c-4.67,0.475 -5.882,2.432 -7.788,6.613c-0.463,1.011 -3.078,8.181 -7.847,21.507c-0.996,2.795 -4.255,9.602 -9.776,20.419c-1.447,2.837 -1.565,5.026 -0.13,7.736c6.487,12.231 14.255,23.585 23.306,34.062c1.866,2.162 5.321,5.266 10.364,9.312c0.315,0.253 0.77,0.248 1.071,-0.011Z" style="fill:#441f00;fill-rule:nonzero;"/>
    <path d="M539.239,478.555c-5.043,-4.046 -8.498,-7.15 -10.364,-9.312c-9.051,-10.477 -16.819,-21.831 -23.306,-34.062c-1.435,-2.71 -1.317,-4.899 0.13,-7.736c5.521,-10.817 8.78,-17.624 9.776,-20.419c4.769,-13.326 7.384,-20.496 7.847,-21.507c1.906,-4.181 3.118,-6.138 7.788,-6.613c0.878,-0.085 6.039,-0.112 15.482,-0.081c3.741,0.015 6.145,0.355 7.212,1.019c2.109,1.32 3.737,3.154 4.882,5.501c0.361,0.734 2.502,6.517 6.423,17.35c1.961,5.42 5.133,12.662 9.518,21.727c2.482,5.119 2.929,8.096 0.141,12.902c-9.365,16.076 -20.851,29.815 -34.458,41.22c-0.301,0.259 -0.756,0.264 -1.071,0.011Z" style="fill:#ffd14d;fill-rule:nonzero;"/>
    <path d="M816.609,434.869c-2.267,5.258 -4.506,10.493 -6.718,15.705c-3.647,8.605 -7.659,16.538 -12.47,23.267c-10.063,14.091 -22.956,27.646 -38.682,40.664c-1.49,1.235 -2.298,2.467 -2.423,3.694c-0.133,1.228 0.817,2.48 2.294,3.023c2.792,1.027 5.906,1.448 9.341,1.263c16.282,-0.904 30.736,-6.177 43.364,-15.821c0.359,-0.277 0.879,-0.247 1.211,0.07c32.035,31.398 48.999,74.1 55.022,117.288c1.961,14.022 1.934,28.73 -0.082,44.126c-1.592,12.192 -3.329,22.168 -5.212,29.928c-7.38,30.552 -20.521,58.522 -39.422,83.909c-1.898,2.541 -3.933,4.957 -6.106,7.251c-0.517,0.046 -1.063,-0.004 -1.635,-0.151c-2.863,-4.988 -5.765,-11.921 -8.706,-20.801c-5.051,-15.265 -9.09,-27.993 -12.117,-38.185c-9.357,-31.448 -17.015,-64.533 -22.976,-99.255c-1.184,-6.903 -3.431,-20.739 -6.741,-41.509c-1.788,-11.269 -6,-23.129 -17.399,-28.156c-0.05,-0.021 -0.101,-0.04 -0.152,-0.056c-0.787,-0.248 -1.64,0.182 -1.889,0.95c-0.017,0.053 -0.031,0.106 -0.042,0.16c-1.364,6.687 -2.247,13.373 -2.647,20.06c-2.039,34.714 -0.157,69.004 5.647,102.869c4.957,28.923 12.078,56.874 21.364,83.852c3.036,8.817 7.208,20.16 12.518,34.027c1.372,3.567 0.753,7.327 -1.859,11.281c-12.212,18.878 -27.976,33.089 -47.081,45.933c-8.737,5.868 -17.561,10.833 -26.47,14.894c-3.961,1.799 -7.725,2.587 -11.294,2.363c-19.349,-1.228 -32.874,-1.857 -40.575,-1.888c-5.828,-0.016 -12.584,0.656 -20.271,2.015c-19.34,3.44 -37.352,12.589 -49.998,27.553c-3.13,3.683 -6.247,9.265 -9.541,13.446c-1.282,1.645 -3.506,1.633 -5.624,1.657c-17.176,0.193 -36.94,0.22 -59.292,0.081c-1.132,-0.007 -2.184,-0.591 -2.777,-1.541c-9.47,-15.241 -21.634,-27.02 -38.069,-33.992c-14.623,-6.196 -29.317,-8.964 -46.27,-8.86c-15.019,0.1 -27.897,0.641 -38.634,1.621c-3.702,0.332 -6.835,-0.135 -9.4,-1.401c-12.411,-6.127 -25.081,-12.983 -36.81,-21.704c-9.961,-7.397 -19.274,-16.107 -27.941,-26.129c-3.929,-4.547 -7.274,-9.18 -10.035,-13.898c-0.831,-1.428 -1.482,-3.54 -1.953,-6.335c1.388,-5.328 2.596,-9.3 3.624,-11.918c7.505,-19.063 14.046,-38.428 19.623,-58.094c8.878,-31.741 14.607,-64.479 17.187,-98.213c0.808,-10.555 1.067,-20.326 0.777,-29.313l0.094,-12.787c0.165,-9.358 -0.42,-18.758 -1.753,-28.201c-0.294,-2.085 -0.459,-5.339 -1.329,-7.714c-0.162,-0.446 -0.594,-0.745 -1.075,-0.745c-0.139,0 -0.277,0.025 -0.408,0.074c-12.705,4.76 -17.858,21.183 -19.258,33.251c-5.059,34.691 -11.627,69.093 -19.705,103.205c-2.377,10.041 -5.777,21.924 -8.753,32.823c-3.565,13.075 -8.412,25.919 -12.506,38.903c-2.298,7.273 -5.458,14.133 -9.482,20.58c-0.274,-0.046 -0.549,-0.023 -0.823,0.07c-15.929,-19.859 -28.219,-40.301 -36.87,-61.325c-10.031,-24.384 -15.47,-50.821 -16.317,-79.312c-0.188,-6.17 0.145,-12.906 1,-20.21c2.447,-20.956 7.392,-40.884 14.835,-59.785c8.917,-23.789 22.188,-44.691 39.811,-62.704c0.329,-0.324 0.866,-0.537 1.611,-0.637c12.133,9.343 25.847,14.736 41.14,16.18c3.918,0.37 13.412,0.787 15.776,-3.127c0.582,-0.963 0.367,-2.211 -0.505,-2.931c-14.235,-11.801 -29.847,-26.568 -40.246,-42.366c-8.424,-12.786 -14.141,-25.873 -19.694,-39.32c-0.11,-0.332 -0.149,-0.66 -0.118,-0.984c0.029,-0.232 0.231,-0.408 0.468,-0.408c0.103,0 0.203,0.033 0.285,0.095l1.094,0.822c2.236,3.653 4.6,6.791 7.094,9.416c22.176,23.314 48.846,40.629 81.845,47.138c13.702,2.695 29.427,3.158 47.175,1.39c22.29,-2.78 42.862,-10.319 61.717,-22.619c5.348,-3.49 10.646,-7.057 15.893,-10.702c0.604,-0.417 1.588,-0.695 2.953,-0.834c3.624,6.023 7.541,11.794 11.753,17.315c5.529,7.25 11.501,14.107 17.917,20.569c7.443,7.49 15.184,13.169 23.223,17.037c4.706,2.756 10.129,-0.915 14.541,-3.903c18.811,-12.705 34.458,-30.472 46.398,-49.894c0.007,-0.01 0.013,-0.021 0.02,-0.031c0.498,-0.772 1.549,-1.007 2.328,-0.52c0.01,0.006 0.019,0.012 0.029,0.018c0.886,0.579 1.812,0.761 2.776,0.544c5.483,3.907 11.047,7.625 16.694,11.154c30.838,19.279 64.324,26.375 100.456,21.287c24.204,-3.413 45.905,-12.562 65.104,-27.449c7.067,-5.482 13.69,-11.122 19.871,-16.921c4.195,-3.938 7.627,-8.134 10.293,-12.589l1.377,-1.286c0.046,-0.047 0.11,-0.074 0.177,-0.074c0.128,0 0.236,0.099 0.246,0.225l0.189,1.552Zm-379.332,199.252c-14.47,1.753 -28.407,-0.019 -41.811,-5.316c-5.49,-2.494 -10.917,-5.482 -16.281,-8.964c-1.255,-0.811 -2.408,-1.224 -3.459,-1.239c-0.016,-0.001 -0.032,-0.001 -0.048,-0.001c-1.303,0 -2.376,1.109 -2.376,2.455l0,0.047c0.153,8.478 10.8,19.701 17.2,24.53c18.337,15.196 39.05,18.192 62.139,8.988c10.196,-4.069 19.471,-9.208 27.823,-15.415c0.486,-0.362 1.162,-0.362 1.647,0c6.933,5.126 14.404,9.547 22.411,13.261c18.008,8.346 36.835,10.466 56.481,6.358c14.133,-2.733 26.553,-8.883 37.258,-18.45c0.507,-0.444 1.267,-0.482 1.824,-0.092c7.858,5.574 16.309,10.203 25.352,13.886c7.059,2.88 13.521,4.56 19.388,5.038c11.725,1.877 22.909,0.433 33.552,-4.331c14.909,-5.93 24.783,-16.497 29.623,-31.7c0.266,-0.833 0.149,-2.285 -0.353,-4.354c-0.108,-0.471 -0.488,-0.836 -0.965,-0.927c-1.584,-0.309 -3.078,-0.058 -4.482,0.753c-4.761,2.772 -9.337,5.293 -13.729,7.563c-6.463,3.335 -12.875,5.895 -19.235,7.679c-10.69,1.606 -21.168,1.111 -31.435,-1.483c-8.29,-3.305 -16.242,-7.717 -23.858,-13.238c-3.866,-2.81 -7.949,-5.941 -12.247,-9.393c-2.882,-2.316 -5.046,-3.428 -7.988,-0.648c-7.741,7.319 -16.258,13.612 -25.552,18.878c-10.156,5.745 -21.156,8.416 -32.999,8.015c-7.968,-1.151 -15.56,-3.537 -22.776,-7.158c-9.537,-6.03 -18.05,-13.13 -25.54,-21.299c-1.167,-1.267 -3.029,-1.673 -4.624,-1.007c-2.243,0.934 -4.196,2.088 -5.859,3.463c-5.599,4.64 -11.019,9.049 -16.258,13.226c-4.925,3.93 -10.066,6.69 -15.423,8.281c-3.6,1.065 -6.067,1.93 -7.4,2.594Zm-12.623,89.979c1.212,3.926 3.553,6.984 6.588,11.269c10.423,14.686 26.858,24.032 44.364,27.553c21.411,4.297 44.857,-4.424 63.316,-14.987c0.871,-0.501 1.952,-0.501 2.823,0c12.706,7.304 26.344,12.196 40.917,14.674c21.834,3.718 44.293,-4.922 60.763,-18.797c5.396,-4.556 9.38,-9.709 11.952,-15.462c1.294,-2.895 0.506,-7.748 -4.294,-5.976c-0.604,0.224 -5.199,2.166 -13.787,5.826c-13.953,5.941 -28.235,11.037 -43.117,10.863c-16.988,-0.208 -32.729,-7.03 -46.187,-17.546c-4.718,-3.671 -7.659,-5.849 -12.835,-2.108c-10.439,7.551 -21.776,13.184 -34.011,16.898c-8.729,2.648 -18.701,3.312 -29.917,1.992c-8.411,-0.984 -19.399,-5.467 -27.117,-9.231c-5.905,-2.883 -14.741,-7.632 -18.423,-6.752c-0.01,0.003 -0.019,0.005 -0.029,0.008c-0.766,0.206 -1.225,0.991 -1.017,1.739c0.003,0.012 0.007,0.024 0.011,0.037Z" style="fill:#ffdf00;fill-rule:nonzero;"/>
    <path d="M402.654,491.99c-17.748,1.768 -33.473,1.305 -47.175,-1.39c-32.999,-6.509 -59.669,-23.824 -81.845,-47.138c-2.494,-2.625 -4.858,-5.763 -7.094,-9.416c1.843,1.985 3.62,4.015 5.33,6.092c2.156,2.633 3.941,4.652 5.352,6.058c8.667,8.647 17.714,16.176 27.141,22.584c17.67,11.999 37.266,19.442 58.787,22.33c5.341,0.718 10.87,1.034 16.587,0.949c4.165,-0.054 9.777,-0.081 16.835,-0.081c0.039,0 0.083,-0.004 0.13,-0.011l6.188,-0.915c0.014,-0.002 0.028,-0.003 0.043,-0.003c0.187,0 0.341,0.152 0.341,0.336c0,0.106 -0.051,0.206 -0.137,0.269l-0.483,0.336Z" style="fill:#441f00;fill-rule:nonzero;"/>
    <path d="M814.62,434.452c-2.666,4.455 -6.098,8.651 -10.293,12.589c-6.181,5.799 -12.804,11.439 -19.871,16.921c-19.199,14.887 -40.9,24.036 -65.104,27.449c-36.132,5.088 -69.618,-2.008 -100.456,-21.287c-5.647,-3.529 -11.211,-7.247 -16.694,-11.154c5.694,3.197 11.243,6.648 16.647,10.354c2.298,1.576 7.537,4.405 15.717,8.49c13.106,6.555 26.584,10.802 40.434,12.74c11.318,1.575 22.631,1.996 33.941,1.262c11.552,-0.749 22.638,-2.853 33.258,-6.312c10.776,-3.521 21.289,-8.447 31.54,-14.778c4.674,-2.888 10.043,-6.86 16.106,-11.918c6.674,-5.574 11.666,-10.006 14.976,-13.296c1.607,-1.59 4.874,-5.277 9.799,-11.06Z" style="fill:#441f00;fill-rule:nonzero;"/>
    <path d="M264.811,434.521c5.553,13.447 11.27,26.534 19.694,39.32c10.399,15.798 26.011,30.565 40.246,42.366c0.872,0.72 1.087,1.968 0.505,2.931c-2.364,3.914 -11.858,3.497 -15.776,3.127c-15.293,-1.444 -29.007,-6.837 -41.14,-16.18c0.385,-0.247 0.8,-0.201 1.247,0.139c12.541,9.404 26.623,14.574 42.246,15.508c1.883,0.108 3.577,0.054 5.083,-0.162c3.199,-0.452 6.223,-0.406 7.47,-2.317c0.593,-0.891 0.415,-2.089 -0.412,-2.768c-9.011,-7.381 -17.972,-15.871 -26.881,-25.468c-7.212,-7.771 -13.788,-16.782 -18.824,-25.943c-5.395,-9.837 -9.964,-19.739 -13.705,-29.707c-0.11,-0.286 -0.028,-0.568 0.247,-0.846Z" style="fill:#441f00;fill-rule:nonzero;"/>
    <path d="M816.609,434.869c-5.067,16.685 -11.937,30.745 -20.612,42.18c-9.999,13.173 -22.43,26.036 -37.293,38.591c-0.925,0.78 -1.435,1.424 -1.529,1.934c-0.235,1.23 0.496,2.457 1.706,2.861c3.047,1.031 7.188,1.447 10.458,1.227c14.996,-1.003 28.67,-6.003 41.023,-14.998c0.926,-0.677 2.216,-0.638 3.105,0.093c0.942,0.787 2.279,2.069 4.012,3.845c2.596,2.656 6.404,7.285 11.423,13.886c14.541,19.118 25.184,40.695 31.929,64.731c3.89,13.89 6.51,26.263 7.859,37.119c0.29,2.347 0.603,6.961 0.941,13.84c0.486,9.884 0.059,19.736 -1.283,29.557c-2.258,16.492 -5.435,33.332 -11.199,49.141c-5.467,15.01 -11.463,28.129 -17.988,39.355c-6.11,10.516 -12.823,20.373 -20.141,29.568c-0.643,0.811 -1.408,1.29 -2.294,1.437c2.173,-2.294 4.208,-4.71 6.106,-7.251c18.901,-25.387 32.042,-53.357 39.422,-83.909c1.883,-7.76 3.62,-17.736 5.212,-29.928c2.016,-15.396 2.043,-30.104 0.082,-44.126c-6.023,-43.188 -22.987,-85.89 -55.022,-117.288c-0.332,-0.317 -0.852,-0.347 -1.211,-0.07c-12.628,9.644 -27.082,14.917 -43.364,15.821c-3.435,0.185 -6.549,-0.236 -9.341,-1.263c-1.477,-0.543 -2.427,-1.795 -2.294,-3.023c0.125,-1.227 0.933,-2.459 2.423,-3.694c15.726,-13.018 28.619,-26.573 38.682,-40.664c4.811,-6.729 8.823,-14.662 12.47,-23.267c2.212,-5.212 4.451,-10.447 6.718,-15.705Z" style="fill:#441f00;fill-rule:nonzero;"/>
    <path d="M536.11,512.756c-8.039,-3.868 -15.78,-9.547 -23.223,-17.037c-6.416,-6.462 -12.388,-13.319 -17.917,-20.569c-4.212,-5.521 -8.129,-11.292 -11.753,-17.315c7.231,10.401 14.898,20.396 23,29.986c0.886,1.05 3.05,3.358 6.493,6.925c6.816,7.05 14.616,13.053 23.4,18.01Z" style="fill:#441f00;fill-rule:nonzero;"/>
    <path d="M836.573,473.76l-2.647,5.942c-0.187,0.415 -0.114,0.9 0.188,1.239c1.427,1.652 3.761,4.069 7,7.25c3.215,3.158 6.956,7.775 11.223,13.852l-18.87,-20.453c-0.803,-0.868 -0.946,-2.156 -0.353,-3.174l2.953,-5.015c0.04,-0.076 0.121,-0.124 0.208,-0.124c0.106,0 0.199,0.07 0.227,0.171c0.016,0.077 0.039,0.181 0.071,0.312Z" style="fill:#441f00;fill-rule:nonzero;"/>
    <path d="M815.091,789.085c0.11,0.139 0.023,0.178 -0.259,0.116c-0.327,-0.059 -0.608,-0.259 -0.765,-0.545c-2.854,-5.049 -5.27,-10.566 -7.246,-16.55c-5.161,-15.643 -9.749,-30.128 -13.765,-43.455c-4.494,-14.909 -8.392,-29.595 -11.694,-44.057c-5.537,-24.29 -9.286,-42.786 -11.246,-55.488c-2.392,-15.473 -4.734,-29.769 -7.024,-42.887c-0.596,-3.39 -2.019,-7.497 -4.27,-12.323c-2.439,-5.219 -6.251,-9.003 -11.435,-11.35c-0.133,-0.06 -0.278,-0.09 -0.424,-0.09c-0.503,0 -0.935,0.365 -1.011,0.854c-2.942,18.701 -4.063,38.251 -3.365,58.65c0.18,5.181 0.561,11.551 1.141,19.11c2,25.982 6.102,52.357 12.306,79.127c1.717,7.435 4.007,15.925 6.87,25.468c4.243,14.153 6.863,22.55 7.859,25.19c2.478,6.617 6.341,17.114 11.588,31.491c1.905,5.235 1.153,9.227 -2.259,11.976c2.612,-3.954 3.231,-7.714 1.859,-11.281c-5.31,-13.867 -9.482,-25.21 -12.518,-34.027c-9.286,-26.978 -16.407,-54.929 -21.364,-83.852c-5.804,-33.865 -7.686,-68.155 -5.647,-102.869c0.4,-6.687 1.283,-13.373 2.647,-20.06c0.011,-0.054 0.025,-0.107 0.042,-0.16c0.249,-0.768 1.102,-1.198 1.889,-0.95c0.051,0.016 0.102,0.035 0.152,0.056c11.399,5.027 15.611,16.887 17.399,28.156c3.31,20.77 5.557,34.606 6.741,41.509c5.961,34.722 13.619,67.807 22.976,99.255c3.027,10.192 7.066,22.92 12.117,38.185c2.941,8.88 5.843,15.813 8.706,20.801Z" style="fill:#441f00;fill-rule:nonzero;"/>
    <path d="M226.918,569.426c-7.443,18.901 -12.388,38.829 -14.835,59.785c-0.855,7.304 -1.188,14.04 -1,20.21c0.847,28.491 6.286,54.928 16.317,79.312c8.651,21.024 20.941,41.466 36.87,61.325c-0.118,0.239 -0.361,0.282 -0.73,0.127c-0.146,-0.06 -0.276,-0.156 -0.376,-0.278c-20.576,-26.105 -36.846,-55.407 -45.164,-86.898c-2.47,-9.373 -4.568,-20.58 -6.294,-33.621c-0.666,-5.027 -1.019,-8.872 -1.058,-11.536c-0.071,-5.466 -0.683,-9.949 -0.4,-15.438c0.455,-8.934 1.102,-15.937 1.941,-21.01c0.533,-3.219 1.419,-7.945 2.659,-14.176c2.376,-11.859 6.105,-24.36 11.188,-37.501c0.36,-0.935 0.654,-1.035 0.882,-0.301Z" style="fill:#441f00;fill-rule:nonzero;"/>
    <path d="M265.093,789.988c4.024,-6.447 7.184,-13.307 9.482,-20.58c4.094,-12.984 8.941,-25.828 12.506,-38.903c2.976,-10.899 6.376,-22.782 8.753,-32.823c8.078,-34.112 14.646,-68.514 19.705,-103.205c0.471,-0.108 0.686,-0.023 0.647,0.255c-6.541,48.411 -16.458,95.51 -29.752,141.297c-1.169,4.03 -5.616,17.207 -13.341,39.529c-1.706,4.957 -4.212,9.902 -6.882,13.793c-0.424,0.61 -0.796,0.823 -1.118,0.637Z" style="fill:#441f00;fill-rule:nonzero;"/>
    <path d="M339.362,597.812l-0.094,12.787c-0.047,0.525 -0.106,0.907 -0.177,1.146c-0.014,0.04 -0.037,0.065 -0.065,0.074c-0.086,0.027 -0.206,-0.106 -0.266,-0.294c-0.02,-0.063 -0.031,-0.127 -0.033,-0.185c-0.024,-4.486 0.188,-8.995 0.635,-13.528Z" style="fill:#441f00;fill-rule:nonzero;"/>
    <path d="M512.381,628.863c6.863,4.749 14.455,7.134 22.776,7.158c11.843,0.401 22.843,-2.27 32.999,-8.015c9.294,-5.266 17.811,-11.559 25.552,-18.878c2.942,-2.78 5.106,-1.668 7.988,0.648c4.298,3.452 8.381,6.583 12.247,9.393c7.616,5.521 15.568,9.933 23.858,13.238c10.361,3.783 20.839,4.278 31.435,1.483c6.36,-1.784 12.772,-4.344 19.235,-7.679c4.392,-2.27 8.968,-4.791 13.729,-7.563c1.404,-0.811 2.898,-1.062 4.482,-0.753c0.477,0.091 0.857,0.456 0.965,0.927c0.502,2.069 0.619,3.521 0.353,4.354c-4.84,15.203 -14.714,25.77 -29.623,31.7c-10.855,3.598 -22.039,5.042 -33.552,4.331c-5.867,-0.478 -12.329,-2.158 -19.388,-5.038c-9.043,-3.683 -17.494,-8.312 -25.352,-13.886c-0.557,-0.39 -1.317,-0.352 -1.824,0.092c-10.705,9.567 -23.125,15.717 -37.258,18.45c-10.478,1.135 -18.964,1.51 -25.458,1.123c-8.305,-0.501 -16.972,-2.54 -25.999,-6.115c-9.969,-3.945 -18.788,-8.898 -26.458,-14.859c-0.931,-0.723 -2.244,-0.752 -3.2,-0.07c-8.314,5.907 -17.11,10.806 -26.388,14.698c-5.772,2.416 -11.148,3.965 -16.129,4.644c-6.478,0.896 -12.082,1.027 -16.811,0.394c-10.368,-1.382 -20.388,-5.718 -30.058,-13.007c-6.4,-4.829 -17.047,-16.052 -17.2,-24.53l0,-0.047c0,-1.346 1.073,-2.455 2.376,-2.455c0.016,0 0.032,0 0.048,0.001c1.051,0.015 2.204,0.428 3.459,1.239c5.364,3.482 10.791,6.47 16.281,8.964c13.318,6.455 27.255,8.227 41.811,5.316c1.333,-0.664 3.8,-1.529 7.4,-2.594c5.357,-1.591 10.498,-4.351 15.423,-8.281c5.239,-4.177 10.659,-8.586 16.258,-13.226c1.663,-1.375 3.616,-2.529 5.859,-3.463c1.595,-0.666 3.457,-0.26 4.624,1.007c7.49,8.169 16.003,15.269 25.54,21.299Z" style="fill:#978800;fill-rule:nonzero;"/>
    <path d="M395.466,628.805c13.404,5.297 27.341,7.069 41.811,5.316c-14.556,2.911 -28.493,1.139 -41.811,-5.316Z" style="fill:#441f00;fill-rule:nonzero;"/>
    <path d="M512.381,628.863c7.216,3.621 14.808,6.007 22.776,7.158c-8.321,-0.024 -15.913,-2.409 -22.776,-7.158Z" style="fill:#441f00;fill-rule:nonzero;"/>
    <path d="M637.801,632.407c10.267,2.594 20.745,3.089 31.435,1.483c-10.596,2.795 -21.074,2.3 -31.435,-1.483Z" style="fill:#441f00;fill-rule:nonzero;"/>
    <path d="M561.003,658.825c-19.646,4.108 -38.473,1.988 -56.481,-6.358c-8.007,-3.714 -15.478,-8.135 -22.411,-13.261c-0.485,-0.362 -1.161,-0.362 -1.647,0c-8.352,6.207 -17.627,11.346 -27.823,15.415c-23.089,9.204 -43.802,6.208 -62.139,-8.988c9.67,7.289 19.69,11.625 30.058,13.007c4.729,0.633 10.333,0.502 16.811,-0.394c4.981,-0.679 10.357,-2.228 16.129,-4.644c9.278,-3.892 18.074,-8.791 26.388,-14.698c0.956,-0.682 2.269,-0.653 3.2,0.07c7.67,5.961 16.489,10.914 26.458,14.859c9.027,3.575 17.694,5.614 25.999,6.115c6.494,0.387 14.98,0.012 25.458,-1.123Z" style="fill:#441f00;fill-rule:nonzero;"/>
    <path d="M678.377,654.876c-10.643,4.764 -21.827,6.208 -33.552,4.331c11.513,0.711 22.697,-0.733 33.552,-4.331Z" style="fill:#441f00;fill-rule:nonzero;"/>
    <path d="M424.654,724.1c-0.004,-0.013 -0.008,-0.025 -0.011,-0.037c-0.208,-0.748 0.251,-1.533 1.017,-1.739c0.01,-0.003 0.019,-0.005 0.029,-0.008c3.682,-0.88 12.518,3.869 18.423,6.752c7.718,3.764 18.706,8.247 27.117,9.231c11.216,1.32 21.188,0.656 29.917,-1.992c12.235,-3.714 23.572,-9.347 34.011,-16.898c5.176,-3.741 8.117,-1.563 12.835,2.108c13.458,10.516 29.199,17.338 46.187,17.546c14.882,0.174 29.164,-4.922 43.117,-10.863c8.588,-3.66 13.183,-5.602 13.787,-5.826c4.8,-1.772 5.588,3.081 4.294,5.976c-2.572,5.753 -6.556,10.906 -11.952,15.462c-16.47,13.875 -38.929,22.515 -60.763,18.797c-14.573,-2.478 -28.211,-7.37 -40.917,-14.674c-0.871,-0.501 -1.952,-0.501 -2.823,0c-18.459,10.563 -41.905,19.284 -63.316,14.987c-17.506,-3.521 -33.941,-12.867 -44.364,-27.553c-3.035,-4.285 -5.376,-7.343 -6.588,-11.269Zm115.703,-5.328c-0.827,-0.221 -1.715,-0.1 -2.459,0.336c-2.18,1.274 -5.223,3.135 -9.129,5.582c-6.62,4.139 -13.47,7.536 -20.553,10.192c-7.482,2.795 -14.936,4.436 -22.364,4.923c-10.878,0.71 -22.136,-1.317 -33.775,-6.081c-5.796,-2.362 -9.247,-3.86 -10.353,-4.493c-3.494,-2.004 -10.694,-4.946 -14.011,-5.965c-0.125,-0.038 -0.255,-0.057 -0.386,-0.057c-0.723,0 -1.318,0.586 -1.318,1.297c0,0.078 0.007,0.155 0.021,0.231c0.353,1.98 1.612,3.625 2.718,5.281c4.855,7.204 8.651,12.041 11.388,14.512c8.204,7.389 17.909,12.763 29.117,16.122c6.823,2.038 13.458,2.884 19.905,2.536c7.694,-0.424 14.314,-1.478 19.858,-3.162c9.655,-2.918 19.494,-7.142 29.517,-12.67c1.163,-0.637 2.588,-0.615 3.73,0.058c8.223,4.864 17.07,8.072 27.693,11.443c3.224,1.027 6.772,1.864 10.647,2.513c6.345,1.073 9.964,1.602 10.858,1.587c14.706,-0.263 28.349,-4.278 40.929,-12.045c6.949,-4.286 13.074,-9.845 18.376,-16.678c1.553,-2.004 5.317,-7.795 3.529,-10.505c-0.432,-0.658 -1.293,-0.914 -2.023,-0.602c-13.565,5.86 -28.729,11.975 -44.235,15.554c-3.388,0.78 -6.705,1.197 -9.952,1.251c-6.039,0.093 -9.392,0.089 -10.059,-0.012c-15.795,-2.401 -30.411,-8.948 -43.846,-19.642c-0.596,-0.479 -1.87,-0.981 -3.823,-1.506Z" style="fill:#441f00;fill-rule:nonzero;"/>
    <path d="M542.596,809.573c1.567,0.525 2.59,1.027 3.068,1.506c10.781,10.694 22.508,17.241 35.183,19.642c0.535,0.101 3.226,0.105 8.072,0.012c2.605,-0.054 5.267,-0.471 7.986,-1.251c12.442,-3.579 24.611,-9.694 35.495,-15.554c0.586,-0.312 1.277,-0.056 1.624,0.602c1.435,2.71 -1.586,8.501 -2.832,10.505c-4.254,6.833 -9.17,12.392 -14.746,16.677c-10.094,7.768 -21.042,11.783 -32.842,12.045c-0.717,0.016 -3.622,-0.513 -8.713,-1.586c-3.109,-0.649 -5.957,-1.487 -8.544,-2.513c-8.524,-3.371 -15.623,-6.579 -22.222,-11.443c-0.916,-0.673 -2.059,-0.695 -2.992,-0.058c-8.043,5.528 -15.939,9.752 -23.686,12.67c-4.449,1.684 -9.761,2.737 -15.935,3.162c-5.173,0.348 -10.497,-0.498 -15.973,-2.536c-8.993,-3.359 -16.781,-8.733 -23.364,-16.122c-2.196,-2.471 -5.242,-7.308 -9.138,-14.512c-0.887,-1.656 -1.898,-3.301 -2.181,-5.281c-0.011,-0.076 -0.017,-0.154 -0.017,-0.231c0,-0.711 0.478,-1.297 1.058,-1.297c0.105,0 0.209,0.019 0.309,0.057c2.662,1.019 8.44,3.961 11.243,5.964c0.888,0.634 3.657,2.131 8.308,4.494c9.339,4.764 18.373,6.791 27.103,6.081c5.959,-0.487 11.941,-2.128 17.945,-4.923c5.683,-2.656 11.181,-6.053 16.492,-10.192c3.134,-2.447 5.576,-4.308 7.326,-5.582c0.597,-0.436 1.31,-0.557 1.973,-0.336Z" style="fill:#978800;fill-rule:nonzero;"/>
    <path d="M539.296,719.058c1.953,0.525 3.227,1.027 3.823,1.506c13.435,10.694 28.05,17.241 43.846,19.643c0.667,0.1 4.02,0.104 10.059,0.011c3.247,-0.054 6.564,-0.471 9.952,-1.251c15.506,-3.578 30.67,-9.694 44.234,-15.554c0.731,-0.312 1.591,-0.056 2.024,0.602c1.788,2.71 -1.977,8.501 -3.529,10.505c-5.302,6.833 -11.428,12.392 -18.376,16.678c-12.58,7.767 -26.223,11.782 -40.929,12.045c-0.894,0.015 -4.513,-0.514 -10.858,-1.587c-3.875,-0.649 -7.424,-1.486 -10.647,-2.513c-10.623,-3.371 -19.47,-6.579 -27.693,-11.443c-1.142,-0.673 -2.567,-0.695 -3.73,-0.058c-10.023,5.528 -19.862,9.752 -29.517,12.67c-5.545,1.684 -12.164,2.738 -19.858,3.162c-6.447,0.348 -13.082,-0.498 -19.905,-2.536c-11.208,-3.359 -20.914,-8.733 -29.117,-16.122c-2.737,-2.471 -6.533,-7.308 -11.388,-14.512c-1.106,-1.656 -2.365,-3.301 -2.718,-5.281c-0.014,-0.076 -0.021,-0.153 -0.021,-0.231c0,-0.711 0.595,-1.297 1.318,-1.297c0.131,0 0.261,0.019 0.386,0.057c3.317,1.019 10.517,3.961 14.011,5.965c1.106,0.633 4.557,2.131 10.353,4.493c11.639,4.764 22.897,6.791 33.775,6.081c7.427,-0.487 14.882,-2.127 22.364,-4.923c7.082,-2.656 13.933,-6.053 20.553,-10.191c3.906,-2.448 6.949,-4.309 9.129,-5.583c0.744,-0.436 1.632,-0.557 2.459,-0.336Z" style="fill:#978800;fill-rule:nonzero;"/>
    <path d="M321.304,738.125c-5.577,19.666 -12.118,39.031 -19.623,58.094c-1.028,2.618 -2.236,6.59 -3.624,11.918c-0.07,-2.509 0.341,-4.93 1.235,-7.262c8.588,-22.503 15.341,-41.266 21.494,-63.433c0.031,-0.102 0.128,-0.173 0.237,-0.173c0.126,0 0.233,0.096 0.245,0.219l0.036,0.637Z" style="fill:#441f00;fill-rule:nonzero;"/>
    <path d="M717.176,944.234c-2.777,-7.474 -6.392,-14.323 -10.847,-20.546c-0.391,-0.546 -0.841,-1.04 -1.341,-1.471c-5.38,-4.64 -11.055,-8.146 -17.023,-10.516c-8.643,-3.428 -18.168,-5.671 -28.576,-6.729c8.91,0.193 17.486,1.834 25.729,4.922c6.909,2.587 13.419,6.243 19.529,10.968c0.297,0.231 0.573,0.495 0.823,0.788c5.663,6.679 9.565,14.207 11.706,22.584Z" style="fill:#441f00;fill-rule:nonzero;"/>
    <path d="M659.389,904.972c10.408,1.058 19.933,3.301 28.576,6.729c5.968,2.37 11.643,5.876 17.023,10.516c0.5,0.431 0.95,0.925 1.341,1.471c4.455,6.223 8.07,13.072 10.847,20.546c0.008,8.532 -2.388,15.5 -7.188,20.905c-3.459,3.892 -6.906,0.88 -10.694,-1.946c-1.49,-1.111 -3.992,-3.269 -7.506,-6.474c-3.564,-3.254 -10.529,-5.594 -15.211,-3.567c-4.941,2.143 -6.741,6.555 -9.753,12.045c-0.627,1.127 -1.533,1.869 -2.717,2.224c-6.388,1.922 -9.447,-5.131 -11.153,-9.706c-1.373,-3.698 -2.475,-5.941 -3.306,-6.729c-5.682,-5.408 -13.67,-2.941 -19.223,1.402c-4.776,3.717 -4.553,10.076 -7.388,14.627c-0.207,0.343 -0.57,0.567 -0.976,0.603c-3.726,0.386 -6.192,0.343 -7.4,-0.128c-10.125,-3.984 -14.592,-11.049 -13.4,-21.194c1.851,-15.736 9.329,-26.974 22.435,-33.715c10.376,-5.343 22.274,-7.879 35.693,-7.609Z" style="fill:#ffdf00;fill-rule:nonzero;stroke:#000;stroke-width:1px;stroke-linejoin:round;stroke-miterlimit:2;"/>
    <path d="M465.9,917.677c7.051,5.837 11.827,13.161 14.329,21.971c0.376,2.996 0.522,5.949 0.435,8.86c-0.102,3.312 -0.815,6.13 -2.141,8.454c-2.863,5.019 -7.176,8.795 -12.941,11.327c-2.753,1.217 -5.823,-0.694 -7.917,-3.092c-3.329,-3.799 -4.294,-8.883 -7.812,-12.439c-5.588,-5.617 -14.458,-7.702 -19.387,0.232c-0.188,0.299 -0.33,0.623 -0.424,0.961c-1.471,5.212 -2.847,9.486 -7.506,11.86c-3.427,1.745 -6.525,1.413 -9.294,-0.996c-2.219,-1.93 -5.137,-5.335 -8.752,-10.215c-0.208,-0.281 -0.492,-0.505 -0.824,-0.649c-1.427,-0.594 -3.055,-0.737 -4.882,-0.428c-5.612,0.938 -9.117,1.297 -13.294,5.13c-3.945,3.629 -6.286,5.83 -7.023,6.602c-5.129,5.397 -9.141,-1.506 -11.035,-5.409c-2.667,-5.497 -3.455,-10.813 -2.365,-15.948c1.012,-4.76 4.682,-11.663 7.447,-16.272c2.459,-4.112 6.729,-7.806 10.635,-10.412c11.035,-7.343 26.035,-12.022 40.034,-11.79c7.867,0.139 15.063,1.077 21.588,2.814c7.169,1.915 14.211,5.061 21.129,9.439Z" style="fill:#ffdf00;fill-rule:nonzero;"/>
    <path d="M480.229,939.648c-2.502,-8.81 -7.278,-16.134 -14.329,-21.971c8.023,5.189 12.8,12.512 14.329,21.971Z" style="fill:#441f00;fill-rule:nonzero;"/>
</svg>
